<svg xmlns="http://www.w3.org/2000/svg" width="280.459" height="222.168" viewBox="0 0 280.459 222.168">
  <g id="Group_1665" data-name="Group 1665" transform="translate(0 0)">
    <path id="Path_26992" data-name="Path 26992" d="M626.4,138.329h-1.219V104.935a19.328,19.328,0,0,0-19.328-19.328H535.1a19.328,19.328,0,0,0-19.328,19.328V288.14A19.328,19.328,0,0,0,535.1,307.468h70.751a19.328,19.328,0,0,0,19.328-19.328V162.1H626.4Z" transform="translate(-401.222 -85.607)" fill="#e6e6e6"/>
    <path id="Path_26993" data-name="Path 26993" d="M633.231,116.536V299.471A14.435,14.435,0,0,1,618.8,313.906H547.707a14.435,14.435,0,0,1-14.435-14.434V116.536A14.435,14.435,0,0,1,547.706,102.1h8.625a6.861,6.861,0,0,0,6.35,9.447h40.533a6.861,6.861,0,0,0,6.35-9.447H618.8a14.435,14.435,0,0,1,14.434,14.434Z" transform="translate(-413.384 -97.073)" fill="#fff"/>
    <path id="Path_26994" data-name="Path 26994" d="M570.808,157.758a9.755,9.755,0,1,0,0,19.51h0a9.755,9.755,0,0,0,0-19.51Z" transform="translate(-432.696 -135.763)" fill="#e6e6e6"/>
    <path id="Path_26995" data-name="Path 26995" d="M703.044,205.636H651.83a2.439,2.439,0,1,1,0-4.878h51.214a2.439,2.439,0,1,1,0,4.878Z" transform="translate(-494.105 -165.654)" fill="#e6e6e6"/>
    <path id="Path_26996" data-name="Path 26996" d="M667.987,171.636H651.83a2.439,2.439,0,1,1,0-4.878h16.157a2.439,2.439,0,1,1,0,4.878Z" transform="translate(-494.105 -142.019)" fill="#e6e6e6"/>
    <path id="Path_26997" data-name="Path 26997" d="M570.808,291.758a9.755,9.755,0,1,0,0,19.51h0a9.755,9.755,0,0,0,0-19.51Z" transform="translate(-432.696 -228.913)" fill="#e6e6e6"/>
    <path id="Path_26998" data-name="Path 26998" d="M703.044,339.636H651.83a2.439,2.439,0,1,1,0-4.878h51.214a2.439,2.439,0,1,1,0,4.878Z" transform="translate(-494.105 -258.805)" fill="#e6e6e6"/>
    <path id="Path_26999" data-name="Path 26999" d="M667.987,305.636H651.83a2.439,2.439,0,0,1,0-4.878h16.157a2.439,2.439,0,1,1,0,4.878Z" transform="translate(-494.105 -235.17)" fill="#e6e6e6"/>
    <path id="Path_27000" data-name="Path 27000" d="M570.808,559.758a9.755,9.755,0,1,0,0,19.51h0a9.755,9.755,0,0,0,0-19.51Z" transform="translate(-432.696 -415.214)" fill="#e6e6e6"/>
    <path id="Path_27001" data-name="Path 27001" d="M703.044,607.636H651.83a2.439,2.439,0,1,1,0-4.878h51.214a2.439,2.439,0,1,1,0,4.878Z" transform="translate(-494.105 -445.106)" fill="#e6e6e6"/>
    <path id="Path_27002" data-name="Path 27002" d="M667.987,573.636H651.83a2.439,2.439,0,0,1,0-4.878h16.157a2.439,2.439,0,0,1,0,4.878Z" transform="translate(-494.105 -421.471)" fill="#e6e6e6"/>
    <path id="Path_27003" data-name="Path 27003" d="M570.808,693.758a9.755,9.755,0,1,0,0,19.51h0a9.755,9.755,0,0,0,0-19.51Z" transform="translate(-432.696 -508.365)" fill="#e6e6e6"/>
    <path id="Path_27004" data-name="Path 27004" d="M703.044,741.636H651.83a2.439,2.439,0,1,1,0-4.878h51.214a2.439,2.439,0,1,1,0,4.878Z" transform="translate(-494.105 -538.256)" fill="#e6e6e6"/>
    <path id="Path_27005" data-name="Path 27005" d="M667.987,707.636H651.83a2.439,2.439,0,0,1,0-4.878h16.157a2.439,2.439,0,0,1,0,4.878Z" transform="translate(-494.105 -514.621)" fill="#e6e6e6"/>
    <path id="Path_27006" data-name="Path 27006" d="M610.423,425.619H492.752a5.036,5.036,0,0,1-5.03-5.03v-37.8a5.036,5.036,0,0,1,5.03-5.03H610.423a5.036,5.036,0,0,1,5.03,5.03v37.8A5.036,5.036,0,0,1,610.423,425.619Z" transform="translate(-381.72 -288.697)" fill="#fff"/>
    <path id="Path_27007" data-name="Path 27007" d="M519.838,438.411a13.939,13.939,0,1,1,13.939-13.939A13.939,13.939,0,0,1,519.838,438.411Zm0-27.269a13.33,13.33,0,1,0,13.33,13.33,13.33,13.33,0,0,0-13.33-13.33Z" transform="translate(-394.356 -311.479)" fill="#3f3d56"/>
    <path id="Path_27008" data-name="Path 27008" d="M705.36,478.45H633.778a3.409,3.409,0,0,1,0-6.817H705.36a3.409,3.409,0,0,1,0,6.817Z" transform="translate(-480.882 -353.954)" fill="#f9a72e"/>
    <path id="Path_27009" data-name="Path 27009" d="M656.361,430.928H633.778a3.409,3.409,0,1,1,0-6.817h22.582a3.409,3.409,0,1,1,0,6.817Z" transform="translate(-480.882 -320.919)" fill="#f9a72e"/>
    <path id="Path_27010" data-name="Path 27010" d="M610.423,425.619H492.752a5.036,5.036,0,0,1-5.03-5.03v-37.8a5.036,5.036,0,0,1,5.03-5.03H610.423a5.036,5.036,0,0,1,5.03,5.03v37.8A5.036,5.036,0,0,1,610.423,425.619ZM492.752,378.063a4.731,4.731,0,0,0-4.725,4.725v37.8a4.731,4.731,0,0,0,4.725,4.725H610.423a4.73,4.73,0,0,0,4.725-4.725v-37.8a4.73,4.73,0,0,0-4.725-4.725Z" transform="translate(-381.72 -288.697)" fill="#3f3d56"/>
    <circle id="Ellipse_91" data-name="Ellipse 91" cx="5.687" cy="5.687" r="5.687" transform="translate(119.55 108.402)" fill="#2f2e41"/>
    <ellipse id="Ellipse_92" data-name="Ellipse 92" cx="2.353" cy="1.765" rx="2.353" ry="1.765" transform="translate(116.639 110.191) rotate(-45)" fill="#2f2e41"/>
    <ellipse id="Ellipse_93" data-name="Ellipse 93" cx="1.765" cy="2.353" rx="1.765" ry="2.353" transform="translate(126.143 108.992) rotate(-66.869)" fill="#2f2e41"/>
    <circle id="Ellipse_94" data-name="Ellipse 94" cx="4.826" cy="4.826" r="4.826" transform="translate(120.591 110.62)" fill="#ffb8b8"/>
    <path id="Path_27011" data-name="Path 27011" d="M534.774,448.458a6.564,6.564,0,0,0,3.751,1.159,4.021,4.021,0,0,1-1.594.656,13.235,13.235,0,0,0,5.406.03,3.5,3.5,0,0,0,1.132-.389,1.432,1.432,0,0,0,.7-.934,1.931,1.931,0,0,0-.958-1.708,7.067,7.067,0,0,0-5.939-1.187,3.253,3.253,0,0,0-1.759.994,1.6,1.6,0,0,0-.148,1.9Z" transform="translate(-414.428 -336.047)" fill="#2f2e41"/>
    <path id="Path_27012" data-name="Path 27012" d="M317.4,545.461a3.275,3.275,0,0,1,2.728-4.216L335.78,522.96l3.65,3.832-15.587,17.533a3.293,3.293,0,0,1-6.44,1.137Z" transform="translate(-263.221 -389.634)" fill="#a0616a"/>
    <path id="Path_27013" data-name="Path 27013" d="M361.308,515.117a1.37,1.37,0,0,1,.39-1.073l4.835-4.9a3.81,3.81,0,1,1,6.165,4.478l-3.215,6.114a1.372,1.372,0,0,1-2.024.469l-5.594-4.088A1.37,1.37,0,0,1,361.308,515.117Z" transform="translate(-293.84 -378.936)" fill="#f9a72e"/>
    <circle id="Ellipse_95" data-name="Ellipse 95" cx="7.487" cy="7.487" r="7.487" transform="translate(71.333 109.987)" fill="#a0616a"/>
    <path id="Path_27014" data-name="Path 27014" d="M378.361,526.87a1.356,1.356,0,0,1-.538-.934,119.8,119.8,0,0,0-2.257-12.868,8.076,8.076,0,0,1,15-5.6c2.945,5.526,3.17,13.113,3.13,16.119a1.369,1.369,0,0,1-1.144,1.331l-13.137,2.211a1.365,1.365,0,0,1-1.051-.255Z" transform="translate(-303.613 -375.891)" fill="#2f2e41"/>
    <path id="Path_27015" data-name="Path 27015" d="M433.216,495.266a3.208,3.208,0,0,0-.073.5l-13.1,7.555-3.183-1.832-3.393,4.442,5.32,3.792a2.439,2.439,0,0,0,2.926-.071L435.221,499a3.2,3.2,0,1,0-2-3.732Z" transform="translate(-330.105 -368.666)" fill="#a0616a"/>
    <path id="Path_27016" data-name="Path 27016" d="M404.94,514.365l-4.232,5.485a1.372,1.372,0,0,1-2.074.114l-4.791-4.975a3.81,3.81,0,1,1,4.672-6.019l6.009,3.36a1.372,1.372,0,0,1,.416,2.035Z" transform="translate(-315.435 -379.352)" fill="#f9a72e"/>
    <path id="Path_27017" data-name="Path 27017" d="M315.251,683.57h3.737l.88-14.369-4.618-.046Z" transform="translate(-219.147 -465.164)" fill="#a0616a"/>
    <path id="Path_27018" data-name="Path 27018" d="M452.125,798.045h7.36a4.69,4.69,0,0,1,4.69,4.69v.152H452.125Z" transform="translate(-356.975 -580.86)" fill="#2f2e41"/>
    <path id="Path_27019" data-name="Path 27019" d="M198.251,683.569h3.737l1.778-14.416H198.25Z" transform="translate(-137.814 -465.164)" fill="#a0616a"/>
    <path id="Path_27020" data-name="Path 27020" d="M335.125,798.045h7.36a4.69,4.69,0,0,1,4.69,4.69v.152H335.125Z" transform="translate(-275.642 -580.86)" fill="#2f2e41"/>
    <path id="Path_27021" data-name="Path 27021" d="M338.314,633.135l-4.638-.6a1.372,1.372,0,0,1-1.147-1.716l6.766-33.247a77.282,77.282,0,0,0,1.393-9.782,15.386,15.386,0,0,1,3.589-9.284,39.226,39.226,0,0,0,2.965-3.663L349.289,572l13.643-2.171.009.169a79.058,79.058,0,0,0,8.272,31.149,35.178,35.178,0,0,1,3.69,14.014l.773,15.075a1.374,1.374,0,0,1-.4,1.037,1.356,1.356,0,0,1-1.035.4l-4.434-.2a1.374,1.374,0,0,1-1.276-1.07l-3.7-16.516a1.076,1.076,0,0,0-.188-.407l-11.618-15.49a.762.762,0,0,0-1.329.205l-11.91,34.029a1.379,1.379,0,0,1-1.3.919A1.33,1.33,0,0,1,338.314,633.135Z" transform="translate(-273.804 -422.217)" fill="#2f2e41"/>
    <path id="Path_27022" data-name="Path 27022" d="M317.092,432.613a33.2,33.2,0,0,0,1.312-5.532,3.746,3.746,0,0,0-.989-3.024c-1.49-1.412-4.022-.739-5.58.6a12.522,12.522,0,0,0-3.8,7.835,81.632,81.632,0,0,0-.34,8.887,17.9,17.9,0,0,1-2.038,8.566c-1.512,2.553-4.316,4.512-7.275,4.295a5.12,5.12,0,0,1-3.205-1.358,3.716,3.716,0,0,1-1.116-3.227,7.243,7.243,0,0,0,1.51,8.506,9.012,9.012,0,0,0,8.69,1.822,12.011,12.011,0,0,0,6.864-5.925,18.192,18.192,0,0,0,1.914-9c-.059-2.381-.464-4.781-.062-7.129s1.871-4.731,4.188-5.284Z" transform="translate(-246.551 -320.336)" fill="#2f2e41"/>
    <path id="Path_27023" data-name="Path 27023" d="M378.8,444.522a2.963,2.963,0,0,0,3.265,1.91,3.828,3.828,0,0,0,2.89-2.656,5.468,5.468,0,0,0-.427-4.009,6.243,6.243,0,0,0-3.572-3.182,5.126,5.126,0,0,0-4.661.745,1.714,1.714,0,0,0-1.2-1.253,3.275,3.275,0,0,0-1.8.027,7.406,7.406,0,0,0-4.122,3,12.052,12.052,0,0,0-1.868,4.816,10.446,10.446,0,0,0,1.16,7.588c1.45,2.185,4.416,3.475,6.823,2.433a3.18,3.18,0,0,0-.617-2.2,6.724,6.724,0,0,1-1.057-2.078,1.678,1.678,0,0,1,.885-1.952c.632-.214,1.305.132,1.971.174a2.16,2.16,0,0,0,2.072-3.112Z" transform="translate(-297.858 -329.159)" fill="#2f2e41"/>
    <path id="Path_27024" data-name="Path 27024" d="M420.154,813H140.3a.3.3,0,0,1,0-.61h279.85a.3.3,0,0,1,0,.61Z" transform="translate(-140 -590.834)" fill="#ccc"/>
  </g>
</svg>
