<svg xmlns="http://www.w3.org/2000/svg" width="202.179" height="150.946" viewBox="0 0 202.179 150.946">
  <g id="OBJECTS" transform="translate(0 -0.3)">
    <g id="_Group_" data-name="&lt;Group&gt;" transform="translate(0 0.3)">
      <g id="_Group_2" data-name="&lt;Group&gt;" transform="translate(9.338 66.217)">
        <g id="_Group_3" data-name="&lt;Group&gt;" transform="translate(0 7.746)">
          <g id="_Group_4" data-name="&lt;Group&gt;" opacity="0.5">
            <path id="_Path_" data-name="&lt;Path&gt;" d="M278.714,861.429H107.333C99.157,848.548,96.517,832,101.675,817.57c7.978-22.349,33.627-36.8,56.872-32.024,20,4.1,36.947,20.293,57.363,20.114,12.627-.123,24.763-6.658,37.333-5.46,13.315,1.264,24.839,11.646,29.139,24.32C286.465,836.553,284.542,850.113,278.714,861.429Z" transform="translate(-99.028 -784.634)" fill="#e2edff"/>
          </g>
          <g id="_Group_5" data-name="&lt;Group&gt;" transform="translate(0.054 1.873)">
            <path id="_Path_2" data-name="&lt;Path&gt;" d="M129.719,844.53A49.027,49.027,0,0,0,170.24,804.6q-.189-.057-.377-.1a51.817,51.817,0,0,1-1.7,6.818,48.483,48.483,0,0,1-13.551,20.7,49.047,49.047,0,0,1-21.736,11.523,47.918,47.918,0,0,1-25.4-1.235,1.994,1.994,0,0,0-.217-.076q-.038.179-.066.368A48.5,48.5,0,0,0,129.719,844.53Z" transform="translate(-106.483 -804.5)" fill="#fff"/>
            <path id="_Path_3" data-name="&lt;Path&gt;" d="M109.558,1034.046a69.866,69.866,0,0,0-9.949,1.433c0-.132-.009-.264-.009-.4a73.216,73.216,0,0,1,12.2-1.547c13.607-.6,27.055,2.235,40.492,3.9,12.287,1.537,24.98,2.074,36.975-1.556a44.551,44.551,0,0,0,15.654-8.185,47.079,47.079,0,0,0,11.193-14.022,64.708,64.708,0,0,0,3.763-8.44l.406-.038a61.744,61.744,0,0,1-5.95,12.25,44.328,44.328,0,0,1-11.7,12.476,47.64,47.64,0,0,1-15.6,6.978c-12.212,3.121-24.914,2.245-37.286.585C136.443,1035.715,123.052,1033.066,109.558,1034.046Z" transform="translate(-99.6 -986.274)" fill="#fff"/>
            <path id="_Path_4" data-name="&lt;Path&gt;" d="M1654.715,1000.548q-.038.189-.085.368c-.453-.019-.905-.038-1.349-.066a77.373,77.373,0,0,1-16.663-2.886,45.617,45.617,0,0,1-12.853-5.781,24.74,24.74,0,0,1-8.892-9.854,20.048,20.048,0,0,1-1.075-13.6c1.858-7.1,6.724-12.5,12.825-16.031l.566.094c-7.271,4.1-12.9,11-13.664,19.633a19.377,19.377,0,0,0,3.687,13.117,29.7,29.7,0,0,0,10.543,8.553,56.026,56.026,0,0,0,13.777,4.724A78.619,78.619,0,0,0,1654.715,1000.548Z" transform="translate(-1470.368 -938.725)" fill="#fff"/>
            <path id="_Path_5" data-name="&lt;Path&gt;" d="M815.724,865.4c-.952,3.866-1.622,8.176.038,11.948a8.313,8.313,0,0,0,8.449,5.234c3.8-.349,7.186-2.584,10.194-4.781a84.841,84.841,0,0,0,15.7-15q.2.057.4.122-1.415,1.754-2.923,3.433a84.858,84.858,0,0,1-8.016,7.827,55.7,55.7,0,0,1-9.062,6.629c-2.98,1.66-6.648,2.923-10.024,1.707a9.563,9.563,0,0,1-5.7-6.875c-.971-3.885-.085-8.025.962-11.8a53.507,53.507,0,0,1,3.914-10c.651-1.282,1.358-2.527,2.112-3.753q.17.075.349.16a52.5,52.5,0,0,0-6.394,15.145Z" transform="translate(-746.96 -845.8)" fill="#fff"/>
            <path id="_Path_6" data-name="&lt;Path&gt;" d="M1819.017,1141.216a9.468,9.468,0,0,1-2.744-8.138,7.835,7.835,0,0,1,5.2-6.337c3.631-1.16,7.544-.019,11.2-1.2a11.345,11.345,0,0,0,1.2-.443q.1.16.2.33a14.046,14.046,0,0,1-3.753,1.028,53.466,53.466,0,0,1-5.356.151,9.143,9.143,0,0,0-5.6,1.669,7.757,7.757,0,0,0-2.5,3.895,9.115,9.115,0,0,0,2.819,9.157,14.051,14.051,0,0,0,10.373,3.4,25.075,25.075,0,0,0,9.524-2.433q.009.17.028.339a23.81,23.81,0,0,1-11.42,2.471,13.694,13.694,0,0,1-9.166-3.895Z" transform="translate(-1654.285 -1094.867)" fill="#fff"/>
            <path id="_Path_7" data-name="&lt;Path&gt;" d="M1201.942,1275.328h-.406q-2.8-6.667-5.592-13.325-2.362-5.63-4.724-11.25c-1.264-3-2.725-6.365-5.809-7.893-3.367-1.679-7.4-.726-10.411,1.245a28.928,28.928,0,0,0-7.308,7.572,47.087,47.087,0,0,0-8.506,23.65h-.387a47.52,47.52,0,0,1,10.6-26.489c2.178-2.612,4.724-5.1,7.931-6.384,3.027-1.207,6.7-1.207,9.4.764,2.565,1.877,3.81,4.951,5,7.78q2.546,6.054,5.083,12.118,2.565,6.1,5.13,12.212Z" transform="translate(-1058.917 -1200.407)" fill="#fff"/>
          </g>
        </g>
        <g id="_Group_6" data-name="&lt;Group&gt;" transform="translate(100.512)" opacity="0.5">
          <path id="_Path_8" data-name="&lt;Path&gt;" d="M1193.942,704.2c3.961.453,6.167,2.386,6.441,6.526.849,12.947-17.2,14.588-25.914,11.467-4.621-1.66-9.609-5.243-9.572-10.665.047-6.988,7.591-10.59,13.645-8.393a19.764,19.764,0,0,0,7.751,1.056A50.476,50.476,0,0,1,1193.942,704.2Z" transform="translate(-1164.898 -702.494)" fill="#e2edff"/>
        </g>
      </g>
      <g id="_Group_7" data-name="&lt;Group&gt;" transform="translate(10.948 0)">
        <g id="_Group_8" data-name="&lt;Group&gt;" transform="translate(147.07 26.215)">
          <g id="_Group_9" data-name="&lt;Group&gt;">
            <path id="_Path_9" data-name="&lt;Path&gt;" d="M1681.528,284.288a13.435,13.435,0,0,1-5.828-4.338l.773-1.65c1.924,2.537,2.556,3.913,4.951,3.715Z" transform="translate(-1675.7 -278.3)" fill="#ffb900"/>
          </g>
        </g>
        <g id="_Group_10" data-name="&lt;Group&gt;" transform="translate(176.954 59.984)">
          <g id="_Group_11" data-name="&lt;Group&gt;">
            <path id="_Path_10" data-name="&lt;Path&gt;" d="M1995.815,645.161a17.86,17.86,0,0,1-3.215-7.761l1.509-1c.519,3.574.424,5.243,2.706,6.62Z" transform="translate(-1992.6 -636.4)" fill="#007bff"/>
          </g>
        </g>
        <g id="_Group_12" data-name="&lt;Group&gt;" transform="translate(113.848 35.891)">
          <g id="_Group_13" data-name="&lt;Group&gt;">
            <path id="_Path_11" data-name="&lt;Path&gt;" d="M1330.538,383.418a12,12,0,0,1-7.129-.575l-.01-1.943c2.829,1.2,3.989,2.084,6.073.528Z" transform="translate(-1323.4 -380.9)" fill="#14cca1"/>
          </g>
        </g>
        <g id="_Group_14" data-name="&lt;Group&gt;" transform="translate(51.629 29.95)">
          <g id="_Group_15" data-name="&lt;Group&gt;">
            <path id="_Path_12" data-name="&lt;Path&gt;" d="M668.664,318.475a10.266,10.266,0,0,1-4.291,3.451l-.773-1.1c2.084-.82,3.1-.924,3.678-2.923Z" transform="translate(-663.6 -317.9)" fill="#ff5c33"/>
          </g>
        </g>
        <g id="_Group_16" data-name="&lt;Group&gt;" transform="translate(8.176 75.459)">
          <g id="_Group_17" data-name="&lt;Group&gt;">
            <path id="_Path_13" data-name="&lt;Path&gt;" d="M210.184,804.489a12.986,12.986,0,0,1-7.384-2l.509-1.99c2.669,1.792,3.659,2.923,6.28,1.735Z" transform="translate(-202.8 -800.5)" fill="#007bff"/>
          </g>
        </g>
        <g id="_Group_18" data-name="&lt;Group&gt;" transform="translate(16.342 23.839)">
          <g id="_Group_19" data-name="&lt;Group&gt;">
            <path id="_Path_14" data-name="&lt;Path&gt;" d="M293.738,260.559a12.861,12.861,0,0,1-4.338-6.092l1.462-1.367c.99,3.093,1.094,4.64,3.668,5.205Z" transform="translate(-289.4 -253.1)" fill="#14cca1"/>
          </g>
        </g>
        <g id="_Group_20" data-name="&lt;Group&gt;" transform="translate(25.244 46.839)">
          <g id="_Group_21" data-name="&lt;Group&gt;" transform="translate(0)">
            <path id="_Path_15" data-name="&lt;Path&gt;" d="M392.061,498.641a13.728,13.728,0,0,1-7.648,2.376l-.613-2.037c3.338.075,4.828.519,6.535-1.98Z" transform="translate(-383.8 -497)" fill="#007bff"/>
          </g>
        </g>
        <g id="_Group_22" data-name="&lt;Group&gt;" transform="translate(60.324)">
          <g id="_Group_23" data-name="&lt;Group&gt;">
            <path id="_Path_16" data-name="&lt;Path&gt;" d="M763.759,2.026a13.047,13.047,0,0,1-7.5,1.66l-.462-2c3.206.339,4.611.886,6.394-1.386Z" transform="translate(-755.8 -0.3)" fill="#ffb900"/>
          </g>
        </g>
        <g id="_Group_24" data-name="&lt;Group&gt;" transform="translate(98.025 0.783)">
          <path id="_Path_17" data-name="&lt;Path&gt;" d="M1160.381,14.475a12.31,12.31,0,0,1-4.781-4.508l.821-1.367c1.48,2.471,1.924,3.763,4.064,3.866Z" transform="translate(-1155.6 -8.6)" fill="#14cca1"/>
        </g>
        <g id="_Group_25" data-name="&lt;Group&gt;" transform="translate(133.765 7.808)">
          <g id="_Group_26" data-name="&lt;Group&gt;">
            <path id="_Path_18" data-name="&lt;Path&gt;" d="M1534.6,87.721c2.583-.349,2.791-1.792,3.97-4.621l1.358,1.377a12.013,12.013,0,0,1-4.687,5.4Z" transform="translate(-1534.6 -83.1)" fill="#ff5c33"/>
          </g>
        </g>
        <g id="_Group_27" data-name="&lt;Group&gt;" transform="translate(56.137 77.816)" opacity="0.8">
          <g id="_Group_28" data-name="&lt;Group&gt;">
            <path id="_Path_19" data-name="&lt;Path&gt;" d="M716.53,832.572a14.771,14.771,0,0,1-5.13-5.592l1.047-1.48c1.509,2.952,1.914,4.47,4.347,4.79Z" transform="translate(-711.4 -825.5)" fill="#ff5c33"/>
          </g>
        </g>
        <g id="_Group_29" data-name="&lt;Group&gt;" transform="translate(129.691 64.784)">
          <g id="_Group_30" data-name="&lt;Group&gt;">
            <path id="_Path_20" data-name="&lt;Path&gt;" d="M1497.058,687.328a16.069,16.069,0,0,1-4.253,6.658l-1.405-1.037c2.386-2.112,3.65-2.772,3.64-5.649Z" transform="translate(-1491.4 -687.3)" fill="#ff5c33"/>
          </g>
        </g>
        <path id="_Path_21" data-name="&lt;Path&gt;" d="M567.886,191.243a.943.943,0,1,1-.943-.943A.94.94,0,0,1,567.886,191.243Z" transform="translate(-523.574 -172.383)" fill="#ff5c33"/>
        <path id="_Path_22" data-name="&lt;Path&gt;" d="M1362.586,191.243a.943.943,0,1,1-.943-.943A.94.94,0,0,1,1362.586,191.243Z" transform="translate(-1243.334 -172.383)" fill="#ffb900"/>
        <path id="_Path_23" data-name="&lt;Path&gt;" d="M1623.886,495.943a.943.943,0,1,1-.943-.943A.946.946,0,0,1,1623.886,495.943Z" transform="translate(-1479.994 -448.35)" fill="#ff5c33"/>
        <path id="_Path_24" data-name="&lt;Path&gt;" d="M583.886,597.243a.943.943,0,1,1-.943-.943A.94.94,0,0,1,583.886,597.243Z" transform="translate(-538.066 -540.097)" fill="#14cca1"/>
        <path id="_Path_25" data-name="&lt;Path&gt;" d="M119.872,500.586l-1.886,1.886-1.886-1.886,1.886-1.886Z" transform="translate(-116.1 -451.701)" fill="#ffb900"/>
        <path id="_Path_26" data-name="&lt;Path&gt;" d="M1856.572,467.786l-1.886,1.886-1.886-1.886,1.886-1.886Z" transform="translate(-1689.029 -421.994)" fill="#14cca1"/>
      </g>
      <g id="_Group_31" data-name="&lt;Group&gt;" transform="translate(68.769 47.546)">
        <path id="_Path_27" data-name="&lt;Path&gt;" d="M1030.89,1139.982,1015,1140V1136.3a2.37,2.37,0,0,1,2.367-2.376l11.146-.019a2.385,2.385,0,0,1,2.376,2.376Z" transform="translate(-988.055 -1074.547)" fill="#446e61"/>
        <path id="_Path_28" data-name="&lt;Path&gt;" d="M1054.979,981.7H1044.7V963.5h10.279Z" transform="translate(-1014.954 -920.216)" fill="#446e61"/>
        <path id="_Path_29" data-name="&lt;Path&gt;" d="M1044.7,971.365V963.5h10.279l-.01,3.819Z" transform="translate(-1014.954 -920.216)" fill="#446e61"/>
        <path id="_Path_30" data-name="&lt;Path&gt;" d="M1280.36,550.424l-.66-2.159c12.042-3.65,17.144-11.175,15.607-23.019a.35.35,0,0,0-.3-.047l-1.66.443a1.364,1.364,0,0,0-1.1,1.235v2.565a2.927,2.927,0,0,1-3,2.838c-1.735.038-4.7.094-5.092.094v-2.263c.264,0,2.159-.038,5.054-.094.415-.009.773-.264.773-.575v-2.565a3.577,3.577,0,0,1,2.772-3.414l1.66-.453a2.593,2.593,0,0,1,2.122.339,2.3,2.3,0,0,1,1.018,1.6c.8,6.224-.1,11.486-2.7,15.616C1292.044,545.049,1287.168,548.368,1280.36,550.424Z" transform="translate(-1227.794 -521.181)" fill="#446e61"/>
        <path id="_Path_31" data-name="&lt;Path&gt;" d="M746.74,553.424c-6.808-2.056-11.684-5.375-14.494-9.854-2.593-4.13-3.508-9.392-2.7-15.616a2.3,2.3,0,0,1,1.018-1.6,2.581,2.581,0,0,1,2.122-.339l1.65.453a3.576,3.576,0,0,1,2.782,3.414v2.565c0,.311.358.566.773.575,2.9.057,4.781.094,5.054.094v2.263c-.4,0-3.366-.057-5.092-.094a2.928,2.928,0,0,1-3-2.839v-2.565a1.364,1.364,0,0,0-1.1-1.235l-1.66-.443a.282.282,0,0,0-.3.066c-1.537,11.825,3.564,19.35,15.607,23Z" transform="translate(-729.262 -523.898)" fill="#446e61"/>
        <path id="_Path_32" data-name="&lt;Path&gt;" d="M904.438,508.791,901.976,539.5a13.138,13.138,0,0,1-13.1,12.089H874.742a13.142,13.142,0,0,1-13.1-12.089l-1.273-15.937-1.188-14.777a3.979,3.979,0,0,1,3.97-4.291h37.315a3.985,3.985,0,0,1,3.97,4.291Z" transform="translate(-846.92 -504.5)" fill="#446e61"/>
        <path id="_Path_33" data-name="&lt;Path&gt;" d="M908.752,731.737a13.084,13.084,0,0,1-8.346,2.989H886.271a13.142,13.142,0,0,1-13.1-12.089L871.9,706.7C880.849,718.016,895.126,727.719,908.752,731.737Z" transform="translate(-858.449 -687.632)" fill="#115e46"/>
        <path id="_Path_34" data-name="&lt;Path&gt;" d="M1039.03,1002.277H1024.3v-.377h14.73Z" transform="translate(-996.478 -954.995)" fill="#001f40"/>
        <path id="_Path_35" data-name="&lt;Path&gt;" d="M1042.835,1132.477H1040.1v-.377h2.735Z" transform="translate(-1010.788 -1072.917)" fill="#001f40"/>
        <path id="_Path_36" data-name="&lt;Path&gt;" d="M1132.835,1132.477H1130.1v-.377h2.735Z" transform="translate(-1092.301 -1072.917)" fill="#001f40"/>
        <path id="_Path_37" data-name="&lt;Path&gt;" d="M998.992,1194.707l-23.283.028-.01-6.158a4.163,4.163,0,0,1,4.149-4.159l14.975-.019a4.151,4.151,0,0,1,4.159,4.149Z" transform="translate(-952.461 -1120.285)" fill="#446e61"/>
        <path id="_Path_38" data-name="&lt;Path&gt;" d="M1030.971,1183.377H1015.1V1183h15.871Z" transform="translate(-988.145 -1119.017)" fill="#e8950c"/>
        <path id="_Path_39" data-name="&lt;Path&gt;" d="M1209.749,606.055c0,2.235-.924,4.055-2.075,4.055s-2.075-1.82-2.075-4.055.934-4.055,2.075-4.055S1209.749,603.811,1209.749,606.055Z" transform="translate(-1160.681 -592.806)" fill="#fff" opacity="0.6"/>
      </g>
      <g id="_Group_32" data-name="&lt;Group&gt;" transform="translate(46.386 121.496)">
        <path id="_Path_40" data-name="&lt;Path&gt;" d="M608.135,1506.4H493.9v-9.7H608.135Z" transform="translate(-493.711 -1477.085)" fill="#fff"/>
        <path id="_Path_41" data-name="&lt;Path&gt;" d="M770.587,1403.413H694.1V1393.7h76.487Z" transform="translate(-675.033 -1383.798)" fill="#fff"/>
        <path id="_Path_42" data-name="&lt;Path&gt;" d="M884.426,1300.413H834.4V1290.7h50.026Z" transform="translate(-802.102 -1290.511)" fill="#fff"/>
        <path id="_Path_43" data-name="&lt;Path&gt;" d="M857.478,1496.7v9.7H801.2v-9.7Z" transform="translate(-772.033 -1477.085)" fill="#85c3b0"/>
        <path id="_Path_44" data-name="&lt;Path&gt;" d="M927.268,1393.7v9.713H887.2V1393.7Z" transform="translate(-849.923 -1383.798)" fill="#85c3b0"/>
        <path id="_Path_45" data-name="&lt;Path&gt;" d="M998.752,1290.7v9.713H975.3V1290.7Z" transform="translate(-929.715 -1290.511)" fill="#85c3b0"/>
        <path id="_Path_46" data-name="&lt;Path&gt;" d="M847.687,1369.6v2.263H834.4V1369.6Z" transform="translate(-802.102 -1361.971)" fill="#003e80" opacity="0.1"/>
        <path id="_Path_47" data-name="&lt;Path&gt;" d="M1237.287,1369.6v2.263H1224V1369.6Z" transform="translate(-1154.963 -1361.971)" fill="#003e80" opacity="0.1"/>
        <path id="_Path_48" data-name="&lt;Path&gt;" d="M998.752,1369.6v2.263H975.3V1369.6Z" transform="translate(-929.715 -1361.971)" fill="#4a191b" opacity="0.3"/>
        <path id="_Path_49" data-name="&lt;Path&gt;" d="M712.309,1472.5v2.263H694.1V1472.5Z" transform="translate(-675.033 -1455.167)" fill="#003e80" opacity="0.1"/>
        <path id="_Path_50" data-name="&lt;Path&gt;" d="M1330.309,1472.5v2.263H1312.1V1472.5Z" transform="translate(-1234.755 -1455.167)" fill="#003e80" opacity="0.1"/>
        <path id="_Path_51" data-name="&lt;Path&gt;" d="M927.268,1472.5v2.263H887.2V1472.5Z" transform="translate(-849.923 -1455.167)" fill="#4a191b" opacity="0.3"/>
        <path id="_Path_52" data-name="&lt;Path&gt;" d="M522.878,1575.6v2.263H493.9V1575.6Z" transform="translate(-493.711 -1548.545)" fill="#003e80" opacity="0.1"/>
        <path id="_Path_53" data-name="&lt;Path&gt;" d="M1426.988,1575.6v2.263H1398V1575.6Z" transform="translate(-1312.555 -1548.545)" fill="#003e80" opacity="0.1"/>
        <path id="_Path_54" data-name="&lt;Path&gt;" d="M857.478,1575.6v2.263H801.2V1575.6Z" transform="translate(-772.033 -1548.545)" fill="#4a191b" opacity="0.3"/>
        <path id="_Path_55" data-name="&lt;Path&gt;" d="M492.277,1318.018H491.9v-9.892l18.879-.019v-9.694l13.23-.01v-9.7H537.39v.377h-13v9.7l-13.23.009v9.694l-18.879.019Z" transform="translate(-491.9 -1288.7)" fill="#95beff"/>
        <path id="_Path_56" data-name="&lt;Path&gt;" d="M1268.4,1318.018h-.377V1308.5l-18.869-.019v-9.694l-13.23-.009v-9.7H1222.7v-.377h13.6v9.7l13.23.01v9.694l18.87.019Z" transform="translate(-1153.786 -1288.7)" fill="#95beff"/>
      </g>
      <g id="_Group_33" data-name="&lt;Group&gt;" transform="translate(82.512 13.334)">
        <g id="_Group_34" data-name="&lt;Group&gt;" transform="translate(11.778 24.443)">
          <g id="_Group_35" data-name="&lt;Group&gt;" transform="translate(5.611 18.219)">
            <path id="_Path_57" data-name="&lt;Path&gt;" d="M1063.587,594.732l-.538,2.688,1.839,3.065-5.488-1.726,1.405-4.658Z" transform="translate(-1059.4 -594.1)" fill="#001f40"/>
            <path id="_Path_58" data-name="&lt;Path&gt;" d="M1085.67,628.386l-.17-.339,1.113-.547.16.339Z" transform="translate(-1083.039 -624.35)" fill="#fff"/>
          </g>
          <path id="_Path_59" data-name="&lt;Path&gt;" d="M1005.945,404.559l3.857.368a4.318,4.318,0,0,1,2.206.82,3.991,3.991,0,0,1,1.443,3.942c-.066.4-.151.754-.207,1.066l-3.168,11.2-4.79-2.556,2.141-8.346-4.866-.151-2.659-5.564.962-4.442Z" transform="translate(-999.9 -400.9)" fill="#007bff"/>
        </g>
        <g id="_Group_36" data-name="&lt;Group&gt;" transform="translate(8.701 24.443)">
          <g id="_Group_37" data-name="&lt;Group&gt;" transform="translate(7.254 23.236)">
            <path id="_Path_60" data-name="&lt;Path&gt;" d="M1048.443,647.79l-.4,2.933,2.178,3.169-6.026-1.49,1.2-5.1Z" transform="translate(-1044.2 -647.3)" fill="#001f40"/>
            <path id="_Path_61" data-name="&lt;Path&gt;" d="M1071.888,682.79l-.189-.321,1.16-.67.189.33Z" transform="translate(-1069.106 -678.547)" fill="#fff"/>
          </g>
          <path id="_Path_62" data-name="&lt;Path&gt;" d="M969.366,410.933a2.223,2.223,0,0,1-2.084-2.471l.566-5.3,3.461-2.263.585,4.074,2.291,1.264c2.131,1.066,2.188,1.924,2.452,3.31l2.716,15.993-4.639.528-4.14-15.088Z" transform="translate(-967.27 -400.9)" fill="#007bff"/>
        </g>
        <path id="_Path_63" data-name="&lt;Path&gt;" d="M973.447,323.052l-6.884.783a1.4,1.4,0,0,1-1.556-1.226L963.8,312.4,969.543,311l6.1.915-1.122,10.062A1.223,1.223,0,0,1,973.447,323.052Z" transform="translate(-955.426 -295.035)" fill="#fff"/>
        <g id="_Group_38" data-name="&lt;Group&gt;" transform="translate(0 1.575)">
          <path id="_Path_64" data-name="&lt;Path&gt;" d="M878.912,162.689l-3.121,1.188A27.811,27.811,0,0,1,875,160.19c-.009-1.188.641-.877.641-.877.17-.641.82-.339.82-.339s-.1-.547.245-.575,1.264,2.169,1.264,2.169.424-1.009.839-1.1-.123,2.537-.123,2.537Z" transform="translate(-874.999 -158.399)" fill="#ffba9a"/>
          <path id="_Path_65" data-name="&lt;Path&gt;" d="M894.8,216.2l-2.706,3.838-6.262-7.459a3.863,3.863,0,0,1-.839-1.528c-.358-1.292-1.047-3.81-1.594-5.96l3.121-1.188,2.178,6.045Z" transform="translate(-882.608 -199.609)" fill="#003e80"/>
          <g id="_Group_39" data-name="&lt;Group&gt;" transform="translate(0.198 0.556)">
            <path id="_Path_66" data-name="&lt;Path&gt;" d="M900.036,184.137a.663.663,0,0,1,.076-1.037l.066.066a.584.584,0,0,0-.075.915Z" transform="translate(-897.679 -181.327)" fill="#974245"/>
            <path id="_Path_67" data-name="&lt;Path&gt;" d="M889.553,165.611l-.453-1.282.094-.028.443,1.282Z" transform="translate(-887.968 -164.3)" fill="#974245"/>
            <path id="_Path_68" data-name="&lt;Path&gt;" d="M883,168.7l-.4-1.169.094-.028.387,1.169Z" transform="translate(-882.081 -167.198)" fill="#974245"/>
            <path id="_Path_69" data-name="&lt;Path&gt;" d="M877.59,170.486l-.49-1.358.085-.028.5,1.348Z" transform="translate(-877.1 -168.647)" fill="#974245"/>
          </g>
        </g>
        <g id="_Group_40" data-name="&lt;Group&gt;" transform="translate(17.031)">
          <path id="_Path_70" data-name="&lt;Path&gt;" d="M1132.188,147.122l-3.168-1.113.2-.811s-.7-2.593-.283-2.527.915,1.056.915,1.056.726-2.027,1.075-2.027a.305.305,0,0,1,.321.339s.509-.339.67.179c0,0,.8-.245.877.943A30.8,30.8,0,0,1,1132.188,147.122Z" transform="translate(-1121.9 -141.7)" fill="#ffba9a"/>
          <path id="_Path_71" data-name="&lt;Path&gt;" d="M1065.888,188.513c-.406,2.131-.905,4.545-1.169,5.809a3.78,3.78,0,0,1-.745,1.584l-5.356,7.865-3.018-3.14,5.281-7.044,1.839-6.186Z" transform="translate(-1055.6 -183.09)" fill="#003e80"/>
          <g id="_Group_41" data-name="&lt;Group&gt;" transform="translate(8.223 0.283)">
            <path id="_Path_72" data-name="&lt;Path&gt;" d="M1143.045,165.828l-.075-.047a.588.588,0,0,0-.17-.905l.057-.075A.663.663,0,0,1,1143.045,165.828Z" transform="translate(-1142.8 -162.905)" fill="#974245"/>
            <path id="_Path_73" data-name="&lt;Path&gt;" d="M1150.994,146.048l-.094-.019.311-1.33.085.019Z" transform="translate(-1150.136 -144.7)" fill="#974245"/>
            <path id="_Path_74" data-name="&lt;Path&gt;" d="M1158.285,148.435l-.085-.019.264-1.216.094.019Z" transform="translate(-1156.747 -146.964)" fill="#974245"/>
            <path id="_Path_75" data-name="&lt;Path&gt;" d="M1163.094,149.624,1163,149.6l.349-1.4.085.019Z" transform="translate(-1161.095 -147.87)" fill="#974245"/>
          </g>
        </g>
        <g id="_Group_42" data-name="&lt;Group&gt;" transform="translate(11.707 9.736)">
          <path id="_Path_76" data-name="&lt;Path&gt;" d="M1012.4,297.119a1.2,1.2,0,0,1-1.2-1.2V293.8h2.386v2.122A1.191,1.191,0,0,1,1012.4,297.119Z" transform="translate(-1010.063 -289.193)" fill="#ffba9a"/>
          <path id="_Path_77" data-name="&lt;Path&gt;" d="M1013.467,297a1.2,1.2,0,0,1-2.367,0Z" transform="translate(-1009.972 -292.091)" fill="#001f40"/>
          <path id="_Path_78" data-name="&lt;Path&gt;" d="M1008.727,261.056a1.784,1.784,0,1,1-1.763-2.056A1.925,1.925,0,0,1,1008.727,261.056Z" transform="translate(-1004.629 -257.675)" fill="#ffba9a"/>
          <path id="_Path_79" data-name="&lt;Path&gt;" d="M1000.818,248.064c-.4-2.32.424-3.649,3.725-2.914l-.4.2c.8.311,1.037,1.66.773,3.046l-.415.028a2.519,2.519,0,0,0-.952-1.829l-1.216.019a1.91,1.91,0,0,0-1.047,1.754Z" transform="translate(-1000.577 -244.947)" fill="#001f40"/>
          <g id="_Group_43" data-name="&lt;Group&gt;" transform="translate(0 2.954)">
            <path id="_Path_80" data-name="&lt;Path&gt;" d="M1000.082,276.6a.526.526,0,0,1-.2.707.56.56,0,0,1-.481-1A.53.53,0,0,1,1000.082,276.6Z" transform="translate(-999.143 -276.27)" fill="#ffba9a"/>
            <path id="_Path_81" data-name="&lt;Path&gt;" d="M1002.22,279.605a.5.5,0,0,0-.321-.321l.028-.085a.58.58,0,0,1,.377.377Z" transform="translate(-1001.64 -278.924)" fill="#001f40"/>
          </g>
          <g id="_Group_44" data-name="&lt;Group&gt;" transform="translate(3.725 2.954)">
            <path id="_Path_82" data-name="&lt;Path&gt;" d="M1039.374,276.31a.558.558,0,1,1-.67.292A.52.52,0,0,1,1039.374,276.31Z" transform="translate(-1038.643 -276.27)" fill="#ffba9a"/>
            <path id="_Path_83" data-name="&lt;Path&gt;" d="M1042.275,279.605l-.076-.028a.587.587,0,0,1,.368-.377l.028.085A.494.494,0,0,0,1042.275,279.605Z" transform="translate(-1041.864 -278.924)" fill="#001f40"/>
          </g>
        </g>
        <path id="_Path_84" data-name="&lt;Path&gt;" d="M957.464,314.3c1.226,4.14.811,10.448-.585,15.173l-4.979.773,1.122-14.852Z" transform="translate(-944.648 -298.024)" fill="#003e80"/>
        <path id="_Path_85" data-name="&lt;Path&gt;" d="M1041.4,313.545l1.037,12.74-3.008,1.537c-1.763-3.319-2.65-10.232-3.027-15.022Z" transform="translate(-1021.18 -296.665)" fill="#003e80"/>
        <path id="_Path_86" data-name="&lt;Path&gt;" d="M1035.891,470.573c-.028-.16-2.621-16.059-3.036-17.408-.405-1.311-3.036-2.386-3.055-2.4l.066-.17c.113.038,2.735,1.113,3.168,2.508.424,1.358,2.942,16.776,3.046,17.436Z" transform="translate(-1015.202 -421.471)" fill="#001f40"/>
        <path id="_Path_87" data-name="&lt;Path&gt;" d="M999.586,502.358l-1.886-6.6.179-.057,1.886,6.6Z" transform="translate(-986.129 -462.318)" fill="#001f40"/>
        <path id="_Path_88" data-name="&lt;Path&gt;" d="M1080.986,507.921l-1.386-.132.019-.189,1.386.132Z" transform="translate(-1060.306 -473.096)" fill="#001f40"/>
      </g>
      <g id="_Group_45" data-name="&lt;Group&gt;" transform="translate(34.371 70.914)">
        <g id="_Group_46" data-name="&lt;Group&gt;" transform="translate(0 18.669)">
          <g id="_Group_47" data-name="&lt;Group&gt;" transform="translate(4.094 24.436)">
            <g id="_Group_48" data-name="&lt;Group&gt;" transform="translate(0 0)">
              <g id="_Group_49" data-name="&lt;Group&gt;">
                <g id="_Group_50" data-name="&lt;Group&gt;" transform="translate(0.189 32.307)">
                  <path id="_Path_89" data-name="&lt;Path&gt;" d="M413.729,1552l-.179,2.216,2.348,2.348h-6l.707-4.46Z" transform="translate(-409.9 -1552)" fill="#001f40"/>
                  <path id="_Path_90" data-name="&lt;Path&gt;" d="M435.1,1574.728l-.2-.321,1.2-.707.189.33Z" transform="translate(-432.543 -1571.654)" fill="#fff"/>
                </g>
                <path id="_Path_91" data-name="&lt;Path&gt;" d="M421.177,1209.4c-.085.528-.17,1.056-.264,1.575q-.255,1.481-.519,2.923-.948,5.205-2.065,10.081h0c-1.5,6.563-3.206,12.7-5.092,18.5H407.9c2.15-10.25,4.225-20.388,4.894-28.233.1-1.151.17-2.263.207-3.31Z" transform="translate(-407.9 -1209.4)" fill="#14cca1"/>
              </g>
              <g id="_Group_51" data-name="&lt;Group&gt;" transform="translate(8.421 1.537)">
                <g id="_Group_52" data-name="&lt;Group&gt;" transform="translate(4.385 30.666)">
                  <path id="_Path_92" data-name="&lt;Path&gt;" d="M547.745,1551l-.189,2.216,2.537,2.348-6.394-.085.255-4.583Z" transform="translate(-543.7 -1550.9)" fill="#001f40"/>
                  <path id="_Path_93" data-name="&lt;Path&gt;" d="M570.179,1574.728l-.179-.33,1.282-.7.179.33Z" transform="translate(-567.52 -1571.55)" fill="#fff"/>
                </g>
                <path id="_Path_94" data-name="&lt;Path&gt;" d="M506.328,1257.121h-5.573c-.4-6.337-.868-12.523-1.547-18.379h0c-.405-3.442-.868-6.761-1.433-9.92q-.273-1.528-.575-3.008l4.592-.075,2.282-.038c.151.933.292,1.876.424,2.82A237.665,237.665,0,0,1,506.328,1257.121Z" transform="translate(-497.2 -1225.7)" fill="#14cca1"/>
              </g>
            </g>
            <path id="_Path_95" data-name="&lt;Path&gt;" d="M470.626,1213.756l-3.225.141-3.5.16-4.1.188c.1-1.151.17-2.263.207-3.31l8.176-1.537c-.085.528-.17,1.056-.264,1.575l2.282-.038C470.352,1211.87,470.494,1212.813,470.626,1213.756Z" transform="translate(-454.906 -1209.4)" fill="#4a191b" opacity="0.3"/>
            <path id="_Path_96" data-name="&lt;Path&gt;" d="M512.889,1298.939l-.189-.038,1.9-9.4.189.038Z" transform="translate(-502.817 -1281.946)" fill="#001f40"/>
          </g>
          <g id="_Group_53" data-name="&lt;Group&gt;">
            <path id="_Path_97" data-name="&lt;Path&gt;" d="M449.523,1078.641l1,3.4-4.319,1.019-.415,8.506a1.253,1.253,0,0,1-1.245,1.188h-9.637a1.144,1.144,0,0,1-.528-.123,1.169,1.169,0,0,1-.651-1.122l.509-8.034-2.537-2.273,2.178-3.706a11.159,11.159,0,0,0,7.384,1.282C443.271,1079.235,446.232,1079.027,449.523,1078.641Z" transform="translate(-425.361 -1065.502)" fill="#007bff"/>
            <g id="_Group_54" data-name="&lt;Group&gt;">
              <path id="_Path_98" data-name="&lt;Path&gt;" d="M373,962.271l-2.178,3.706-3.027-2.707q-.1-.085-.2-.179a4.432,4.432,0,0,1-1.179-2.159c-.019-.1-.047-.217-.066-.33-.669-2.952-1.924-8.7-1.867-9.2.094-.688.792-.387.792-.387.057-.651.594-.3.594-.3,0-.368.123-.453.49-.434s.858,2.244.858,2.244.547-1.16.952-1.066-.349,2.31-.349,2.31l2.631,6.46A13.763,13.763,0,0,0,373,962.271Z" transform="translate(-364.48 -950.274)" fill="#ffba9a"/>
              <path id="_Path_99" data-name="&lt;Path&gt;" d="M385.96,1061.08a1.5,1.5,0,0,1-.415,1.028,4.43,4.43,0,0,1-1.179-2.16c-.019-.1-.047-.217-.066-.33a.959.959,0,0,1,.189-.019A1.475,1.475,0,0,1,385.96,1061.08Z" transform="translate(-382.431 -1049.291)" fill="#ff5c33" opacity="0.2"/>
              <g id="_Group_55" data-name="&lt;Group&gt;" transform="translate(0.341 0.427)">
                <path id="_Path_100" data-name="&lt;Path&gt;" d="M386.178,977.747a.671.671,0,0,1,.019-1.047l.066.066a.581.581,0,0,0-.009.915Z" transform="translate(-384.254 -974.635)" fill="#974245"/>
                <path id="_Path_101" data-name="&lt;Path&gt;" d="M378.9,955.753l-.2-.924.094-.028.2.934Z" transform="translate(-377.7 -954.8)" fill="#974245"/>
                <path id="_Path_102" data-name="&lt;Path&gt;" d="M372.626,958.792l-.226-.764.094-.028.226.764Z" transform="translate(-371.994 -957.698)" fill="#974245"/>
                <path id="_Path_103" data-name="&lt;Path&gt;" d="M368.3,961.535l-.2-.717.094-.019.2.717Z" transform="translate(-368.1 -960.234)" fill="#974245"/>
              </g>
            </g>
            <g id="_Group_56" data-name="&lt;Group&gt;" transform="translate(24.162 4.548)">
              <path id="_Path_104" data-name="&lt;Path&gt;" d="M626.141,1008.109a1.544,1.544,0,0,1-.132.207l-.283.424a2.887,2.887,0,0,1-1.622,1.179.767.767,0,0,1-.113.028l-2.292.547-1-3.4c.924-.1,1.867-.226,2.82-.349l2.838-5.366s0-2.282.321-2.348.566,1.33.566,1.33,1.217-1.858,1.613-1.858.273.528.273.528.359-.443.575-.236c.113.113.094.509.094.509a.388.388,0,0,1,.415-.019C630.762,999.509,629.045,1003.46,626.141,1008.109Z" transform="translate(-620.7 -998.5)" fill="#ffba9a"/>
              <path id="_Path_105" data-name="&lt;Path&gt;" d="M657.931,1098.86a1.542,1.542,0,0,1-.132.208l-.283.424a2.888,2.888,0,0,1-1.622,1.179,1.31,1.31,0,0,1-.094-.49,1.475,1.475,0,0,1,1.471-1.48A1.422,1.422,0,0,1,657.931,1098.86Z" transform="translate(-652.49 -1089.251)" fill="#ff5c33" opacity="0.2"/>
              <g id="_Group_57" data-name="&lt;Group&gt;" transform="translate(6.733 0.396)">
                <path id="_Path_106" data-name="&lt;Path&gt;" d="M692.157,1022.309l-.057-.085a.573.573,0,0,0,.245-.877l.085-.047A.675.675,0,0,1,692.157,1022.309Z" transform="translate(-692.1 -1019.546)" fill="#974245"/>
                <path id="_Path_107" data-name="&lt;Path&gt;" d="M705.385,1003.577l-.085-.038.453-.839.085.047Z" transform="translate(-704.055 -1002.7)" fill="#974245"/>
                <path id="_Path_108" data-name="&lt;Path&gt;" d="M712.185,1006.548l-.085-.047.415-.8.085.038Z" transform="translate(-710.214 -1005.417)" fill="#974245"/>
                <path id="_Path_109" data-name="&lt;Path&gt;" d="M716.575,1009.088l-.075-.057.387-.632.085.047Z" transform="translate(-714.199 -1007.862)" fill="#974245"/>
              </g>
            </g>
            <path id="_Path_110" data-name="&lt;Path&gt;" d="M434.895,1119.613,431,1116.351l.123-.151,3.895,3.272Z" transform="translate(-424.727 -1100.553)" fill="#001f40"/>
            <path id="_Path_111" data-name="&lt;Path&gt;" d="M583.189,1119.741l-.189-.01.283-5.432.188.009Z" transform="translate(-562.394 -1098.832)" fill="#001f40"/>
            <path id="_Path_112" data-name="&lt;Path&gt;" d="M516.616,1118.537a2.459,2.459,0,0,1-1.716-.764l.142-.132a2.179,2.179,0,0,0,1.782.688,1.68,1.68,0,0,0,1.273-.83l.16.094a1.876,1.876,0,0,1-1.415.924A1.386,1.386,0,0,1,516.616,1118.537Z" transform="translate(-500.715 -1101.73)" fill="#001f40"/>
          </g>
          <g id="_Group_58" data-name="&lt;Group&gt;" transform="translate(13.158 6.528)">
            <path id="_Path_113" data-name="&lt;Path&gt;" d="M515.477,1066.652a1.365,1.365,0,0,1-1.509-1.207l-.368-3.234,2.725-.311.368,3.234A1.383,1.383,0,0,1,515.477,1066.652Z" transform="translate(-512.696 -1057.901)" fill="#ffba9a"/>
            <path id="_Path_114" data-name="&lt;Path&gt;" d="M525.261,1074.9l.2,1.745a4.371,4.371,0,0,1-2.159-1.443Z" transform="translate(-521.482 -1069.676)" fill="#001f40"/>
            <path id="_Path_115" data-name="&lt;Path&gt;" d="M517.053,1035.656s.528,3.432-.67,3.866a3.785,3.785,0,0,1-2.593-.368l-.99-2.886,1.282-1.169Z" transform="translate(-511.972 -1033.629)" fill="#ffba9a"/>
            <path id="_Path_116" data-name="&lt;Path&gt;" d="M504.534,1023.2a1.621,1.621,0,0,1,.585-2.735c1.094-1.829,2.829-.566,3.5-.132a2.842,2.842,0,0,0,1.792.2,3,3,0,0,1-4.055,1.075,1.928,1.928,0,0,0-.99,1.594Z" transform="translate(-504.017 -1019.5)" fill="#001f40"/>
            <g id="_Group_59" data-name="&lt;Group&gt;" transform="translate(0.309 3.173)">
              <path id="_Path_117" data-name="&lt;Path&gt;" d="M508.641,1053.583a.715.715,0,1,1-1.018-.359A.77.77,0,0,1,508.641,1053.583Z" transform="translate(-507.292 -1053.144)" fill="#ffba9a"/>
              <path id="_Path_118" data-name="&lt;Path&gt;" d="M512.587,1057.5a.691.691,0,0,0-.387-.632l.085-.17a.871.871,0,0,1,.49.792Z" transform="translate(-511.737 -1056.365)" fill="#001f40"/>
            </g>
          </g>
        </g>
        <g id="_Group_60" data-name="&lt;Group&gt;" transform="translate(6.273)">
          <g id="_Group_61" data-name="&lt;Group&gt;">
            <path id="_Path_119" data-name="&lt;Path&gt;" d="M439.535,754.3a6.542,6.542,0,0,1,3,12.353l.651,3.367-2.329-2.772a6.747,6.747,0,0,1-1.32.132,6.54,6.54,0,0,1,0-13.079Z" transform="translate(-432.811 -754.111)" fill="#fff"/>
            <path id="_Compound_Path_" data-name="&lt;Compound Path&gt;" d="M441.694,768.887l-2.725-3.244a6.868,6.868,0,0,1-1.245.113,6.741,6.741,0,1,1,3.206-.821Zm-2.584-3.659,1.933,2.3-.538-2.791.123-.066a6.341,6.341,0,1,0-2.9.707,6.5,6.5,0,0,0,1.282-.122Z" transform="translate(-431 -752.3)" fill="#95beff" fill-rule="evenodd"/>
          </g>
          <g id="_Group_62" data-name="&lt;Group&gt;" transform="translate(2.763 5.969)">
            <path id="_Path_120" data-name="&lt;Path&gt;" d="M462.129,816.515a.915.915,0,1,1-.915-.915A.909.909,0,0,1,462.129,816.515Z" transform="translate(-460.3 -815.6)" fill="#95beff"/>
            <path id="_Path_121" data-name="&lt;Path&gt;" d="M494.429,816.515a.915.915,0,0,1-1.829,0,.915.915,0,0,1,1.829,0Z" transform="translate(-489.554 -815.6)" fill="#95beff"/>
            <path id="_Path_122" data-name="&lt;Path&gt;" d="M526.729,816.515a.915.915,0,0,1-1.829,0,.915.915,0,0,1,1.829,0Z" transform="translate(-518.808 -815.6)" fill="#95beff"/>
          </g>
        </g>
      </g>
      <g id="_Group_63" data-name="&lt;Group&gt;" transform="translate(137.733 65.067)">
        <g id="_Group_64" data-name="&lt;Group&gt;" transform="translate(0 21.799)">
          <g id="_Group_65" data-name="&lt;Group&gt;" transform="translate(0 9.933)">
            <path id="_Path_123" data-name="&lt;Path&gt;" d="M1506.513,1033.42l-2.924,3.216a5.217,5.217,0,0,1-1.735,1.254c-.538.236-1.236.547-1.962.858l-1.594-2.056,2.782-1.971,3.932-7.921Z" transform="translate(-1494.743 -1026.8)" fill="#ff5c33"/>
            <path id="_Path_124" data-name="&lt;Path&gt;" d="M1464.135,1131.7l1.594,2.056a31.107,31.107,0,0,1-4.008,1.584c-.32-.009.6-1.009.6-1.009s-1.669-.443-1.745-1.179c-.085-.773,2.508-.707,2.508-.707Z" transform="translate(-1460.578 -1121.808)" fill="#ffba9a"/>
          </g>
          <g id="_Group_66" data-name="&lt;Group&gt;" transform="translate(12.072 48.681)">
            <path id="_Path_125" data-name="&lt;Path&gt;" d="M1594.833,1437.954l-.066,5.205H1588.6l2.858-2.536.321-2.923Z" transform="translate(-1588.6 -1437.7)" fill="#001f40"/>
            <path id="_Path_126" data-name="&lt;Path&gt;" d="M1618.552,1468.388l-.952-.915.255-.273.962.915Z" transform="translate(-1614.865 -1464.418)" fill="#fff"/>
          </g>
          <g id="_Group_67" data-name="&lt;Group&gt;" transform="translate(20.682 26.407)">
            <path id="_Path_127" data-name="&lt;Path&gt;" d="M1679.9,1203.452l4.828-1.952,2.376,5.686-3.442-1.66-2.82.839Z" transform="translate(-1679.9 -1201.5)" fill="#001f40"/>
            <path id="_Path_128" data-name="&lt;Path&gt;" d="M1718.249,1231.767l-.349-.132.472-1.235.358.132Z" transform="translate(-1714.316 -1227.674)" fill="#fff"/>
          </g>
          <path id="_Path_129" data-name="&lt;Path&gt;" d="M1561.6,1119.3l3.282,30.742-5.347.188-4.838-27.517Z" transform="translate(-1545.824 -1100.644)" fill="#007bff"/>
          <path id="_Path_130" data-name="&lt;Path&gt;" d="M1596.1,1134.1l.019,8.874,3.65-1.358.292,5.705-6.422,3.678a2.254,2.254,0,0,1-3.367-1.877l-.471-14.4Z" transform="translate(-1577.614 -1114.048)" fill="#007bff"/>
          <g id="_Group_68" data-name="&lt;Group&gt;" transform="translate(8.876 2.065)">
            <path id="_Path_131" data-name="&lt;Path&gt;" d="M1575.088,983l3.15,1.113c-1.32,2.612-3.385,5.988-4.649,8.016a2.3,2.3,0,0,1-2.97.83l-5.545-2.6-.764,6.893-9.609,2.018.585-9.958a4.1,4.1,0,0,1,2.857-3.659l2.753-.858,3.319.387a4.756,4.756,0,0,1,1.773.594l5.149,3.018Z" transform="translate(-1554.7 -979.262)" fill="#ff5c33"/>
            <path id="_Path_132" data-name="&lt;Path&gt;" d="M1775.3,944.851a9.584,9.584,0,0,1-1.254,3.357l-3.15-1.113.462-.679s.207-2.4.547-2.423.49,1.169.49,1.169,1.311-1.9,1.65-1.8.1.679.1.679.236-.236.443-.1.047.547.047.547S1775.247,944.219,1775.3,944.851Z" transform="translate(-1750.512 -943.357)" fill="#ffba9a"/>
            <g id="_Group_69" data-name="&lt;Group&gt;" transform="translate(21.981 0.494)">
              <path id="_Path_133" data-name="&lt;Path&gt;" d="M1787.856,965.537l-.056-.075a.592.592,0,0,0,.132-.915l.075-.047A.673.673,0,0,1,1787.856,965.537Z" transform="translate(-1787.8 -963.001)" fill="#974245"/>
              <path id="_Path_134" data-name="&lt;Path&gt;" d="M1800.375,949.43l-.076-.057.538-.773.075.057Z" transform="translate(-1799.121 -948.6)" fill="#974245"/>
              <path id="_Path_135" data-name="&lt;Path&gt;" d="M1805.266,954.669l-.066-.057.509-.613.076.057Z" transform="translate(-1803.559 -953.491)" fill="#974245"/>
              <path id="_Path_136" data-name="&lt;Path&gt;" d="M1808.575,958.841l-.076-.057.462-.585.076.057Z" transform="translate(-1806.547 -957.295)" fill="#974245"/>
            </g>
          </g>
          <g id="_Group_70" data-name="&lt;Group&gt;" transform="translate(12.427)">
            <path id="_Path_137" data-name="&lt;Path&gt;" d="M1597.581,939.221a2.434,2.434,0,0,1-2.471,2.292c-1.339-.094-2.829-1.5-2.744-2.725s1.462-1.858,2.8-1.81C1597.044,937.033,1597.666,937.995,1597.581,939.221Z" transform="translate(-1592.363 -935.511)" fill="#e8950c"/>
            <path id="_Path_138" data-name="&lt;Path&gt;" d="M1607.75,979.425a1.267,1.267,0,0,1-1.179-1.348l.2-2.876,2.527.17-.189,2.876A1.275,1.275,0,0,1,1607.75,979.425Z" transform="translate(-1605.229 -970.133)" fill="#ffba9a"/>
            <path id="_Path_139" data-name="&lt;Path&gt;" d="M1608.533,991.307a3.364,3.364,0,0,1-1.933,1.169l.1-1.377Z" transform="translate(-1605.257 -984.533)" fill="#001f40"/>
            <path id="_Path_140" data-name="&lt;Path&gt;" d="M1600.15,948.8l.3,1.6-.264,2.471a3.945,3.945,0,0,1-2.5.349c-1.113-.349-.623-3.612-.623-3.612Z" transform="translate(-1596.525 -946.222)" fill="#ffba9a"/>
            <path id="_Path_141" data-name="&lt;Path&gt;" d="M1599.183,949.038a2.992,2.992,0,0,1-.7-1.518,5.009,5.009,0,0,1-2.885.17l.33-1.028,2.443-.462,1.254.358Z" transform="translate(-1595.295 -943.867)" fill="#e8950c"/>
            <g id="_Group_71" data-name="&lt;Group&gt;" transform="translate(3.553 4.544)">
              <path id="_Path_142" data-name="&lt;Path&gt;" d="M1631.114,970.657a.616.616,0,0,1-.868.16.622.622,0,0,1-.038-.887.614.614,0,0,1,.867-.16A.622.622,0,0,1,1631.114,970.657Z" transform="translate(-1630.043 -969.653)" fill="#ffba9a"/>
              <path id="_Path_143" data-name="&lt;Path&gt;" d="M1633.179,973.713l-.179-.01c.028-.49.33-.6.575-.6l.009.189C1633.33,973.288,1633.208,973.42,1633.179,973.713Z" transform="translate(-1632.721 -972.775)" fill="#001f40"/>
            </g>
            <path id="_Path_144" data-name="&lt;Path&gt;" d="M1632.217,923.145a1.578,1.578,0,1,1-1.471-1.679A1.574,1.574,0,0,1,1632.217,923.145Z" transform="translate(-1625.603 -921.464)" fill="#e8950c"/>
          </g>
          <path id="_Path_145" data-name="&lt;Path&gt;" d="M1553.989,1051.216l-.189-.019.707-10.8.189.019Z" transform="translate(-1545.009 -1029.184)" fill="#001f40"/>
          <path id="_Path_146" data-name="&lt;Path&gt;" d="M1652,1052.844l-4.1-2.075.085-.17,4.1,2.075Z" transform="translate(-1630.235 -1038.422)" fill="#001f40"/>
          <path id="_Path_147" data-name="&lt;Path&gt;" d="M1604.03,1022.607a1.359,1.359,0,0,1-.226-.019,1.444,1.444,0,0,1-1.1-1.141l.179-.047a1.25,1.25,0,0,0,.962,1,1.682,1.682,0,0,0,1.575-.839l.16.1A2.01,2.01,0,0,1,1604.03,1022.607Z" transform="translate(-1589.298 -1011.976)" fill="#001f40"/>
          <path id="_Path_148" data-name="&lt;Path&gt;" d="M1592.006,1179.9a2.381,2.381,0,0,1-.745-.113,2.216,2.216,0,0,1-1.386-1.386c-.377-1.386-.566-12.325-.575-12.787l.189-.009c.009.122.2,11.391.566,12.74a2.051,2.051,0,0,0,1.264,1.264c.934.311,2.112-.057,3.433-1.056l.113.151a4.839,4.839,0,0,1-2.857,1.2Z" transform="translate(-1577.161 -1142.578)" fill="#001f40"/>
          <path id="_Path_149" data-name="&lt;Path&gt;" d="M1626.066,1215.446l-.066-.17,6.526-2.376.066.17Z" transform="translate(-1610.401 -1185.417)" fill="#001f40"/>
        </g>
        <g id="_Group_72" data-name="&lt;Group&gt;" transform="translate(14.439)">
          <g id="_Group_73" data-name="&lt;Group&gt;">
            <path id="_Path_150" data-name="&lt;Path&gt;" d="M1628.77,698.844a6.532,6.532,0,0,1-6.535,6.535,6.741,6.741,0,0,1-1.32-.132l-2.329,2.772.66-3.367a6.538,6.538,0,1,1,9.524-5.809Z" transform="translate(-1615.511 -692.111)" fill="#fff"/>
            <path id="_Compound_Path_2" data-name="&lt;Compound Path&gt;" d="M1616.453,706.887l.764-3.951a6.714,6.714,0,1,1,3.206.82,6.866,6.866,0,0,1-1.245-.113Zm3.97-16.21a6.35,6.35,0,0,0-2.9,11.995l.123.066-.538,2.791,1.933-2.3.1.019a6.5,6.5,0,0,0,1.283.132,6.351,6.351,0,0,0,0-12.7Z" transform="translate(-1613.7 -690.3)" fill="#95beff" fill-rule="evenodd"/>
          </g>
          <g id="_Group_74" data-name="&lt;Group&gt;" transform="translate(2.763 5.79)">
            <path id="_Path_151" data-name="&lt;Path&gt;" d="M1644.83,752.615a.915.915,0,1,1-1.829,0,.915.915,0,0,1,1.829,0Z" transform="translate(-1643 -751.7)" fill="#95beff"/>
            <path id="_Path_152" data-name="&lt;Path&gt;" d="M1677.129,752.615a.915.915,0,1,1-.915-.915A.916.916,0,0,1,1677.129,752.615Z" transform="translate(-1672.254 -751.7)" fill="#95beff"/>
            <path id="_Path_153" data-name="&lt;Path&gt;" d="M1709.429,752.615a.915.915,0,1,1-.915-.915A.916.916,0,0,1,1709.429,752.615Z" transform="translate(-1701.508 -751.7)" fill="#95beff"/>
          </g>
        </g>
      </g>
      <path id="_Path_154" data-name="&lt;Path&gt;" d="M202.179,1597.377H0V1597H202.179Z" transform="translate(0 -1446.431)" fill="#001f40"/>
    </g>
  </g>
</svg>
