<svg xmlns="http://www.w3.org/2000/svg" width="28.272" height="28.276" viewBox="0 0 28.272 28.276">
  <g id="category" transform="translate(0.417 512.417)">
    <path id="Path_499" data-name="Path 499" d="M3.353-511.652a4.191,4.191,0,0,0-3.038,2.67c-.229.682-.251,1-.229,3.64.021,2.388.027,2.494.144,2.878a4.155,4.155,0,0,0,2.958,2.878,13.342,13.342,0,0,0,3.038.107c2.9,0,2.958-.005,3.694-.346a4.076,4.076,0,0,0,2.068-2.068c.341-.746.352-.879.336-3.875l-.016-2.692-.165-.469a4.167,4.167,0,0,0-2.127-2.388c-.826-.394-.767-.389-3.678-.405A20.642,20.642,0,0,0,3.353-511.652Z" transform="translate(0 -0.185)" fill="#fff" stroke="#000" stroke-width="1"/>
    <path id="Path_500" data-name="Path 500" d="M285.379-511.863a4.851,4.851,0,0,0-.666.187,4.129,4.129,0,0,0-2.606,2.873,13.033,13.033,0,0,0-.107,3c0,2.931.011,3.017.4,3.827a4.118,4.118,0,0,0,2.676,2.217,13.9,13.9,0,0,0,3.027.1,13.367,13.367,0,0,0,3.043-.107,4.164,4.164,0,0,0,2.958-2.878c.117-.384.123-.49.144-2.878.021-2.649,0-2.947-.235-3.64a3.921,3.921,0,0,0-1-1.556,3.791,3.791,0,0,0-2.068-1.114,17.908,17.908,0,0,0-2.852-.08C286.749-511.911,285.528-511.89,285.379-511.863Z" transform="translate(-266.894 0)" fill="#59b8be" stroke="#000" stroke-width="1"/>
    <path id="Path_501" data-name="Path 501" d="M3.3-229.658a4.193,4.193,0,0,0-3.075,2.915,10.94,10.94,0,0,0-.139,2.9,18.2,18.2,0,0,0,.069,2.985,4.114,4.114,0,0,0,3.257,3.294,17.592,17.592,0,0,0,2.985.069c2.846-.021,2.8-.016,3.619-.41a4.167,4.167,0,0,0,2.127-2.388l.165-.469.016-2.692c.016-3.07.011-3.145-.389-3.971a4.1,4.1,0,0,0-2.505-2.164c-.368-.123-.405-.128-3.091-.139A23.475,23.475,0,0,0,3.3-229.658Z" transform="translate(0 -267.154)" fill="#59b8be" stroke="#000" stroke-width="1"/>
    <path id="Path_502" data-name="Path 502" d="M285.091-229.679a4.114,4.114,0,0,0-2.74,2.3c-.341.736-.352.869-.352,3.736a13.1,13.1,0,0,0,.107,3,4.13,4.13,0,0,0,2.734,2.915l.49.171,2.58.016a17.992,17.992,0,0,0,3.011-.069,3.787,3.787,0,0,0,2.089-1.119,3.921,3.921,0,0,0,1-1.556c.235-.693.256-.991.235-3.64-.021-2.388-.027-2.494-.144-2.878a4.222,4.222,0,0,0-2.654-2.793l-.469-.165-2.745-.011A14.064,14.064,0,0,0,285.091-229.679Z" transform="translate(-266.894 -267.106)" fill="#fff" stroke="#000" stroke-width="1"/>
  </g>
</svg>
