<svg xmlns="http://www.w3.org/2000/svg" xmlns:xlink="http://www.w3.org/1999/xlink" width="68" height="68" viewBox="0 0 68 68">
  <defs>
    <filter id="Ellipse_63" x="0" y="0" width="68" height="68" filterUnits="userSpaceOnUse">
      <feOffset input="SourceAlpha"/>
      <feGaussianBlur stdDeviation="3" result="blur"/>
      <feFlood flood-opacity="0.161"/>
      <feComposite operator="in" in2="blur"/>
      <feComposite in="SourceGraphic"/>
    </filter>
  </defs>
  <g id="Group_1019" data-name="Group 1019" transform="translate(8.953 9)">
    <g transform="matrix(1, 0, 0, 1, -8.95, -9)" filter="url(#Ellipse_63)">
      <circle id="Ellipse_63-2" data-name="Ellipse 63" cx="25" cy="25" r="25" transform="translate(9 9)" fill="#8ee5eb"/>
    </g>
    <g id="vrushabha" transform="translate(-1.908 359.883)">
      <path id="Path_790" data-name="Path 790" d="M274.442-351.791c-.042.062.115.312.344.562.76.823.823,1.6.26,3.009a3.721,3.721,0,0,0-.146,2.967,2.607,2.607,0,0,0,1.655,1.749c2.832.781,3.654,1.093,4.675,1.791a6.379,6.379,0,0,1,2.041,2.28,3.039,3.039,0,0,1,.333,1.8,3.358,3.358,0,0,1-.812,2.582c-.333.448-.406.593-.312.729.406.656,1.239-.333,1.791-2.1a4.682,4.682,0,0,0-.385-3.6,7.511,7.511,0,0,0-2.114-2.291,19.024,19.024,0,0,0-3.925-1.718c-1.3-.437-1.6-.677-1.624-1.291,0-.364.052-.489.427-.864a2.32,2.32,0,0,0,.791-1.947,3.144,3.144,0,0,0-.947-2.52C275.671-351.552,274.64-352.114,274.442-351.791Z" transform="translate(-238.736 0)" fill="rgba(0,0,0,0.76)"/>
      <path id="Path_791" data-name="Path 791" d="M110.453-326.88c-1.229.292-4.446,2.665-6.736,4.977l-.916.937.115.51a5.944,5.944,0,0,1,.146,1.052,1.843,1.843,0,0,0,.062.541c.021,0,.312-.187.646-.406a3.014,3.014,0,0,1,1.895-.573c.2.073.229.323.073.718a.513.513,0,0,0,.01.479c.1.2.167.156.885-.521,2.863-2.728,4.435-2.468,4.446.718.01,1.187-.354,2.082-1.583,4-1.218,1.864-1.364,2.259-1.437,3.894a4.13,4.13,0,0,1-.135,1.2,7.665,7.665,0,0,1-.416-.968c-.4-1-1.177-1.968-1.5-1.843-.219.083-.208.344.031.677a13.281,13.281,0,0,1,.937,2.592c.229.791.562,1.177.989,1.177a2.259,2.259,0,0,0,.77-.364l.541-.375v-1.083a4.455,4.455,0,0,1,.208-1.655c.239-.614.958-1.52,1.229-1.52.115,0,.073.094-.167.333-.521.552-.646.979-.646,2.291-.01,1.624-.2,2.02-2.051,4.165-.989,1.145-1.124,1.447-.875,1.937a43.147,43.147,0,0,0,3.04,3.79c.375.385.552.5.812.5a.729.729,0,0,0,.739-.739c0-.448-.156-.687-.521-.77a3.157,3.157,0,0,1-1.51-1.426,4.445,4.445,0,0,1,.052-2.634c.271-.562.646-.812,2.416-1.666,1.281-.6,1.478-.739,1.864-1.218a10.047,10.047,0,0,0,1.468-2.926,4.92,4.92,0,0,0,.344-2.051,3.822,3.822,0,0,0-.625-2.5c-.25-.333-.25-.364-.187-1.832a9.969,9.969,0,0,0-.458-3.925c-.416-1.343-.073-1.166.479.24a10.617,10.617,0,0,1,.677,4.061c.01,1.385.031,1.541.239,1.8a5.36,5.36,0,0,1,.3,3.717,10.165,10.165,0,0,1-1.593,3.144,10.677,10.677,0,0,0-.656.958c0,.156.677.375,1.124.375.843,0,1.406-.271,2.655-1.27a13.584,13.584,0,0,1,1.957-1.312l.791-.385.125-.812a7.983,7.983,0,0,1,.812-2.624c.677-1.354.989-1.478.552-.239a8.419,8.419,0,0,0-.469,3.467,15.2,15.2,0,0,0,1.406,5.477c.583,1.187.635,1.562.333,2.363a13.852,13.852,0,0,1-1.76,2.7c-.281.333-.562.677-.635.77-.1.146-.052.2.5.385l.625.208.7-.947c.375-.531,1.26-1.676,1.947-2.561l1.249-1.6-.271-.219a.815.815,0,0,1-.292-1.01c.115-.417.292-.583,1.416-1.281,1.031-.646,1.5-1.874,1.572-4.123a7.483,7.483,0,0,0-.625-3.842,10.555,10.555,0,0,0-5.123-5.216c-1.937-1.052-2.436-1.468-4.821-4.029A20.29,20.29,0,0,0,114-326.422,5.847,5.847,0,0,0,110.453-326.88ZM125.987-308.6a4.1,4.1,0,0,1-.625,1.114c-.916,1.291-.937,1.343-.927,2.54s-.062,1.239-.531.312a2.349,2.349,0,0,1-.26-1.124c0-.573.021-.614.718-1.5a13.355,13.355,0,0,0,1.177-1.812l.448-.9.031.521A3.565,3.565,0,0,1,125.987-308.6Z" transform="translate(-84.97 -22.308)" fill="rgba(0,0,0,0.76)"/>
      <path id="Path_792" data-name="Path 792" d="M77.313-287.8a1.746,1.746,0,0,0,.271.521,3.2,3.2,0,0,1,.666,1.822,2.3,2.3,0,0,1-.7,1.708c-.364.364-.375.406-.239.666a1.423,1.423,0,0,0,1.3.718c.489,0,.531-.021.7-.364a4.81,4.81,0,0,0,.3-1.145,2.845,2.845,0,0,0-.052-1.458,4.184,4.184,0,0,0-1.426-2.166C77.594-287.948,77.313-288.042,77.313-287.8Z" transform="translate(-62.065 -57.294)" fill="#f5f5f5"/>
      <path id="Path_793" data-name="Path 793" d="M126.3-259.812a7.881,7.881,0,0,0-2.488,1.905,7.326,7.326,0,0,0-.812.916c0,.052.167.208.364.375a3.269,3.269,0,0,1,.646.781c.271.448.292.583.312,1.708l.021,1.218.718.708.718.708.2-.781a21.044,21.044,0,0,1,1.322-3.071l1.124-2.291-.031-.916c-.031-.864-.052-.937-.323-1.177A1.964,1.964,0,0,0,126.3-259.812Z" transform="translate(-103.067 -82.338)" fill="rgba(0,0,0,0.76)"/>
      <path id="Path_794" data-name="Path 794" d="M95.312-251.527a5.587,5.587,0,0,0-1.1.927c-1.02,1.041-1.4,1.926-.927,2.176.344.187,1.072-.219,1.947-1.062s1.208-1.4,1.156-1.884c-.031-.292-.073-.333-.344-.354A1.539,1.539,0,0,0,95.312-251.527Z" transform="translate(-76.264 -89.727)" fill="rgba(0,0,0,0.76)"/>
      <path id="Path_795" data-name="Path 795" d="M8.49-241.248a4,4,0,0,0-.312,3.28c.292.6.729.854,1.749,1,.791.1.875.1,1.135-.094a.723.723,0,0,0,.312-.656c.062-.781-.021-.906-.583-.979a2.666,2.666,0,0,1-1.624-.823,1.79,1.79,0,0,1-.25-1.093,3.342,3.342,0,0,0-.125-.9C8.74-241.56,8.6-241.445,8.49-241.248Z" transform="translate(0 -98.872)" fill="#f5f5f5"/>
      <path id="Path_796" data-name="Path 796" d="M45.706-240.817c-2.228.448-3.28,3.394-1.76,4.914l.416.416.25-.26a.767.767,0,0,1,.635-.271,1.223,1.223,0,0,0,.729-.26,1.258,1.258,0,0,1,.625-.26.953.953,0,0,0,.583-.281c.26-.25.292-.26.354-.083.115.281-.4.677-.843.677a.472.472,0,0,0-.521.312c-.156.3-.354.4-.875.406a.427.427,0,0,0-.187.812,5.064,5.064,0,0,1,1.989,2.114c.271.937.521,1.072.885.469.115-.2.26-.364.323-.364a3.659,3.659,0,0,1,.729.312c1.177.593,2.02.614,2.28.042a4.125,4.125,0,0,0,.115-1.1,2.013,2.013,0,0,1,.354-1.426,3.813,3.813,0,0,0,.6-2.3c0-1.406-.385-2.218-1.124-2.353-.323-.062-.406-.021-.875.416-1.281,1.2-2.6,1.208-2.6.01,0-.437-.042-.5-.781-1.249a6.948,6.948,0,0,0-.864-.77C46.1-240.89,45.9-240.858,45.706-240.817Zm3.852,4.841a1.282,1.282,0,0,1-.229,1.124.642.642,0,0,1-.7-.052c-.083-.1-.073-.25.042-.552.083-.219.2-.614.26-.864.125-.458.125-.458.323-.25A1.518,1.518,0,0,1,49.559-235.975Z" transform="translate(-31.604 -99.428)" fill="rgba(0,0,0,0.76)"/>
      <path id="Path_797" data-name="Path 797" d="M28.864-196.7A2.18,2.18,0,0,0,28-194.949c0,.823.167.875.958.271.364-.281.833-.614,1.062-.75l.4-.25-.323-.25a2.242,2.242,0,0,1-.531-.666,1.889,1.889,0,0,0-.25-.406A3.879,3.879,0,0,0,28.864-196.7Z" transform="translate(-17.958 -138.757)" fill="rgba(0,0,0,0.76)"/>
      <path id="Path_798" data-name="Path 798" d="M107.1-164.146a8.088,8.088,0,0,1-1.791,3.061c-.76.864-.812.958-.812,1.4a2.482,2.482,0,0,0,.479,1.312c.26.448.718,1.364,1.02,2.03s.614,1.312.7,1.426a.938.938,0,0,0,1.531-.219c.146-.469.01-.739-.531-1.083a3.323,3.323,0,0,1-.77-.666,2.819,2.819,0,0,1-.489-2.415,17.554,17.554,0,0,1,1.437-1.572c.812-.823,1.26-1.354,1.177-1.385a3.425,3.425,0,0,1-1.156-1.02,4.76,4.76,0,0,1-.26-1.01,2.59,2.59,0,0,0-.167-.708A3.553,3.553,0,0,0,107.1-164.146Z" transform="translate(-86.493 -167.426)" fill="rgba(0,0,0,0.76)"/>
      <path id="Path_799" data-name="Path 799" d="M243.551-158.719a13.314,13.314,0,0,0-2.551,2.03,2.723,2.723,0,0,0,.76.052,6.973,6.973,0,0,1,2.749.573c.323.146.593.26.614.26s-.115-.406-.281-.906a13.192,13.192,0,0,1-.417-1.562C244.29-159.01,244.217-159.052,243.551-158.719Z" transform="translate(-208.781 -172.874)" fill="rgba(0,0,0,0.76)"/>
      <path id="Path_800" data-name="Path 800" d="M87.261-152.766a2.312,2.312,0,0,0-.167,1.343c.1.4.562.583,1.458.583.729,0,.812-.021,1.145-.312a2.372,2.372,0,0,0,.541-.8c.177-.458.177-.479-.01-.614-.1-.073-.229-.115-.281-.083a4.367,4.367,0,0,1-1.8-.1C87.656-152.963,87.427-152.963,87.261-152.766Z" transform="translate(-70.868 -178.254)" fill="rgba(0,0,0,0.76)"/>
      <path id="Path_801" data-name="Path 801" d="M239.668-130.877c0,.2.229.521.9,1.291a2.9,2.9,0,0,1,.875,1.52c0,.635-.968,1.895-2.145,2.811l-.593.458.489.073a1.682,1.682,0,0,1,.687.239c.167.146.229.094.947-.8a18.345,18.345,0,0,1,1.312-1.5c.635-.6.646-.666.344-1.937a7.516,7.516,0,0,1-.208-1.239c0-.635-.5-.927-1.739-1.01C239.835-131.012,239.668-130.991,239.668-130.877Z" transform="translate(-206.721 -197.894)" fill="rgba(0,0,0,0.76)"/>
      <path id="Path_802" data-name="Path 802" d="M189.812-82.851c-.187.042-.208.1-.167.687s.073.677.385.968c.479.427,1.031.708,1.239.635.229-.094.208-.614-.042-.937-.281-.354-.271-.531.031-.437.625.187.7.187.7-.031a.564.564,0,0,0-.229-.385,6.638,6.638,0,0,0-1.635-.562A2.551,2.551,0,0,1,189.812-82.851Z" transform="translate(-162.757 -240.964)" fill="rgba(0,0,0,0.76)"/>
      <path id="Path_803" data-name="Path 803" d="M140.067-81.688a1.917,1.917,0,0,1,.156.718,1.046,1.046,0,0,0,1.02,1.093c.6.01.729-.146.448-.593s-.281-.7,0-.7c.323,0,.208-.312-.208-.593a1.472,1.472,0,0,0-.968-.239H139.9Z" transform="translate(-118.208 -241.784)" fill="rgba(0,0,0,0.76)"/>
      <path id="Path_804" data-name="Path 804" d="M216.926-66.65a5.415,5.415,0,0,0-1.6,1.291c-.2.364.052.427.614.135.666-.333.75-.333.75,0,0,.271.01.271.635.229.562-.042.687-.094.937-.375a.978.978,0,0,0,.3-.791.936.936,0,0,0-.167-.625C218.144-67.046,217.53-66.983,216.926-66.65Z" transform="translate(-185.717 -255.27)" fill="rgba(0,0,0,0.76)"/>
      <path id="Path_805" data-name="Path 805" d="M247.867-50.8a6.769,6.769,0,0,0-1.676,1.687c.083.239.448.208.843-.073.489-.323.635-.333.552-.031-.146.469-.125.552.167.583a1.678,1.678,0,0,0,.812-.25,1.348,1.348,0,0,0,.729-.75c.239-.521.271-1.062.083-1.249A1.849,1.849,0,0,0,247.867-50.8Z" transform="translate(-213.431 -269.55)" fill="rgba(0,0,0,0.76)"/>
    </g>
  </g>
</svg>
