<svg xmlns="http://www.w3.org/2000/svg" width="28.073" height="26.854" viewBox="0 0 28.073 26.854">
  <g id="language" transform="translate(-6 94.038)">
    <path id="Path_649" data-name="Path 649" d="M14.636-93.334c-.635.666-.666.968-.666,6.9,0,8.2-.666,7.534,7.594,7.534,8.2,0,7.534.666,7.534-7.594,0-8.2.666-7.534-7.594-7.534C15.392-94.03,15.271-94.03,14.636-93.334Z" transform="translate(-5.688 0.5)" fill="#59b8be" stroke="#000" stroke-width="1"/>
    <path id="Path_650" data-name="Path 650" d="M51.258-63.4c0,.545.242.605,3.268.666l3.237.091v12.405H45.358L45.267-53.5c-.061-3-.121-3.237-.666-3.237-.575,0-.605.212-.605,3.268,0,4.781-.3,4.6,7.594,4.6,8.2,0,7.534.666,7.534-7.594,0-7.836.182-7.534-4.629-7.534C51.47-64,51.258-63.973,51.258-63.4Z" transform="translate(-26.499 -20.601)"/>
    <text id="A" transform="translate(8.983 -92.187)" font-size="8" font-family="Hind-Regular, Hind"><tspan x="4" y="8">A</tspan></text>
    <text id="अ" transform="translate(20.073 -82.105)" font-size="7" font-family="Hind-Regular, Hind"><tspan x="4" y="7">अ</tspan></text>
    <path id="Path_651" data-name="Path 651" d="M6.212-39.79A14.933,14.933,0,0,0,6-36.432c0,4.236.091,4.327,4.448,4.327h3.237l-.877.908c-.7.726-.787,1-.514,1.271.3.3.726.03,1.967-1.21l1.573-1.573L14.26-34.284c-1.241-1.241-1.664-1.513-1.967-1.21-.272.272-.182.545.514,1.271l.877.938-3.147-.091-3.177-.091L7.21-36.613C7.059-39.518,6.787-40.365,6.212-39.79Z" transform="translate(0 -37.371)"/>
  </g>
</svg>
