<svg id="Layer_1" data-name="Layer 1" xmlns="http://www.w3.org/2000/svg" xmlns:xlink="http://www.w3.org/1999/xlink" viewBox="0 0 374.9 528"><image id="Map" width="1562" height="2200" transform="scale(0.24)" xlink:href="../map%20crop.png"/><g id="line"><path id="Rectangle_13" data-name="Rectangle 13" d="M117.7,242.5h0a2.4,2.4,0,0,1,.7,3.4h0a2.5,2.5,0,0,1-3.5.6h0a2.4,2.4,0,0,1-.6-3.4h0A2.4,2.4,0,0,1,117.7,242.5Z" transform="translate(-3.1 -2.2)" style="fill:#352641"/><path id="Rectangle_13-2" data-name="Rectangle 13-2" d="M129.3,250.4h0a2.4,2.4,0,0,1,.7,3.4h0a2.5,2.5,0,0,1-3.5.7h0a2.5,2.5,0,0,1-.6-3.5h0A2.4,2.4,0,0,1,129.3,250.4Z" transform="translate(-3.1 -2.2)" style="fill:#352641"/><path id="Rectangle_13-3" data-name="Rectangle 13-3" d="M141,258.2h0a2.5,2.5,0,0,1,.7,3.4h0a2.5,2.5,0,0,1-3.5.7h0a2.6,2.6,0,0,1-.7-3.5h0A2.5,2.5,0,0,1,141,258.2Z" transform="translate(-3.1 -2.2)" style="fill:#352641"/><path id="Rectangle_13-4" data-name="Rectangle 13-4" d="M152.6,266h0a2.5,2.5,0,0,1,.6,3.5h0a2.4,2.4,0,0,1-3.4.6h0a2.4,2.4,0,0,1-.7-3.4h0a2.5,2.5,0,0,1,3.5-.7Z" transform="translate(-3.1 -2.2)" style="fill:#352641"/><path id="Rectangle_13-5" data-name="Rectangle 13-5" d="M164.2,273.8h0a2.5,2.5,0,0,1,.6,3.5h0a2.5,2.5,0,0,1-3.4.7h0a2.5,2.5,0,0,1-.7-3.5h0a2.5,2.5,0,0,1,3.5-.7Z" transform="translate(-3.1 -2.2)" style="fill:#352641"/><path id="Rectangle_13-6" data-name="Rectangle 13-6" d="M175.8,281.6h0a2.5,2.5,0,0,1,.6,3.5h0a2.4,2.4,0,0,1-3.4.7h0a2.5,2.5,0,0,1-.7-3.5h0a2.6,2.6,0,0,1,3.5-.7Z" transform="translate(-3.1 -2.2)" style="fill:#352641"/><path id="Rectangle_13-7" data-name="Rectangle 13-7" d="M187.4,289.5h0a2.4,2.4,0,0,1,.6,3.4h0a2.4,2.4,0,0,1-3.4.7h0a2.5,2.5,0,0,1-.7-3.5h0a2.5,2.5,0,0,1,3.5-.6Z" transform="translate(-3.1 -2.2)" style="fill:#352641"/><path id="Rectangle_13-8" data-name="Rectangle 13-8" d="M199,297.3h0a2.6,2.6,0,0,1,.7,3.5h0a2.5,2.5,0,0,1-3.5.6h0a2.5,2.5,0,0,1-.7-3.4h0A2.5,2.5,0,0,1,199,297.3Z" transform="translate(-3.1 -2.2)" style="fill:#352641"/><path id="Rectangle_13-9" data-name="Rectangle 13-9" d="M210.6,305.1h0a2.6,2.6,0,0,1,.7,3.5h0a2.7,2.7,0,0,1-3.5.7h0a2.5,2.5,0,0,1-.7-3.5h0A2.5,2.5,0,0,1,210.6,305.1Z" transform="translate(-3.1 -2.2)" style="fill:#352641"/><path id="Rectangle_13-10" data-name="Rectangle 13-10" d="M222.2,313h0a2.5,2.5,0,0,1,.7,3.4h0a2.5,2.5,0,0,1-3.5.7h0a2.5,2.5,0,0,1-.7-3.5h0a2.6,2.6,0,0,1,3.5-.7Z" transform="translate(-3.1 -2.2)" style="fill:#352641"/></g><g id="line-2"><path id="rectangle" d="M222.4,316.8h0a2.5,2.5,0,0,1-3.5.7h0a2.4,2.4,0,0,1-.7-3.4h0a2.5,2.5,0,0,1,3.4-.8h0a2.4,2.4,0,0,1,.8,3.4Z" transform="translate(-3.1 -2.2)" style="fill:#352641"/><path id="rectangle-2" d="M214.7,328.6h0a2.5,2.5,0,0,1-3.4.7h0a2.5,2.5,0,0,1-.7-3.5h0a2.4,2.4,0,0,1,3.4-.7h0A2.4,2.4,0,0,1,214.7,328.6Z" transform="translate(-3.1 -2.2)" style="fill:#352641"/><path id="rectangle-3" d="M207.1,340.3h0a2.4,2.4,0,0,1-3.4.7h0a2.5,2.5,0,0,1-.8-3.4h0a2.6,2.6,0,0,1,3.5-.8h0a2.6,2.6,0,0,1,.7,3.5Z" transform="translate(-3.1 -2.2)" style="fill:#352641"/><path id="rectangle-4" d="M199.5,352h0a2.6,2.6,0,0,1-3.5.8h0a2.6,2.6,0,0,1-.7-3.5h0a2.6,2.6,0,0,1,3.5-.7h0A2.5,2.5,0,0,1,199.5,352Z" transform="translate(-3.1 -2.2)" style="fill:#352641"/><path id="rectangle-5" d="M191.9,363.8h0a2.6,2.6,0,0,1-3.5.7h0a2.4,2.4,0,0,1-.7-3.4h0a2.5,2.5,0,0,1,3.4-.8h0a2.6,2.6,0,0,1,.8,3.5Z" transform="translate(-3.1 -2.2)" style="fill:#352641"/><path id="rectangle-6" d="M184.2,375.5h0a2.5,2.5,0,0,1-3.4.8h0a2.5,2.5,0,0,1-.7-3.5h0a2.4,2.4,0,0,1,3.4-.8h0A2.4,2.4,0,0,1,184.2,375.5Z" transform="translate(-3.1 -2.2)" style="fill:#352641"/><path id="rectangle-7" d="M176.6,387.3h0a2.5,2.5,0,0,1-3.4.7h0a2.6,2.6,0,0,1-.8-3.5h0a2.6,2.6,0,0,1,3.5-.7h0a2.4,2.4,0,0,1,.7,3.4Z" transform="translate(-3.1 -2.2)" style="fill:#352641"/></g><g id="line-3"><path id="Rectangle_13-11" data-name="Rectangle 13-11" d="M177.7,158.4h0a2.5,2.5,0,0,1,.6,3.5h0a2.5,2.5,0,0,1-3.4.7h0a2.5,2.5,0,0,1-.7-3.5h0A2.6,2.6,0,0,1,177.7,158.4Z" transform="translate(-3.1 -2.2)" style="fill:#352641"/><path id="Rectangle_13-11-2" data-name="Rectangle 13-11" d="M186.8,152.6h0a2.5,2.5,0,0,1,.6,3.5h0a2.4,2.4,0,0,1-3.4.7h0a2.5,2.5,0,0,1-.7-3.5h0A2.6,2.6,0,0,1,186.8,152.6Z" transform="translate(-3.1 -2.2)" style="fill:#352641"/><path id="Rectangle_13-12" data-name="Rectangle 13-12" d="M194.1,144h0a2.7,2.7,0,0,1,.7,3.5h0a2.7,2.7,0,0,1-3.5.7h0a2.7,2.7,0,0,1-.7-3.5h0A2.7,2.7,0,0,1,194.1,144Z" transform="translate(-3.1 -2.2)" style="fill:#352641"/><path id="Rectangle_13-13" data-name="Rectangle 13-13" d="M210.7,110.7h0a2.4,2.4,0,0,1,.6,3.4h0a2.4,2.4,0,0,1-3.4.7h0a2.5,2.5,0,0,1-.7-3.5h0A2.5,2.5,0,0,1,210.7,110.7Z" transform="translate(-3.1 -2.2)" style="fill:#352641"/><path id="Rectangle_13-14" data-name="Rectangle 13-14" d="M196.6,98.2h0a2.5,2.5,0,0,1,.7,3.4h0a2.5,2.5,0,0,1-3.5.7h0a2.6,2.6,0,0,1-.7-3.5h0a2.5,2.5,0,0,1,3.5-.6Z" transform="translate(-3.1 -2.2)" style="fill:#352641"/><path id="Rectangle_13-15" data-name="Rectangle 13-15" d="M245.5,107.6h0a2.6,2.6,0,0,1,.7,3.5h0a2.5,2.5,0,0,1-3.5.6h0a2.4,2.4,0,0,1-.7-3.4h0a2.5,2.5,0,0,1,3.5-.7Z" transform="translate(-3.1 -2.2)" style="fill:#352641"/><path id="Rectangle_13-16" data-name="Rectangle 13-16" d="M270.1,127h0a2.4,2.4,0,0,1,.7,3.4h0a2.5,2.5,0,0,1-3.5.7h0a2.5,2.5,0,0,1-.6-3.5h0a2.4,2.4,0,0,1,3.4-.6Z" transform="translate(-3.1 -2.2)" style="fill:#352641"/><path id="Rectangle_13-17" data-name="Rectangle 13-17" d="M300.1,146.5h0a2.4,2.4,0,0,1,.7,3.4h0a2.5,2.5,0,0,1-3.5.7h0a2.5,2.5,0,0,1-.7-3.4h0a2.5,2.5,0,0,1,3.5-.7Z" transform="translate(-3.1 -2.2)" style="fill:#352641"/><path id="Rectangle_13-18" data-name="Rectangle 13-18" d="M320.5,165.8h0a2.5,2.5,0,0,1,.7,3.5h0a2.4,2.4,0,0,1-3.4.7h0a2.5,2.5,0,0,1-.7-3.5h0A2.5,2.5,0,0,1,320.5,165.8Z" transform="translate(-3.1 -2.2)" style="fill:#352641"/><path id="Rectangle_13-19" data-name="Rectangle 13-19" d="M315.5,194.6h0a2.5,2.5,0,0,1,.7,3.5h0a2.4,2.4,0,0,1-3.4.7h0a2.5,2.5,0,0,1-.7-3.5h0A2.5,2.5,0,0,1,315.5,194.6Z" transform="translate(-3.1 -2.2)" style="fill:#352641"/><path id="Rectangle_13-20" data-name="Rectangle 13-20" d="M305.1,233.9h0a2.5,2.5,0,0,1,.7,3.5h0a2.5,2.5,0,0,1-3.5.6h0a2.5,2.5,0,0,1-.7-3.4h0a2.5,2.5,0,0,1,3.5-.7Z" transform="translate(-3.1 -2.2)" style="fill:#352641"/><path id="Rectangle_13-11-3" data-name="Rectangle 13-11" d="M201.3,133.3h0a2.5,2.5,0,0,1,.7,3.4h0a2.5,2.5,0,0,1-3.5.7h0a2.6,2.6,0,0,1-.7-3.5h0A2.5,2.5,0,0,1,201.3,133.3Z" transform="translate(-3.1 -2.2)" style="fill:#352641"/><path id="Rectangle_13-11-4" data-name="Rectangle 13-11" d="M206.3,121h0a2.6,2.6,0,0,1,.7,3.5h0a2.6,2.6,0,0,1-3.5.7h0a2.5,2.5,0,0,1-.7-3.4h0A2.5,2.5,0,0,1,206.3,121Z" transform="translate(-3.1 -2.2)" style="fill:#352641"/><path id="Rectangle_13-11-5" data-name="Rectangle 13-11" d="M203.8,104.1h0a2.6,2.6,0,0,1,.7,3.5h0a2.6,2.6,0,0,1-3.5.7h0a2.7,2.7,0,0,1-.7-3.5h0A2.7,2.7,0,0,1,203.8,104.1Z" transform="translate(-3.1 -2.2)" style="fill:#352641"/><path id="Rectangle_13-11-6" data-name="Rectangle 13-11" d="M234.1,100.7h0a2.4,2.4,0,0,1,.6,3.4h0a2.4,2.4,0,0,1-3.4.7h0a2.5,2.5,0,0,1-.7-3.5h0A2.5,2.5,0,0,1,234.1,100.7Z" transform="translate(-3.1 -2.2)" style="fill:#352641"/><path id="Rectangle_13-11-7" data-name="Rectangle 13-11" d="M222.8,97.1h0a2.5,2.5,0,0,1,.6,3.5h0a2.5,2.5,0,0,1-3.4.7h0a2.5,2.5,0,0,1-.7-3.5h0A2.5,2.5,0,0,1,222.8,97.1Z" transform="translate(-3.1 -2.2)" style="fill:#352641"/><path id="Rectangle_13-11-8" data-name="Rectangle 13-11" d="M208.8,95.7h0a2.4,2.4,0,0,1,.7,3.4h0a2.5,2.5,0,0,1-3.5.7h0a2.6,2.6,0,0,1-.7-3.5h0A2.5,2.5,0,0,1,208.8,95.7Z" transform="translate(-3.1 -2.2)" style="fill:#352641"/><path id="Rectangle_13-11-9" data-name="Rectangle 13-11" d="M252.6,115.7h0a2.5,2.5,0,0,1,.7,3.4h0a2.5,2.5,0,0,1-3.5.7h0a2.6,2.6,0,0,1-.7-3.5h0A2.5,2.5,0,0,1,252.6,115.7Z" transform="translate(-3.1 -2.2)" style="fill:#352641"/><path id="Rectangle_13-11-10" data-name="Rectangle 13-11" d="M261.6,122h0a2.4,2.4,0,0,1,.7,3.4h0a2.5,2.5,0,0,1-3.5.7h0a2.5,2.5,0,0,1-.6-3.5h0A2.4,2.4,0,0,1,261.6,122Z" transform="translate(-3.1 -2.2)" style="fill:#352641"/><path id="Rectangle_13-11-11" data-name="Rectangle 13-11" d="M278.8,132.2h0a2.4,2.4,0,0,1,.7,3.4h0a2.5,2.5,0,0,1-3.5.7h0a2.5,2.5,0,0,1-.6-3.5h0A2.4,2.4,0,0,1,278.8,132.2Z" transform="translate(-3.1 -2.2)" style="fill:#352641"/><path id="Rectangle_13-11-12" data-name="Rectangle 13-11" d="M288.9,138.4h0a2.4,2.4,0,0,1,.6,3.4h0a2.4,2.4,0,0,1-3.4.7h0a2.5,2.5,0,0,1-.7-3.5h0A2.5,2.5,0,0,1,288.9,138.4Z" transform="translate(-3.1 -2.2)" style="fill:#352641"/><path id="Rectangle_13-11-13" data-name="Rectangle 13-11" d="M314.2,154.3h0a2.6,2.6,0,0,1,.7,3.5h0a2.7,2.7,0,0,1-3.5.7h0a2.4,2.4,0,0,1-.7-3.4h0A2.5,2.5,0,0,1,314.2,154.3Z" transform="translate(-3.1 -2.2)" style="fill:#352641"/><path id="Rectangle_13-11-14" data-name="Rectangle 13-11" d="M318.1,179.9h0a2.5,2.5,0,0,1,.6,3.5h0a2.4,2.4,0,0,1-3.4.7h0a2.5,2.5,0,0,1-.7-3.5h0A2.6,2.6,0,0,1,318.1,179.9Z" transform="translate(-3.1 -2.2)" style="fill:#352641"/><path id="Rectangle_13-11-15" data-name="Rectangle 13-11" d="M314.2,207.3h0a2.7,2.7,0,0,1,.7,3.5h0a2.5,2.5,0,0,1-3.5.7h0a2.5,2.5,0,0,1-.7-3.5h0A2.6,2.6,0,0,1,314.2,207.3Z" transform="translate(-3.1 -2.2)" style="fill:#352641"/><path id="Rectangle_13-11-16" data-name="Rectangle 13-11" d="M313,219.6h0a2.5,2.5,0,0,1,.7,3.5h0a2.5,2.5,0,0,1-3.4.7h-.1a2.5,2.5,0,0,1-.6-3.5h0A2.4,2.4,0,0,1,313,219.6Z" transform="translate(-3.1 -2.2)" style="fill:#352641"/><path id="Rectangle_13-11-17" data-name="Rectangle 13-11" d="M310.5,231.4h0a2.5,2.5,0,0,1,.7,3.5h0a2.4,2.4,0,0,1-3.4.6h-.1a2.4,2.4,0,0,1-.6-3.4h0A2.4,2.4,0,0,1,310.5,231.4Z" transform="translate(-3.1 -2.2)" style="fill:#352641"/></g><g id="line-4"><path id="Rectangle_13-21" data-name="Rectangle 13-21" d="M168.2,169.5h0a2.4,2.4,0,0,1-3.5.3h0a2.4,2.4,0,0,1-.3-3.5h0a2.5,2.5,0,0,1,3.5-.3h0a2.4,2.4,0,0,1,.3,3.5Z" transform="translate(-3.1 -2.2)" style="fill:#352641"/><path id="Rectangle_13-22" data-name="Rectangle 13-22" d="M156.7,176.2h0a2.5,2.5,0,0,1-3.5.3h0a2.5,2.5,0,0,1-.3-3.5h0a2.4,2.4,0,0,1,3.5-.4h0A2.5,2.5,0,0,1,156.7,176.2Z" transform="translate(-3.1 -2.2)" style="fill:#352641"/><path id="Rectangle_13-23" data-name="Rectangle 13-23" d="M145.2,182.7h0a2.5,2.5,0,0,1-3.5.3h0a2.5,2.5,0,0,1-.3-3.5h0a2.4,2.4,0,0,1,3.5-.4h0A2.5,2.5,0,0,1,145.2,182.7Z" transform="translate(-3.1 -2.2)" style="fill:#352641"/><path id="Rectangle_13-24" data-name="Rectangle 13-24" d="M133.8,192.1h0a2.4,2.4,0,0,1-3.5.3h0a2.4,2.4,0,0,1-.3-3.5h0a2.4,2.4,0,0,1,3.5-.3h0A2.5,2.5,0,0,1,133.8,192.1Z" transform="translate(-3.1 -2.2)" style="fill:#352641"/><path id="Rectangle_13-25" data-name="Rectangle 13-25" d="M120.9,200.8h0a2.4,2.4,0,0,1-3.5.3h0a2.5,2.5,0,0,1-.4-3.5h0a2.5,2.5,0,0,1,3.6-.3h0a2.5,2.5,0,0,1,.3,3.5Z" transform="translate(-3.1 -2.2)" style="fill:#352641"/><path id="Rectangle_13-26" data-name="Rectangle 13-26" d="M111.9,209.5h0a2.4,2.4,0,0,1-3.5.3h0a2.4,2.4,0,0,1-.3-3.5h0a2.4,2.4,0,0,1,3.5-.3h0a2.4,2.4,0,0,1,.3,3.5Z" transform="translate(-3.1 -2.2)" style="fill:#352641"/><path id="Rectangle_13-27" data-name="Rectangle 13-27" d="M103,220.3h0a2.5,2.5,0,0,1-3.5.3h0a2.4,2.4,0,0,1-.4-3.5h0a2.5,2.5,0,0,1,3.6-.3h0A2.5,2.5,0,0,1,103,220.3Z" transform="translate(-3.1 -2.2)" style="fill:#352641"/></g><path id="Path_142" data-name="Path 142" d="M299.6,237.8c0,5.7-7.5,10.6-7.5,10.6s-7.5-4.9-7.5-10.6a7.5,7.5,0,0,1,15,0Z" transform="translate(-3.1 -2.2)" style="fill:#d47fa6;stroke:#757575;stroke-linecap:round;stroke-linejoin:round;stroke-width:1.5px"/><circle id="Ellipse_34" data-name="Ellipse 34" cx="289" cy="235.6" r="2.6" style="fill:#fff;stroke:#757575;stroke-linecap:round;stroke-linejoin:round;stroke-width:1.5px"/><path id="pin" d="M94.3,224.9h0a7,7,0,0,1,7,7h0a7,7,0,0,1-7,7h0a7,7,0,0,1-7-7h0A7,7,0,0,1,94.3,224.9Z" transform="translate(-3.1 -2.2)" style="fill:#5f4692"/><path id="pin-3" d="M173.1,379.9h0a7,7,0,0,1,7,7h0a7,7,0,0,1-7,7h0a7,7,0,0,1-7-7h0A7,7,0,0,1,173.1,379.9Z" transform="translate(-3.1 -2.2)" style="fill:#8a57a3"/></svg>