<svg xmlns="http://www.w3.org/2000/svg" width="37" height="37" viewBox="0 0 37 37">
  <g id="Group_1047" data-name="Group 1047" transform="translate(-29 -317)">
    <path id="Path_26957" data-name="Path 26957" d="M18.5,0A18.5,18.5,0,1,1,0,18.5,18.5,18.5,0,0,1,18.5,0Z" transform="translate(29 317)" fill="#fff"/>
    <g id="about_2_" data-name="about (2)" transform="translate(27 315)">
      <path id="Path_26962" data-name="Path 26962" d="M411.512,414.726h-.662v-5.964a.662.662,0,0,0-.662-.662h-1.326a.662.662,0,1,0,0,1.324h.662v5.3h-.662a.662.662,0,1,0,0,1.324h2.65a.661.661,0,1,0,0-1.322Z" transform="translate(-389.587 -389.489)" fill="#f9a72e"/>
      <path id="Path_26963" data-name="Path 26963" d="M440.026,226.952a1.326,1.326,0,1,0-1.326-1.326A1.326,1.326,0,0,0,440.026,226.952Z" transform="translate(-419.427 -209.664)" fill="#f9a72e"/>
      <path id="Path_26964" data-name="Path 26964" d="M20.6,10A10.6,10.6,0,1,0,31.2,20.6,10.6,10.6,0,0,0,20.6,10Zm0,19.894A9.285,9.285,0,1,1,29.874,20.6,9.3,9.3,0,0,1,20.6,29.894Z" fill="#f9a72e"/>
    </g>
  </g>
</svg>
