<svg xmlns="http://www.w3.org/2000/svg" width="22.632" height="19.803" viewBox="0 0 22.632 19.803">
  <path id="Icon_metro-attachment" data-name="Icon metro-attachment" d="M17.544,9.156,16.108,7.722,8.929,14.9a3.045,3.045,0,0,0,4.307,4.306l8.615-8.613a5.075,5.075,0,0,0-7.178-7.177L5.628,12.459l-.019.019A7.079,7.079,0,0,0,15.62,22.487l.018-.019h0L21.813,16.3l-1.436-1.435L14.2,21.033l-.019.019a5.048,5.048,0,0,1-7.141-7.138l.02-.019h0L16.108,4.85a3.045,3.045,0,0,1,4.307,4.306L11.8,17.77a1.015,1.015,0,1,1-1.436-1.435l7.179-7.178Z" transform="translate(-1.928 23.338) rotate(-90)" fill="#707070"/>
</svg>
