<svg xmlns="http://www.w3.org/2000/svg" width="37" height="37" viewBox="0 0 37 37">
  <g id="Group_1047" data-name="Group 1047" transform="translate(-29 -317)">
    <circle id="Ellipse_66" data-name="Ellipse 66" cx="18.5" cy="18.5" r="18.5" transform="translate(29 317)" fill="#fff"/>
    <path id="Icon_awesome-blog" data-name="Icon awesome-blog" d="M6.332,8.339a.884.884,0,0,0-1.037.875v1.853a.884.884,0,0,0,.614.809A1.765,1.765,0,1,1,3.53,13.531V4.412a.88.88,0,0,0-.882-.882H.882A.88.88,0,0,0,0,4.412v9.119A5.3,5.3,0,1,0,6.332,8.339ZM7.685,0A.592.592,0,0,0,7.06.588V1.749a.582.582,0,0,0,.552.585,9.444,9.444,0,0,1,8.858,8.88.587.587,0,0,0,.585.552h1.18a.592.592,0,0,0,.588-.625A11.8,11.8,0,0,0,7.685,0ZM7.7,3.529a.593.593,0,0,0-.636.592V5.3a.586.586,0,0,0,.544.585,5.873,5.873,0,0,1,5.328,5.339.591.591,0,0,0,.585.541H14.7a.6.6,0,0,0,.592-.636,8.273,8.273,0,0,0-7.6-7.6Z" transform="translate(38 326.002)" fill="#f9a72e"/>
  </g>
</svg>
