<svg xmlns="http://www.w3.org/2000/svg" width="11.943" height="13.649" viewBox="0 0 11.943 13.649">
  <path id="Icon_awesome-calendar-alt" data-name="Icon awesome-calendar-alt" d="M0,12.369a1.28,1.28,0,0,0,1.28,1.28h9.383a1.28,1.28,0,0,0,1.28-1.28V5.118H0ZM8.53,7.144a.321.321,0,0,1,.32-.32H9.917a.321.321,0,0,1,.32.32V8.211a.321.321,0,0,1-.32.32H8.85a.321.321,0,0,1-.32-.32Zm0,3.412a.321.321,0,0,1,.32-.32H9.917a.321.321,0,0,1,.32.32v1.066a.321.321,0,0,1-.32.32H8.85a.321.321,0,0,1-.32-.32ZM5.118,7.144a.321.321,0,0,1,.32-.32H6.5a.321.321,0,0,1,.32.32V8.211a.321.321,0,0,1-.32.32H5.438a.321.321,0,0,1-.32-.32Zm0,3.412a.321.321,0,0,1,.32-.32H6.5a.321.321,0,0,1,.32.32v1.066a.321.321,0,0,1-.32.32H5.438a.321.321,0,0,1-.32-.32ZM1.706,7.144a.321.321,0,0,1,.32-.32H3.092a.321.321,0,0,1,.32.32V8.211a.321.321,0,0,1-.32.32H2.026a.321.321,0,0,1-.32-.32Zm0,3.412a.321.321,0,0,1,.32-.32H3.092a.321.321,0,0,1,.32.32v1.066a.321.321,0,0,1-.32.32H2.026a.321.321,0,0,1-.32-.32Zm8.957-8.85H9.383V.427A.428.428,0,0,0,8.957,0H8.1a.428.428,0,0,0-.427.427v1.28H4.265V.427A.428.428,0,0,0,3.839,0H2.986a.428.428,0,0,0-.427.427v1.28H1.28A1.28,1.28,0,0,0,0,2.986v1.28H11.943V2.986A1.28,1.28,0,0,0,10.663,1.706Z" fill="#f9a72e"/>
</svg>
