<svg xmlns="http://www.w3.org/2000/svg" width="10.353" height="11.208" viewBox="0 0 10.353 11.208">
  <path id="Icon_ionic-ios-call" data-name="Icon ionic-ios-call" d="M14.544,13.279a8.682,8.682,0,0,0-1.816-1.316c-.544-.283-.744-.277-1.129.023-.321.251-.528.484-.9.4a5.387,5.387,0,0,1-1.8-1.444A5.767,5.767,0,0,1,7.563,8.986c-.078-.4.137-.624.367-.972.278-.417.286-.633.022-1.223A9.317,9.317,0,0,0,6.736,4.825c-.4-.429-.485-.336-.7-.251a3.9,3.9,0,0,0-.644.371,2.047,2.047,0,0,0-.773.884c-.154.359-.331,1.027.574,2.772A15.432,15.432,0,0,0,7.7,12.228h0l0,0,0,0h0a14.5,14.5,0,0,0,3.35,2.72c1.612.98,2.229.788,2.56.622a1.98,1.98,0,0,0,.817-.837,4.475,4.475,0,0,0,.342-.7C14.853,13.8,14.942,13.708,14.544,13.279Z" transform="translate(-4.49 -4.502)" fill="#fff"/>
</svg>
