<svg xmlns="http://www.w3.org/2000/svg" width="20.777" height="20.776" viewBox="0 0 20.777 20.776">
  <path id="call-tabs" d="M23.758,20.037a16.665,16.665,0,0,0-3.481-2.329c-1.043-.5-1.426-.491-2.164.041-.615.444-1.012.857-1.72.7A10.26,10.26,0,0,1,12.937,15.9,10.187,10.187,0,0,1,10.38,12.44c-.15-.713.263-1.105.7-1.72.532-.739.548-1.121.041-2.164A16.336,16.336,0,0,0,8.795,5.074c-.759-.759-.93-.594-1.348-.444a7.671,7.671,0,0,0-1.234.656A3.724,3.724,0,0,0,4.73,6.851c-.294.635-.635,1.818,1.1,4.907a27.38,27.38,0,0,0,4.814,6.42h0l.005.005.005.005h0A27.487,27.487,0,0,0,17.074,23c3.089,1.735,4.272,1.395,4.907,1.1a3.661,3.661,0,0,0,1.565-1.482,7.671,7.671,0,0,0,.656-1.234C24.352,20.967,24.523,20.8,23.758,20.037Z" transform="translate(-4.018 -4.039)" fill="none" stroke="#000" stroke-width="1"/>
</svg>
