<svg xmlns="http://www.w3.org/2000/svg" width="47.633" height="43.638" viewBox="0 0 47.633 43.638">
  <g id="chat" transform="translate(-10 -51.101)">
    <g id="Group_1282" data-name="Group 1282" transform="translate(10 51.101)">
      <path id="Path_667" data-name="Path 667" d="M422.293-459.743a3.976,3.976,0,0,0-2.54,2.167l-.3.614-.028,3.461-.028,3.47h3.916v-5.954h19.908v13.955h-3.182c-2.912,0-3.228.018-3.572.177-.214.093-1.451.977-2.754,1.953s-2.4,1.777-2.428,1.777a4.6,4.6,0,0,1-.065-1.1,8.334,8.334,0,0,0-.1-1.461,2.22,2.22,0,0,0-1.247-1.247,18.339,18.339,0,0,0-2.438-.1h-2.074v3.907h1.945l.028,2.307.028,2.317.261.382a1.959,1.959,0,0,0,2.158.865,37.343,37.343,0,0,0,4.233-2.986l3.852-2.884h2.847c3.1,0,3.507-.047,4.4-.53a4.7,4.7,0,0,0,1.609-1.749,4.5,4.5,0,0,0,.307-1.07c.139-.819.139-14.252,0-15.071a3.988,3.988,0,0,0-2.912-3.219C443.383-459.957,423.028-459.938,422.293-459.743Z" transform="translate(-399.501 459.899)" fill="#fff"/>
      <path id="Path_668" data-name="Path 668" d="M181.655-214.438a8,8,0,0,0-6.2,5.693,9.5,9.5,0,0,0,0,4.158,8.027,8.027,0,0,0,5.461,5.507,5.738,5.738,0,0,0,2.093.261,6.825,6.825,0,0,0,1.888-.167,8.021,8.021,0,0,0,5.842-5.777,6.74,6.74,0,0,0,.2-1.907,6.958,6.958,0,0,0-.716-3.34A7.935,7.935,0,0,0,181.655-214.438Z" transform="translate(-167.189 226.492)" fill="#fff"/>
      <path id="Path_669" data-name="Path 669" d="M23.629,153.6c-5.684.577-9.945,2.865-12.159,6.512A11.743,11.743,0,0,0,10,166.458v.912H41.723v-1.33a10.525,10.525,0,0,0-1.7-6.326c-2.056-3.135-5.879-5.256-10.764-5.973A36.863,36.863,0,0,0,23.629,153.6Z" transform="translate(-10 -123.732)" fill="#fff"/>
    </g>
  </g>
</svg>
