<svg xmlns="http://www.w3.org/2000/svg" width="20.907" height="20.907" viewBox="0 0 20.907 20.907">
  <g id="Icon_ionic-ios-chatbubbles" data-name="Icon ionic-ios-chatbubbles" transform="translate(0.6 0.6)">
    <path id="Path_503" data-name="Path 503" d="M23.085,16.289a1.148,1.148,0,0,1,.156-.578,1.6,1.6,0,0,1,.1-.147,7.676,7.676,0,0,0,1.307-4.278A8.058,8.058,0,0,0,16.42,3.375a8.172,8.172,0,0,0-8.067,6.3,7.613,7.613,0,0,0-.175,1.62,8.036,8.036,0,0,0,8.1,8.011,9.756,9.756,0,0,0,2.236-.365c.535-.147,1.066-.341,1.2-.393a1.252,1.252,0,0,1,.441-.081,1.232,1.232,0,0,1,.478.095l2.686.952a.641.641,0,0,0,.185.047.377.377,0,0,0,.379-.379.609.609,0,0,0-.024-.128Z" transform="translate(-4.942 -3.375)" fill="none" stroke="#000" stroke-width="1.2"/>
    <path id="Path_504" data-name="Path 504" d="M16.189,22.8c-.171.047-.388.1-.625.152a8.743,8.743,0,0,1-1.611.213,8.036,8.036,0,0,1-8.1-8.011,8.956,8.956,0,0,1,.071-1.014c.028-.2.062-.407.109-.606s.1-.426.166-.635l-.379.336a7.05,7.05,0,0,0-2.444,5.3A6.971,6.971,0,0,0,4.55,22.424c.109.166.171.294.152.379s-.564,2.937-.564,2.937a.38.38,0,0,0,.128.365.386.386,0,0,0,.242.085.34.34,0,0,0,.137-.028L7.3,25.115a.74.74,0,0,1,.568.009,7.973,7.973,0,0,0,2.875.568,7.44,7.44,0,0,0,5.689-2.61s.152-.208.327-.455C16.587,22.689,16.388,22.751,16.189,22.8Z" transform="translate(-3.375 -6.483)" fill="none" stroke="#000" stroke-width="1.2"/>
  </g>
</svg>
