<svg xmlns="http://www.w3.org/2000/svg" width="24" height="24" viewBox="0 0 24 24">
  <g id="Group_1030" data-name="Group 1030" transform="translate(-15 -193)">
    <rect id="Rectangle_290" data-name="Rectangle 290" width="24" height="24" rx="5" transform="translate(15 193)" fill="#fff"/>
    <path id="Icon_ionic-ios-contact" data-name="Icon ionic-ios-contact" d="M10.51,3.375h0A7.132,7.132,0,0,0,3.416,9.759a6.875,6.875,0,0,0,0,1.5,7.132,7.132,0,0,0,7.094,6.384h0a7.135,7.135,0,0,0,0-14.27Zm4.658,11.186c-.779-.295-2.041-.727-2.826-.96-.082-.024-.093-.031-.093-.367a1.952,1.952,0,0,1,.226-.8,3.986,3.986,0,0,0,.316-1.084,2.41,2.41,0,0,0,.467-1.129,1.505,1.505,0,0,0-.014-.947.607.607,0,0,1-.021-.058,6.168,6.168,0,0,1,.106-1.331,2.451,2.451,0,0,0-.511-1.76,2.622,2.622,0,0,0-2.007-.96h-.6a2.619,2.619,0,0,0-1.99.96,2.44,2.44,0,0,0-.515,1.76,6.168,6.168,0,0,1,.106,1.331c-.007.024-.014.041-.021.062a1.48,1.48,0,0,0-.014.947,2.447,2.447,0,0,0,.467,1.129,4.151,4.151,0,0,0,.316,1.084,1.916,1.916,0,0,1,.13.81c0,.34-.014.343-.089.367-.813.24-2.02.665-2.744.954A6.174,6.174,0,1,1,16.684,10.51,6.118,6.118,0,0,1,15.168,14.561Z" transform="translate(16.625 194.625)" fill="#f9a72e"/>
  </g>
</svg>
