<svg xmlns="http://www.w3.org/2000/svg" width="37" height="37" viewBox="0 0 37 37">
  <g id="Group_1047" data-name="Group 1047" transform="translate(-29 -317)">
    <circle id="Ellipse_66" data-name="Ellipse 66" cx="18.5" cy="18.5" r="18.5" transform="translate(29 317)" fill="#fff"/>
    <g id="blog-new1-svg" transform="translate(137.043 783.715)">
      <path id="Path_27029" data-name="Path 27029" d="M12.555-129.6a6.12,6.12,0,0,0-4.446,4.882,51.948,51.948,0,0,0,.073,8.805,6.324,6.324,0,0,0,3.24,4.2l.974.48H22.653l.817-.374a6.363,6.363,0,0,0,2.613-2.982c.421-.93.61-2.586.625-5.405,0-1.7-.1-2.281-.48-2.528a7.858,7.858,0,0,0-1.279-.189,2.582,2.582,0,0,1-1.351-.334,5.713,5.713,0,0,1-.436-1.54,8.549,8.549,0,0,0-.552-1.962,6.724,6.724,0,0,0-2.819-2.63l-1-.509-2.833-.029A27.664,27.664,0,0,0,12.555-129.6ZM18-124.569a1.131,1.131,0,0,1,.058,1.5c-.247.262-.436.291-2.412.291-2.151,0-2.151,0-2.441-.378a.855.855,0,0,1-.145-1.133c.262-.552.756-.668,2.775-.625C17.525-124.889,17.714-124.86,18-124.569Zm3.474,6.437a1.571,1.571,0,0,1,.167,1.592c-.276.625-.706.588-4.324.588-2.717,0-3.5-.044-3.822-.218-.668-.334-.641-1.337-.147-1.962h8.126Z" transform="translate(-107 -328)" fill="#f9a72e"/>
    </g>
  </g>
</svg>
