<svg xmlns="http://www.w3.org/2000/svg" width="20" height="20" viewBox="0 0 20 20">
  <g id="edit" transform="translate(-191 -93)">
    <g id="Ellipse_65" data-name="Ellipse 65" transform="translate(191 93)" fill="#fff" stroke="#e7e2ff" stroke-width="1">
      <circle cx="10" cy="10" r="10" stroke="none"/>
      <circle cx="10" cy="10" r="9.5" fill="none"/>
    </g>
    <g id="Icon_feather-edit" data-name="Icon feather-edit" transform="translate(193.182 110.771) rotate(-90)">
      <path id="Path_528" data-name="Path 528" d="M7.371,6h-3.4A.971.971,0,0,0,3,6.971v6.8a.971.971,0,0,0,.971.971h6.8a.971.971,0,0,0,.971-.971v-3.4" transform="translate(0 -2.152)" fill="none" stroke="#f9a72e" stroke-linecap="round" stroke-linejoin="round" stroke-width="1"/>
      <path id="Path_529" data-name="Path 529" d="M17.1,3.12a1.03,1.03,0,1,1,1.457,1.457L13.942,9.19,12,9.676l.486-1.942Z" transform="translate(-6.086 0)" fill="none" stroke="#f9a72e" stroke-linecap="round" stroke-linejoin="round" stroke-width="1"/>
    </g>
  </g>
</svg>
