<svg xmlns="http://www.w3.org/2000/svg" width="37" height="37" viewBox="0 0 37 37">
  <g id="Group_1047" data-name="Group 1047" transform="translate(-29 -317)">
    <circle id="Ellipse_66" data-name="Ellipse 66" cx="18.5" cy="18.5" r="18.5" transform="translate(29 317)" fill="#fff"/>
    <g id="faq" transform="translate(28 315.945)">
      <g id="Group_1528" data-name="Group 1528" transform="translate(10 10.055)">
        <path id="Path_26959" data-name="Path 26959" d="M18.161-500.828a10.632,10.632,0,0,0-4.148,1.807,10.164,10.164,0,0,0-3.9,6.3,12.7,12.7,0,0,0,.008,3.431,10.035,10.035,0,0,0,5.262,7.149,9.987,9.987,0,0,0,10.468-.836,9.975,9.975,0,0,0,2.1-13.947,10,10,0,0,0-6.3-3.9A13.168,13.168,0,0,0,18.161-500.828Zm3.224,1.194a8.565,8.565,0,0,1,4.808,2.539,8.714,8.714,0,0,1-1.783,13.6,8.7,8.7,0,0,1-10.556-1.266,8.515,8.515,0,0,1-2.54-4.808,8.963,8.963,0,0,1,.812-5.382A8.822,8.822,0,0,1,21.385-499.634Z" transform="translate(-10 500.945)" fill="#f9a72e"/>
        <path id="Path_26960" data-name="Path 26960" d="M330.178-297.191a3.036,3.036,0,0,0-1.918,1.417,3.108,3.108,0,0,0-.3,1.377c.032.088.247.112.947.112h.908l.048-.318c.088-.669.605-1.043,1.489-1.1a1.419,1.419,0,0,1,1.624,1.592c-.008.8-.279,1.274-1.266,2.253-1.218,1.21-1.305,1.361-1.433,2.444l-.048.462h.947c1.051,0,1.051,0,1.051-.525,0-.486.2-.788,1.13-1.711a5.3,5.3,0,0,0,1.162-1.425,3.108,3.108,0,0,0-2.038-4.609A6.951,6.951,0,0,0,330.178-297.191Z" transform="translate(-321.484 301.439)" fill="#f9a72e"/>
        <path id="Path_26961" data-name="Path 26961" d="M440.83,185.386v.916h1.99V184.47h-1.99Z" transform="translate(-432.08 -170.55)" fill="#f9a72e"/>
      </g>
    </g>
  </g>
</svg>
