<svg xmlns="http://www.w3.org/2000/svg" width="29.63" height="29.572" viewBox="0 0 29.63 29.572">
  <g id="female" transform="translate(-10 -10.946)">
    <g id="Group_1314" data-name="Group 1314" transform="translate(10 10.946)">
      <path id="Path_993" data-name="Path 993" d="M143.4-501.013a8.7,8.7,0,0,0-6.925,5.347,9.68,9.68,0,0,0-.671,3.52c-.145,2.532-1.156,5.93-2.11,7.1-.445.549-.416.879.122,1.272a13.656,13.656,0,0,0,5.439,1.688l.884.139.422.341a6.986,6.986,0,0,0,1.717,1.046,5.814,5.814,0,0,0,6.069-1.023l.451-.364.884-.139c2.751-.434,4.867-1.121,5.6-1.815.376-.358.37-.63-.011-1.081a12.758,12.758,0,0,1-1.613-3.89,18.452,18.452,0,0,1-.578-3.89,8.062,8.062,0,0,0-.434-2.393,8.294,8.294,0,0,0-2.11-3.376,8.4,8.4,0,0,0-4.364-2.37A11.536,11.536,0,0,0,143.4-501.013Zm-.173,7.306a24.483,24.483,0,0,0,2.618,1.734,14.958,14.958,0,0,0,5.757,1.838c.145.011.179.046.226.214a3.872,3.872,0,0,1-.37,2.214c-.11.145-.139.15-.451.122s-.347-.029-.514.127a1.484,1.484,0,0,0-.33.717,7.981,7.981,0,0,1-3.416,4.775,4.6,4.6,0,0,1-4.035.254,7.415,7.415,0,0,1-3.827-4.682c-.116-.364-.237-.74-.272-.832a.661.661,0,0,0-.85-.324c-.156.087-.376-.208-.532-.711a3.083,3.083,0,0,1-.133-1.081,5.467,5.467,0,0,1,.04-.809c.035-.11.179-.214.578-.422a9.009,9.009,0,0,0,3.451-3.15,7.593,7.593,0,0,0,.543-1.185c.035-.093.127-.029.572.387C142.582-494.25,143.009-493.886,143.229-493.707Z" transform="translate(-129.657 501.054)"/>
      <path id="Path_994" data-name="Path 994" d="M377.788-134.524a.56.56,0,0,0-.115.723c.133.249.312.295,1.185.295.705,0,.815-.011.942-.116a.591.591,0,0,0-.035-.988c-.156-.093-.295-.11-.977-.11h-.8Z" transform="translate(-366.477 145.796)"/>
      <path id="Path_995" data-name="Path 995" d="M541.126-134.62a.659.659,0,0,0-.277.665.711.711,0,0,0,.208.295c.162.139.2.145.971.145.873,0,1.029-.041,1.173-.289a.536.536,0,0,0-.1-.728l-.2-.2h-.8C541.421-134.73,541.282-134.713,541.126-134.62Z" transform="translate(-524.785 145.806)"/>
      <path id="Path_996" data-name="Path 996" d="M16.809,139.3c-.988.347-2.006.734-2.266.855a7.427,7.427,0,0,0-2.156,1.566,7.445,7.445,0,0,0-1.931,3.064,7.191,7.191,0,0,0-.422,2.584L10,148.481l.208.208.2.2H39.22l.2-.2.208-.208-.035-1.11a7.609,7.609,0,0,0-.174-1.717,7.758,7.758,0,0,0-2.2-3.96,7.4,7.4,0,0,0-2.2-1.561c-.642-.3-4-1.474-4.214-1.474-.115,0-.295.127-.694.5A7.94,7.94,0,0,1,26.4,141.3a4.792,4.792,0,0,1-1.526.167,6.256,6.256,0,0,1-3.208-.751,8.647,8.647,0,0,1-2.15-1.549c-.457-.428-.567-.5-.723-.5C18.688,138.671,17.8,138.955,16.809,139.3Z" transform="translate(-10 -119.319)"/>
    </g>
  </g>
</svg>
