<svg xmlns="http://www.w3.org/2000/svg" width="11.108" height="11.053" viewBox="0 0 11.108 11.053">
  <g id="incoming-call-icon" transform="translate(0 0.004)">
    <path id="Path_26989" data-name="Path 26989" d="M71.06,6.8c-.014.018-.03.035-.046.053L68.386,9.431l.674.035a.523.523,0,1,1-.052,1.045l-1.877-.095a.523.523,0,0,1-.493-.457h0l-.25-1.984a.525.525,0,1,1,1.041-.133l.108.861L70.2,5.94l.856.856Z" transform="translate(-60.382 -5.406)" fill="#38ae48"/>
    <path id="Path_26990" data-name="Path 26990" d="M3.06,4.54A9.191,9.191,0,0,0,4.423,6.45a7.722,7.722,0,0,0,2.16,1.593.216.216,0,0,0,.186.01.817.817,0,0,0,.26-.19,2.994,2.994,0,0,0,.237-.289c.346-.457.777-1.023,1.383-.74l.037.02,2.021,1.164.02.014a.912.912,0,0,1,.381.787,2.133,2.133,0,0,1-.3,1,2.06,2.06,0,0,1-.973.86,4.466,4.466,0,0,1-1.2.326,4.063,4.063,0,0,1-1.833-.154,8.113,8.113,0,0,1-1.843-.89l-.047-.031c-.3-.186-.624-.387-.94-.624A11.749,11.749,0,0,1,.86,5.773,5.751,5.751,0,0,1,.053,2.136,2.613,2.613,0,0,1,.936.479,2.375,2.375,0,0,1,2.7.009a.253.253,0,0,1,.2.13L4.2,2.333a.688.688,0,0,1,.11.734,1.451,1.451,0,0,1-.5.557c-.07.06-.154.12-.24.183-.289.21-.62.453-.507.74l0-.006Z" transform="translate(0)" fill="#f9a72e"/>
  </g>
</svg>
