<svg xmlns="http://www.w3.org/2000/svg" width="20.487" height="20.138" viewBox="0 0 20.487 20.138">
  <g id="language" transform="translate(-6 94.039)">
    <path id="Path_649" data-name="Path 649" d="M14.463-93.515c-.473.5-.5.721-.5,5.141,0,6.11-.5,5.614,5.659,5.614,6.11,0,5.614.5,5.614-5.659,0-6.11.5-5.614-5.659-5.614C15.027-94.033,14.937-94.033,14.463-93.515Z" transform="translate(-6.267 0.5)" fill="#f9a72e" stroke="#000" stroke-width="1"/>
    <path id="Path_650" data-name="Path 650" d="M49.407-63.553c0,.406.18.451,2.435.5l2.412.068v9.244H45.011l-.068-2.435c-.045-2.232-.09-2.412-.5-2.412-.428,0-.451.158-.451,2.435,0,3.562-.225,3.427,5.659,3.427,6.11,0,5.614.5,5.614-5.659,0-5.84.135-5.614-3.45-5.614C49.565-64,49.407-63.981,49.407-63.553Z" transform="translate(-29.428 -22.878)"/>
    <text id="A" transform="translate(8.223 -92.533)" font-size="8" font-family="Hind-Regular, Hind"><tspan x="2" y="8">A</tspan></text>
    <text id="अ" transform="translate(16.487 -85.02)" font-size="7" font-family="Hind-Regular, Hind"><tspan x="2" y="7">अ</tspan></text>
    <path id="Path_651" data-name="Path 651" d="M6.158-39.834A11.128,11.128,0,0,0,6-37.331c0,3.156.068,3.224,3.314,3.224h2.412l-.654.676c-.519.541-.586.744-.383.947.225.225.541.023,1.466-.9l1.172-1.172L12.155-35.73c-.924-.924-1.24-1.127-1.466-.9-.2.2-.135.406.383.947l.654.7-2.345-.068-2.367-.068L6.9-37.466C6.789-39.631,6.586-40.262,6.158-39.834Z" transform="translate(0 -41.502)"/>
  </g>
</svg>
