<svg xmlns="http://www.w3.org/2000/svg" width="29.48" height="31.704" viewBox="0 0 29.48 31.704">
  <g id="male" transform="translate(-44.38 -10)">
    <g id="Group_1315" data-name="Group 1315" transform="translate(44.38 10)">
      <path id="Path_997" data-name="Path 997" d="M222.642-500.926a8.705,8.705,0,0,0-3.291,1.291c-.376.238-.376.238-1.354.307-2.225.157-3.473.57-4.4,1.442a2.647,2.647,0,0,0-.639.846c-.389.8-.426,1.016-.451,2.9l-.031,1.711-.389.276a2.92,2.92,0,0,0-.639.633l-.245.357-.019,1.781c-.019,1.636-.006,1.805.1,2.05A2.234,2.234,0,0,0,212.9-486.1l.263.063.069.5a9.333,9.333,0,0,0,4.852,6.989,5.186,5.186,0,0,0,1.881.533c2.677.27,5.328-1.486,6.858-4.538a9.555,9.555,0,0,0,.959-3.009c.069-.445.125-.533.345-.533a2.749,2.749,0,0,0,1.266-.715c.433-.489.457-.646.457-2.526a7.665,7.665,0,0,0-.088-1.868,3.573,3.573,0,0,0-.959-1.047l-.269-.182v-1.987l.276-.451a3.475,3.475,0,0,0,.583-1.786,3.242,3.242,0,0,0-.978-2.614,5.381,5.381,0,0,0-2.7-1.536A9.556,9.556,0,0,0,222.642-500.926Z" transform="translate(-205.781 501)"/>
      <path id="Path_998" data-name="Path 998" d="M63.843,192.4a9.733,9.733,0,0,1-1.742,1.091,7.19,7.19,0,0,1-7.641-1.022.709.709,0,0,0-.263-.163c-.006.013-.194.289-.407.6l-.389.583h-.959c-.533,0-1.247.031-1.6.063-3.535.363-6.036,2.676-6.394,5.911-.038.332-.069.928-.069,1.329v.721H73.86l-.038-1.147a7.341,7.341,0,0,0-.47-2.7,6.6,6.6,0,0,0-5.015-3.987,10.9,10.9,0,0,0-2.031-.169l-1.417-.038-.42-.614c-.232-.345-.42-.62-.426-.62S63.95,192.315,63.843,192.4Z" transform="translate(-44.38 -169.813)"/>
    </g>
  </g>
</svg>
