<svg xmlns="http://www.w3.org/2000/svg" width="22" height="18.35" viewBox="0 0 22 18.35">
  <g id="menu" transform="translate(-10 -91.3)">
    <path id="Path_26951" data-name="Path 26951" d="M11.877,421.1a1.774,1.774,0,1,0,0,3.542,1.771,1.771,0,1,0,0-3.542Z" transform="translate(0 -322.396)"/>
    <path id="Path_26952" data-name="Path 26952" d="M11.877,746.2A1.87,1.87,0,0,0,10,748.077a1.849,1.849,0,0,0,1.877,1.771,1.828,1.828,0,0,0,1.773-1.771A1.85,1.85,0,0,0,11.877,746.2Z" transform="translate(0 -640.198)"/>
    <path id="Path_26953" data-name="Path 26953" d="M11.877,91.3A1.851,1.851,0,0,0,10,93.071a1.871,1.871,0,0,0,1.877,1.879,1.852,1.852,0,0,0,1.773-1.879A1.828,1.828,0,0,0,11.877,91.3Z" transform="translate(0)"/>
    <path id="Path_26954" data-name="Path 26954" d="M228.3,109.9a1.678,1.678,0,0,1,.624,1.354,1.752,1.752,0,0,1-.624,1.461h17.1V109.9Z" transform="translate(-213.399 -18.182)"/>
    <path id="Path_26955" data-name="Path 26955" d="M228.924,766.259a1.675,1.675,0,0,1-.624,1.354h17.1V764.8H228.3A1.744,1.744,0,0,1,228.924,766.259Z" transform="translate(-213.399 -658.381)"/>
    <path id="Path_26956" data-name="Path 26956" d="M228.924,440.956a1.682,1.682,0,0,1-.624,1.356h17.1V439.6H228.3A1.682,1.682,0,0,1,228.924,440.956Z" transform="translate(-213.399 -340.481)"/>
  </g>
</svg>
