<svg xmlns="http://www.w3.org/2000/svg" width="44.102" height="43.129" viewBox="0 0 44.102 43.129">
  <path id="Icon_material-notifications-active" data-name="Icon material-notifications-active" d="M15.32,7.245,12.157,4.082A23.057,23.057,0,0,0,3.045,21.444H7.468A18.679,18.679,0,0,1,15.32,7.245Zm27.4,14.2h4.423A23.2,23.2,0,0,0,38.035,4.082L34.894,7.245A18.789,18.789,0,0,1,42.724,21.444ZM38.366,22.55c0-6.79-3.627-12.474-9.953-13.978v-1.5a3.318,3.318,0,0,0-6.635,0v1.5c-6.348,1.5-9.953,7.166-9.953,13.978V33.608L7.4,38.032v2.212H42.79V38.032l-4.423-4.423ZM25.1,46.879a3.875,3.875,0,0,0,.885-.088,4.488,4.488,0,0,0,3.185-2.61,4.44,4.44,0,0,0,.332-1.725H20.65A4.455,4.455,0,0,0,25.1,46.879Z" transform="translate(-3.045 -3.75)" fill="#fff"/>
</svg>
