<svg xmlns="http://www.w3.org/2000/svg" width="17.841" height="17.872" viewBox="0 0 17.841 17.872">
  <path id="Icon_feather-phone-call" data-name="Icon feather-phone-call" d="M13.24,4.614a3.893,3.893,0,0,1,3.075,3.075M13.24,1.5a7.007,7.007,0,0,1,6.189,6.181m-.779,6.212v2.336a1.557,1.557,0,0,1-1.7,1.557,15.407,15.407,0,0,1-6.718-2.39,15.181,15.181,0,0,1-4.671-4.671,15.407,15.407,0,0,1-2.39-6.75,1.557,1.557,0,0,1,1.549-1.7H7.059A1.557,1.557,0,0,1,8.616,3.618a10,10,0,0,0,.545,2.188,1.557,1.557,0,0,1-.35,1.643l-.989.989a12.456,12.456,0,0,0,4.671,4.671l.989-.989a1.557,1.557,0,0,1,1.643-.35,10,10,0,0,0,2.188.545A1.557,1.557,0,0,1,18.651,13.894Z" transform="translate(-2.417 -0.672)" fill="none" stroke="#000" stroke-linecap="round" stroke-linejoin="round" stroke-width="1.5"/>
</svg>
