<svg xmlns="http://www.w3.org/2000/svg" width="37" height="37" viewBox="0 0 37 37">
  <g id="Group_1047" data-name="Group 1047" transform="translate(-29 -317)">
    <circle id="Ellipse_66" data-name="Ellipse 66" cx="18.5" cy="18.5" r="18.5" transform="translate(29 317)" fill="#fff"/>
    <path id="Icon_awesome-rupee-sign" data-name="Icon awesome-rupee-sign" d="M12.357,4.818a.481.481,0,0,0,.481-.481v-1.6a.481.481,0,0,0-.481-.481H.481A.481.481,0,0,0,0,2.731v1.8a.481.481,0,0,0,.481.481H3.9A2.894,2.894,0,0,1,6.349,6.1H.481A.481.481,0,0,0,0,6.583v1.6a.481.481,0,0,0,.481.481h6.37a2.773,2.773,0,0,1-3,2.352H.481A.481.481,0,0,0,0,11.5V13.63a.482.482,0,0,0,.155.354L6.777,20.1a.481.481,0,0,0,.327.128h3.313a.481.481,0,0,0,.327-.835L4.689,13.8a5.5,5.5,0,0,0,5.55-5.132h2.119a.481.481,0,0,0,.481-.481v-1.6a.481.481,0,0,0-.481-.481H10a5.5,5.5,0,0,0-.572-1.284Z" transform="translate(41 324.75)" fill="#f9a72e"/>
  </g>
</svg>
