<svg xmlns="http://www.w3.org/2000/svg" width="15.67" height="18.281" viewBox="0 0 15.67 18.281">
  <path id="Icon_ionic-ios-git-pull-request" data-name="Icon ionic-ios-git-pull-request" d="M17.925,14.884V9.35a7.289,7.289,0,0,0-.384-2.665A2.841,2.841,0,0,0,14.7,4.862H11.531l1.62-1.64a.576.576,0,0,0,0-.808l0,0a.59.59,0,0,0-.4-.159.551.551,0,0,0-.4.167L10.107,4.645A2.859,2.859,0,1,0,6.744,8.224v6.664a2.841,2.841,0,1,0,1.143-.02V8.24a2.853,2.853,0,0,0,2.232-2.081l2.3,2.293a.568.568,0,0,0,.4.167.558.558,0,0,0,.4-.167.568.568,0,0,0,.167-.4.558.558,0,0,0-.167-.4l0,0L11.547,6H14.7a1.7,1.7,0,0,1,1.7.959,5.819,5.819,0,0,1,.384,2.387v5.517a2.855,2.855,0,1,0,1.143.016ZM9.07,17.675a1.714,1.714,0,1,1-1.714-1.714A1.714,1.714,0,0,1,9.07,17.675ZM7.356,7.147A1.714,1.714,0,1,1,9.07,5.433,1.714,1.714,0,0,1,7.356,7.147Zm9.957,12.242a1.714,1.714,0,1,1,1.714-1.714A1.714,1.714,0,0,1,17.313,19.389Z" transform="translate(-4.5 -2.25)"/>
</svg>
