<svg xmlns="http://www.w3.org/2000/svg" width="42" height="42" viewBox="0 0 42 42">
  <g id="Group_1440" data-name="Group 1440" transform="translate(-28 -134)">
    <circle id="Ellipse_70" data-name="Ellipse 70" cx="21" cy="21" r="21" transform="translate(28 134)" fill="#ffefd6"/>
    <path id="Icon_metro-event-busy" data-name="Icon metro-event-busy" d="M13.329,21.358,16,18.689l2.669,2.669L19.826,20.2l-2.669-2.669,2.669-2.669L18.667,13.7,16,16.37,13.329,13.7,12.169,14.86l2.669,2.669L12.169,20.2Zm10.6-15.314H22.834V3.856H20.647V6.044H11.9V3.856H9.708V6.044H8.614A2.178,2.178,0,0,0,6.438,8.231L6.427,23.545a2.187,2.187,0,0,0,2.188,2.188H23.928a2.187,2.187,0,0,0,2.188-2.188V8.231A2.187,2.187,0,0,0,23.928,6.044Zm0,17.5H8.614V11.513H23.928Z" transform="translate(32.573 140.144)" fill="#f9a72e"/>
  </g>
</svg>
