<svg xmlns="http://www.w3.org/2000/svg" width="24" height="24" viewBox="0 0 24 24">
  <g id="Group_1033" data-name="Group 1033" transform="translate(-15 -193)">
    <rect id="Rectangle_290" data-name="Rectangle 290" width="24" height="24" rx="5" transform="translate(15 193)" fill="#fff"/>
    <g id="terms" transform="translate(9 187)">
      <path id="Path_534" data-name="Path 534" d="M23.227,13.218H16.792a.358.358,0,0,0,0,.716h6.434a.358.358,0,1,0,0-.716ZM25.014,24.3a.715.715,0,0,1-.716.716H11.43a.715.715,0,0,1-.716-.716V11.43a.715.715,0,0,1,.716-.716H24.3a.716.716,0,0,1,.716.716V24.3ZM24.3,10H11.43A1.43,1.43,0,0,0,10,11.43V24.3a1.43,1.43,0,0,0,1.43,1.43H24.3a1.43,1.43,0,0,0,1.43-1.43V11.43A1.429,1.429,0,0,0,24.3,10Zm-1.072,7.508H16.792a.358.358,0,0,0,0,.716h6.434a.358.358,0,1,0,0-.716Zm-9.262,4.256-.39-1.04-.39,1.04h-1.04l.844.65-.388,1.17.974-.716.974.716-.39-1.17.844-.65Zm-.39-5.33-.39,1.04h-1.04l.844.65-.388,1.17.974-.716.974.716-.39-1.17.844-.65H13.964l-.39-1.04Zm0-4.29-.39,1.04h-1.04l.844.65L12.6,15.006l.974-.716.974.716-.388-1.17.844-.65h-1.04l-.39-1.042ZM23.227,21.8H16.792a.359.359,0,0,0,0,.717h6.434a.359.359,0,0,0,0-.717Z" fill="#f9a72e"/>
    </g>
  </g>
</svg>
