<svg xmlns="http://www.w3.org/2000/svg" width="24" height="24" viewBox="0 0 24 24">
  <g id="Group_1035" data-name="Group 1035" transform="translate(-15 -193)">
    <rect id="Rectangle_290" data-name="Rectangle 290" width="24" height="24" rx="5" transform="translate(15 193)" fill="#fff"/>
    <g id="privacy" transform="translate(9 187)">
      <path id="Path_535" data-name="Path 535" d="M25.086,10a.762.762,0,0,0-.284.057h0l-.006,0-6.88,2.847-6.88-2.847-.006,0h0A.764.764,0,0,0,10.741,10a.742.742,0,0,0-.741.741V22.117a.742.742,0,0,0,.462.688l7.158,2.962a.741.741,0,0,0,.294.06.777.777,0,0,0,.294-.06l7.158-2.962a.742.742,0,0,0,.464-.688V10.741A.745.745,0,0,0,25.086,10ZM17.172,23.975l-5.688-2.353V11.852l5.688,2.353Zm7.171-2.353-5.688,2.353V14.205l5.688-2.353Z" fill="#f9a72e"/>
      <path id="Path_536" data-name="Path 536" d="M148.234,256.416l2.72,1.237a.722.722,0,0,0,.307.066.741.741,0,0,0,.307-1.416l-2.72-1.237a.722.722,0,0,0-.307-.066.741.741,0,0,0-.307,1.416Z" transform="translate(-135.575 -241.043)" fill="#f9a72e"/>
      <path id="Path_537" data-name="Path 537" d="M148.234,424.916l2.72,1.237a.722.722,0,0,0,.307.066.741.741,0,0,0,.307-1.416l-2.72-1.237a.722.722,0,0,0-.307-.066.741.741,0,0,0-.307,1.416Z" transform="translate(-135.575 -406.822)" fill="#f9a72e"/>
      <path id="Path_538" data-name="Path 538" d="M148.332,593.316l2.72,1.237a.721.721,0,0,0,.307.066.741.741,0,0,0,.307-1.416l-2.718-1.237a.721.721,0,0,0-.307-.066.742.742,0,0,0-.308,1.416Z" transform="translate(-135.672 -572.502)" fill="#f9a72e"/>
      <path id="Path_539" data-name="Path 539" d="M592.641,257.72a.747.747,0,0,0,.307-.066l2.72-1.237a.742.742,0,0,0-.614-1.35l-2.72,1.237a.741.741,0,0,0,.307,1.416Z" transform="translate(-572.502 -241.043)" fill="#f9a72e"/>
      <path id="Path_540" data-name="Path 540" d="M592.641,426.22a.747.747,0,0,0,.307-.066l2.72-1.237a.741.741,0,0,0-.307-1.416.747.747,0,0,0-.307.066l-2.72,1.237a.741.741,0,0,0,.307,1.416Z" transform="translate(-572.502 -406.822)" fill="#f9a72e"/>
      <path id="Path_541" data-name="Path 541" d="M592.641,594.62a.747.747,0,0,0,.307-.066l2.72-1.237a.742.742,0,0,0-.614-1.35l-2.72,1.237a.741.741,0,0,0,.307,1.416Z" transform="translate(-572.502 -572.502)" fill="#f9a72e"/>
    </g>
  </g>
</svg>
