<svg xmlns="http://www.w3.org/2000/svg" width="24" height="24" viewBox="0 0 24 24">
  <g id="Group_1030" data-name="Group 1030" transform="translate(-15 -193)">
    <rect id="Rectangle_290" data-name="Rectangle 290" width="24" height="24" rx="5" transform="translate(15 193)" fill="#fff"/>
    <path id="earn-icon" d="M10.224,5.261a.609.609,0,0,1,.089.308c0,.581-.9,1.052-2.008,1.052S6.3,6.15,6.3,5.569a.616.616,0,0,1,.092-.315,2.3,2.3,0,0,0,1.914.737,2.3,2.3,0,0,0,1.911-.729c0-.01,0-.011.008,0ZM3.547,12.5V7.02H6.014A9.105,9.105,0,0,1,9.149,8.431h1.914c.867.052,1.321.931.479,1.507a3.546,3.546,0,0,1-2.467.384.412.412,0,1,0,0,.812c.227.018.475-.035.689-.035A2.811,2.811,0,0,0,12.4,9.987l.283-.67L15.54,7.911c1.425-.469,2.44,1.021,1.389,2.058A37.277,37.277,0,0,1,10.583,13.7a4.292,4.292,0,0,1-4.714,0ZM0,6.5H2.806v6.552H0Zm16.035-.835a.735.735,0,0,1,.066.3c0,.706-1.1,1.29-2.46,1.29s-2.46-.578-2.46-1.29a.754.754,0,0,1,.113-.386,2.81,2.81,0,0,0,2.347.9,2.947,2.947,0,0,0,2.283-.807C16,5.569,15.974,5.534,16.035,5.664Zm-.027-1.612A.749.749,0,0,1,16.1,4.4c0,.706-1.1,1.29-2.46,1.29s-2.46-.578-2.46-1.29a.761.761,0,0,1,.12-.391,2.81,2.81,0,0,0,2.347.9,2.875,2.875,0,0,0,2.321-.863c.032-.048.02-.057.045-.007ZM14.527.8l-.025.283L13.294.979a1.11,1.11,0,0,1,.208.434l-.291-.027a.91.91,0,0,0-.131-.283.575.575,0,0,0-.25-.225l.027-.26L14.513.76c.032,0,.023,0,.018.038ZM13.774.266c1.054.025,1.889.372,1.889.79,0,.439-.906.794-2.022.794s-2.022-.356-2.022-.794c0-.417.822-.759,1.863-.79h.291ZM13.808,0c1.28.047,2.3.607,2.3,1.29,0,.706-1.1,1.29-2.46,1.29S11.186,2,11.186,1.29c0-.681,1-1.24,2.282-1.29Zm2.3,2.869c0,.706-1.1,1.29-2.46,1.29s-2.46-.578-2.46-1.29a.73.73,0,0,1,.1-.37,2.758,2.758,0,0,0,2.351.92C14.37,3.419,15.6,3.2,16,2.5a.742.742,0,0,1,.1.37ZM9.042,2.6l-.024.26-.989-.085a.906.906,0,0,1,.165.355l-.242-.025a.757.757,0,0,0-.106-.233.5.5,0,0,0-.2-.184l.018-.21L9.03,2.6Zm-.468-.4c.788.048,1.392.316,1.392.639,0,.357-.739.647-1.65.647S6.667,3.2,6.667,2.841c0-.315.574-.578,1.334-.634a3.886,3.886,0,0,1,.574,0Zm.037-.212c.958.075,1.7.513,1.7,1.041,0,.581-.9,1.052-2.008,1.052S6.3,3.612,6.3,3.032c0-.53.746-.968,1.716-1.041a3.673,3.673,0,0,1,.585,0Zm1.626,2.044a.612.612,0,0,1,.075.283c0,.585-.9,1.051-2.008,1.051S6.3,4.9,6.3,4.316a.582.582,0,0,1,.085-.3,2.267,2.267,0,0,0,1.921.75,2.286,2.286,0,0,0,1.914-.735c.011-.02,0-.021.018,0Z" transform="translate(18 198)" fill="#f9a72e" fill-rule="evenodd"/>
  </g>
</svg>
