<svg xmlns="http://www.w3.org/2000/svg" width="24" height="24" viewBox="0 0 24 24">
  <g id="Group_1030" data-name="Group 1030" transform="translate(-15 -193)">
    <rect id="Rectangle_290" data-name="Rectangle 290" width="24" height="24" rx="5" transform="translate(15 193)" fill="#fff"/>
    <path id="Icon_material-rate-review" data-name="Icon material-rate-review" d="M15.969,3H4.441A1.439,1.439,0,0,0,3.007,4.441L3,17.41l2.882-2.882H15.969a1.445,1.445,0,0,0,1.441-1.441V4.441A1.445,1.445,0,0,0,15.969,3ZM5.882,11.646V9.866l4.957-4.957a.357.357,0,0,1,.512,0l1.275,1.275a.357.357,0,0,1,0,.512l-4.964,4.95Zm8.646,0h-5.4l1.441-1.441h3.963Z" transform="translate(17 195)" fill="#f9a72e"/>
  </g>
</svg>
