<svg xmlns="http://www.w3.org/2000/svg" width="43.109" height="49.884" viewBox="0 0 43.109 49.884">
  <g id="user" transform="translate(-76.36 -9.384)">
    <g id="Group_1069" data-name="Group 1069" transform="translate(76.96 10.002)">
      <path id="Path_660" data-name="Path 660" d="M299.84-500.946c-4.433.449-6.955,2.3-7.844,5.78a13.452,13.452,0,0,0-.249,3.421c-.038,2.389-.057,2.646-.219,2.819-.507.545-.66,1.691-.478,3.449a11.964,11.964,0,0,0,.592,3.115,2.382,2.382,0,0,0,1.166,1.185c.2.048.239.134.3.545a10.357,10.357,0,0,0,3.1,5.9,6.9,6.9,0,0,0,4.835,2.265,6.4,6.4,0,0,0,3.344-.679,10.471,10.471,0,0,0,5.255-7.481c.057-.411.1-.5.3-.545a2.377,2.377,0,0,0,1.166-1.185,13.494,13.494,0,0,0,.468-5.952,2.009,2.009,0,0,0-.354-.611c-.182-.162-.191-.306-.191-2.255,0-2.379-.115-3.2-.583-4.156a5.658,5.658,0,0,0-2-2.035,1.341,1.341,0,0,1-.7-.774,5.063,5.063,0,0,0-3.43-2.474A14.538,14.538,0,0,0,299.84-500.946Zm-.907,6.688,1.338.65h2.035l1.271-.65c1.127-.564,1.347-.64,1.816-.64,1.252,0,2.064.621,2.809,2.13.573,1.156.659,1.835.573,4.194a17.059,17.059,0,0,0-.01,1.8,2.319,2.319,0,0,0,.325-.6c.344-.746.592-.984.87-.841.372.2.44.478.42,1.681a14.608,14.608,0,0,1-.535,3.669,1.491,1.491,0,0,1-.64.506,2.133,2.133,0,0,0-.65.468,4.817,4.817,0,0,0-.258,1.079,7.01,7.01,0,0,1-.774,2.475c-1.664,3.325-4.692,5.131-7.425,4.414-2.771-.717-5.313-3.879-5.695-7.051-.105-.86-.268-1.1-.965-1.433a1.346,1.346,0,0,1-.545-.449,15.076,15.076,0,0,1-.554-4.433c.086-.583.182-.784.439-.927.277-.144.525.1.86.841a2.31,2.31,0,0,0,.325.6c.029,0,.029-1.061-.009-2.369a10.007,10.007,0,0,1,.105-2.972,3.745,3.745,0,0,1,.984-1.854,2.619,2.619,0,0,1,1.978-.927C297.538-494.9,297.739-494.832,298.933-494.259Z" transform="translate(-280.349 500.998)" fill="none" stroke="#fff" stroke-width="1.2"/>
      <path id="Path_661" data-name="Path 661" d="M90.079,35.908c-.21.124-.745.421-1.185.669a21.088,21.088,0,0,1-5.9,2.045c-1.987.458-2.389.621-2.857,1.137-.927.994-1.663,3.258-2.3,7.07-.372,2.207-.87,6.755-.87,7.95a2.6,2.6,0,0,0,.841,2.035c1,1-1.118.908,20.179.908s19.176.1,20.16-.9c.946-.946.994-1.423.611-5.217-.631-6.211-1.681-10.51-2.9-11.838-.487-.525-.87-.678-2.876-1.147a19.757,19.757,0,0,1-6.545-2.408c-1.252-.764-1.414-.688-1.5.65a21.694,21.694,0,0,1-1.185,4.892c-.87,2.685-2.274,6.163-2.417,6.01-.038-.038-.287-.812-.554-1.7s-.669-2.13-.879-2.761a4.722,4.722,0,0,1-.315-1.242c.038-.058.229-.315.44-.573a2.835,2.835,0,0,0,.8-1.758,1.692,1.692,0,0,0-.888-1.118c-.354-.162-.354-.162-1.032.134a3.646,3.646,0,0,1-.917.3,3.98,3.98,0,0,1-.927-.287c-.573-.239-.726-.267-.955-.181a1.535,1.535,0,0,0-.984,1.357c0,.315.105.5,1.147,2.035.144.2.124.305-.248,1.443-.22.669-.6,1.911-.85,2.752a16.442,16.442,0,0,1-.525,1.605c-.038.048-.248-.325-.458-.812-1.653-3.764-3.029-8.179-3.144-10.089C90.958,35.66,90.805,35.507,90.079,35.908Z" transform="translate(-76.96 -9.056)" fill="none" stroke="#fff" stroke-width="1.2"/>
    </g>
  </g>
</svg>
