<svg id="Group_1696" data-name="Group 1696" xmlns="http://www.w3.org/2000/svg" width="21.38" height="17.639" viewBox="0 0 21.38 17.639">
  <path id="Path_27028" data-name="Path 27028" d="M11.966,30.7a1.949,1.949,0,0,0-1.948,1.939H10V46.4a1.949,1.949,0,0,0,1.948,1.939H28.916V46.255H31.38V30.7Zm-.018,16.37a.681.681,0,0,1-.689-.679V34.342a.34.34,0,0,0,.1.009,2.348,2.348,0,0,0,.571.091H27.666v3.814h-3.6A1.925,1.925,0,0,0,22.1,40.14V41.4a1.925,1.925,0,0,0,1.966,1.884h3.6v3.769H11.948Zm12.121-5.028a.671.671,0,0,1-.707-.625V40.158a.671.671,0,0,1,.707-.625H30.13v2.519l-6.061-.009Zm6.052,2.944h-1.2V43.293h1.2v1.694Zm-1.2-6.722V33.191H11.966c-.344,0-.689-.172-.689-.553a.686.686,0,0,1,.689-.679H30.121v6.305Z" transform="translate(-10 -30.7)"/>
</svg>
