<svg xmlns="http://www.w3.org/2000/svg" width="13.514" height="11.825" viewBox="0 0 13.514 11.825">
  <path id="Icon_awesome-wallet" data-name="Icon awesome-wallet" d="M12.173,4.784H2.112a.422.422,0,0,1,0-.845H12.247a.422.422,0,0,0,.422-.422A1.267,1.267,0,0,0,11.4,2.25H1.689A1.689,1.689,0,0,0,0,3.939v8.446a1.689,1.689,0,0,0,1.689,1.689H12.173a1.307,1.307,0,0,0,1.341-1.267V6.051A1.307,1.307,0,0,0,12.173,4.784Zm-1.193,5.49a.845.845,0,1,1,.845-.845A.845.845,0,0,1,10.98,10.274Z" transform="translate(0 -2.25)" fill="#fff"/>
</svg>
