<svg xmlns="http://www.w3.org/2000/svg" width="24" height="24" viewBox="0 0 24 24">
  <g id="Group_1030" data-name="Group 1030" transform="translate(-15 -193)">
    <rect id="Rectangle_290" data-name="Rectangle 290" width="24" height="24" rx="5" transform="translate(15 193)" fill="#fff"/>
    <g id="Form_16A" data-name="Form 16A" transform="translate(-51 186)">
      <g id="Group_1507" data-name="Group 1507" transform="translate(70 10)">
        <g id="Group_1506" data-name="Group 1506" transform="translate(0 0)">
          <g id="Group_1505" data-name="Group 1505">
            <path id="Path_26954" data-name="Path 26954" d="M70,10V28H85.8V10Zm6.961,3.141h7.319v2.094H76.961Zm0,3.721h7.319v2.094H76.961Zm-1.288,5.646H71.515V20.414h4.158v2.094Zm0-3.552H71.515V16.862h4.158v2.094Zm0-3.721H71.515V13.141h4.158v2.094Zm1.288,5.18h7.319v2.094H76.961Zm7.319,6.021H79.764V24.957h4.517v1.479Z" transform="translate(-70 -10)" fill="#785ffb"/>
          </g>
        </g>
      </g>
    </g>
  </g>
</svg>
