<svg xmlns="http://www.w3.org/2000/svg" width="24" height="24" viewBox="0 0 24 24">
  <g id="Group_1030" data-name="Group 1030" transform="translate(-15 -193)">
    <rect id="Rectangle_290" data-name="Rectangle 290" width="24" height="24" rx="5" transform="translate(15 193)" fill="#fff"/>
    <g id="about" transform="translate(8 172.1)">
      <path id="Path_530" data-name="Path 530" d="M740.983,171.253a5.1,5.1,0,0,0-2.775-1.957l-.019-.006v0a3.156,3.156,0,0,0,1.7-2.837,3.115,3.115,0,0,0-1.833-2.89.474.474,0,1,0-.377.87,2.168,2.168,0,0,1,1.261,2.02,2.2,2.2,0,0,1-1.166,1.982.93.93,0,0,0-.575.862.953.953,0,0,0,.644.885l.118.031a4.143,4.143,0,0,1,2.248,1.592,4.733,4.733,0,0,1,.872,2.779v.271H740.9a.474.474,0,0,0,0,.948h.652a.474.474,0,0,0,.474-.474v-.747A5.671,5.671,0,0,0,740.983,171.253Z" transform="translate(-713.3 -136.953)" fill="#785ffb"/>
      <path id="Path_531" data-name="Path 531" d="M11.82,171.863a4.147,4.147,0,0,1,2.244-1.592l.178-.05a.939.939,0,0,0,.589-.866.926.926,0,0,0-.568-.858,2.206,2.206,0,0,1-1.174-1.986,2.17,2.17,0,0,1,1.262-2.02.475.475,0,0,0-.377-.872,3.2,3.2,0,0,0-.117,5.725l-.044.011a5.089,5.089,0,0,0-2.768,1.955A5.714,5.714,0,0,0,10,174.644v.747a.474.474,0,0,0,.474.474h.654a.474.474,0,0,0,0-.948H10.95v-.271A4.73,4.73,0,0,1,11.82,171.863Z" transform="translate(0 -137.011)" fill="#785ffb"/>
      <path id="Path_532" data-name="Path 532" d="M128.8,32.346a4.973,4.973,0,0,0,1.529-3.626,4.45,4.45,0,1,0-8.869,0,4.97,4.97,0,0,0,1.529,3.626,7.464,7.464,0,0,0-3.1,2.773,8.346,8.346,0,0,0-1.288,4.492v1.556a.9.9,0,0,0,.862.933h12.856a.9.9,0,0,0,.864-.933V39.612a8.358,8.358,0,0,0-1.288-4.494A7.456,7.456,0,0,0,128.8,32.346Zm3.435,8.8h-12.68V39.612a7.406,7.406,0,0,1,1.139-3.983,6.5,6.5,0,0,1,2.884-2.51l.47-.2.008-.006a.451.451,0,0,0,.162-.12s0-.01.008-.013a.327.327,0,0,0,.025-.044.468.468,0,0,0,.065-.153c0-.01.011-.017.011-.029s-.006-.027,0-.04a.458.458,0,0,0-.015-.153.366.366,0,0,0-.017-.061.47.47,0,0,0-.124-.178l-.388-.333a4.012,4.012,0,0,1-1.367-3.066,3.506,3.506,0,1,1,6.973,0,4.012,4.012,0,0,1-1.367,3.066l-.392.336a.476.476,0,0,0-.124.178.571.571,0,0,0-.017.061.458.458,0,0,0-.015.153.286.286,0,0,0,0,.04c0,.011.01.019.011.029a.468.468,0,0,0,.065.153.326.326,0,0,0,.025.044s0,.01.008.013a.459.459,0,0,0,.168.124l0,0,.47.2a6.517,6.517,0,0,1,2.884,2.51,7.406,7.406,0,0,1,1.139,3.983Z" transform="translate(-106.524)" fill="#785ffb"/>
    </g>
  </g>
</svg>
