<svg id="astrology" xmlns="http://www.w3.org/2000/svg" width="30.434" height="30.523" viewBox="0 0 30.434 30.523">
  <path id="Path_743" data-name="Path 743" d="M15.462-125.577a15.241,15.241,0,0,0-11.252,8.252A13.83,13.83,0,0,0,2.6-110.46a15.037,15.037,0,0,0,8.649,13.754,13.964,13.964,0,0,0,6.568,1.462A14.86,14.86,0,0,0,28.6-99.68a14.858,14.858,0,0,0,4.436-10.78,14.969,14.969,0,0,0-3.172-9.368A15.681,15.681,0,0,0,15.462-125.577Zm6.989,1.487a14.989,14.989,0,0,1,9.046,9.12,17,17,0,0,1,.025,8.847,14.809,14.809,0,0,1-9.368,9.368,17,17,0,0,1-8.848-.025A14.474,14.474,0,0,1,3.79-113.459a14.329,14.329,0,0,1,5.279-8.376,13.154,13.154,0,0,1,5.105-2.528A16.716,16.716,0,0,1,22.451-124.09Z" transform="translate(-2.6 125.767)" fill="#fff"/>
  <path id="Path_744" data-name="Path 744" d="M23.254-117.757c-.074.124-.471,1.685-.892,3.42-.421,1.76-.793,3.321-.867,3.494-.074.2-1.338-.3-3.742-1.437-2.478-1.214-3.717-1.66-3.891-1.487s.52,1.264,2.181,3.494a32.652,32.652,0,0,1,2.33,3.321c-.05.05-1.908.991-4.139,2.106-2.429,1.214-4.015,2.156-3.941,2.33.074.223,1.338.322,4.61.372,4.139.05,4.511.1,4.387.5A86.779,86.779,0,0,0,17.281-92.9a.546.546,0,0,0,.372.223,27.627,27.627,0,0,0,3-3.668A33.742,33.742,0,0,1,23.6-99.989a33.742,33.742,0,0,1,2.949,3.643c3.767,5.006,3.941,4.956,2.5-.843-.57-2.23-1.066-4.238-1.14-4.461-.124-.4.248-.446,4.387-.5,3.271-.05,4.535-.149,4.61-.372.074-.173-1.512-1.115-3.941-2.33-2.23-1.115-4.089-2.057-4.139-2.106a32.652,32.652,0,0,1,2.33-3.321c1.586-2.106,2.354-3.321,2.181-3.494-.149-.149-1.512.372-3.866,1.487-2.007.966-3.643,1.71-3.668,1.685s-.421-1.66-.942-3.618C24.047-117.485,23.65-118.377,23.254-117.757ZM24.32-112.7c.545,2.4.545,2.528.124,2.85a1.791,1.791,0,0,1-.843.322,1.791,1.791,0,0,1-.843-.322c-.421-.322-.421-.446.124-2.85a13.732,13.732,0,0,1,.719-2.528A13.731,13.731,0,0,1,24.32-112.7Zm-5.576,1.908c2.4,1.09,2.627,1.338,2.23,2.379a2.236,2.236,0,0,1-.867.743l-.694.372-1.537-2.032c-.843-1.14-1.66-2.206-1.809-2.4C15.745-112.156,15.67-112.181,18.743-110.793Zm12.367-.917c-.124.173-.942,1.239-1.784,2.379L27.789-107.3l-.694-.372a2.236,2.236,0,0,1-.867-.743c-.372-1.016-.149-1.264,2.28-2.4C31.085-112.057,31.482-112.181,31.11-111.71Zm-7.509,3a4.058,4.058,0,0,0,1.14-.2c.471-.149.545-.05.694.694a1.324,1.324,0,0,0,.892,1.165c.867.347.892.446.347,1.19a2.1,2.1,0,0,0-.223,1.685l.149,1.09h-.991a1.56,1.56,0,0,0-1.487.644l-.52.669-.52-.669a1.56,1.56,0,0,0-1.487-.644H20.6l.149-1.09a2.1,2.1,0,0,0-.223-1.685c-.545-.743-.52-.843.347-1.19a1.324,1.324,0,0,0,.892-1.165c.149-.743.223-.843.694-.694A4.058,4.058,0,0,0,23.6-108.712Zm-3.891,3.246a1.463,1.463,0,0,1,.149,1.487l-.248.892-3.4-.025-3.4-.025,2.974-1.437c1.636-.818,3.1-1.462,3.247-1.487C19.214-106.06,19.512-105.787,19.71-105.465Zm11.7.867,2.974,1.462-3.4.025-3.4.025-.248-.892a1.462,1.462,0,0,1,.149-1.487c.2-.322.5-.595.669-.595A32.889,32.889,0,0,1,31.408-104.6Zm-8.748,3.048c.372.545.273.694-1.735,3.346a33.321,33.321,0,0,1-2.181,2.726c-.025-.025.3-1.536.719-3.321l.793-3.3h1.016C22.064-102.095,22.387-101.971,22.659-101.55ZM27.74-98.8c.421,1.784.743,3.3.719,3.321s-.991-1.19-2.181-2.726c-2.007-2.652-2.107-2.8-1.735-3.346.273-.421.595-.545,1.388-.545h1.016Z" transform="translate(-8.384 119.88)" fill="#fff"/>
  <path id="Path_745" data-name="Path 745" d="M56.719-75.281A2.39,2.39,0,0,0,56-74.017a2.854,2.854,0,0,0,1.983,1.983,2.854,2.854,0,0,0,1.983-1.983A2.854,2.854,0,0,0,57.983-76,2.39,2.39,0,0,0,56.719-75.281Zm2.007.644c.644.793-.322,2.007-1.165,1.462a.973.973,0,0,1,.421-1.834A1.133,1.133,0,0,1,58.726-74.637Z" transform="translate(-42.766 88.333)" fill="#fff"/>
  <path id="Path_746" data-name="Path 746" d="M38.567-113.009l-.967.991,1.041,1.066,1.041,1.041,1.041-1.041,1.041-1.066-.967-.991A5.889,5.889,0,0,0,39.682-114,5.889,5.889,0,0,0,38.567-113.009Zm1.611.644c.273.3.248.446-.074.793-.4.372-.446.372-.843,0-.322-.347-.347-.5-.074-.793a1.021,1.021,0,0,1,.5-.4A1.021,1.021,0,0,1,40.177-112.364Z" transform="translate(-28.926 116.916)" fill="#fff"/>
  <path id="Path_747" data-name="Path 747" d="M77.4-113.541a1.942,1.942,0,0,0,.2,3.445c1.041.421,1.239.1,1.165-1.908C78.692-113.839,78.469-114.062,77.4-113.541Zm.347,2.106c-.1.421-.1.421-.3,0a1.3,1.3,0,0,1,0-.867c.2-.4.2-.4.3,0A1.714,1.714,0,0,1,77.75-111.435Z" transform="translate(-58.147 116.755)" fill="#fff"/>
  <path id="Path_748" data-name="Path 748" d="M98.463-83.752c-.173.3,1.537,3.717,1.859,3.717s2.032-3.42,1.859-3.717A4.108,4.108,0,0,0,100.321-84,4.108,4.108,0,0,0,98.463-83.752Zm2.3,1.363c-.149.347-.347.62-.446.62s-.3-.273-.446-.62c-.273-.595-.248-.62.446-.62S101.04-82.984,100.767-82.389Z" transform="translate(-74.696 94.351)" fill="#fff"/>
  <path id="Path_749" data-name="Path 749" d="M17.194-80.274c-1.314.694-1.735.768-1.735.248,0-.4-.223-.471-.644-.173-.4.248-.124,1.784.3,1.784a6,6,0,0,0,1.586-.62c1.413-.719,1.735-.768,1.735-.248,0,.4.223.471.644.173.173-.1.223-.52.173-.991C19.1-81.067,18.73-81.092,17.194-80.274Z" transform="translate(-11.642 91.988)" fill="#fff"/>
  <path id="Path_750" data-name="Path 750" d="M21.211-48.265a5.569,5.569,0,0,0-.743,1.983,4.108,4.108,0,0,0,1.859.248,4.108,4.108,0,0,0,1.859-.248c.173-.3-1.537-3.717-1.859-3.717A5.746,5.746,0,0,0,21.211-48.265Zm1.561.62c.273.595.248.62-.446.62s-.719-.025-.446-.62c.149-.347.347-.62.446-.62S22.624-47.993,22.773-47.646Z" transform="translate(-16.032 68.777)" fill="#fff"/>
  <path id="Path_751" data-name="Path 751" d="M94.065-47.459c0,.446-.173.5-1.71.5a4.528,4.528,0,0,0-1.859.223,1.737,1.737,0,0,0,.124.991c.3.843.967,1.041.967.273,0-.446.173-.5,1.71-.5a4.528,4.528,0,0,0,1.859-.223,1.736,1.736,0,0,0-.124-.991C94.734-48.029,94.065-48.227,94.065-47.459Z" transform="translate(-68.687 67.226)" fill="#fff"/>
  <path id="Path_752" data-name="Path 752" d="M57.4-25.6a1.922,1.922,0,0,0,.2,3.42c2.206.917,3.742-2.453,1.561-3.445A1.668,1.668,0,0,0,57.4-25.6Zm1.66,1.066a.979.979,0,0,1-.3,1.462c-.867.545-1.834-.669-1.19-1.462A.959.959,0,0,1,59.063-24.534Z" transform="translate(-43.103 50.621)" fill="#fff"/>
</svg>
