<svg xmlns="http://www.w3.org/2000/svg" width="23.953" height="24.025" viewBox="0 0 23.953 24.025">
  <g id="astrology" transform="translate(-2.6 125.767)">
    <path id="Path_743" data-name="Path 743" d="M12.723-125.617a12,12,0,0,0-8.856,6.5,10.886,10.886,0,0,0-1.268,5.4,11.835,11.835,0,0,0,6.807,10.826,10.99,10.99,0,0,0,5.169,1.151,11.7,11.7,0,0,0,8.485-3.492,11.7,11.7,0,0,0,3.492-8.485,11.783,11.783,0,0,0-2.5-7.373A12.342,12.342,0,0,0,12.723-125.617Zm5.5,1.17a11.8,11.8,0,0,1,7.12,7.178,13.379,13.379,0,0,1,.02,6.964,11.656,11.656,0,0,1-7.373,7.373,13.379,13.379,0,0,1-6.964-.02,11.393,11.393,0,0,1-7.49-13.127,11.278,11.278,0,0,1,4.155-6.593,10.353,10.353,0,0,1,4.018-1.99A13.155,13.155,0,0,1,18.224-124.447Z" transform="translate(0 0)"/>
    <path id="Path_744" data-name="Path 744" d="M20.493-117.8c-.059.1-.371,1.326-.7,2.692-.332,1.385-.624,2.614-.683,2.75-.059.156-1.053-.234-2.945-1.131-1.951-.956-2.926-1.307-3.062-1.17s.41.995,1.716,2.75a25.7,25.7,0,0,1,1.834,2.614c-.039.039-1.5.78-3.257,1.658-1.912.956-3.16,1.7-3.1,1.834.059.176,1.053.254,3.628.293,3.257.039,3.55.078,3.453.39a68.3,68.3,0,0,0-1.58,6.885.43.43,0,0,0,.293.176,21.745,21.745,0,0,0,2.36-2.887,26.559,26.559,0,0,1,2.321-2.867,26.56,26.56,0,0,1,2.321,2.867c2.965,3.94,3.1,3.9,1.97-.663-.449-1.756-.839-3.335-.9-3.511-.1-.312.2-.351,3.453-.39,2.575-.039,3.57-.117,3.628-.293.059-.137-1.19-.878-3.1-1.834-1.756-.878-3.218-1.619-3.257-1.658a25.7,25.7,0,0,1,1.834-2.614c1.248-1.658,1.853-2.614,1.716-2.75-.117-.117-1.19.293-3.043,1.17-1.58.761-2.867,1.346-2.887,1.326s-.332-1.307-.741-2.848C21.117-117.582,20.805-118.284,20.493-117.8Zm.839,3.979c.429,1.892.429,1.99.1,2.243a1.41,1.41,0,0,1-.663.254,1.41,1.41,0,0,1-.663-.254c-.332-.254-.332-.351.1-2.243a10.808,10.808,0,0,1,.566-1.99A10.809,10.809,0,0,1,21.332-113.817Zm-4.389,1.5c1.892.858,2.068,1.053,1.756,1.873a1.76,1.76,0,0,1-.683.585l-.546.293-1.209-1.6c-.663-.9-1.307-1.736-1.424-1.892C14.583-113.388,14.525-113.407,16.943-112.315Zm9.733-.722c-.1.137-.741.975-1.4,1.873l-1.209,1.6-.546-.293a1.76,1.76,0,0,1-.683-.585c-.293-.8-.117-.995,1.795-1.892C26.657-113.31,26.969-113.407,26.677-113.037Zm-5.91,2.36a3.194,3.194,0,0,0,.9-.156c.371-.117.429-.039.546.546a1.042,1.042,0,0,0,.7.917c.683.273.7.351.273.936a1.651,1.651,0,0,0-.176,1.326l.117.858h-.78a1.228,1.228,0,0,0-1.17.507l-.41.527-.41-.527a1.228,1.228,0,0,0-1.17-.507h-.78l.117-.858a1.651,1.651,0,0,0-.176-1.326c-.429-.585-.41-.663.273-.936a1.042,1.042,0,0,0,.7-.917c.117-.585.176-.663.546-.546A3.194,3.194,0,0,0,20.766-110.677ZM17.7-108.121a1.151,1.151,0,0,1,.117,1.17l-.2.7-2.672-.02-2.672-.02,2.341-1.131c1.287-.644,2.438-1.151,2.555-1.17C17.314-108.59,17.548-108.375,17.7-108.121Zm9.207.683,2.341,1.151-2.672.02-2.672.02-.2-.7a1.151,1.151,0,0,1,.117-1.17c.156-.254.39-.468.527-.468A25.887,25.887,0,0,1,26.911-107.439Zm-6.885,2.4c.293.429.215.546-1.365,2.633a26.221,26.221,0,0,1-1.716,2.146c-.02-.02.234-1.209.566-2.614l.624-2.594h.8C19.557-105.469,19.811-105.371,20.025-105.04Zm4,2.165c.332,1.4.585,2.594.566,2.614s-.78-.936-1.716-2.146c-1.58-2.087-1.658-2.2-1.365-2.633.215-.332.468-.429,1.092-.429h.8Z" transform="translate(-6.19 -6.3)"/>
    <path id="Path_745" data-name="Path 745" d="M56.566-75.434A1.881,1.881,0,0,0,56-74.44a2.247,2.247,0,0,0,1.56,1.56,2.247,2.247,0,0,0,1.56-1.56A2.247,2.247,0,0,0,57.56-76,1.881,1.881,0,0,0,56.566-75.434Zm1.58.507c.507.624-.254,1.58-.917,1.151a.766.766,0,0,1,.332-1.443A.892.892,0,0,1,58.146-74.927Z" transform="translate(-42.984 -40.06)"/>
    <path id="Path_746" data-name="Path 746" d="M38.361-113.22l-.761.78.819.839.819.819.819-.819.819-.839-.761-.78a4.634,4.634,0,0,0-.878-.78A4.634,4.634,0,0,0,38.361-113.22Zm1.268.507c.215.234.2.351-.059.624-.312.293-.351.293-.663,0-.254-.273-.273-.39-.059-.624a.8.8,0,0,1,.39-.312A.8.8,0,0,1,39.629-112.713Z" transform="translate(-28.173 -9.472)"/>
    <path id="Path_747" data-name="Path 747" d="M77.2-113.593a1.529,1.529,0,0,0,.156,2.711c.819.332.975.078.917-1.5C78.214-113.827,78.039-114,77.2-113.593Zm.273,1.658c-.078.332-.078.332-.234,0a1.025,1.025,0,0,1,0-.683c.156-.312.156-.312.234,0A1.349,1.349,0,0,1,77.473-111.935Z" transform="translate(-59.444 -9.644)"/>
    <path id="Path_748" data-name="Path 748" d="M98.46-83.8a7.948,7.948,0,0,0,1.463,2.926,7.948,7.948,0,0,0,1.463-2.926,3.233,3.233,0,0,0-1.463-.2A3.233,3.233,0,0,0,98.46-83.8Zm1.814,1.073c-.117.273-.273.488-.351.488s-.234-.215-.351-.488c-.215-.468-.2-.488.351-.488S100.489-83.2,100.274-82.732Z" transform="translate(-77.154 -33.62)"/>
    <path id="Path_749" data-name="Path 749" d="M16.646-80.4c-1.034.546-1.365.6-1.365.2,0-.312-.176-.371-.507-.137-.312.2-.1,1.4.234,1.4a4.725,4.725,0,0,0,1.248-.488c1.112-.566,1.365-.6,1.365-.2,0,.312.176.371.507.137.137-.078.176-.41.137-.78C18.148-81.023,17.855-81.042,16.646-80.4Z" transform="translate(-9.677 -36.149)"/>
    <path id="Path_750" data-name="Path 750" d="M21.051-48.635a4.383,4.383,0,0,0-.585,1.56,3.233,3.233,0,0,0,1.463.2,3.233,3.233,0,0,0,1.463-.2A7.948,7.948,0,0,0,21.928-50,4.522,4.522,0,0,0,21.051-48.635Zm1.229.488c.215.468.2.488-.351.488s-.566-.02-.351-.488c.117-.273.273-.488.351-.488S22.162-48.42,22.279-48.147Z" transform="translate(-14.374 -60.988)"/>
    <path id="Path_751" data-name="Path 751" d="M93.3-47.561c0,.351-.137.39-1.346.39A3.564,3.564,0,0,0,90.489-47a1.367,1.367,0,0,0,.1.78c.234.663.761.819.761.215,0-.351.137-.39,1.346-.39a3.564,3.564,0,0,0,1.463-.176,1.367,1.367,0,0,0-.1-.78C93.825-48.009,93.3-48.166,93.3-47.561Z" transform="translate(-70.724 -62.647)"/>
    <path id="Path_752" data-name="Path 752" d="M57.2-25.656a1.513,1.513,0,0,0,.156,2.692,1.49,1.49,0,0,0,1.229-2.711A1.312,1.312,0,0,0,57.2-25.656Zm1.307.839a.771.771,0,0,1-.234,1.151c-.683.429-1.443-.527-.936-1.151A.755.755,0,0,1,58.507-24.817Z" transform="translate(-43.345 -80.417)"/>
  </g>
</svg>
