<svg xmlns="http://www.w3.org/2000/svg" width="13.753" height="12.088" viewBox="0 0 13.753 12.088">
  <path id="Icon_awesome-rocketchat" data-name="Icon awesome-rocketchat" d="M11.614,2.7A8.906,8.906,0,0,0,5.307,1.578,4.56,4.56,0,0,0,0,.685S1.745,2.168,1.461,3.467a3.819,3.819,0,0,0,0,5.558C1.745,10.323,0,11.806,0,11.806a4.57,4.57,0,0,0,5.307-.883A8.916,8.916,0,0,0,11.614,9.8a4.011,4.011,0,0,0,0-7.095ZM7.024,9.785a8.107,8.107,0,0,1-2.1-.271l-.472.456a4.291,4.291,0,0,1-.874.654,3.418,3.418,0,0,1-1.235.352c.024-.042.045-.085.066-.125a3.013,3.013,0,0,0,.382-2.356A2.9,2.9,0,0,1,1.546,6.246C1.546,4.288,4,2.7,7.024,2.7S12.5,4.288,12.5,6.246,10.048,9.785,7.024,9.785ZM4.4,7.088A.818.818,0,1,1,5.2,6.257V6.27a.812.812,0,0,1-.805.819Zm1.761-.805a.818.818,0,0,1,1.636-.028V6.27A.818.818,0,0,1,6.157,6.283Zm3.423.805a.818.818,0,1,1,.805-.831V6.27a.809.809,0,0,1-.805.819Z" transform="translate(0 -0.202)"/>
</svg>
