<svg xmlns="http://www.w3.org/2000/svg" xmlns:xlink="http://www.w3.org/1999/xlink" width="54" height="56" viewBox="0 0 54 56">
  <defs>
    <linearGradient id="linear-gradient" x1="0.5" x2="0.5" y2="1" gradientUnits="objectBoundingBox">
      <stop offset="0" stop-color="#785ffb"/>
      <stop offset="1" stop-color="#ad46f2"/>
    </linearGradient>
  </defs>
  <g id="Group_1403" data-name="Group 1403" transform="translate(-155 -609)">
    <circle id="Ellipse_80" data-name="Ellipse 80" cx="26.5" cy="26.5" r="26.5" transform="translate(155 612)" fill="#95a2a6" opacity="0.43"/>
    <g id="Icon_ionic-md-chatboxes" data-name="Icon ionic-md-chatboxes" transform="translate(166.625 623.5)">
      <path id="Path_26979" data-name="Path 26979" d="M21.56,4.5H3.884a.509.509,0,0,0-.509.432V16.271a.531.531,0,0,0,.509.456H6.921v4.705l4.771-4.705H21.56a.427.427,0,0,0,.394-.456V4.932A.405.405,0,0,0,21.56,4.5Z" transform="translate(0)" fill="#fff"/>
      <path id="Path_26980" data-name="Path 26980" d="M27.272,8.93H25.557v8.817c0,.846-.366,1.4-1.331,1.4H14.659L12.6,21.21h6.865l4.77,4.711V21.21h3.038a.436.436,0,0,0,.4-.46V9.412A.458.458,0,0,0,27.272,8.93Z" transform="translate(-2.28 -1.095)" fill="#fff"/>
    </g>
    <g id="Group_1597" data-name="Group 1597" transform="translate(-157 335)">
      <circle id="Ellipse_81" data-name="Ellipse 81" cx="9" cy="9" r="9" transform="translate(348 274)" fill="url(#linear-gradient)"/>
      <text id="_3" data-name="3" transform="translate(351 275)" fill="#fff" font-size="11" font-family="Hind-Regular, Hind"><tspan x="-2" y="12">3</tspan></text>
    </g>
  </g>
</svg>
