<svg xmlns="http://www.w3.org/2000/svg" xmlns:xlink="http://www.w3.org/1999/xlink" width="88" height="88" viewBox="0 0 88 88">
  <defs>
    <filter id="Ellipse_83" x="0" y="0" width="88" height="88" filterUnits="userSpaceOnUse">
      <feOffset dy="3" input="SourceAlpha"/>
      <feGaussianBlur stdDeviation="3" result="blur"/>
      <feFlood flood-opacity="0.161"/>
      <feComposite operator="in" in2="blur"/>
      <feComposite in="SourceGraphic"/>
    </filter>
    <linearGradient id="linear-gradient" x1="0.5" x2="0.5" y2="1" gradientUnits="objectBoundingBox">
      <stop offset="0" stop-color="#785ffb"/>
      <stop offset="1" stop-color="#ad46f2"/>
    </linearGradient>
  </defs>
  <g id="Group_1390" data-name="Group 1390" transform="translate(-275 -505)">
    <g id="Group_1665" data-name="Group 1665">
      <g transform="matrix(1, 0, 0, 1, 275, 505)" filter="url(#Ellipse_83)">
        <circle id="Ellipse_83-2" data-name="Ellipse 83" cx="35" cy="35" r="35" transform="translate(9 6)" fill="#95a2a6"/>
      </g>
      <g id="Group_1391" data-name="Group 1391" transform="translate(-1.5 5.101)">
        <path id="Icon_feather-phone-call" data-name="Icon feather-phone-call" d="M21.6,7.2a7.124,7.124,0,0,1,5.628,5.628M21.6,1.5A12.823,12.823,0,0,1,32.928,12.812M31.5,24.182v4.274A2.849,2.849,0,0,1,28.4,31.306a28.2,28.2,0,0,1-12.3-4.374,27.783,27.783,0,0,1-8.548-8.548A28.2,28.2,0,0,1,3.179,6.031,2.849,2.849,0,0,1,6.015,2.925h4.274a2.849,2.849,0,0,1,2.849,2.451,18.294,18.294,0,0,0,1,4,2.849,2.849,0,0,1-.641,3.006l-1.809,1.809a22.8,22.8,0,0,0,8.548,8.548l1.809-1.809a2.849,2.849,0,0,1,3.006-.641,18.294,18.294,0,0,0,4,1A2.849,2.849,0,0,1,31.5,24.182Z" transform="translate(302.332 524.399)" fill="none" stroke="#fff" stroke-linecap="round" stroke-linejoin="round" stroke-width="3"/>
      </g>
    </g>
    <g id="Group_1596" data-name="Group 1596" transform="translate(-20 231.722)">
      <circle id="Ellipse_81" data-name="Ellipse 81" cx="14" cy="14" r="14" transform="translate(348 274.278)" fill="url(#linear-gradient)"/>
      <text id="_6" data-name="6" transform="translate(353 276.277)" fill="#fff" font-size="16" font-family="Hind-Regular, Hind"><tspan x="-4" y="17">6</tspan></text>
    </g>
  </g>
</svg>
