<svg xmlns="http://www.w3.org/2000/svg" xmlns:xlink="http://www.w3.org/1999/xlink" width="54" height="55" viewBox="0 0 54 55">
  <defs>
    <linearGradient id="linear-gradient" x1="0.5" x2="0.5" y2="1" gradientUnits="objectBoundingBox">
      <stop offset="0" stop-color="#785ffb"/>
      <stop offset="1" stop-color="#ad46f2"/>
    </linearGradient>
  </defs>
  <g id="Group_1404" data-name="Group 1404" transform="translate(-155 -610)">
    <circle id="Ellipse_80" data-name="Ellipse 80" cx="26.5" cy="26.5" r="26.5" transform="translate(155 612)" fill="#95a2a6" opacity="0.43"/>
    <g id="Icon_feather-video" data-name="Icon feather-video" transform="translate(167.5 622.5)">
      <path id="Path_26903" data-name="Path 26903" d="M32.138,10.5,24,16.313l8.138,5.813Z" transform="translate(-5.062 -0.675)" fill="none" stroke="#fff" stroke-linecap="round" stroke-linejoin="round" stroke-width="2"/>
      <path id="Path_26904" data-name="Path 26904" d="M3.825,7.5H16.613a2.325,2.325,0,0,1,2.325,2.325V21.45a2.325,2.325,0,0,1-2.325,2.325H3.825A2.325,2.325,0,0,1,1.5,21.45V9.825A2.325,2.325,0,0,1,3.825,7.5Z" fill="none" stroke="#fff" stroke-linecap="round" stroke-linejoin="round" stroke-width="2"/>
    </g>
    <g id="Group_1598" data-name="Group 1598" transform="translate(-157 336)">
      <circle id="Ellipse_81" data-name="Ellipse 81" cx="9" cy="9" r="9" transform="translate(348 274)" fill="url(#linear-gradient)"/>
      <text id="_1" data-name="1" transform="translate(351 275)" fill="#fff" font-size="11" font-family="Hind-Regular, Hind"><tspan x="-1" y="12">1</tspan></text>
    </g>
  </g>
</svg>
