<svg xmlns="http://www.w3.org/2000/svg" width="34.968" height="37.468" viewBox="0 0 34.968 37.468">
  <g id="blog" transform="translate(-42.7 -10)">
    <path id="Path_673" data-name="Path 673" d="M72.671,10H47.693A5,5,0,0,0,42.7,15V42.472a5,5,0,0,0,5,5H72.671a5,5,0,0,0,5-5V15A5,5,0,0,0,72.671,10ZM52.689,42.468h-2.5a2.5,2.5,0,1,1,0-4.993h2.5a2.5,2.5,0,1,1,0,4.993Zm7.493-9.989H50.193a2.5,2.5,0,0,1,0-4.993h9.989a2.5,2.5,0,0,1,0,4.993Zm9.989,0h-2.5a2.5,2.5,0,0,1,0-4.993h2.5a2.5,2.5,0,1,1,0,4.993Zm0-9.989H50.193a2.5,2.5,0,0,1,0-4.993H70.175a2.5,2.5,0,1,1,0,4.993Z" fill="#fff"/>
  </g>
</svg>
