<svg xmlns="http://www.w3.org/2000/svg" width="19.2" height="22.366" viewBox="0 0 19.2 22.366">
  <g id="booking" transform="translate(-79.5 -10)">
    <path id="Path_26893" data-name="Path 26893" d="M332.7,11.6a1.6,1.6,0,0,0-1.6-1.6H326.3a1.6,1.6,0,0,0-1.6,1.6v0a1.6,1.6,0,0,0,1.6,1.6h4.811a1.6,1.6,0,0,0,1.6-1.6Z" transform="translate(-239.603)"/>
    <path id="Path_26894" data-name="Path 26894" d="M96.344,79.4H94.708v.046a3.129,3.129,0,0,1-3.159,3.15h-4.8a3.192,3.192,0,0,1-3.232-3.15V79.4H81.951A2.479,2.479,0,0,0,79.5,81.84V97.833a2.4,2.4,0,0,0,2.451,2.349h14.4A2.316,2.316,0,0,0,98.7,97.833V81.842A2.4,2.4,0,0,0,96.344,79.4Zm-3.2,17.589h-8a.792.792,0,1,1,0-1.584h8a.792.792,0,1,1,0,1.584Zm-1.6-4.779h-6.4a.806.806,0,0,1,0-1.611h6.4a.806.806,0,0,1,0,1.611Zm1.6-4.807h-8a.806.806,0,0,1,0-1.611h8a.806.806,0,0,1,0,1.611Z" transform="translate(0 -67.816)"/>
  </g>
</svg>
