<svg xmlns="http://www.w3.org/2000/svg" width="37.898" height="44.147" viewBox="0 0 37.898 44.147">
  <g id="booking" transform="translate(-79.5 -10)">
    <path id="Path_26969" data-name="Path 26969" d="M340.5,13.149A3.149,3.149,0,0,0,337.346,10h-9.5a3.149,3.149,0,0,0-3.149,3.149v.009a3.149,3.149,0,0,0,3.149,3.149h9.5a3.149,3.149,0,0,0,3.149-3.149Z" transform="translate(-234.153)" fill="#fff"/>
    <path id="Path_26970" data-name="Path 26970" d="M112.749,79.4h-3.23v.09a6.177,6.177,0,0,1-6.235,6.217H93.8A6.3,6.3,0,0,1,87.42,79.49V79.4H84.339A4.894,4.894,0,0,0,79.5,84.216v31.568a4.738,4.738,0,0,0,4.839,4.636h28.415a4.572,4.572,0,0,0,4.645-4.636V84.221A4.736,4.736,0,0,0,112.749,79.4Zm-6.312,34.717H90.65a1.563,1.563,0,1,1,0-3.127h15.786a1.563,1.563,0,1,1,0,3.127Zm-3.158-9.434H90.65a1.59,1.59,0,0,1,0-3.181h12.628a1.59,1.59,0,0,1,0,3.181Zm3.158-9.488H90.65a1.59,1.59,0,0,1,0-3.181h15.786a1.59,1.59,0,0,1,0,3.181Z" transform="translate(0 -66.273)" fill="#fff"/>
  </g>
</svg>
