<svg xmlns="http://www.w3.org/2000/svg" width="13.039" height="12.23" viewBox="0 0 13.039 12.23">
  <g id="burger-menu-1-1-512" transform="translate(0 0)">
    <path id="Path_43" data-name="Path 43" d="M39.618-456.828a1.78,1.78,0,0,0-1.229.958l-.11.229-.432,0c-.467,0-.6.036-.735.182a.571.571,0,0,0,.074.8,1.278,1.278,0,0,0,.726.122h.375l.036.1a1.906,1.906,0,0,0,.8.893,1.584,1.584,0,0,0,.851.205,1.622,1.622,0,0,0,.988-.3,1.629,1.629,0,0,0,.569-.664l.11-.229,3.914,0c2.53,0,3.962-.012,4.045-.033a.512.512,0,0,0,.42-.515.5.5,0,0,0-.313-.5,28.979,28.979,0,0,0-4.084-.057H41.66l-.11-.232a1.868,1.868,0,0,0-1.179-.944A2.208,2.208,0,0,0,39.618-456.828Zm.747.875a.953.953,0,0,1,.313,1.482.911.911,0,0,1-.646.316.9.9,0,0,1-.911-.521.709.709,0,0,1-.1-.426.823.823,0,0,1,.238-.622A.927.927,0,0,1,40.365-455.953Z" transform="translate(-36.983 456.853)"/>
    <path id="Path_44" data-name="Path 44" d="M46.851-310.712a1.849,1.849,0,0,0-1.2.935l-.11.223-4.016.015-4.013.015-.128.089a.477.477,0,0,0-.229.479.5.5,0,0,0,.3.461,29.042,29.042,0,0,0,4.1.057h3.98l.083.185a1.768,1.768,0,0,0,1.5,1.027,1.754,1.754,0,0,0,1.712-1.03l.086-.182h.417c.485,0,.607-.039.75-.223a.459.459,0,0,0,.1-.295.477.477,0,0,0-.229-.479c-.125-.086-.134-.089-.583-.1l-.458-.015-.119-.238A1.755,1.755,0,0,0,46.851-310.712Zm.726.848a.957.957,0,0,1,.348,1.524.99.99,0,0,1-1.143.194.964.964,0,0,1-.321-1.4,1.081,1.081,0,0,1,.441-.336A1.142,1.142,0,0,1,47.577-309.864Z" transform="translate(-37.146 315.101)"/>
    <path id="Path_45" data-name="Path 45" d="M43.019-164.386a1.738,1.738,0,0,0-1.345.959l-.128.259H37.378l-.122.071a.519.519,0,0,0-.256.461.617.617,0,0,0,.042.235.677.677,0,0,0,.295.271c.057.024.762.033,2.149.033h2.066l.1.214a1.742,1.742,0,0,0,1.581,1.006,1.735,1.735,0,0,0,1.581-.973l.116-.244h2.343c1.578,0,2.369-.012,2.426-.036A.677.677,0,0,0,50-162.4a.616.616,0,0,0,.042-.235.519.519,0,0,0-.256-.461l-.122-.071H44.951l-.107-.217A1.762,1.762,0,0,0,43.019-164.386Zm.518.845a.928.928,0,0,1,.548.473.7.7,0,0,1,.1.432.845.845,0,0,1-.274.667.853.853,0,0,1-.664.271.7.7,0,0,1-.432-.1.934.934,0,0,1-.238-1.506A.941.941,0,0,1,43.537-163.541Z" transform="translate(-36.999 173.107)"/>
  </g>
</svg>
