<svg xmlns="http://www.w3.org/2000/svg" width="45" height="45" viewBox="0 0 45 45">
  <g id="services-6" transform="translate(-15 -579)">
    <circle id="Ellipse_71" data-name="Ellipse 71" cx="22.5" cy="22.5" r="22.5" transform="translate(15 579)" fill="#7a7a7a"/>
    <g id="business" transform="translate(-24.2 579)">
      <g id="Group_1471" data-name="Group 1471" transform="translate(50.2 10)">
        <g id="Group_1470" data-name="Group 1470" transform="translate(0 0)">
          <path id="Path_26926" data-name="Path 26926" d="M60.962,17.234,61.114,16l-.24-.2h1.114l-.24.195.155,1.236.969-1.9c1.688.227,2.9.949,2.9,2.707l-8.675.01c0-1.758,1.209-2.482,2.9-2.712Zm-1.353-4.053s.01,0,.015-.007c.292,1.054,1.046,1.84,1.81,1.855a2.413,2.413,0,0,0,1.835-1.855c.132.007.262-.147.3-.365s-.042-.424-.177-.447c-.01,0-.015,0-.025,0-.042-1.733-.864-2.342-1.9-2.367-1.069,0-2.025.752-1.963,2.375a.125.125,0,0,0-.03,0c-.132.025-.215.225-.175.449S59.474,13.206,59.609,13.181ZM55.976,27.6l-.969,1.9-.155-1.236.24-.2h-.579l-.532,0,.24.2L54.068,29.5,53.1,27.6c-1.688.23-2.9.954-2.9,2.712l8.675-.012C58.877,28.546,57.661,27.826,55.976,27.6Zm.5-2.956c-.042-1.735-.864-2.342-1.9-2.367-1.069.007-2.025.752-1.963,2.375-.012,0-.02-.007-.03,0-.132.022-.215.222-.175.447s.18.39.315.365c0,0,.01,0,.015-.007.292,1.054,1.046,1.84,1.81,1.855a2.415,2.415,0,0,0,1.838-1.855c.132.007.262-.147.3-.365s-.042-.424-.18-.449A.089.089,0,0,0,56.472,24.64ZM69.762,27.6l-.969,1.9-.157-1.236.242-.2H68.3l-.532,0,.24.2L67.854,29.5l-.971-1.9c-1.688.23-2.9.954-2.9,2.712l8.677-.012C72.663,28.546,71.45,27.826,69.762,27.6ZM66.5,25.452s.01,0,.015-.007c.292,1.051,1.046,1.84,1.81,1.855a2.412,2.412,0,0,0,1.838-1.855c.132.007.262-.147.3-.365s-.045-.424-.177-.449a.041.041,0,0,0-.025,0c-.042-1.733-.864-2.342-1.9-2.367-1.069,0-2.028.752-1.965,2.375a.059.059,0,0,0-.03,0c-.132.025-.215.225-.175.449S66.366,25.474,66.5,25.452Zm4.979-1.73c0,.29-.017.572-.042.856l.627.629a10.638,10.638,0,0,0-7.306-11.7v.747A10.058,10.058,0,0,1,71.482,23.721Zm-20.054.856c-.022-.282-.042-.567-.042-.856a10.056,10.056,0,0,1,6.72-9.469v-.747a10.637,10.637,0,0,0-7.309,11.7Zm10,9.194a10.012,10.012,0,0,1-6.962-2.819l-.5.5a10.711,10.711,0,0,0,14.915,0l-.494-.5A10,10,0,0,1,61.432,33.772Z" transform="translate(-50.2 -10)"/>
        </g>
      </g>
    </g>
  </g>
</svg>
