<svg xmlns="http://www.w3.org/2000/svg" width="12.089" height="12.088" viewBox="0 0 12.089 12.088">
  <path id="Icon_ionic-ios-call" data-name="Icon ionic-ios-call" d="M16.23,13.968a10.154,10.154,0,0,0-2.121-1.419c-.636-.305-.869-.3-1.319.025-.374.271-.617.522-1.048.428a6.251,6.251,0,0,1-2.105-1.558A6.207,6.207,0,0,1,8.079,9.338c-.091-.434.16-.673.428-1.048.324-.45.334-.683.025-1.319A9.953,9.953,0,0,0,7.113,4.851c-.463-.463-.566-.362-.821-.271a4.674,4.674,0,0,0-.752.4,2.269,2.269,0,0,0-.9.954c-.179.387-.387,1.108.67,2.99a16.682,16.682,0,0,0,2.933,3.912h0l0,0,0,0h0a16.747,16.747,0,0,0,3.912,2.933c1.882,1.057,2.6.85,2.99.67a2.23,2.23,0,0,0,.954-.9,4.674,4.674,0,0,0,.4-.752C16.592,14.534,16.7,14.43,16.23,13.968Z" transform="translate(-4.49 -4.502)" fill="#fff"/>
</svg>
