<svg xmlns="http://www.w3.org/2000/svg" width="53" height="53" viewBox="0 0 53 53">
  <g id="Group_1405" data-name="Group 1405" transform="translate(-155 -612)">
    <path id="Path_26976" data-name="Path 26976" d="M26.5,0A26.5,26.5,0,1,1,0,26.5,26.5,26.5,0,0,1,26.5,0Z" transform="translate(155 612)" fill="#59b8be" opacity="0.43"/>
    <path id="Icon_feather-phone-call" data-name="Icon feather-phone-call" d="M16.232,5.539A5.049,5.049,0,0,1,20.22,9.527M16.232,1.5a9.088,9.088,0,0,1,8.027,8.017m-1.01,8.058V20.6a2.019,2.019,0,0,1-2.2,2.019,19.983,19.983,0,0,1-8.714-3.1,19.69,19.69,0,0,1-6.058-6.058,19.983,19.983,0,0,1-3.1-8.754,2.019,2.019,0,0,1,2.009-2.2H8.215a2.019,2.019,0,0,1,2.019,1.737,12.965,12.965,0,0,0,.707,2.837,2.019,2.019,0,0,1-.454,2.131L9.2,10.5a16.156,16.156,0,0,0,6.058,6.058l1.282-1.282a2.019,2.019,0,0,1,2.131-.454,12.965,12.965,0,0,0,2.837.707A2.019,2.019,0,0,1,23.249,17.575Z" transform="translate(167.332 619.259)" fill="none" stroke="#fff" stroke-linecap="round" stroke-linejoin="round" stroke-width="2"/>
    <text id="_10_m" data-name="10/m" transform="translate(169 646)" fill="#fff" font-size="10" font-family="Hind-Medium, Hind" font-weight="500"><tspan x="-10" y="11">10/m</tspan></text>
  </g>
</svg>
