<svg xmlns="http://www.w3.org/2000/svg" width="13.113" height="13.112" viewBox="0 0 13.113 13.112">
  <path id="Icon_ionic-ios-call" data-name="Icon ionic-ios-call" d="M16.29,14.016a10.206,10.206,0,0,0-2.132-1.427c-.639-.307-.873-.3-1.325.025-.376.272-.62.525-1.053.43A6.284,6.284,0,0,1,9.663,11.48,6.239,6.239,0,0,1,8.1,9.363c-.092-.437.161-.677.43-1.053.326-.452.335-.686.025-1.325A10,10,0,0,0,7.126,4.852c-.465-.465-.569-.364-.826-.272a4.7,4.7,0,0,0-.756.4,2.281,2.281,0,0,0-.908.958c-.18.389-.389,1.113.674,3.005a16.768,16.768,0,0,0,2.948,3.932h0l0,0,0,0h0A16.834,16.834,0,0,0,12.2,15.832c1.892,1.063,2.616.854,3.005.674a2.242,2.242,0,0,0,.958-.908,4.7,4.7,0,0,0,.4-.756C16.654,14.586,16.758,14.481,16.29,14.016Z" transform="translate(-4.008 -4.023)" fill="none" stroke="#848484" stroke-width="1"/>
</svg>
