<svg xmlns="http://www.w3.org/2000/svg" width="42" height="42" viewBox="0 0 42 42">
  <g id="Group_1440" data-name="Group 1440" transform="translate(-28 -134)">
    <circle id="Ellipse_70" data-name="Ellipse 70" cx="21" cy="21" r="21" transform="translate(28 134)" fill="#e7e2ff"/>
    <g id="user-chat" transform="translate(-38.352 131)">
      <g id="Group_1640" data-name="Group 1640" transform="translate(75.352 10)">
        <g id="Group_1639" data-name="Group 1639" transform="translate(0 0)">
          <path id="Path_26995" data-name="Path 26995" d="M76.6,35.375h2.335v.778a1.084,1.084,0,0,0,1.084,1.084h9.566c-.011-.014-.025-.028-.036-.042a.764.764,0,0,1-.264-.178,2.175,2.175,0,0,1-.595-1.5V32.445A2.181,2.181,0,0,1,89,31.325a.755.755,0,0,1,.464-.345.523.523,0,0,1,.092-.014.757.757,0,0,1,.417-.511,2.156,2.156,0,0,1,.892-.192h5.706l-1.426-5.948a1.082,1.082,0,0,0-1.084-1.084H89.217a6.8,6.8,0,1,0-4.4,0h-4.8a1.082,1.082,0,0,0-1.084,1.084v.214L75.468,33.3C75.109,34.446,75.615,35.375,76.6,35.375Zm4.961-16.634c1.879-.217,8.291-1.162,9.388-4.1,0,0-.025,3.007,1.584,3.952a5.792,5.792,0,0,1-10.973.153Z" transform="translate(-75.352 -10)" fill="#785ffb"/>
          <path id="Path_26996" data-name="Path 26996" d="M620.935,768.936a1.409,1.409,0,0,0-.6-.136h-6.651a1.456,1.456,0,0,0-.584.125l3.91,2.362Z" transform="translate(-598.155 -747.711)" fill="#785ffb"/>
          <path id="Path_26997" data-name="Path 26997" d="M809,796.207l2.9,2.871a1.416,1.416,0,0,0,.311-.887v-3.074a1.426,1.426,0,0,0-.195-.717Z" transform="translate(-788.61 -772.6)" fill="#785ffb"/>
          <path id="Path_26998" data-name="Path 26998" d="M583,793.8a1.422,1.422,0,0,0-.2.731v3.077a1.432,1.432,0,0,0,.389.978l2.932-2.9Z" transform="translate(-568.697 -772.016)" fill="#785ffb"/>
          <path id="Path_26999" data-name="Path 26999" d="M613.614,867.2l-.967.581a.4.4,0,0,1-.208.058.418.418,0,0,1-.211-.058l-.856-.517L608.4,870.2a1.408,1.408,0,0,0,.714.192h6.651a1.427,1.427,0,0,0,.817-.259l-2.963-2.929Z" transform="translate(-593.585 -843.376)" fill="#785ffb"/>
        </g>
      </g>
    </g>
  </g>
</svg>
