<svg xmlns="http://www.w3.org/2000/svg" width="47.803" height="46.93" viewBox="0 0 47.803 46.93">
  <g id="Call_2_" data-name="Call (2)" transform="translate(-10 -18.9)">
    <path id="Path_666" data-name="Path 666" d="M30.146,44.719a2.454,2.454,0,1,1-2.454-2.454A2.452,2.452,0,0,1,30.146,44.719Zm9.966-2.458a2.454,2.454,0,1,0,2.454,2.454A2.452,2.452,0,0,0,40.111,42.26ZM57.8,43.348v4.663a4.238,4.238,0,0,1-4.239,4.239H50.487C47.438,60.718,39.653,65.83,33.9,65.83S20.366,60.718,17.317,52.255H14.239A4.238,4.238,0,0,1,10,48.016V43.353a4.238,4.238,0,0,1,2.224-3.732C12.268,33,14.2,27.827,17.97,24.251,21.707,20.7,27.068,18.9,33.9,18.9S46.1,20.7,49.833,24.246c3.771,3.576,5.7,8.746,5.746,15.37A4.238,4.238,0,0,1,57.8,43.348Zm-8.975,1.385c0-1.093-.054-2.117-.137-3.107-1.883-1.722-5.3-3.029-9.609-3.512a6.279,6.279,0,0,1,1.351,2.576c-2.639-2.083-7.824-1.585-11.746-6.244-.224-.259-.42-.507-.585-.737,0,0,0,0,0-.01h0c-.7-.941-.937-1.5-.951-.883-.117,5.351-3.907,9.522-8.122,10.112-.024.59-.049,1.18-.049,1.8a19.29,19.29,0,0,0,1,6.18c2.366,2.854,6.273,3.658,9.731,3.873a4.432,4.432,0,0,1,3.761-1.737c2.273,0,4.117,1.307,4.117,2.922s-1.844,2.922-4.117,2.922a4.333,4.333,0,0,1-3.839-1.868,20.256,20.256,0,0,1-7.444-1.673c3.336,4.917,8.5,7.512,11.722,7.512C38.97,62.865,48.828,56.465,48.828,44.733Zm4.2-5.624C52.76,27.553,46.16,21.446,33.9,21.446S15.044,27.553,14.775,39.109H16.4a20.357,20.357,0,0,1,3.771-9.561c3.049-3.927,7.668-5.917,13.722-5.917s10.673,1.99,13.722,5.917a20.378,20.378,0,0,1,3.771,9.561Z" fill="#fff"/>
  </g>
</svg>
