<svg xmlns="http://www.w3.org/2000/svg" width="39.322" height="39.392" viewBox="0 0 39.322 39.392">
  <g id="Group_1391" data-name="Group 1391" transform="translate(-303.999 -524.243)">
    <path id="Icon_feather-phone-call" data-name="Icon feather-phone-call" d="M25.567,8.425a8.656,8.656,0,0,1,6.838,6.838M25.567,1.5A15.581,15.581,0,0,1,39.331,15.246M37.6,29.062v5.194a3.463,3.463,0,0,1-3.774,3.463A34.262,34.262,0,0,1,18.884,32.4,33.76,33.76,0,0,1,8.5,22.015,34.262,34.262,0,0,1,3.182,7.005,3.463,3.463,0,0,1,6.627,3.231h5.194a3.463,3.463,0,0,1,3.463,2.978A22.229,22.229,0,0,0,16.5,11.074a3.463,3.463,0,0,1-.779,3.653l-2.2,2.2A27.7,27.7,0,0,0,23.905,27.313l2.2-2.2a3.463,3.463,0,0,1,3.653-.779,22.229,22.229,0,0,0,4.865,1.212A3.463,3.463,0,0,1,37.6,29.062Z" transform="translate(302.332 524.399)" fill="none" stroke="#fff" stroke-linecap="round" stroke-linejoin="round" stroke-width="3"/>
  </g>
</svg>
