<svg xmlns="http://www.w3.org/2000/svg" width="45" height="45" viewBox="0 0 45 45">
  <g id="services-5" transform="translate(-15 -579)">
    <circle id="Ellipse_71" data-name="Ellipse 71" cx="22.5" cy="22.5" r="22.5" transform="translate(15 579)" fill="#cdedd3"/>
    <g id="career" transform="translate(2.966 579.518)">
      <g id="Group_1136" data-name="Group 1136" transform="translate(23.93 9.999)">
        <path id="Path_710" data-name="Path 710" d="M389.432-500.957a1.819,1.819,0,0,0-1.318,1.3,1.848,1.848,0,0,0,.972,2.122,1.331,1.331,0,0,0,.776.134,1.364,1.364,0,0,0,.79-.139,2,2,0,0,0,.867-.867,1.323,1.323,0,0,0,.139-.766,1.29,1.29,0,0,0-.158-.8,1.879,1.879,0,0,0-.958-.9A2.041,2.041,0,0,0,389.432-500.957Z" transform="translate(-379.515 501.001)"/>
        <path id="Path_711" data-name="Path 711" d="M78.674-316.369c-1.7.527-1.825.575-2.041.8-.082.081-.632.968-1.226,1.974-1.016,1.715-1.083,1.816-1.183,1.772-.2-.086-.316-.01-.479.321l-.153.312-.7-.335a7.363,7.363,0,0,0-.757-.331c-.149,0-.292.187-.537.7-.144.307-.259.561-.254.565s.546.263,1.2.57l1.188.556.1-.1a.332.332,0,0,1,.191-.1c.149,0,.35.22.326.354-.019.1.082.153,1.174.671.939.446,1.2.551,1.236.5s.149-.307.283-.6c.326-.723.34-.69-.56-1.121-.383-.186-.709-.345-.719-.354a.722.722,0,0,1,.1-.263,1.149,1.149,0,0,0,.124-.388c0-.125-.029-.158-.216-.249-.12-.057-.216-.129-.216-.153s.45-.81,1-1.729l1-1.677.738-.225a6.519,6.519,0,0,1,.762-.206c.01.014-.072.944-.182,2.074-.235,2.381-.216,2.113-.345,4.867l-.1,2.146-.934,1.246c-.513.685-.953,1.3-.982,1.375a.987.987,0,0,0,.92,1.346c.46,0,.546-.077,1.71-1.629a14.716,14.716,0,0,0,1.14-1.629,10.087,10.087,0,0,0,.149-1.629c.043-.776.086-1.423.1-1.437s.584-.024,1.274-.024h1.255l.024.958a3.023,3.023,0,0,0,.105,1.1.964.964,0,0,0,1.547.244c.287-.287.312-.426.312-1.72a4.491,4.491,0,0,0-.1-1.437,1.573,1.573,0,0,0-.8-.929l-.273-.134-1.318-.024c-1.284-.024-1.318-.029-1.308-.12.01-.053.091-.853.182-1.772s.182-1.73.2-1.8c.024-.11.043-.1.359.23a3.085,3.085,0,0,0,.484.422c.22.115,3.866,1.169,4.034,1.169a.68.68,0,0,0,.532-.33,1.022,1.022,0,0,0,.072-.364.462.462,0,0,0-.158-.388c-.149-.163-.23-.192-2-.709l-1.844-.537-.939-1.025C80.748-317.087,80.9-317.054,78.674-316.369Zm-4.46,4.8a.183.183,0,0,1,.091.134.681.681,0,0,0,.359.47.637.637,0,0,0,.546,0c.105-.057.144-.053.326.034.115.057.2.115.2.129s-.057.129-.11.254-.11.225-.134.225c-.048,0-1.581-.719-1.629-.766a1.165,1.165,0,0,1,.235-.527A.651.651,0,0,1,74.214-311.573Z" transform="translate(-70.233 321.136)"/>
        <path id="Path_712" data-name="Path 712" d="M269.768-66.2a2.023,2.023,0,0,0-1.236,1.073l-.153.321-.014,1.916c0,1.054-.024,1.969-.034,2.027a.585.585,0,0,1-.153.23l-.124.115H266.2a12.053,12.053,0,0,0-2.127.072,1.814,1.814,0,0,0-1.265,1.02l-.182.364-.024,1.911-.024,1.911-.158.139-.153.139h-1.94c-2.108,0-2.161,0-2.362.263a1.093,1.093,0,0,0-.158.316.732.732,0,0,0,.283.752l.168.129,1.96.014c1.226.01,2.06,0,2.232-.038a1.875,1.875,0,0,0,1.385-1.044l.182-.364.024-1.911.024-1.911.158-.139.153-.139h1.859c2.012,0,2.2-.019,2.621-.263a2.076,2.076,0,0,0,.934-1.4c.029-.153.048-1.068.048-2.036v-1.758l.115-.134.115-.134,2.036-.024c1.974-.024,2.041-.029,2.175-.124a.72.72,0,0,0,.34-.68.653.653,0,0,0-.374-.589c-.153-.086-.312-.091-2.228-.086A16.455,16.455,0,0,0,269.768-66.2Z" transform="translate(-252.306 76.453)"/>
        <path id="Path_713" data-name="Path 713" d="M24.419-40.856a8.99,8.99,0,0,0-.489,1.164.307.307,0,0,0,.086.2c.1.091,5.025,2.429,5.117,2.429s.091-.01.666-1.222a8.552,8.552,0,0,0,.465-1.083c-.053-.053-2.295-1.1-2.347-1.1-.024,0-.082.086-.124.192-.091.23-.259.326-.45.259s-.235-.249-.12-.527l.091-.235-1.188-.561c-.652-.312-1.193-.565-1.2-.565S24.692-41.431,24.419-40.856Z" transform="translate(-23.93 52.661)"/>
      </g>
    </g>
  </g>
</svg>
