<svg xmlns="http://www.w3.org/2000/svg" width="37" height="37" viewBox="0 0 37 37">
  <g id="Group_1047" data-name="Group 1047" transform="translate(-29 -317)">
    <circle id="Ellipse_66" data-name="Ellipse 66" cx="18.5" cy="18.5" r="18.5" transform="translate(29 317)" fill="#fff"/>
    <g id="claim-cashback" transform="translate(26.982 312.378)">
      <g id="Group_1055" data-name="Group 1055" transform="translate(10.018 13.622)">
        <path id="Path_548" data-name="Path 548" d="M249.476-498.664a10.561,10.561,0,0,0-4.164,1.012c-.692.333-.833.453-.833.717a.331.331,0,0,0,.119.3c.218.209.282.2,1-.154a9.074,9.074,0,0,1,4.091-.965,9.439,9.439,0,0,1,1.409.107,1.974,1.974,0,0,0,.922.064.458.458,0,0,0,.06-.735A8.376,8.376,0,0,0,249.476-498.664Z" transform="translate(-239.692 498.668)" fill="#59b8be"/>
        <path id="Path_549" data-name="Path 549" d="M711.405-436.918a.386.386,0,0,0-.265.337c-.034.226.073.38.41.581a9.6,9.6,0,0,1,3.476,3.8c.06.128.145.32.192.431s.141.346.2.534c.141.418.286.572.538.572a.368.368,0,0,0,.3-.124c.171-.171.162-.371-.03-.884a10.177,10.177,0,0,0-3.98-4.966,2.228,2.228,0,0,0-.67-.342A.743.743,0,0,0,711.405-436.918Z" transform="translate(-696.817 438.234)" fill="#59b8be"/>
        <path id="Path_550" data-name="Path 550" d="M12.787-348.864a8.8,8.8,0,0,0-1.49,1.943,9.756,9.756,0,0,0-1.29,4.591c-.009.53.021.619.252.73a.413.413,0,0,0,.491-.094c.128-.124.158-.265.158-.7a8.937,8.937,0,0,1,.769-3.3,9.14,9.14,0,0,1,1.456-2.263c.3-.342.346-.448.29-.658A.44.44,0,0,0,12.787-348.864Z" transform="translate(-10.006 351.977)" fill="#59b8be"/>
        <path id="Path_551" data-name="Path 551" d="M366.926-311.348a.533.533,0,0,0-.184.154c-.081.1-.09.167-.09.722v.611l-.329.03a2.265,2.265,0,0,0-1.939,1.324,2.554,2.554,0,0,0,0,2.357,2.447,2.447,0,0,0,1.772,1.3c.214.051.41.1.44.107a10.134,10.134,0,0,1,.051,1.875v1.858h-.2a2.226,2.226,0,0,1-1.379-.692c-.367-.354-.478-.4-.73-.265a.49.49,0,0,0-.231.478,1.366,1.366,0,0,0,.269.359,3.1,3.1,0,0,0,2.058,1.016h.214v.359c0,.324.013.376.111.491a.419.419,0,0,0,.525.115c.205-.107.26-.265.26-.722v-.4l.179-.06a3.319,3.319,0,0,0,1.414-1.191,3.437,3.437,0,0,0,.483-1.939,2.915,2.915,0,0,0-.342-1.127,2.138,2.138,0,0,0-1.328-.846c-.162-.038-.324-.077-.35-.085a6.794,6.794,0,0,1-.056-1.6c0-.867.013-1.58.026-1.58a1.87,1.87,0,0,1,.555.453c.239.252.278.273.44.273a.422.422,0,0,0,.431-.576,2.709,2.709,0,0,0-1.226-1.046l-.226-.094v-.67c0-.589-.009-.683-.085-.807A.418.418,0,0,0,366.926-311.348Zm-.273,4.035a7.6,7.6,0,0,1-.051,1.644,3.266,3.266,0,0,1-.773-.218,1.694,1.694,0,0,1-.841-1.584,1.354,1.354,0,0,1,1.119-1.422,2.865,2.865,0,0,1,.41-.06l.137,0v1.644Zm1.477,2.882a.977.977,0,0,1,.547.658,2.536,2.536,0,0,1,.021,1.05,2.787,2.787,0,0,1-.577,1.059,1.546,1.546,0,0,1-.547.436c-.013,0-.026-.76-.026-1.691v-1.691l.162.026A2.254,2.254,0,0,1,368.131-304.43Z" transform="translate(-356.869 315.209)" fill="#59b8be"/>
        <path id="Path_552" data-name="Path 552" d="M822.658-33.151c-.2.077-.269.282-.269.735a9.153,9.153,0,0,1-.7,3.215c-.034.068-.111.243-.175.384a9.452,9.452,0,0,1-1.375,2.063,2.181,2.181,0,0,0-.295.41.458.458,0,0,0,.615.5,4.331,4.331,0,0,0,.922-1.025,9.7,9.7,0,0,0,1.9-5.325c.034-.525.03-.649-.026-.747A.48.48,0,0,0,822.658-33.151Z" transform="translate(-803.295 42.691)" fill="#59b8be"/>
        <path id="Path_553" data-name="Path 553" d="M30.747,105.353a.568.568,0,0,0-.333.346,7.182,7.182,0,0,0,.922,2.28,10.617,10.617,0,0,0,3.357,3.438c.487.308.769.312.922.013.145-.278.043-.483-.359-.722a9.59,9.59,0,0,1-3.48-3.818c-.06-.132-.158-.346-.214-.47s-.145-.363-.2-.534C31.229,105.468,31.024,105.293,30.747,105.353Z" transform="translate(-29.994 -93.007)" fill="#59b8be"/>
        <path id="Path_554" data-name="Path 554" d="M380.975,370.23a9.242,9.242,0,0,1-4.33,1.08,8.778,8.778,0,0,1-1.772-.175,2.361,2.361,0,0,0-.354-.038.433.433,0,0,0-.124.85,9.09,9.09,0,0,0,2.251.26,9.97,9.97,0,0,0,3.181-.517,7.679,7.679,0,0,0,1.939-.922.489.489,0,0,0,.021-.521.726.726,0,0,0-.393-.218A3.256,3.256,0,0,0,380.975,370.23Z" transform="translate(-366.647 -352.29)" fill="#59b8be"/>
      </g>
    </g>
  </g>
</svg>
