<svg xmlns="http://www.w3.org/2000/svg" width="56.455" height="50.153" viewBox="0 0 56.455 50.153">
  <g id="cashify" transform="translate(-10 -64.6)">
    <g id="Group_1291" data-name="Group 1291" transform="translate(10 64.6)">
      <g id="Group_1290" data-name="Group 1290" transform="translate(0 0)">
        <g id="Group_1289" data-name="Group 1289" transform="translate(20.571)">
          <path id="Path_692" data-name="Path 692" d="M384.952,73.529a8.926,8.926,0,1,0-8.923,8.923A8.936,8.936,0,0,0,384.952,73.529Zm-8.923,7.5a7.5,7.5,0,1,1,7.5-7.5A7.5,7.5,0,0,1,376.029,81.03Z" transform="translate(-367.1 -64.6)" fill="#fff"/>
          <path id="Path_693" data-name="Path 693" d="M476.73,125.7c-1.175-.5-1.365-.772-1.365-1.227,0-.386.173-.847,1.014-.847a2.875,2.875,0,0,1,1.509.421l.3.173.542-1.429-.219-.127a3.867,3.867,0,0,0-1.555-.478V120.9h-1.423v1.365a2.4,2.4,0,0,0-1.97,2.362c-.006,1.44,1.187,2.1,2.35,2.558,1.008.409,1.221.812,1.221,1.29a.945.945,0,0,1-.259.674c-.513.518-1.815.346-2.638-.2l-.317-.207-.518,1.446.184.127a3.964,3.964,0,0,0,1.872.622v1.325h1.423v-1.417a2.534,2.534,0,0,0,2.074-2.477C478.948,127.139,478.285,126.338,476.73,125.7Z" transform="translate(-467.276 -117.657)" fill="#fff"/>
          <path id="Path_694" data-name="Path 694" d="M610.978,299.6a6.873,6.873,0,1,0,6.873,6.873A6.884,6.884,0,0,0,610.978,299.6Zm0,12.524a5.651,5.651,0,1,1,5.646-5.651A5.657,5.657,0,0,1,610.978,312.124Z" transform="translate(-590.447 -286.062)" fill="#fff"/>
          <path id="Path_695" data-name="Path 695" d="M687.362,346.175c-.858-.363-1-.553-1-.87,0-.386.236-.576.7-.576a2.1,2.1,0,0,1,1.118.311l.3.167.455-1.221-.219-.127a2.887,2.887,0,0,0-1.146-.369V342.5h-1.227v1.06a1.91,1.91,0,0,0-1.5,1.849c0,1.141.927,1.659,1.838,2.016.737.294.881.57.881.916a.635.635,0,0,1-.173.461c-.363.363-1.319.242-1.93-.161l-.311-.207-.449,1.233.179.127a3.108,3.108,0,0,0,1.406.484v1.02h1.221l.006-1.094a1.993,1.993,0,0,0,1.578-1.947A2.254,2.254,0,0,0,687.362,346.175Z" transform="translate(-666.404 -326.491)" fill="#fff"/>
        </g>
        <path id="Path_696" data-name="Path 696" d="M10,566.551h8.9V548.9H10Zm1.774-15.876h5.352v14.1H11.774Z" transform="translate(-10 -521.001)" fill="#fff"/>
        <path id="Path_697" data-name="Path 697" d="M237.823,561.878c-.323-.68-3.428-6.924-7.074-6.279-1.008.184-1.884,1.106-3.1,2.379-2.068,2.177-4.9,5.156-9.43,5.156-2.759,0-5.876-1.118-9.292-3.335l7.086-.006s.069.006.19.006c1.855,0,3.059-1.008,3.059-2.575v-2.938l-.017-.179c-.207-1.037-1.141-3.007-3.168-3.007H192.1v16.988l.622.2c.645.2,15.79,4.931,21.326,4.931h0s.161.012.455.012c2.385,0,14.7-.5,23.193-10.41l.369-.438ZM214.5,571.47c-.236,0-.369-.006-.421-.006-4.689,0-17.265-3.762-20.209-4.66V552.892h22.2c.951,0,1.331,1.2,1.411,1.509v2.834c0,.662-.7.8-1.285.8l-12.7-.006,2.1,1.59c4.62,3.514,8.871,5.294,12.622,5.294,5.283,0,8.555-3.433,10.715-5.709a7.654,7.654,0,0,1,2.131-1.861c1.722-.282,3.785,2.627,4.9,4.776C227.989,571.009,216.71,571.47,214.5,571.47Z" transform="translate(-181.61 -523.074)" fill="#fff"/>
      </g>
    </g>
  </g>
</svg>
