<svg xmlns="http://www.w3.org/2000/svg" width="21.034" height="21.037" viewBox="0 0 21.034 21.037">
  <g id="category" transform="translate(0.518 512.517)">
    <path id="Path_499" data-name="Path 499" d="M2.461-511.671a3.048,3.048,0,0,0-2.209,1.942,7.348,7.348,0,0,0-.167,2.647,7.548,7.548,0,0,0,.1,2.093A3.021,3.021,0,0,0,2.34-502.9a9.7,9.7,0,0,0,2.209.078c2.109,0,2.151,0,2.686-.252a2.964,2.964,0,0,0,1.5-1.5c.248-.543.256-.64.244-2.818l-.012-1.957-.12-.341a3.03,3.03,0,0,0-1.547-1.737c-.6-.287-.558-.283-2.675-.295A15.018,15.018,0,0,0,2.461-511.671Z" transform="translate(0 -0.188)" fill="none" stroke="#000" stroke-width="1.2"/>
    <path id="Path_500" data-name="Path 500" d="M284.457-511.878a3.529,3.529,0,0,0-.485.136,3,3,0,0,0-1.9,2.089,9.478,9.478,0,0,0-.078,2.178c0,2.132.008,2.194.291,2.783a3,3,0,0,0,1.946,1.612,10.111,10.111,0,0,0,2.2.074,9.724,9.724,0,0,0,2.213-.078,3.028,3.028,0,0,0,2.151-2.093,7.549,7.549,0,0,0,.1-2.093,7.2,7.2,0,0,0-.171-2.647,2.852,2.852,0,0,0-.729-1.132,2.757,2.757,0,0,0-1.5-.81,13.022,13.022,0,0,0-2.074-.058C285.454-511.913,284.566-511.9,284.457-511.878Z" transform="translate(-270.993 0)" fill="none" stroke="#000" stroke-width="1.2"/>
    <path id="Path_501" data-name="Path 501" d="M2.422-229.675a3.049,3.049,0,0,0-2.237,2.12,7.956,7.956,0,0,0-.1,2.113,13.238,13.238,0,0,0,.05,2.171,2.992,2.992,0,0,0,2.368,2.4,12.791,12.791,0,0,0,2.171.05c2.07-.016,2.035-.012,2.632-.3a3.03,3.03,0,0,0,1.547-1.737l.12-.341.012-1.957c.012-2.233.008-2.287-.283-2.888a2.982,2.982,0,0,0-1.822-1.574c-.267-.089-.295-.093-2.248-.1A17.075,17.075,0,0,0,2.422-229.675Z" transform="translate(0 -271.257)" fill="none" stroke="#000" stroke-width="1.2"/>
    <path id="Path_502" data-name="Path 502" d="M284.248-229.7a2.992,2.992,0,0,0-1.992,1.675c-.248.535-.256.632-.256,2.717a9.531,9.531,0,0,0,.078,2.182,3,3,0,0,0,1.988,2.12l.357.124,1.876.012a13.082,13.082,0,0,0,2.19-.05,2.754,2.754,0,0,0,1.519-.814,2.852,2.852,0,0,0,.729-1.132,7.2,7.2,0,0,0,.171-2.647,7.55,7.55,0,0,0-.1-2.093,3.07,3.07,0,0,0-1.93-2.031l-.341-.12-2-.008A10.227,10.227,0,0,0,284.248-229.7Z" transform="translate(-270.993 -271.208)" fill="none" stroke="#000" stroke-width="1.2"/>
  </g>
</svg>
