<svg xmlns="http://www.w3.org/2000/svg" width="16.75" height="16.75" viewBox="0 0 16.75 16.75">
  <g id="Icon_ionic-ios-chatbubbles" data-name="Icon ionic-ios-chatbubbles" transform="translate(-3.375 -3.375)">
    <path id="Path_776" data-name="Path 776" d="M20.849,14.351a.975.975,0,0,1,.133-.491,1.356,1.356,0,0,1,.085-.125A6.524,6.524,0,0,0,22.177,10.1a6.849,6.849,0,0,0-6.994-6.724A6.946,6.946,0,0,0,8.326,8.726,6.471,6.471,0,0,0,8.177,10.1a6.83,6.83,0,0,0,6.885,6.809,8.292,8.292,0,0,0,1.9-.31c.455-.125.906-.29,1.023-.334a1.065,1.065,0,0,1,.374-.068,1.047,1.047,0,0,1,.407.081l2.283.809a.544.544,0,0,0,.157.04.32.32,0,0,0,.322-.322.517.517,0,0,0-.02-.109Z" transform="translate(-2.052)" fill="#fff"/>
    <path id="Path_777" data-name="Path 777" d="M14.267,21.318c-.145.04-.33.085-.531.129a7.431,7.431,0,0,1-1.369.181,6.83,6.83,0,0,1-6.885-6.809,7.612,7.612,0,0,1,.06-.862c.024-.173.052-.346.093-.515s.089-.362.141-.54l-.322.286a5.992,5.992,0,0,0-2.078,4.506,5.925,5.925,0,0,0,1,3.3c.093.141.145.25.129.322s-.479,2.5-.479,2.5a.323.323,0,0,0,.109.31.328.328,0,0,0,.205.072.289.289,0,0,0,.117-.024l2.259-.89a.629.629,0,0,1,.483.008,6.777,6.777,0,0,0,2.444.483,6.324,6.324,0,0,0,4.836-2.219s.129-.177.278-.387C14.6,21.221,14.436,21.273,14.267,21.318Z" transform="translate(0 -4.072)" fill="#fff"/>
  </g>
</svg>
