<svg xmlns="http://www.w3.org/2000/svg" width="13.106" height="13.106" viewBox="0 0 13.106 13.106">
  <g id="chat-tabs" transform="translate(-2.875 -2.875)">
    <path id="Path_503" data-name="Path 503" d="M17.336,11.308a.705.705,0,0,1,.1-.355.98.98,0,0,1,.061-.09,4.715,4.715,0,0,0,.8-2.628,4.95,4.95,0,0,0-5.055-4.86A5.02,5.02,0,0,0,8.285,7.243a4.677,4.677,0,0,0-.108,1,4.937,4.937,0,0,0,4.976,4.921,5.993,5.993,0,0,0,1.374-.224c.329-.09.655-.21.739-.242a.769.769,0,0,1,.271-.049.757.757,0,0,1,.294.058l1.65.585a.393.393,0,0,0,.113.029.232.232,0,0,0,.233-.233A.374.374,0,0,0,17.813,13Z" transform="translate(-2.815)" fill="none" stroke="#000" stroke-width="1"/>
    <path id="Path_504" data-name="Path 504" d="M11.247,18.985c-.1.029-.239.061-.384.093a5.371,5.371,0,0,1-.989.131A4.937,4.937,0,0,1,4.9,14.288a5.5,5.5,0,0,1,.044-.623c.017-.125.038-.25.067-.372s.064-.262.1-.39l-.233.207a4.331,4.331,0,0,0-1.5,3.256A4.283,4.283,0,0,0,4.1,18.752c.067.1.1.18.093.233s-.346,1.8-.346,1.8a.233.233,0,0,0,.079.224.237.237,0,0,0,.148.052.209.209,0,0,0,.084-.017L5.788,20.4a.455.455,0,0,1,.349.006A4.9,4.9,0,0,0,7.9,20.76a4.571,4.571,0,0,0,3.5-1.6s.093-.128.2-.279C11.491,18.915,11.369,18.953,11.247,18.985Z" transform="translate(0 -5.584)" fill="none" stroke="#000" stroke-width="1"/>
  </g>
</svg>
