<svg id="Icon_ionic-md-chatbubbles" data-name="Icon ionic-md-chatbubbles" xmlns="http://www.w3.org/2000/svg" width="13.829" height="13.829" viewBox="0 0 13.829 13.829">
  <path id="Path_26890" data-name="Path 26890" d="M6.194,18.165A1.735,1.735,0,0,1,4.7,16.675V11.25H4.386a1.014,1.014,0,0,0-1.011,1.011v9.1L5.32,19.428H12.47A1.027,1.027,0,0,0,13.481,18.4v-.236Z" transform="translate(-3.375 -7.527)" fill="#fff"/>
  <path id="Path_26891" data-name="Path 26891" d="M18.528,3.375H9.246a1.163,1.163,0,0,0-1.16,1.16v7.516a1.166,1.166,0,0,0,1.16,1.164h7.918l2.523,1.762V4.535A1.163,1.163,0,0,0,18.528,3.375Z" transform="translate(-5.859 -3.375)" fill="#fff"/>
</svg>
