<svg xmlns="http://www.w3.org/2000/svg" width="42" height="42" viewBox="0 0 42 42">
  <g id="Group_1440" data-name="Group 1440" transform="translate(-28 -134)">
    <circle id="Ellipse_70" data-name="Ellipse 70" cx="21" cy="21" r="21" transform="translate(28 134)" fill="#e7e2ff"/>
    <g id="call_3_" data-name="call (3)" transform="translate(1.1 132)">
      <path id="Path_26903" data-name="Path 26903" d="M417.6,20.6c3.577,0,5-1.541,5-5.3,0-3.777-1.426-5.3-5-5.3s-5,1.521-5,5.3C412.6,19.059,414.026,20.6,417.6,20.6Z" transform="translate(-367.041)" fill="#785ffb"/>
      <path id="Path_26904" data-name="Path 26904" d="M289.6,482.4H276.288a1.643,1.643,0,0,1-.351.446l-.862.836c-.3.315-.272.7.082,1.141a25.852,25.852,0,0,0,2.01,2.156l.013.013.013.015a24.169,24.169,0,0,0,2.128,1.979,1.127,1.127,0,0,0,.685.3.637.637,0,0,0,.464-.208l.805-.828a1.8,1.8,0,0,1,1.323-.621,1.682,1.682,0,0,1,1.059.395l3.174,2.587h5.713v-5.262A2.882,2.882,0,0,0,289.6,482.4Z" transform="translate(-232.842 -460.287)" fill="#785ffb"/>
      <path id="Path_26905" data-name="Path 26905" d="M52.338,286.882,50.1,285.064a.544.544,0,0,0-.349-.144.71.71,0,0,0-.5.262l-.823.849a1.773,1.773,0,0,1-1.269.546,2.209,2.209,0,0,1-1.385-.546,25.934,25.934,0,0,1-2.231-2.074,27.414,27.414,0,0,1-2.1-2.254c-.049-.064-.092-.123-.133-.187a2.137,2.137,0,0,1-.4-1.2,1.766,1.766,0,0,1,.536-1.256l.9-.869a.986.986,0,0,0,.11-.131.62.62,0,0,0,.105-.323.533.533,0,0,0-.138-.351L39.2,273.42a.6.6,0,0,0-.456-.22.613.613,0,0,0-.282.067l-.105.079-1.29,1.213-.085.087a5.531,5.531,0,0,0-1.079,2.836,2.211,2.211,0,0,0,.064.538,25.006,25.006,0,0,0,5.256,7.8l.431.431a24.8,24.8,0,0,0,7.8,5.259,2.092,2.092,0,0,0,.551.072,5.407,5.407,0,0,0,2.787-1.046l.092-.085,1.205-1.28.09-.113a.59.59,0,0,0,.095-.321.6.6,0,0,0-.221-.464l.085-.1h0l-.085.1Z" transform="translate(0 -256.451)" fill="#785ffb"/>
    </g>
  </g>
</svg>
