<svg xmlns="http://www.w3.org/2000/svg" width="37" height="37" viewBox="0 0 37 37">
  <g id="Group_1047" data-name="Group 1047" transform="translate(-29 -317)">
    <circle id="Ellipse_66" data-name="Ellipse 66" cx="18.5" cy="18.5" r="18.5" transform="translate(29 317)" fill="#fff"/>
    <g id="user" transform="translate(-37.96 315.998)">
      <g id="Group_1069" data-name="Group 1069" transform="translate(76.96 10.002)">
        <path id="Path_660" data-name="Path 660" d="M294.371-500.978c-1.7.172-2.663.882-3,2.213a5.152,5.152,0,0,0-.1,1.31c-.015.915-.022,1.013-.084,1.079a1.788,1.788,0,0,0-.183,1.321,4.582,4.582,0,0,0,.227,1.193.912.912,0,0,0,.446.454c.077.018.091.051.113.209a3.966,3.966,0,0,0,1.185,2.257,2.641,2.641,0,0,0,1.851.867,2.449,2.449,0,0,0,1.28-.26,4.009,4.009,0,0,0,2.012-2.865c.022-.157.036-.19.113-.209a.91.91,0,0,0,.446-.454,5.167,5.167,0,0,0,.179-2.279.769.769,0,0,0-.135-.234c-.07-.062-.073-.117-.073-.863a3.256,3.256,0,0,0-.223-1.591,2.167,2.167,0,0,0-.765-.779.514.514,0,0,1-.267-.3,1.939,1.939,0,0,0-1.313-.947A5.567,5.567,0,0,0,294.371-500.978Zm-.347,2.561.512.249h.779l.487-.249c.432-.216.516-.245.7-.245.479,0,.79.238,1.076.816a2.759,2.759,0,0,1,.219,1.606,6.549,6.549,0,0,0,0,.688.888.888,0,0,0,.124-.23c.132-.285.227-.377.333-.322.143.077.168.183.161.644a5.593,5.593,0,0,1-.2,1.4.571.571,0,0,1-.245.194.817.817,0,0,0-.249.179,1.843,1.843,0,0,0-.1.413,2.684,2.684,0,0,1-.3.948,2.639,2.639,0,0,1-2.843,1.69,3.324,3.324,0,0,1-2.18-2.7c-.04-.329-.1-.421-.37-.549a.514.514,0,0,1-.209-.172,5.773,5.773,0,0,1-.212-1.7c.033-.223.07-.3.168-.355s.2.036.329.322a.884.884,0,0,0,.124.23c.011,0,.011-.406,0-.907a3.83,3.83,0,0,1,.04-1.138,1.434,1.434,0,0,1,.377-.71,1,1,0,0,1,.757-.355C293.489-498.663,293.566-498.637,294.023-498.417Z" transform="translate(-286.907 500.998)" fill="none" stroke="#59b8be" stroke-width="1.2"/>
        <path id="Path_661" data-name="Path 661" d="M81.983,35.785c-.08.048-.285.161-.454.256a8.074,8.074,0,0,1-2.261.783c-.761.176-.915.238-1.094.435a5.835,5.835,0,0,0-.882,2.707c-.143.845-.333,2.587-.333,3.044a1,1,0,0,0,.322.779c.384.384-.428.348,7.727.348s7.343.037,7.719-.344c.362-.362.381-.545.234-2-.241-2.378-.644-4.024-1.112-4.533-.187-.2-.333-.26-1.1-.439a7.565,7.565,0,0,1-2.506-.922c-.479-.293-.542-.263-.574.249a8.306,8.306,0,0,1-.454,1.873,12.363,12.363,0,0,1-.926,2.3c-.015-.015-.11-.311-.212-.651s-.256-.816-.337-1.057a1.808,1.808,0,0,1-.121-.476c.015-.022.088-.121.168-.219a1.086,1.086,0,0,0,.307-.673.648.648,0,0,0-.34-.428c-.135-.062-.135-.062-.4.051a1.4,1.4,0,0,1-.351.113,1.524,1.524,0,0,1-.355-.11c-.219-.091-.278-.1-.366-.069a.588.588,0,0,0-.377.52c0,.121.04.19.439.779.055.077.048.117-.1.552-.084.256-.23.732-.326,1.054a6.3,6.3,0,0,1-.2.615c-.015.018-.1-.124-.175-.311a15.216,15.216,0,0,1-1.2-3.863C82.32,35.69,82.261,35.632,81.983,35.785Z" transform="translate(-76.96 -25.504)" fill="none" stroke="#59b8be" stroke-width="1.2"/>
      </g>
    </g>
  </g>
</svg>
