<svg xmlns="http://www.w3.org/2000/svg" width="45" height="45" viewBox="0 0 45 45">
  <g id="services-4" transform="translate(-15 -579)">
    <circle id="Ellipse_71" data-name="Ellipse 71" cx="22.5" cy="22.5" r="22.5" transform="translate(15 579)" fill="#f2d2d6"/>
    <g id="education" transform="translate(14 441.1)">
      <path id="Path_26925" data-name="Path 26925" d="M33.9,158.443l.029,4.169-2.39-.016-.021-3.017-1.945.927a2.742,2.742,0,0,0-2.84-2.6l-8.009-.054a2.515,2.515,0,0,0-2.567,2.288l-6.157-3L23.086,150.9l13.172,6.417Zm-14.4,1.744,6.725.046a3.328,3.328,0,0,1,3.325,3.264l.008,1.417-.761-.005a3.464,3.464,0,0,0-2.551-1.35l-6.725-.046a3.363,3.363,0,0,0-2.532,1.316l-.761-.005-.011-1.417A3.222,3.222,0,0,1,19.5,160.187Zm11.264,9.389-1.594-.011-.016-2.328,1.594.011Zm3.194-2.307-.785-.005.313,0,.016,2.328-1.594-.011-.016-2.328-.324,0-.024-3.529,2.39.016Zm1.61,2.339-1.594-.011-.016-2.328,1.594.011Z" transform="translate(0)"/>
    </g>
  </g>
</svg>
