<svg xmlns="http://www.w3.org/2000/svg" width="22.001" height="22.001" viewBox="0 0 22.001 22.001">
  <g id="emoji" transform="translate(-10 -10)">
    <path id="Path_26924" data-name="Path 26924" d="M16.948,20.639A1.738,1.738,0,1,0,15.211,18.9,1.738,1.738,0,0,0,16.948,20.639Zm8.684,0A1.738,1.738,0,1,0,23.894,18.9,1.738,1.738,0,0,0,25.632,20.639Zm-9.29,3.5a6.23,6.23,0,0,0,1.313,1.042c2.474,1.518,5.44,1.518,8.574-.963a.687.687,0,1,0-.853-1.078c-2.654,2.1-4.993,2.1-7,.869a5.9,5.9,0,0,1-.77-.563,3.15,3.15,0,0,1-.242-.229.687.687,0,0,0-1.019.923ZM21,30.627h0A9.626,9.626,0,1,0,11.374,21,9.627,9.627,0,0,0,21,30.627ZM21,32h0A11,11,0,1,1,32,21,11,11,0,0,1,21,32Z" fill="#707070"/>
  </g>
</svg>
