<svg xmlns="http://www.w3.org/2000/svg" width="45" height="45" viewBox="0 0 45 45">
  <g id="our-4" transform="translate(-15 -579)">
    <circle id="Ellipse_71" data-name="Ellipse 71" cx="22.5" cy="22.5" r="22.5" transform="translate(15 579)" fill="#e1fafb"/>
    <g id="face-reading" transform="translate(24.919 1567.039)">
      <path id="Path_26943" data-name="Path 26943" d="M12.734-978.708c-.215.2-.5.484-.626.629s-.255.285-.279.309c-.04.043-.043.03-.024-.188.008-.129.019-.287.019-.349l0-.118-.126.1c-.285.215-.806.58-1.419.991-1.252.838-1.5,1.069-1.8,1.7a3.558,3.558,0,0,0-.322,1.961c.008.355.03.79.043.967s.035.446.043.6l.019.274-.188.183c-.25.242-.261.282-.223.836.032.484.1,1.174.137,1.429a1.524,1.524,0,0,0,.191.6.532.532,0,0,0,.279.223.853.853,0,0,1,.239.156,2.8,2.8,0,0,1,.134.446A10.04,10.04,0,0,0,10-965.113l.2.317-.064.368c-.054.312-.11.489-.156.489-.005,0-.1-.073-.212-.161a4.6,4.6,0,0,0-1.413-.787,3.166,3.166,0,0,0-1.276-.164,3.152,3.152,0,0,0-1.33.191,4.224,4.224,0,0,0-2.6,2.695,3.3,3.3,0,0,0-.142,1.185,3.363,3.363,0,0,0,.411,1.856l.218.449L2.578-957.6a8.753,8.753,0,0,0-1.454,1.612.848.848,0,0,0,.72,1.042c.312.032.454-.064,1.3-.895a4.747,4.747,0,0,1,.578-.516,3.54,3.54,0,0,1,.387.314,13.545,13.545,0,0,0,3.925,2.4,13.26,13.26,0,0,0,3.2.833,10.351,10.351,0,0,0,1.612.062c.787,0,1.265-.011,1.464-.035a13.41,13.41,0,0,0,5.895-2.16,11.423,11.423,0,0,0,1.827-1.486,13.371,13.371,0,0,0,1.749-2.045l.247-.363-.156-.207a4.158,4.158,0,0,0-.841-.836,11.149,11.149,0,0,0-2.5-1.118,19.275,19.275,0,0,1-2.792-1.166c-.481-.236-1.045-.508-1.252-.6a2.941,2.941,0,0,1-.451-.253c-.1-.091-.129-.215-.258-.956l-.107-.613.156-.207a8.286,8.286,0,0,0,1.443-3.272c.083-.336.164-.629.177-.647a.21.21,0,0,1,.121-.032.406.406,0,0,0,.341-.18,4.292,4.292,0,0,0,.242-1.768l0-.51-.078-.14a1.224,1.224,0,0,0-.279-.309l-.2-.169.019-.43c.008-.236.03-.672.043-.967a3.957,3.957,0,0,0-.586-2.837,5.7,5.7,0,0,0-.758-.75A19.554,19.554,0,0,0,13.7-978.24l-.231-.094-.019.185a.668.668,0,0,1-.038.2c-.011.008-.051-.056-.089-.142a2.114,2.114,0,0,1-.14-.7,1.228,1.228,0,0,0-.038-.239C13.129-979.06,13.011-978.968,12.734-978.708Zm-1.467,6.534a4.934,4.934,0,0,0,1.373.312,5,5,0,0,0,2.249-.341c.529-.185.68-.175.946.064a1.459,1.459,0,0,1,.368.58,7.1,7.1,0,0,1,.019,2.391c-.408,2.295-1.239,3.837-2.289,4.253-.18.07-.2.073-.822.083a2.006,2.006,0,0,1-1.145-.158,4.8,4.8,0,0,1-1.894-3.127,7.425,7.425,0,0,1-.242-3.264,2.115,2.115,0,0,1,.341-.72.784.784,0,0,1,.476-.247A4.079,4.079,0,0,1,11.267-972.173Zm.725,8.555a2.738,2.738,0,0,0,.962.156,3,3,0,0,0,.75-.043,1.327,1.327,0,0,1,.459-.048c0,.059.175.854.218.986.2.61.459.811,2.168,1.66a22.3,22.3,0,0,0,3.324,1.435,6.324,6.324,0,0,1,1.921.8c0,.07-.078.167-.454.564A11.537,11.537,0,0,1,17.8-955.5a10.921,10.921,0,0,1-3.479,1.045,13.463,13.463,0,0,1-3-.016,11.63,11.63,0,0,1-4.782-1.9c-.422-.3-.986-.723-.973-.733a1.941,1.941,0,0,1,.317.083,3.283,3.283,0,0,0,1.314.14,4.169,4.169,0,0,0,.846-.073,4.125,4.125,0,0,0,2.168-1.335,4.156,4.156,0,0,0,.989-2.979c-.07-.7-.075-.637.064-.962a5.129,5.129,0,0,0,.325-1.064c.064-.3.1-.4.137-.4C11.74-963.7,11.855-963.662,11.992-963.619Zm-4.277.266a2.56,2.56,0,0,1,1.763,1.738,1.776,1.776,0,0,1,.075.645,1.787,1.787,0,0,1-.059.615,2.545,2.545,0,0,1-1.881,1.808,2.989,2.989,0,0,1-1.037,0,2.615,2.615,0,0,1-1.534-1.067,2.442,2.442,0,0,1-.368-1.8A2.545,2.545,0,0,1,6.64-963.39,3.214,3.214,0,0,1,7.715-963.353Z" transform="translate(0 0)" fill="#747474"/>
    </g>
  </g>
</svg>
