<svg xmlns="http://www.w3.org/2000/svg" width="24" height="24" viewBox="0 0 24 24">
  <g id="Group_1037" data-name="Group 1037" transform="translate(-15 -193)">
    <rect id="Rectangle_290" data-name="Rectangle 290" width="24" height="24" rx="5" transform="translate(15 193)" fill="#fff"/>
    <g id="faq" transform="translate(-149.173 187)">
      <path id="Path_542" data-name="Path 542" d="M421.1,859.871a1.069,1.069,0,1,0,2.139,0v0a1.069,1.069,0,1,0-2.139,0Z" transform="translate(-245.846 -834.942)" fill="#785ffb"/>
      <path id="Path_543" data-name="Path 543" d="M178.917,18.167c1.332-.673,2.993-1.51,2.993-3.778,0-2.584-2.229-4.389-5.419-4.389a5.33,5.33,0,0,0-5.091,3.313,3.608,3.608,0,0,0-.17,1.851.712.712,0,1,0,1.389-.31,2.182,2.182,0,0,1,.116-1.051,3.888,3.888,0,0,1,3.752-2.374c2.351,0,3.992,1.22,3.992,2.962,0,1.324-.838,1.814-2.209,2.506-1.192.6-2.674,1.35-2.674,3.2V21.86a.712.712,0,1,0,1.424,0V20.1C177.023,19.166,177.709,18.776,178.917,18.167Z" transform="translate(0)" fill="#785ffb"/>
    </g>
  </g>
</svg>
