<svg xmlns="http://www.w3.org/2000/svg" width="61.506" height="45.529" viewBox="0 0 61.506 45.529">
  <g id="file_upload" transform="translate(-10.003 -137.285)">
    <g id="Group_1358" data-name="Group 1358" transform="translate(10.003 137.285)">
      <path id="Path_26896" data-name="Path 26896" d="M45.492-373.49a16.149,16.149,0,0,0-10.172,6.34l-.585.8H33.566a13.077,13.077,0,0,0-6.525,1.785,13.786,13.786,0,0,0-4.555,4.909l-.308.616-1.385.2a12.331,12.331,0,0,0-10.587,10,12.365,12.365,0,0,0,7.818,13.7c2.093.754,2.8.8,11.88.8h8.4V-336.8H29.811c-9.6,0-9.787-.015-11.972-1.093a9.957,9.957,0,0,1-5.386-8.756,9.906,9.906,0,0,1,10.157-9.818l1.216.077.323-.939a9.873,9.873,0,0,1,10.941-6.4c.723.139.847.123.985-.092,3.031-5.14,7.433-7.679,12.773-7.4a13.487,13.487,0,0,1,12.419,10.064,10.567,10.567,0,0,1,.338,3.078l.015,1.893.97.323a11.207,11.207,0,0,1,4.032,2.724,10.3,10.3,0,0,1,2.462,6.494A9.957,9.957,0,0,1,63.7-337.9c-2.185,1.077-2.37,1.093-11.957,1.093H43.23v2.463h8.51a95.839,95.839,0,0,0,9.649-.215A12.334,12.334,0,0,0,71.422-345.2a12.458,12.458,0,0,0-1.585-7.648,13.416,13.416,0,0,0-5-4.693l-.631-.323-.108-1.123a17.026,17.026,0,0,0-2.755-7.818,22.784,22.784,0,0,0-3.878-3.924A16.293,16.293,0,0,0,45.492-373.49Z" transform="translate(-10.003 373.715)" fill="#a4a4a4"/>
      <path id="Path_26897" data-name="Path 26897" d="M363.586-43.555,359.2-39.169l.892.877.877.892,2.924-2.924,2.924-2.924v20.39h2.461v-20.39l2.924,2.924,2.924,2.924.877-.892.892-.877-4.386-4.386c-2.416-2.416-4.417-4.386-4.463-4.386S366-45.971,363.586-43.555Z" transform="translate(-337.284 68.386)" fill="#a4a4a4"/>
    </g>
  </g>
</svg>
