<svg xmlns="http://www.w3.org/2000/svg" width="37" height="37" viewBox="0 0 37 37">
  <g id="Group_1047" data-name="Group 1047" transform="translate(-29 -317)">
    <circle id="Ellipse_66" data-name="Ellipse 66" cx="18.5" cy="18.5" r="18.5" transform="translate(29 317)" fill="#fff"/>
    <g id="thumb" transform="translate(-22.2 315)">
      <path id="Path_648" data-name="Path 648" d="M64.191,31.836H60.661a.455.455,0,0,1-.461-.448V18.471a.457.457,0,0,1,.461-.448h3.529a.455.455,0,0,1,.461.448V31.388A.455.455,0,0,1,64.191,31.836Zm-3.11-.893h2.678V18.919H61.08Zm10.633,0h0c-.3,0-.6-.007-.918-.02-1.21-.051-2.625-.247-3.656-.392-.5-.069-.938-.129-1.2-.154a.444.444,0,0,1-.408-.441V19.387a.445.445,0,0,1,.29-.414l.216-.08a11.735,11.735,0,0,0,4.189-2.3,6.739,6.739,0,0,0,1.689-4.824A1.684,1.684,0,0,1,73.5,10a2.392,2.392,0,0,1,.784.149.47.47,0,0,1,.167.1c.5.495,2.081,3.373.588,7.79h2.542a2.25,2.25,0,0,1,2.07,1.729,2.341,2.341,0,0,1-.363,2.295,2.413,2.413,0,0,1,.178,2.143,2.669,2.669,0,0,1-.6.965,2.738,2.738,0,0,1-.9,2.9A2.579,2.579,0,0,1,76.628,30.3,16.715,16.715,0,0,1,71.713,30.945Zm-5.287-1.4c.234.029.517.069.838.114,1.014.14,2.4.332,3.572.383a17.045,17.045,0,0,0,5.481-.566c.746-.31.769-1.606.769-1.62a.437.437,0,0,1,.187-.359,1.891,1.891,0,0,0,.655-2.3.442.442,0,0,1,.209-.573,1.562,1.562,0,0,0,.492-.726,1.644,1.644,0,0,0-.241-1.571.443.443,0,0,1,.007-.561,1.558,1.558,0,0,0,.432-1.633c-.009-.018-.018-.04-.025-.058-.363-1.112-1.127-1.143-1.212-1.143H74.4a.443.443,0,0,1-.417-.6c1.58-4.051.321-6.8-.111-7.38a1.379,1.379,0,0,0-.374-.062c-.626,0-.686.8-.691.9a7.57,7.57,0,0,1-1.925,5.41,12.255,12.255,0,0,1-4.456,2.5v9.848Zm-4.006.506a.448.448,0,1,1,.448-.448A.448.448,0,0,1,62.419,30.049Z" transform="translate(0)" fill="none" stroke="#59b8be" stroke-width="0.8"/>
    </g>
  </g>
</svg>
