<svg xmlns="http://www.w3.org/2000/svg" width="39" height="39" viewBox="0 0 39 39">
  <g id="Group_1330" data-name="Group 1330" transform="translate(-162 -619)">
    <circle id="Ellipse_80" data-name="Ellipse 80" cx="19.5" cy="19.5" r="19.5" transform="translate(162 619)" fill="#fff" opacity="0.43"/>
    <path id="Icon_awesome-share" data-name="Icon awesome-share" d="M23.611,9.649,15.36,2.524a1.126,1.126,0,0,0-1.86.851V7.128C5.971,7.214,0,8.723,0,15.859a9.582,9.582,0,0,0,3.906,7.225.835.835,0,0,0,1.316-.873C3.1,15.413,6.23,13.609,13.5,13.5v4.121a1.126,1.126,0,0,0,1.86.851l8.25-7.125A1.125,1.125,0,0,0,23.611,9.649Z" transform="translate(170 625.75)" fill="#fff"/>
  </g>
</svg>
