<svg xmlns="http://www.w3.org/2000/svg" width="39" height="39" viewBox="0 0 39 39">
  <g id="Group_1332" data-name="Group 1332" transform="translate(-162 -619)">
    <circle id="Ellipse_80" data-name="Ellipse 80" cx="19.5" cy="19.5" r="19.5" transform="translate(162 619)" fill="#fff" opacity="0.43"/>
    <path id="Icon_awesome-gift" data-name="Icon awesome-gift" d="M1.5,21.75A1.5,1.5,0,0,0,3,23.25h7.5v-7.5h-9Zm12,1.5H21a1.5,1.5,0,0,0,1.5-1.5v-6h-9Zm9-15H20.527A4.087,4.087,0,0,0,21,6.375,4.131,4.131,0,0,0,16.875,2.25c-1.95,0-3.211,1-4.828,3.2-1.617-2.2-2.878-3.2-4.828-3.2A4.131,4.131,0,0,0,3.094,6.375,4.03,4.03,0,0,0,3.567,8.25H1.5A1.5,1.5,0,0,0,0,9.75V13.5a.752.752,0,0,0,.75.75h22.5A.752.752,0,0,0,24,13.5V9.75A1.5,1.5,0,0,0,22.5,8.25Zm-15.286,0a1.875,1.875,0,0,1,0-3.75c.933,0,1.622.155,4.036,3.75H7.214Zm9.661,0H12.839c2.409-3.586,3.08-3.75,4.036-3.75a1.875,1.875,0,0,1,0,3.75Z" transform="translate(170 624.75)" fill="#fff"/>
  </g>
</svg>
