<svg id="icons8-google-96" xmlns="http://www.w3.org/2000/svg" width="16.665" height="16.665" viewBox="0 0 16.665 16.665">
  <path id="Path_3" data-name="Path 3" d="M20.5,10.7h-.671v-.035h-7.5V14h4.709a5,5,0,1,1-1.392-5.4l2.357-2.357a8.324,8.324,0,1,0,2.659,6.09A8.389,8.389,0,0,0,20.5,10.7Z" transform="translate(-4 -4)" fill="#ffc107"/>
  <path id="Path_4" data-name="Path 4" d="M6.306,8.454l2.738,2.008A4.989,4.989,0,0,1,16.994,8.6l2.357-2.357A8.316,8.316,0,0,0,6.306,8.454Z" transform="translate(-5.345 -4)" fill="#ff3d00"/>
  <path id="Path_5" data-name="Path 5" d="M13.613,34.7A8.293,8.293,0,0,0,19.2,32.534l-2.579-2.182a4.987,4.987,0,0,1-7.708-2.3L6.2,30.148A8.326,8.326,0,0,0,13.613,34.7Z" transform="translate(-5.281 -18.033)" fill="#4caf50"/>
  <path id="Path_6" data-name="Path 6" d="M32.17,20.035H31.5V20H24v3.333h4.709a5.016,5.016,0,0,1-1.7,2.321h0l2.579,2.182a8.06,8.06,0,0,0,2.746-6.169A8.39,8.39,0,0,0,32.17,20.035Z" transform="translate(-15.668 -13.334)" fill="#1976d2"/>
</svg>
