<svg xmlns="http://www.w3.org/2000/svg" width="45" height="45" viewBox="0 0 45 45">
  <g id="services-3" transform="translate(-15 -579)">
    <circle id="Ellipse_71" data-name="Ellipse 71" cx="22.5" cy="22.5" r="22.5" transform="translate(15 579)" fill="#f2d2d6"/>
    <g id="health_2_" data-name="health (2)" transform="translate(15.995 508.074)">
      <g id="Group_1468" data-name="Group 1468" transform="translate(10.005 83.926)">
        <path id="Path_26917" data-name="Path 26917" d="M579.256-427.022c-.05.027-.213.141-.363.254a3.375,3.375,0,0,0-.953,4.888c.109.15.912.985,1.788,1.861l1.593,1.589V-417c0,1.4,0,1.439.1,1.634a.6.6,0,0,0,.667.386.658.658,0,0,0,.654-.313c.091-.118.1-.191.109-1.584l.014-1.461,1.693-1.7c.931-.935,1.761-1.8,1.843-1.92a4.418,4.418,0,0,0,.522-1.176,3.776,3.776,0,0,0-.023-1.511,3.677,3.677,0,0,0-.681-1.312A7.414,7.414,0,0,0,585.139-427a.692.692,0,0,0-.908.281c-.2.359-.114.54.558,1.2a2.555,2.555,0,0,1,.631.794,1.779,1.779,0,0,1,.018,1.725c-.123.259-.327.481-1.72,1.884l-1.58,1.589-1.584-1.589c-1.734-1.743-1.816-1.847-1.915-2.465a2.023,2.023,0,0,1,.649-1.72c.867-.812.971-.958.921-1.221a.807.807,0,0,0-.39-.495A.716.716,0,0,0,579.256-427.022Z" transform="translate(-563.9 427.074)"/>
        <path id="Path_26918" data-name="Path 26918" d="M14.422-366.9a1.171,1.171,0,0,0-.862.794,3.645,3.645,0,0,0-.068.885v.663l-.123.054a2.335,2.335,0,0,1-.418.082,3.254,3.254,0,0,0-2.592,1.9c-.336.722-.331.64-.349,4.493-.014,2.446,0,3.513.032,3.69a.823.823,0,0,0,.477.613c.172.082.458.086,6.141.086,4.9,0,5.982-.009,6.1-.064a1.019,1.019,0,0,0,.486-.558c.036-.123.045-1.2.036-3.758-.023-4.049,0-3.808-.39-4.607a2.511,2.511,0,0,0-.622-.844,2.438,2.438,0,0,0-.84-.622,3.387,3.387,0,0,0-1.266-.349h-.177l-.018-.808c-.018-.881-.045-1-.3-1.289a1.255,1.255,0,0,0-.359-.268l-.213-.109-2.269-.009C15.58-366.936,14.5-366.923,14.422-366.9Zm4.267,1.03c.231.109.3.291.3.853v.481H14.49v-.481c0-.554.064-.744.286-.853A23.909,23.909,0,0,1,18.689-365.874Zm-1,3.082a3.85,3.85,0,0,1,2.66,2.728,4.241,4.241,0,0,1,.023,1.756,3.836,3.836,0,0,1-2.637,2.846,4.545,4.545,0,0,1-1.952.05,3.816,3.816,0,0,1-2.542-2.024,3.037,3.037,0,0,1-.363-1.679,3.491,3.491,0,0,1,.082-.976,3.943,3.943,0,0,1,2.36-2.61A3.875,3.875,0,0,1,17.69-362.792Z" transform="translate(-10.005 368.35)"/>
        <path id="Path_26919" data-name="Path 26919" d="M153.444-177.578a3.4,3.4,0,0,0-2.269,1.284,3.356,3.356,0,0,0,1.688,5.251,3.607,3.607,0,0,0,1.72.05,3.343,3.343,0,0,0,2.483-2.456,2.583,2.583,0,0,0,.077-.926,3.069,3.069,0,0,0-.989-2.256,2.488,2.488,0,0,0-.817-.6A3.328,3.328,0,0,0,153.444-177.578Zm1.044,1.035c.064.068.077.213.086.8l.014.726.726.014c.59.009.735.023.8.086s.082.154.082.649-.009.586-.082.649-.213.077-.8.086l-.726.014-.014.681c-.014.867.014.84-.731.84-.763,0-.731.036-.731-.844v-.7h-.681c-.89,0-.862.023-.862-.722s-.032-.726.84-.74l.681-.014.014-.726c.009-.59.023-.735.086-.8s.154-.082.649-.082S154.424-176.616,154.488-176.543Z" transform="translate(-147.174 183.476)"/>
        <path id="Path_26920" data-name="Path 26920" d="M366.928,101a10.456,10.456,0,0,1-.091,1.679,4.249,4.249,0,0,1-3.145,3.182,4.607,4.607,0,0,1-2.251-.091l-.118-.045.109-.272a2.1,2.1,0,0,0-1.67-2.819,2.1,2.1,0,0,0-.767,4.13,2.216,2.216,0,0,0,1.548-.254l.163-.1.386.132a5.055,5.055,0,0,0,6.413-3.127,6.352,6.352,0,0,0,.254-2.456V99.62h-.808Zm-7,2.728a1.231,1.231,0,0,1,.549.567,1.326,1.326,0,0,1,.064.418,1.084,1.084,0,1,1-1.579-.962A1.143,1.143,0,0,1,359.929,103.733Z" transform="translate(-349.157 -87.209)"/>
      </g>
    </g>
  </g>
</svg>
