<svg xmlns="http://www.w3.org/2000/svg" width="37" height="37" viewBox="0 0 37 37">
  <g id="Group_1047" data-name="Group 1047" transform="translate(-29 -317)">
    <circle id="Ellipse_66" data-name="Ellipse 66" cx="18.5" cy="18.5" r="18.5" transform="translate(29 317)" fill="#fff"/>
    <g id="help-support" transform="translate(-154.098 314.998)">
      <g id="Group_1575" data-name="Group 1575" transform="translate(189.098 10.002)">
        <path id="Path_26973" data-name="Path 26973" d="M236.472-500.969c-.07.018-.429.079-.787.131a11.615,11.615,0,0,0-8.319,6.159c-.446.875-.481.91-.787.954a1.2,1.2,0,0,0-.954.726c-.166.323-.175.525-.175,2.755,0,2.659.026,2.817.586,3.184.21.14.306.324.508.945a11.7,11.7,0,0,0,1.093,2.414.736.736,0,0,1,.114.595,1.7,1.7,0,0,0,.385,1.26,1.634,1.634,0,0,0,2.616-.236,1.721,1.721,0,0,0-.385-2.126,2.552,2.552,0,0,0-.673-.289c-.411-.114-.411-.114-.84-.989-.569-1.172-.6-1.356-.262-1.548.472-.262.56-.5.455-1.2a9.394,9.394,0,0,1,.227-3.823,1.037,1.037,0,0,0-.2-1.163l-.227-.271.376-.665a9.689,9.689,0,0,1,8.372-4.934,9.137,9.137,0,0,1,4.347,1.015,9.724,9.724,0,0,1,4.208,4.085l.28.534-.254.288c-.306.35-.306.49-.07,1.391a13.231,13.231,0,0,1,.14,3.674c-.07.525-.07.542.193.84a1.939,1.939,0,0,0,1.75.49c.849-.053,1.2-.236,1.478-.77.192-.385.2-.437.175-2.861-.026-2.344-.035-2.476-.21-2.712a1.591,1.591,0,0,0-1-.639c-.21,0-.28-.088-.639-.814a11.359,11.359,0,0,0-2.318-3.14,11.676,11.676,0,0,0-5.791-3.1A18.9,18.9,0,0,0,236.472-500.969Z" transform="translate(-225.45 500.998)" fill="#59b8be"/>
        <path id="Path_26974" data-name="Path 26974" d="M324.225-435.05a8.181,8.181,0,0,0-6.351,4.759c-2.135,4.575-.026,10.2,4.488,11.95a7.725,7.725,0,0,0,8.389-1.9c4.663-4.855,2.415-13.227-3.945-14.67A8.71,8.71,0,0,0,324.225-435.05Zm2.213,1.365a7.65,7.65,0,0,1,2.773,1.321,7.749,7.749,0,0,1,1.1,10.69,6.459,6.459,0,0,1-8.039,1.9,7.535,7.535,0,0,1-3.814-8.2,7.259,7.259,0,0,1,3.832-5.152A6.184,6.184,0,0,1,326.438-433.685Z" transform="translate(-312.984 438.01)" fill="#59b8be"/>
      </g>
    </g>
  </g>
</svg>
