<svg xmlns="http://www.w3.org/2000/svg" width="24" height="24" viewBox="0 0 24 24">
  <g id="Group_1031" data-name="Group 1031" transform="translate(-15 -193)">
    <rect id="Rectangle_290" data-name="Rectangle 290" width="24" height="24" rx="5" transform="translate(15 193)" fill="#fff"/>
    <g id="help" transform="translate(-101.165 185.999)">
      <g id="Group_1032" data-name="Group 1032" transform="translate(121.165 10.001)">
        <path id="Path_533" data-name="Path 533" d="M127.631-500.99a5.681,5.681,0,0,0-3.155,1.368,5.729,5.729,0,0,0-1.35,1.78c-.141.293-.174.34-.253.34a2.344,2.344,0,0,0-.724.268,2.616,2.616,0,0,0-.691.691,1.906,1.906,0,0,0-.083,1.889,2.085,2.085,0,0,0,1.885,1.169h.21l0-.861c0-.676.011-.8.036-.6a4.737,4.737,0,0,0,3.5,3.929,4.048,4.048,0,0,0,.521.094c.3.025.253.065-.119.1a6.352,6.352,0,0,0-2.88,1.074,7.361,7.361,0,0,0-1.675,1.675,6.363,6.363,0,0,0-1.085,2.96c-.022.2-.04.734-.04,1.2v.85H134.47v-.85c0-.47-.018-1.009-.04-1.2a6.415,6.415,0,0,0-3.575-5.1,6.18,6.18,0,0,0-2.066-.6c-.373-.033-.416-.072-.119-.1a4.682,4.682,0,0,0,2.178-.886,6.013,6.013,0,0,0,.535-.481l.318-.322h.412a2.836,2.836,0,0,0,.561-.043,1.08,1.08,0,0,0,.637-.8c0-.033.069-.069.184-.1a2.142,2.142,0,0,0,1.465-1.415,2.206,2.206,0,0,0,0-1.085,2.231,2.231,0,0,0-.908-1.176,2.367,2.367,0,0,0-.724-.271c-.076,0-.116-.054-.286-.4a5.6,5.6,0,0,0-3.983-3.021A8.6,8.6,0,0,0,127.631-500.99Zm1.5.658a4.747,4.747,0,0,1,2.377,1.266,4.667,4.667,0,0,1,1.009,1.4l.214.434,0,.706c0,.59-.011.662-.036.452a4.736,4.736,0,0,0-2.344-3.459,4.573,4.573,0,0,0-6.082,1.469,4.739,4.739,0,0,0-.771,2.116,3.17,3.17,0,0,1-.018-.564c-.007-.691-.007-.695.1-.944a4.788,4.788,0,0,1,.98-1.472,4.794,4.794,0,0,1,2.775-1.451A6.543,6.543,0,0,1,129.133-500.332Zm-.127.857a4.034,4.034,0,0,1,3.064,3.093,5.6,5.6,0,0,1,0,1.737,4.627,4.627,0,0,1-.467,1.2l-.141.246h-1.976l-.051-.094a1.213,1.213,0,0,0-.546-.445,4.46,4.46,0,0,0-.861-.033c-.785.011-.857.029-1.1.271a.787.787,0,0,0-.239.8,1.149,1.149,0,0,0,.6.619,7.6,7.6,0,0,0,1.621,0,1.5,1.5,0,0,0,.554-.474c.029-.058.094-.061.771-.054l.738.011-.279.224a4.205,4.205,0,0,1-1.726.832,5.594,5.594,0,0,1-1.737,0,4.03,4.03,0,0,1-3.1-3.1,5.594,5.594,0,0,1,0-1.737,4.032,4.032,0,0,1,3.253-3.13A5.932,5.932,0,0,1,129.006-499.474Zm-6.114,3.965v1.415l-.1-.018a1.413,1.413,0,0,1-1.053-1.4,1.421,1.421,0,0,1,.879-1.349C122.917-496.981,122.892-497.1,122.892-495.509Zm10.8-1.306a1.5,1.5,0,0,1,.622,1.983,1.474,1.474,0,0,1-.9.72l-.105.018v-2.84l.116.025A1.512,1.512,0,0,1,133.7-496.815Zm-.962,2.551c0,1.1.014,1.067-.394,1.067h-.246l.134-.264a4.443,4.443,0,0,0,.47-1.6c0-.069.007-.123.018-.123S132.733-494.771,132.733-494.264Zm-3.835,1.14a.3.3,0,0,1,.072.217.3.3,0,0,1-.072.217c-.069.069-.119.072-.8.072s-.727,0-.8-.072a.3.3,0,0,1-.072-.217.3.3,0,0,1,.072-.217c.069-.069.119-.072.8-.072S128.829-493.193,128.9-493.125Zm.253,2.913c.17.033.431.09.579.134a5.426,5.426,0,0,1,.915.351c.029.029-1.939,4.276-2.424,5.232l-.112.217-.054-.127c-.029-.069-.6-1.274-1.274-2.677s-1.227-2.569-1.237-2.594a4.564,4.564,0,0,1,1.943-.6A10.306,10.306,0,0,1,129.151-490.212Zm-2.876,3.394c.633,1.328,1.143,2.42,1.136,2.428s-2.956-1.661-3.006-1.708c-.018-.022.271-1.342.676-3.079.011-.047.025-.08.033-.072S125.642-488.15,126.275-486.818Zm5.188-.857c.2.854.351,1.563.337,1.578-.047.043-2.949,1.693-2.959,1.682s.268-.6.612-1.331.854-1.809,1.129-2.41.51-1.086.517-1.082S131.267-488.53,131.463-487.676Zm-7.373.271c-.2.865-.351,1.581-.337,1.6s.854.5,1.87,1.078,1.852,1.06,1.86,1.071-1.154.014-2.583.014h-2.594l.014-.8a5.786,5.786,0,0,1,.286-1.921,6.767,6.767,0,0,1,.785-1.545,5.958,5.958,0,0,1,1.046-1.1C124.444-488.989,124.288-488.266,124.09-487.4Zm8.361-.963a5.815,5.815,0,0,1,1.335,2.724,6.24,6.24,0,0,1,.1,1.194l.014.8H131.3c-1.429,0-2.591-.007-2.583-.014s.847-.492,1.86-1.071,1.856-1.064,1.871-1.078-.137-.727-.333-1.581-.362-1.578-.362-1.6C131.756-489.062,132.158-488.7,132.45-488.367Z" transform="translate(-121.165 500.999)" fill="#785ffb"/>
      </g>
    </g>
  </g>
</svg>
