<svg xmlns="http://www.w3.org/2000/svg" width="17.761" height="16.878" viewBox="0 0 17.761 16.878">
  <g id="home" transform="translate(-13.851 -79.043)">
    <path id="Path_653" data-name="Path 653" d="M160.361,214.419l8.362-6.774a.719.719,0,0,1,.262-.152c.083,0,.218.1.267.14l8.336,6.8a.773.773,0,0,1,.14.377v8.652a.529.529,0,0,1-.571.492H171.14l.01-6.843-4.342.012-.005,6.831h-6.059a.505.505,0,0,1-.545-.492V214.81A.871.871,0,0,1,160.361,214.419Zm.887.556-.013,7.732c.075.292.226.448.506.448h4.217s.01-5.949.008-6.234-.047-.669.628-.669c.986,0,4.313.014,4.671.012.63,0,.664.354.669.671s.016,6.217.016,6.217l4.243-.023a.474.474,0,0,0,.506-.428l.013-7.723-7.508-6.158a.4.4,0,0,0-.231-.1.363.363,0,0,0-.213.1Z" transform="translate(-146.17 -128.032)" fill="#59b8be"/>
    <path id="Path_656" data-name="Path 656" d="M158.354,196.226l8.237-6.808a.618.618,0,0,1,.75-.014.414.414,0,0,1,.052.039l8.273,6.838a.473.473,0,0,1,.109.126.453.453,0,0,1,.086.264V205.5a.531.531,0,0,1-.56.5.252.252,0,0,1-.041,0l-.041,0H169.1v-6.941H164.89V206h-6.23a.531.531,0,0,1-.56-.5v-8.856A.475.475,0,0,1,158.354,196.226Zm.864,8.778h4.546v-6.443a.531.531,0,0,1,.563-.5h5.332a.533.533,0,0,1,.563.5V205h4.518v-8.13l-7.762-6.415-7.76,6.413Z" transform="translate(-144.249 -110.241)" fill="#59b8be"/>
  </g>
</svg>
