<svg xmlns="http://www.w3.org/2000/svg" width="25.416" height="19.472" viewBox="0 0 25.416 19.472">
  <g id="home" transform="translate(-10.036 -76.45)">
    <path id="Path_652" data-name="Path 652" d="M11.157,91.86l12.1-9.978a.576.576,0,0,1,.244-.117.543.543,0,0,1,.521.1L36.086,91.881a.383.383,0,0,1,.065.577l-.252.237a.509.509,0,0,1-.654-.018l-11.264-9.35a.554.554,0,0,0-.34-.154.745.745,0,0,0-.314.143L11.995,92.658a.506.506,0,0,1-.654.016l-.249-.237A.381.381,0,0,1,11.157,91.86Z" transform="translate(-0.828 -5.165)" fill="#785ffb"/>
    <path id="Path_653" data-name="Path 653" d="M160.361,214.419l8.362-6.774a.719.719,0,0,1,.262-.152c.083,0,.218.1.267.14l8.336,6.8a.773.773,0,0,1,.14.377v8.652a.529.529,0,0,1-.571.492H171.14l.01-6.843-4.342.012-.005,6.831h-6.059a.505.505,0,0,1-.545-.492V214.81A.871.871,0,0,1,160.361,214.419Zm.887.556-.013,7.732c.075.292.226.448.506.448h4.217s.01-5.949.008-6.234-.047-.669.628-.669c.986,0,4.313.014,4.671.012.63,0,.664.354.669.671s.016,6.217.016,6.217l4.243-.023a.474.474,0,0,0,.506-.428l.013-7.723-7.508-6.158a.4.4,0,0,0-.231-.1.363.363,0,0,0-.213.1Z" transform="translate(-146.17 -128.032)" fill="#785ffb"/>
    <path id="Path_654" data-name="Path 654" d="M781.4,182.2c0-.278-.381-.5-.848-.5h0c-.469,0-.848.225-.848.5l-.008,3.452s.223-.17,1.712-1.4Z" transform="translate(-765.922 -102.831)" fill="#785ffb"/>
    <path id="Path_655" data-name="Path 655" d="M765.4,176.353a.92.92,0,0,1,.952-.857.887.887,0,0,1,.952.83v1.616l-1.9,1.54v-3.128Z" transform="translate(-751.443 -96.769)" fill="#785ffb"/>
    <path id="Path_656" data-name="Path 656" d="M158.354,196.226l8.237-6.808a.618.618,0,0,1,.75-.014.414.414,0,0,1,.052.039l8.273,6.838a.473.473,0,0,1,.109.126.453.453,0,0,1,.086.264V205.5a.531.531,0,0,1-.56.5.252.252,0,0,1-.041,0l-.041,0H169.1v-6.941H164.89V206h-6.23a.531.531,0,0,1-.56-.5v-8.856A.475.475,0,0,1,158.354,196.226Zm.864,8.778h4.546v-6.443a.531.531,0,0,1,.563-.5h5.332a.533.533,0,0,1,.563.5V205h4.518v-8.13l-7.762-6.415-7.76,6.413Z" transform="translate(-144.249 -110.241)" fill="#785ffb"/>
    <path id="Path_657" data-name="Path 657" d="M10.215,86.594l12.112-10.01a.613.613,0,0,1,.418-.133.6.6,0,0,1,.418.133l12.112,10.01a.461.461,0,0,1,.029.7.616.616,0,0,1-.794.025L22.744,77.6,10.98,87.323a.611.611,0,0,1-.794-.025A.459.459,0,0,1,10.215,86.594Z" transform="translate(0 0)" fill="#785ffb"/>
  </g>
</svg>
