<svg xmlns="http://www.w3.org/2000/svg" width="20.699" height="24.632" viewBox="0 0 20.699 24.632">
  <path id="Icon_awesome-apple" data-name="Icon awesome-apple" d="M17.587,15.267a5.134,5.134,0,0,1,2.75-4.663,5.908,5.908,0,0,0-4.658-2.453C13.727,8,11.593,9.289,10.812,9.289c-.825,0-2.717-1.083-4.2-1.083C3.542,8.255.281,10.653.281,15.53A13.706,13.706,0,0,0,1.073,20c.7,2.018,3.245,6.967,5.9,6.885,1.386-.033,2.365-.984,4.168-.984,1.749,0,2.656.984,4.2.984,2.673-.038,4.971-4.537,5.642-6.561a5.451,5.451,0,0,1-3.393-5.054Zm-3.113-9.03a5.179,5.179,0,0,0,1.32-3.987A5.831,5.831,0,0,0,12.06,4.169a5.261,5.261,0,0,0-1.408,3.954A4.618,4.618,0,0,0,14.475,6.237Z" transform="translate(-0.281 -2.25)" fill="#fff"/>
</svg>
