<svg xmlns="http://www.w3.org/2000/svg" xmlns:xlink="http://www.w3.org/1999/xlink" width="18.034" height="20.61" viewBox="0 0 18.034 20.61">
  <defs>
    <linearGradient id="linear-gradient" x1="0.5" x2="0.5" y2="1" gradientUnits="objectBoundingBox">
      <stop offset="0" stop-color="#785ffb"/>
      <stop offset="1" stop-color="#ad46f2"/>
    </linearGradient>
  </defs>
  <path id="Icon_awesome-calendar-alt" data-name="Icon awesome-calendar-alt" d="M0,18.678A1.933,1.933,0,0,0,1.932,20.61H16.1a1.933,1.933,0,0,0,1.932-1.932V7.729H0Zm12.882-7.89a.484.484,0,0,1,.483-.483h1.61a.484.484,0,0,1,.483.483V12.4a.484.484,0,0,1-.483.483h-1.61a.484.484,0,0,1-.483-.483Zm0,5.153a.484.484,0,0,1,.483-.483h1.61a.484.484,0,0,1,.483.483v1.61a.484.484,0,0,1-.483.483h-1.61a.484.484,0,0,1-.483-.483ZM7.729,10.788a.484.484,0,0,1,.483-.483h1.61a.484.484,0,0,1,.483.483V12.4a.484.484,0,0,1-.483.483H8.212a.484.484,0,0,1-.483-.483Zm0,5.153a.484.484,0,0,1,.483-.483h1.61a.484.484,0,0,1,.483.483v1.61a.484.484,0,0,1-.483.483H8.212a.484.484,0,0,1-.483-.483ZM2.576,10.788a.484.484,0,0,1,.483-.483H4.67a.484.484,0,0,1,.483.483V12.4a.484.484,0,0,1-.483.483H3.059a.484.484,0,0,1-.483-.483Zm0,5.153a.484.484,0,0,1,.483-.483H4.67a.484.484,0,0,1,.483.483v1.61a.484.484,0,0,1-.483.483H3.059a.484.484,0,0,1-.483-.483ZM16.1,2.576H14.17V.644A.646.646,0,0,0,13.526,0H12.237a.646.646,0,0,0-.644.644V2.576H6.441V.644A.646.646,0,0,0,5.8,0H4.509a.646.646,0,0,0-.644.644V2.576H1.932A1.933,1.933,0,0,0,0,4.509V6.441H18.034V4.509A1.933,1.933,0,0,0,16.1,2.576Z" fill="url(#linear-gradient)"/>
</svg>
