<svg id="icons8-google-96" xmlns="http://www.w3.org/2000/svg" width="24.2" height="24.2" viewBox="0 0 24.2 24.2">
  <path id="Path_3" data-name="Path 3" d="M27.965,13.73H26.99v-.05H16.1v4.84h6.838a7.266,7.266,0,1,1-2.022-7.842l3.423-3.423A12.088,12.088,0,1,0,28.2,16.1,12.182,12.182,0,0,0,27.965,13.73Z" transform="translate(-4 -4)" fill="#ffc107"/>
  <path id="Path_4" data-name="Path 4" d="M6.306,10.468l3.976,2.916a7.245,7.245,0,0,1,11.546-2.705L25.25,7.256A12.076,12.076,0,0,0,6.306,10.468Z" transform="translate(-4.911 -4)" fill="#ff3d00"/>
  <path id="Path_5" data-name="Path 5" d="M16.967,37.7A12.044,12.044,0,0,0,25.08,34.56l-3.745-3.169a7.241,7.241,0,0,1-11.194-3.337L6.2,31.094A12.091,12.091,0,0,0,16.967,37.7Z" transform="translate(-4.867 -13.501)" fill="#4caf50"/>
  <path id="Path_6" data-name="Path 6" d="M35.865,20.05H34.89V20H24v4.84h6.838a7.284,7.284,0,0,1-2.473,3.371h0l3.745,3.169A11.705,11.705,0,0,0,36.1,22.42,12.184,12.184,0,0,0,35.865,20.05Z" transform="translate(-11.9 -10.32)" fill="#1976d2"/>
</svg>
