<svg xmlns="http://www.w3.org/2000/svg" width="14.389" height="16.445" viewBox="0 0 14.389 16.445">
  <path id="Icon_awesome-calendar-alt" data-name="Icon awesome-calendar-alt" d="M0,14.9a1.542,1.542,0,0,0,1.542,1.542H12.848A1.542,1.542,0,0,0,14.389,14.9V6.167H0Zm10.278-6.3a.387.387,0,0,1,.385-.385h1.285a.387.387,0,0,1,.385.385V9.893a.387.387,0,0,1-.385.385H10.663a.387.387,0,0,1-.385-.385Zm0,4.111a.387.387,0,0,1,.385-.385h1.285a.387.387,0,0,1,.385.385V14a.387.387,0,0,1-.385.385H10.663A.387.387,0,0,1,10.278,14ZM6.167,8.608a.387.387,0,0,1,.385-.385H7.837a.387.387,0,0,1,.385.385V9.893a.387.387,0,0,1-.385.385H6.552a.387.387,0,0,1-.385-.385Zm0,4.111a.387.387,0,0,1,.385-.385H7.837a.387.387,0,0,1,.385.385V14a.387.387,0,0,1-.385.385H6.552A.387.387,0,0,1,6.167,14ZM2.056,8.608a.387.387,0,0,1,.385-.385H3.726a.387.387,0,0,1,.385.385V9.893a.387.387,0,0,1-.385.385H2.441a.387.387,0,0,1-.385-.385Zm0,4.111a.387.387,0,0,1,.385-.385H3.726a.387.387,0,0,1,.385.385V14a.387.387,0,0,1-.385.385H2.441A.387.387,0,0,1,2.056,14ZM12.848,2.056H11.306V.514A.515.515,0,0,0,10.792,0H9.764A.515.515,0,0,0,9.25.514V2.056H5.139V.514A.515.515,0,0,0,4.625,0H3.6a.515.515,0,0,0-.514.514V2.056H1.542A1.542,1.542,0,0,0,0,3.6V5.139H14.389V3.6A1.542,1.542,0,0,0,12.848,2.056Z" fill="#fff"/>
</svg>
