<svg xmlns="http://www.w3.org/2000/svg" width="17.067" height="17.063" viewBox="0 0 17.067 17.063">
  <path id="Icon_awesome-instagram" data-name="Icon awesome-instagram" d="M8.53,6.394A4.375,4.375,0,1,0,12.9,10.769,4.368,4.368,0,0,0,8.53,6.394Zm0,7.219a2.844,2.844,0,1,1,2.844-2.844A2.849,2.849,0,0,1,8.53,13.613Zm5.574-7.4a1.02,1.02,0,1,1-1.02-1.02A1.018,1.018,0,0,1,14.1,6.215ZM17,7.251a5.05,5.05,0,0,0-1.378-3.575A5.083,5.083,0,0,0,12.048,2.3c-1.409-.08-5.631-.08-7.04,0A5.075,5.075,0,0,0,1.433,3.672,5.066,5.066,0,0,0,.055,7.247c-.08,1.409-.08,5.631,0,7.04a5.05,5.05,0,0,0,1.378,3.575A5.089,5.089,0,0,0,5.008,19.24c1.409.08,5.631.08,7.04,0a5.05,5.05,0,0,0,3.575-1.378A5.083,5.083,0,0,0,17,14.287c.08-1.409.08-5.627,0-7.036ZM15.181,15.8a2.879,2.879,0,0,1-1.622,1.622c-1.123.445-3.788.343-5.03.343s-3.91.1-5.03-.343A2.879,2.879,0,0,1,1.878,15.8c-.445-1.123-.343-3.788-.343-5.03s-.1-3.91.343-5.03A2.879,2.879,0,0,1,3.5,4.118c1.123-.445,3.788-.343,5.03-.343s3.91-.1,5.03.343A2.879,2.879,0,0,1,15.181,5.74c.445,1.123.343,3.788.343,5.03S15.627,14.679,15.181,15.8Z" transform="translate(0.005 -2.238)" fill="#fff"/>
</svg>
