<svg xmlns="http://www.w3.org/2000/svg" width="11.029" height="11.028" viewBox="0 0 11.029 11.028">
  <path id="Icon_ionic-ios-call" data-name="Icon ionic-ios-call" d="M15.2,13.138a9.264,9.264,0,0,0-1.935-1.295c-.58-.278-.792-.273-1.2.023-.342.247-.563.477-.956.39a5.7,5.7,0,0,1-1.921-1.421A5.662,5.662,0,0,1,7.764,8.914c-.083-.4.146-.614.39-.956.3-.411.3-.623.023-1.2A9.081,9.081,0,0,0,6.883,4.82c-.422-.422-.517-.33-.749-.247a4.264,4.264,0,0,0-.686.365,2.07,2.07,0,0,0-.824.87c-.164.353-.353,1.011.612,2.728A15.22,15.22,0,0,0,7.911,12.1h0l0,0,0,0h0a15.279,15.279,0,0,0,3.569,2.676c1.717.965,2.374.775,2.728.612a2.035,2.035,0,0,0,.87-.824,4.264,4.264,0,0,0,.365-.686C15.531,13.655,15.625,13.56,15.2,13.138Z" transform="translate(-4.49 -4.502)" fill="#785ffb"/>
</svg>
