<svg xmlns="http://www.w3.org/2000/svg" width="10.099" height="10.099" viewBox="0 0 10.099 10.099">
  <g id="Icon_ionic-ios-chatbubbles" data-name="Icon ionic-ios-chatbubbles" transform="translate(-2.875 -2.875)">
    <path id="Path_503" data-name="Path 503" d="M15.061,9.338a.53.53,0,0,1,.072-.267A.737.737,0,0,1,15.179,9a3.544,3.544,0,0,0,.6-1.975,3.721,3.721,0,0,0-3.8-3.653A3.773,3.773,0,0,0,8.258,6.282a3.515,3.515,0,0,0-.081.748,3.71,3.71,0,0,0,3.74,3.7,4.5,4.5,0,0,0,1.032-.168c.247-.068.492-.157.556-.182a.578.578,0,0,1,.2-.037.569.569,0,0,1,.221.044l1.24.44a.3.3,0,0,0,.085.022.174.174,0,0,0,.175-.175.281.281,0,0,0-.011-.059Z" transform="translate(-3.308)" fill="none" stroke="#848484" stroke-width="1"/>
    <path id="Path_504" data-name="Path 504" d="M9.292,17.474c-.079.022-.179.046-.289.07a4.037,4.037,0,0,1-.744.1,3.71,3.71,0,0,1-3.74-3.7,4.135,4.135,0,0,1,.033-.468c.013-.094.028-.188.05-.28s.048-.2.077-.293l-.175.155a3.255,3.255,0,0,0-1.129,2.448A3.219,3.219,0,0,0,3.917,17.3c.05.077.079.136.07.175s-.26,1.356-.26,1.356A.175.175,0,0,0,3.786,19a.178.178,0,0,0,.112.039.157.157,0,0,0,.063-.013l1.227-.483a.342.342,0,0,1,.262,0,3.681,3.681,0,0,0,1.328.262A3.435,3.435,0,0,0,9.406,17.6s.07-.1.151-.21C9.476,17.421,9.384,17.45,9.292,17.474Z" transform="translate(0 -6.563)" fill="none" stroke="#848484" stroke-width="1"/>
  </g>
</svg>
