<svg xmlns="http://www.w3.org/2000/svg" width="15.888" height="15.886" viewBox="0 0 15.888 15.886">
  <path id="Icon_ionic-ios-call" data-name="Icon ionic-ios-call" d="M19.919,16.942a13.344,13.344,0,0,0-2.788-1.865c-.835-.4-1.142-.393-1.733.033-.492.356-.811.687-1.377.562a8.216,8.216,0,0,1-2.767-2.047,8.157,8.157,0,0,1-2.047-2.767c-.12-.571.211-.885.562-1.377.426-.591.438-.9.033-1.733A13.081,13.081,0,0,0,7.937,4.96c-.608-.608-.744-.476-1.079-.356a6.143,6.143,0,0,0-.988.525A2.982,2.982,0,0,0,4.682,6.383c-.236.509-.509,1.456.881,3.929a21.924,21.924,0,0,0,3.855,5.141h0l0,0,0,0h0a22.01,22.01,0,0,0,5.141,3.855c2.473,1.39,3.42,1.117,3.929.881a2.931,2.931,0,0,0,1.253-1.187,6.142,6.142,0,0,0,.525-.988C20.394,17.686,20.531,17.55,19.919,16.942Z" transform="translate(-4.49 -4.502)" fill="#785ffb"/>
</svg>
