<svg xmlns="http://www.w3.org/2000/svg" width="45" height="45" viewBox="0 0 45 45">
  <g id="our-5" transform="translate(-15 -579)">
    <circle id="Ellipse_71" data-name="Ellipse 71" cx="22.5" cy="22.5" r="22.5" transform="translate(15 579)" fill="#e1fafb"/>
    <g id="download" transform="translate(-168.947 421.379)">
      <path id="Path_26966" data-name="Path 26966" d="M254.448,287.326a.611.611,0,0,0,.529-.917l-1.046-1.812,1.046-1.812a.611.611,0,0,0-.529-.917h-2.092l-1.046-1.812h0a.611.611,0,0,0-1.059,0l-1.046,1.812h-2.092a.611.611,0,0,0-.529.917l1.046,1.812-1.046,1.812h0a.611.611,0,0,0,.529.917h2.092l1.046,1.812a.611.611,0,0,0,1.059,0l1.046-1.812Zm-2.974-.917-.693,1.2-.693-1.2a.61.61,0,0,0-.529-.306h-1.386l.693-1.2h0a.611.611,0,0,0,0-.611l-.693-1.2h1.387a.611.611,0,0,0,.529-.306l.693-1.2.693,1.2h0a.611.611,0,0,0,.529.306h1.386l-.693,1.2h0a.61.61,0,0,0,0,.611l.693,1.2H252A.61.61,0,0,0,251.474,286.409Z" transform="translate(-46.11 -104.585)" fill="#ff7d7d"/>
      <path id="Path_26967" data-name="Path 26967" d="M239.02,213.343a.611.611,0,0,0,.611-.611v-1.426h1.426a.611.611,0,0,0,0-1.223H239.02a.611.611,0,0,0-.611.611v2.038A.611.611,0,0,0,239.02,213.343Z" transform="translate(-38.425 -38.425)" fill="#ff7d7d"/>
      <path id="Path_26968" data-name="Path 26968" d="M362.463,210.08h-2.037a.611.611,0,1,0,0,1.223h1.426v1.426h0a.611.611,0,0,0,1.223,0v-2.038A.611.611,0,0,0,362.463,210.08Z" transform="translate(-153.717 -38.422)" fill="#ff7d7d"/>
      <path id="Path_26969" data-name="Path 26969" d="M215.686,173.6a2.025,2.025,0,0,0-1.15-1.053l-3.169-1.153a2.033,2.033,0,0,0-2.01-1.768h-9.373a2.039,2.039,0,0,0-2.037,2.037v16.709a2.039,2.039,0,0,0,2.037,2.037h9.373a2.039,2.039,0,0,0,2.037-2.037V187.13l4.359-11.977a2.025,2.025,0,0,0-.068-1.558Zm-5.514,14.771a.815.815,0,0,1-.815.814h-9.373a.816.816,0,0,1-.815-.814V171.658a.816.816,0,0,1,.815-.814h9.373a.816.816,0,0,1,.815.814Zm4.433-13.631-3.211,8.821V172.7l2.724.991a.815.815,0,0,1,.487,1.044Z" transform="translate(0)" fill="#ff7d7d"/>
      <path id="Path_26970" data-name="Path 26970" d="M362.463,477.16a.612.612,0,0,0-.611.611V479.2h-1.426a.611.611,0,1,0,0,1.223h2.037a.611.611,0,0,0,.611-.611v-2.038A.611.611,0,0,0,362.463,477.16Z" transform="translate(-153.717 -292.054)" fill="#ff7d7d"/>
      <path id="Path_26971" data-name="Path 26971" d="M241.059,479.2h-1.426v-1.426a.611.611,0,1,0-1.223,0v2.038a.611.611,0,0,0,.611.611h2.038a.611.611,0,0,0,0-1.223Z" transform="translate(-38.426 -292.055)" fill="#ff7d7d"/>
    </g>
  </g>
</svg>
