<svg xmlns="http://www.w3.org/2000/svg" width="24" height="24" viewBox="0 0 24 24">
  <g id="Group_1030" data-name="Group 1030" transform="translate(-15 -193)">
    <rect id="Rectangle_290" data-name="Rectangle 290" width="24" height="24" rx="5" transform="translate(15 193)" fill="#fff"/>
    <path id="Icon_material-language" data-name="Icon material-language" d="M11.594,3a8.6,8.6,0,1,0,8.611,8.6A8.6,8.6,0,0,0,11.594,3Zm5.962,5.162H15.018A13.463,13.463,0,0,0,13.831,5.1,6.908,6.908,0,0,1,17.556,8.162ZM11.6,4.755a12.119,12.119,0,0,1,1.643,3.407H9.96A12.119,12.119,0,0,1,11.6,4.755ZM4.944,13.323a6.729,6.729,0,0,1,0-3.441H7.852a14.208,14.208,0,0,0-.12,1.721,14.208,14.208,0,0,0,.12,1.721Zm.705,1.721H8.188a13.463,13.463,0,0,0,1.187,3.063A6.871,6.871,0,0,1,5.65,15.044ZM8.188,8.162H5.65A6.871,6.871,0,0,1,9.375,5.1,13.463,13.463,0,0,0,8.188,8.162ZM11.6,18.451A12.119,12.119,0,0,1,9.96,15.044h3.286A12.119,12.119,0,0,1,11.6,18.451Zm2.013-5.127H9.59A12.657,12.657,0,0,1,9.452,11.6,12.547,12.547,0,0,1,9.59,9.882h4.026a12.547,12.547,0,0,1,.138,1.721A12.657,12.657,0,0,1,13.616,13.323Zm.215,4.783a13.463,13.463,0,0,0,1.187-3.063h2.538a6.908,6.908,0,0,1-3.725,3.063Zm1.523-4.783a14.208,14.208,0,0,0,.12-1.721,14.208,14.208,0,0,0-.12-1.721h2.908a6.729,6.729,0,0,1,0,3.441Z" transform="translate(15 193)" fill="#785ffb"/>
  </g>
</svg>
