<svg xmlns="http://www.w3.org/2000/svg" width="45" height="45" viewBox="0 0 45 45">
  <g id="Group_1129" data-name="Group 1129" transform="translate(-15 -579)">
    <circle id="Ellipse_71" data-name="Ellipse 71" cx="22.5" cy="22.5" r="22.5" transform="translate(15 579)" fill="#f2d2d6"/>
    <g id="legal" transform="translate(6.317 371.988)">
      <path id="Path_26929" data-name="Path 26929" d="M425.733,219.091h0l-3.2-7.076v-.686H416.67a1.539,1.539,0,1,0-3.055,0h-5.768v.8l-3.144,6.961h0v0h0a3.787,3.787,0,1,0,7.568,0h0v0h0l-2.864-6.364h4.564v15.316H409.5a2.127,2.127,0,0,0-2.433,2.429h16.308a2.207,2.207,0,0,0-2.433-2.429H416.2V212.726h4.826l-2.864,6.364h0a3.787,3.787,0,1,0,7.568.007h0S425.733,219.094,425.733,219.091Zm-15.1,0h-4.3l2.149-5.462Zm9.164,0,2.149-5.462,2.149,5.462Z" transform="translate(-384.017 9.412)" fill="#fb4343"/>
    </g>
  </g>
</svg>
