<svg xmlns="http://www.w3.org/2000/svg" width="40.931" height="44.191" viewBox="0 0 40.931 44.191">
  <g id="listing" transform="translate(-46.1 -10)">
    <path id="Path_674" data-name="Path 674" d="M81.454,10H47.6a1.5,1.5,0,0,0-1.5,1.5v41.2a1.5,1.5,0,0,0,1.5,1.5H68.04L65.7,51.7h-17.1v-39.2H80.458V29.659l2.493,1.2V11.5A1.5,1.5,0,0,0,81.454,10Z" fill="#fff"/>
    <path id="Path_675" data-name="Path 675" d="M225.574,189.37a1.47,1.47,0,0,1-1.47,1.47H205.97a1.47,1.47,0,0,1-1.47-1.47h0a1.47,1.47,0,0,1,1.47-1.47h18.139a1.469,1.469,0,0,1,1.465,1.47Z" transform="translate(-151.258 -169.879)" fill="#fff"/>
    <path id="Path_676" data-name="Path 676" d="M219.1,380.57a1.47,1.47,0,0,1-1.47,1.47H205.97a1.47,1.47,0,0,1-1.47-1.47h0a1.47,1.47,0,0,1,1.47-1.47h11.66a1.47,1.47,0,0,1,1.47,1.47Z" transform="translate(-151.258 -352.458)" fill="#fff"/>
    <path id="Path_677" data-name="Path 677" d="M214.613,567.27a1.47,1.47,0,0,1-1.47,1.47H205.97a1.47,1.47,0,0,1-1.47-1.47h0a1.47,1.47,0,0,1,1.47-1.47h7.174a1.47,1.47,0,0,1,1.47,1.47Z" transform="translate(-151.258 -530.74)" fill="#fff"/>
    <path id="Path_678" data-name="Path 678" d="M573.712,638.755a.891.891,0,0,0-1.285-.013l-6.2,6.218-3.2-3.291a.863.863,0,0,0-1.244.041.923.923,0,0,0-.041,1.281l3.914,4.022a.863.863,0,0,0,1.244-.041,1.023,1.023,0,0,0,.189-.28.615.615,0,0,0,.1-.086l6.506-6.529a.959.959,0,0,0,.014-1.321Z" transform="translate(-492.163 -600.137)" fill="#fff"/>
    <path id="Path_679" data-name="Path 679" d="M561.086,642.184h0a1.042,1.042,0,0,1-.762-.32l-3.914-4.022a1.2,1.2,0,0,1,.879-1.988,1.042,1.042,0,0,1,.762.32l3.026,3.107,6.019-6.042a1.139,1.139,0,0,1,1.641.023,1.207,1.207,0,0,1-.018,1.668l-6.511,6.533c-.027.027-.054.05-.081.072a1.122,1.122,0,0,1-.207.289A1.169,1.169,0,0,1,561.086,642.184Zm-3.8-5.83a.686.686,0,0,0-.482.212.676.676,0,0,0-.041.933l3.914,4.022a.562.562,0,0,0,.406.167.678.678,0,0,0,.482-.212.671.671,0,0,0,.14-.207l.027-.059.063-.05c.023-.018.045-.036.059-.05l6.506-6.529a.7.7,0,0,0,.009-.974.643.643,0,0,0-.929-.009l-6.371,6.394-3.377-3.472A.569.569,0,0,0,557.29,636.354Z" transform="translate(-487.009 -594.814)" fill="#fff"/>
    <path id="Path_680" data-name="Path 680" d="M457.157,484.293a8.959,8.959,0,1,1-6.339,2.624,8.92,8.92,0,0,1,6.339-2.624m0-2.493a11.457,11.457,0,1,0,11.457,11.457A11.459,11.459,0,0,0,457.157,481.8Z" transform="translate(-381.583 -450.527)" fill="#fff"/>
  </g>
</svg>
