<svg xmlns="http://www.w3.org/2000/svg" width="21.798" height="21.798" viewBox="0 0 21.798 21.798">
  <g id="live_icon" transform="translate(-10 -10)">
    <path id="Path_26972" data-name="Path 26972" d="M24.836,10H16.962A6.97,6.97,0,0,0,10,16.962v7.874A6.97,6.97,0,0,0,16.962,31.8h7.874A6.97,6.97,0,0,0,31.8,24.836V16.962A6.97,6.97,0,0,0,24.836,10Zm5.592,14.836a5.594,5.594,0,0,1-5.594,5.594H16.962a5.594,5.594,0,0,1-5.592-5.594V16.962a5.592,5.592,0,0,1,5.592-5.592h7.874a5.594,5.594,0,0,1,5.594,5.594v7.872ZM12.8,22.643a.457.457,0,0,0,.456-.456v-5.4a3.54,3.54,0,0,1,3.537-3.537H25.01a3.544,3.544,0,0,1,2.273.83.456.456,0,1,0,.587-.7,4.449,4.449,0,0,0-2.86-1.043H16.789a4.453,4.453,0,0,0-4.449,4.449v5.4A.457.457,0,0,0,12.8,22.643Zm15.75-6.219V25.01a3.54,3.54,0,0,1-3.537,3.537H16.789a3.54,3.54,0,0,1-3.537-3.537.456.456,0,0,0-.912,0,4.453,4.453,0,0,0,4.449,4.449H25.01a4.453,4.453,0,0,0,4.449-4.449V16.424a.456.456,0,0,0-.912,0ZM18.2,17.047a.456.456,0,0,0-.661.409v6.891a.457.457,0,0,0,.456.458.447.447,0,0,0,.2-.049l6.891-3.445a.459.459,0,0,0,0-.819Zm.254,6.56V18.192L23.866,20.9Z"/>
  </g>
</svg>
