<svg xmlns="http://www.w3.org/2000/svg" width="42" height="42" viewBox="0 0 42 42">
  <g id="Group_1440" data-name="Group 1440" transform="translate(-28 -134)">
    <circle id="Ellipse_70" data-name="Ellipse 70" cx="21" cy="21" r="21" transform="translate(28 134)" fill="#e7e2ff"/>
    <g id="long-discount_2_" data-name="long-discount (2)" transform="translate(26.975 133)">
      <path id="Path_27002" data-name="Path 27002" d="M21.9,12.726l.606.746a2.757,2.757,0,0,0,2.13,1,2.631,2.631,0,0,0,.942-.172l.9-.344.15.95a2.77,2.77,0,0,0,2.248,2.248l.95.15-.344.9a2.76,2.76,0,0,0,.824,3.07l.746.606-.746.606a2.773,2.773,0,0,0-.824,3.072l.344.9-.95.15a2.77,2.77,0,0,0-2.248,2.248l-.15.95-.9-.344a2.622,2.622,0,0,0-.942-.172,2.75,2.75,0,0,0-2.13,1l-.606.746-.606-.746a2.757,2.757,0,0,0-2.13-1,2.631,2.631,0,0,0-.942.172l-.9.344-.15-.95A2.77,2.77,0,0,0,14.923,26.6l-.95-.15.344-.9a2.765,2.765,0,0,0-.824-3.072l-.744-.606.746-.606a2.773,2.773,0,0,0,.824-3.072l-.344-.9.95-.15A2.77,2.77,0,0,0,17.174,14.9l.15-.95.9.344a2.622,2.622,0,0,0,.942.172,2.75,2.75,0,0,0,2.13-1l.6-.744M21.9,10a.475.475,0,0,0-.373.191l-1.7,2.1a.874.874,0,0,1-.664.3.739.739,0,0,1-.264-.046l-2.52-.969a.559.559,0,0,0-.194-.036.457.457,0,0,0-.453.412l-.422,2.665a.871.871,0,0,1-.678.678l-2.665.422a.461.461,0,0,0-.373.647l.967,2.517a.874.874,0,0,1-.25.928l-2.1,1.7a.463.463,0,0,0,0,.749l2.1,1.7a.874.874,0,0,1,.25.928l-.969,2.52a.462.462,0,0,0,.373.647l2.665.422a.871.871,0,0,1,.678.678L15.73,31.8a.46.46,0,0,0,.453.412.559.559,0,0,0,.194-.036l2.517-.967a.739.739,0,0,1,.264-.046.874.874,0,0,1,.664.3l1.7,2.1a.482.482,0,0,0,.373.191.475.475,0,0,0,.373-.191l1.7-2.1a.874.874,0,0,1,.664-.3.739.739,0,0,1,.264.046l2.517.967a.559.559,0,0,0,.194.036.457.457,0,0,0,.453-.412l.422-2.665a.871.871,0,0,1,.678-.678l2.665-.422a.461.461,0,0,0,.373-.647l-.967-2.517a.874.874,0,0,1,.25-.928l2.1-1.7a.463.463,0,0,0,0-.749l-2.1-1.7a.874.874,0,0,1-.25-.928l.967-2.517a.462.462,0,0,0-.373-.647l-2.665-.422a.871.871,0,0,1-.678-.678l-.422-2.665a.46.46,0,0,0-.453-.412.559.559,0,0,0-.194.036l-2.517.967a.739.739,0,0,1-.264.046.874.874,0,0,1-.664-.3l-1.7-2.1A.46.46,0,0,0,21.9,10Z" transform="translate(0)" fill="#785ffb"/>
      <path id="Path_27003" data-name="Path 27003" d="M344.179,328.718a.74.74,0,0,0-1.049,0l-6.512,6.512a.742.742,0,0,0,1.049,1.049l6.51-6.51A.741.741,0,0,0,344.179,328.718Z" transform="translate(-318.468 -310.784)" fill="#785ffb"/>
      <path id="Path_27004" data-name="Path 27004" d="M338.292,332.284a1.892,1.892,0,1,0-1.892-1.892A1.893,1.893,0,0,0,338.292,332.284Zm0-2.74a.846.846,0,1,1-.846.846A.845.845,0,0,1,338.292,329.544Z" transform="translate(-318.468 -310.784)" fill="#785ffb"/>
      <path id="Path_27005" data-name="Path 27005" d="M512.192,502.4a1.892,1.892,0,1,0,1.892,1.892A1.893,1.893,0,0,0,512.192,502.4Zm0,2.738a.846.846,0,1,1,.846-.846A.845.845,0,0,1,512.192,505.138Z" transform="translate(-488.155 -480.47)" fill="#785ffb"/>
    </g>
  </g>
</svg>
