<svg xmlns="http://www.w3.org/2000/svg" width="42" height="42" viewBox="0 0 42 42">
  <g id="Group_1440" data-name="Group 1440" transform="translate(-28 -134)">
    <circle id="Ellipse_70" data-name="Ellipse 70" cx="21" cy="21" r="21" transform="translate(28 134)" fill="#e7e2ff"/>
    <g id="blog-listin" transform="translate(28 134)">
      <g id="Group_1641" data-name="Group 1641" transform="translate(10 10)">
        <path id="Path_27001" data-name="Path 27001" d="M18.25,11.374H32v2.75H18.25Zm0,8.25H32v2.75H18.25Zm0,8.252H32v2.75H18.25ZM10,12.75A2.75,2.75,0,1,0,12.75,10,2.749,2.749,0,0,0,10,12.75ZM10,21a2.75,2.75,0,1,0,2.75-2.75A2.749,2.749,0,0,0,10,21Zm0,8.25a2.75,2.75,0,1,0,2.75-2.75A2.749,2.749,0,0,0,10,29.25Z" transform="translate(-10 -10)" fill="#785ffb"/>
      </g>
    </g>
  </g>
</svg>
