<svg xmlns="http://www.w3.org/2000/svg" width="42" height="42" viewBox="0 0 42 42">
  <g id="Group_1440" data-name="Group 1440" transform="translate(-28 -134)">
    <circle id="Ellipse_70" data-name="Ellipse 70" cx="21" cy="21" r="21" transform="translate(28 134)" fill="#e7e2ff"/>
    <g id="PALMISTRY" transform="translate(16.8 134.099)">
      <path id="Path_27011" data-name="Path 27011" d="M488.2,497.724l-2.309-2.309a4.865,4.865,0,0,0,.709-2.508,4.9,4.9,0,1,0-4.9,4.9,4.828,4.828,0,0,0,2.505-.709l2.309,2.309a1.19,1.19,0,0,0,1.683-1.681Zm-6.5-2.388a2.451,2.451,0,1,1,2.444-2.447A2.438,2.438,0,0,1,481.707,495.336Z" transform="translate(-444.932 -466.906)" fill="#785ffb"/>
      <path id="Path_27012" data-name="Path 27012" d="M440.2,948.3c-.026,0,.028,0,0,0Z" transform="translate(-409.182 -916.428)" fill="#785ffb"/>
      <path id="Path_27013" data-name="Path 27013" d="M31.095,29.423H23.747a7.981,7.981,0,0,1,4.636-6.043,1.262,1.262,0,0,0,.206-2.3,4.894,4.894,0,1,1,7.93-3.831,4.727,4.727,0,0,1-.122,1.037,1.445,1.445,0,0,0-.026.2A1.3,1.3,0,0,0,37.6,19.72c.492.068,1.084-.468,1.234-1.232,0,0,0-.007,0-.012a6.58,6.58,0,0,0,.133-1.225,7.354,7.354,0,0,0-14.709,0,7.225,7.225,0,0,0,1.721,4.678A10.374,10.374,0,0,0,21.2,30.647c0,.129.014.253.019.379v-.379a1.224,1.224,0,0,0,1.225,1.225s0,0,0,0h8.567a1.289,1.289,0,0,0,1.311-1.218A1.23,1.23,0,0,0,31.095,29.423Z" transform="translate(0 0)" fill="#785ffb"/>
    </g>
  </g>
</svg>
