<svg xmlns="http://www.w3.org/2000/svg" width="15" height="25.403" viewBox="0 0 15 25.403">
  <g id="location" transform="translate(-227.919 -9.404)">
    <g id="Group_1070" data-name="Group 1070" transform="translate(228.527 10.001)">
      <path id="Path_662" data-name="Path 662" d="M234.7-500.966a6.8,6.8,0,0,0-4.223,2.066,6.732,6.732,0,0,0-1.778,3.141,8.679,8.679,0,0,0-.09,2.847,6.828,6.828,0,0,0,2.06,3.784,6.772,6.772,0,0,0,2.559,1.55l.4.138v5.418c0,4.908.012,5.43.1,5.556a.722.722,0,0,0,.631.264,10.681,10.681,0,0,0,1.532-1.406l1.375-1.375.03-4.247.03-4.247.48-.186a6.855,6.855,0,0,0,3.706-3.31,6.881,6.881,0,0,0-2.991-9.274A7.185,7.185,0,0,0,234.7-500.966Zm2.2,1.411a5.676,5.676,0,0,1,3.153,2.253,5.686,5.686,0,0,1,.571,5.334,5.806,5.806,0,0,1-2.643,2.883,5.247,5.247,0,0,1-2.865.595,5.174,5.174,0,0,1-2.823-.9,5.641,5.641,0,0,1-1.592-7.887,5.787,5.787,0,0,1,3.676-2.409A6.5,6.5,0,0,1,236.9-499.555Zm-.811,16.176v3.892l-.433.414c-.24.234-.529.5-.631.6l-.2.174v-8.908l.589-.024c.318-.006.6-.024.631-.03S236.089-485.523,236.089-483.379Z" transform="translate(-228.527 500.999)"/>
      <circle id="Ellipse_67" data-name="Ellipse 67" cx="7.5" cy="7.5" r="7.5" transform="translate(-0.608 -0.597)" fill="#59b8be"/>
      <path id="Path_663" data-name="Path 663" d="M334.037-364.324a1.7,1.7,0,0,0-.625,2.625,1.693,1.693,0,0,0,2.769-.27,1.738,1.738,0,0,0,.066-1.466,1.648,1.648,0,0,0-1.55-1.015A1.544,1.544,0,0,0,334.037-364.324Zm1.129.589a.952.952,0,0,1,.523.565.971.971,0,0,1-.036.871,1.047,1.047,0,0,1-1.7.264,1,1,0,0,1-.246-1.135.916.916,0,0,1,.541-.565A1.029,1.029,0,0,1,335.166-363.735Z" transform="translate(-330.379 367.906)" fill="#fff"/>
    </g>
  </g>
</svg>
