<svg xmlns="http://www.w3.org/2000/svg" width="42" height="42" viewBox="0 0 42 42">
  <g id="Group_1440" data-name="Group 1440" transform="translate(-28 -134)">
    <circle id="Ellipse_70" data-name="Ellipse 70" cx="21" cy="21" r="21" transform="translate(28 134)" fill="#e7e2ff"/>
    <g id="horosocpe" transform="translate(28 134.189)">
      <g id="Group_1642" data-name="Group 1642" transform="translate(10 9.81)">
        <path id="Path_27006" data-name="Path 27006" d="M11.091-502.165a1.55,1.55,0,0,0-.973.8l-.117.235v19.338l.122.243a1.58,1.58,0,0,0,.73.692l.239.113,9.061.013,9.061.008-.629-.629-.629-.629H19.661c-7.488,0-8.3-.008-8.356-.067s-.067-.755-.059-7.2l.012-7.14H30.177l.012,6.083.008,6.083.629.629.629.629-.008-9.061-.012-9.061-.113-.239a1.55,1.55,0,0,0-.7-.734l-.235-.117L20.8-502.19C15.529-502.19,11.162-502.182,11.091-502.165Zm19.041,1.288c.059.059.067.252.059,1.644l-.012,1.581H11.259l-.012-1.581c-.008-1.393,0-1.586.059-1.644s.94-.067,9.413-.067S30.072-500.94,30.131-500.877Z" transform="translate(-10 502.19)" fill="#785ffb"/>
        <path id="Path_27007" data-name="Path 27007" d="M106.521-405.289l-.151.151.017.507c.012.5.017.508.13.608s.151.1.633.1c.5,0,.52,0,.629-.109s.109-.126.109-.629c0-.482,0-.524-.1-.633s-.113-.117-.608-.13l-.508-.017Z" transform="translate(-104.26 407.558)" fill="#785ffb"/>
        <path id="Path_27008" data-name="Path 27008" d="M246.732-404.948c-.122.122-.122.126-.122.646s0,.524.109.633.126.109.633.109c.491,0,.524,0,.621-.1.126-.126.159-.306.143-.78-.017-.373-.021-.39-.155-.508s-.143-.122-.621-.122S246.853-405.07,246.732-404.948Z" transform="translate(-241.429 407.196)" fill="#785ffb"/>
        <path id="Path_27009" data-name="Path 27009" d="M384.757-404.993c-.164.088-.2.21-.2.73,0,.428.008.462.109.583l.109.13h.516c.487,0,.529,0,.638-.1s.117-.118.13-.571c.025-.759-.05-.839-.755-.839A1.4,1.4,0,0,0,384.757-404.993Z" transform="translate(-376.359 407.187)" fill="#785ffb"/>
        <path id="Path_27010" data-name="Path 27010" d="M552.29,38.165a3.674,3.674,0,0,0-2.739,2.827,3.241,3.241,0,0,0-.054.9,2.571,2.571,0,0,0,.159.977,3.669,3.669,0,0,0,3.524,2.521,3.26,3.26,0,0,0,1.607-.377l.411-.2.243.243c.2.2.239.26.222.348s.117.243,1.086,1.212a15.636,15.636,0,0,0,1.171,1.107,8.558,8.558,0,0,0,1.216-1.216,15.768,15.768,0,0,0-1.107-1.17c-.969-.969-1.12-1.1-1.212-1.086s-.151-.025-.348-.222l-.243-.243.2-.411a3.258,3.258,0,0,0,.377-1.607,3.5,3.5,0,0,0-1.158-2.714,3.576,3.576,0,0,0-1.363-.81,2.5,2.5,0,0,0-1.036-.151A3.029,3.029,0,0,0,552.29,38.165Zm1.519.906a2.75,2.75,0,1,1-3.331,3.331,3.661,3.661,0,0,1,0-1.334,2.857,2.857,0,0,1,1.1-1.6,3.3,3.3,0,0,1,.881-.4A3.87,3.87,0,0,1,553.809,39.071Z" transform="translate(-537.68 -26.264)" fill="#785ffb"/>
      </g>
    </g>
  </g>
</svg>
