<svg xmlns="http://www.w3.org/2000/svg" width="45" height="45" viewBox="0 0 45 45">
  <g id="services-1" transform="translate(-15 -579)">
    <circle id="Ellipse_71" data-name="Ellipse 71" cx="22.5" cy="22.5" r="22.5" transform="translate(15 579)" fill="#dff7f8"/>
    <g id="marriage" transform="translate(14.691 521.803)">
      <path id="Path_26913" data-name="Path 26913" d="M420.443,77.057l.312.621,2.854-.018c-.415-3.03-1.6-9.438-6.367-9.463C412.4,68.17,411.4,77.02,411.4,77.02l.809.078c.083-.533.764-8.35,5.121-8.292,4.151.055,5.086,5.626,5.445,8.3L420.6,77.06" transform="translate(-391.314)"/>
      <path id="Path_26914" data-name="Path 26914" d="M21.061,364.16a2.1,2.1,0,0,0,1.716-.02.3.3,0,0,0,.108-.131l1.354-3.093a.312.312,0,0,1,.374-.173c.231.068.492.256.309.769,0,.01-.008.02-.01.033l-1.3,3.885a.334.334,0,0,1-.073.138l-4.52,4.895a.312.312,0,0,0,.229.523l15.066-.005a.312.312,0,0,0,.193-.555L28.775,365.7a.308.308,0,0,1-.106-.161l-1.279-3.729a.059.059,0,0,1-.005-.02c-.033-.091-.281-.859.256-1.015a.311.311,0,0,1,.352.143l1.54,2.648a.117.117,0,0,1,.013.025c.073.156.842,1.7,2.342.153a.314.314,0,0,0,.055-.359l-2.663-5.189a.341.341,0,0,0-.09-.108,5.142,5.142,0,0,0-2.839-1.015,4.474,4.474,0,0,0-2.975.955.307.307,0,0,0-.068.083l-.92,1.669a.312.312,0,0,1-.543,0l-1.4-2.425a.3.3,0,0,0-.083-.093,2.809,2.809,0,0,0-3.344-.156.322.322,0,0,0-.07.073l-1.153,1.673a.312.312,0,0,1-.467.053l-1.912-1.744a.265.265,0,0,0-.07-.048c-.3-.148-2.151-.952-3.294,1.558a.315.315,0,0,0-.028.126L10,363.9a.32.32,0,0,0,.043.161c.166.279.8,1.229,1.8.774a.311.311,0,0,1,.437.284l.04,5.631a.311.311,0,0,0,.312.309h3.038l3-.1a.311.311,0,0,0,.3-.312l.018-8.345a.312.312,0,0,1,.565-.181l1.364,1.92A.308.308,0,0,0,21.061,364.16Zm-3.131,6.2H16.382a.31.31,0,0,1-.312-.307l-.08-4.671a.31.31,0,0,0-.312-.307h-.005a.313.313,0,0,0-.312.309l-.033,4.666a.311.311,0,0,1-.312.309H13.377a.31.31,0,0,1-.312-.307l-.146-9.491a.31.31,0,0,0-.312-.307H12.6a.31.31,0,0,0-.312.307,18.691,18.691,0,0,1-.229,3.442c-1.181.543-1.4-.427-1.437-.611a.375.375,0,0,1-.005-.053l.035-4.1a.314.314,0,0,1,.028-.126c1-2.2,2.352-1.354,2.553-1.211a.2.2,0,0,1,.043.038l2.078,2.128a.312.312,0,0,0,.485-.048l1.432-2.209a.326.326,0,0,1,.075-.08,1.9,1.9,0,0,1,2.568.158.4.4,0,0,1,.05.063l1.875,3.211a.312.312,0,0,0,.545-.013l1.279-2.43a.274.274,0,0,1,.035-.053,3.333,3.333,0,0,1,2.465-1.06,4.582,4.582,0,0,1,2.578.885.3.3,0,0,1,.1.113l2.334,4.669a.308.308,0,0,1-.183.435c-.5.158-.879-.54-.935-.648a.185.185,0,0,0-.018-.03L28.222,360.3a.316.316,0,0,0-.3-.138c-1.57.191-1.083,1.656-1.023,1.824a.162.162,0,0,1,.01.033l1.163,3.877a.31.31,0,0,0,.113.173l4.48,3.643a.312.312,0,0,1-.191.558H20.943a.312.312,0,0,1-.234-.518l3.277-3.716a.31.31,0,0,0,.068-.131l1.563-4.531a.146.146,0,0,0,.008-.048c.018-1.131-.932-1.146-1.4-1.211a.312.312,0,0,0-.329.186l-1.274,2.975a.3.3,0,0,1-.106.131,1.18,1.18,0,0,1-1.073.141.316.316,0,0,1-.151-.111l-2.387-3.3a.311.311,0,0,0-.563.178l-.1,9.737A.309.309,0,0,1,17.93,370.361Z" transform="translate(0 -281.162)"/>
      <path id="Path_26915" data-name="Path 26915" d="M113.9,162a2.422,2.422,0,1,1,0,.03V162Z" transform="translate(-101.289 -89.103)"/>
      <path id="Path_26916" data-name="Path 26916" d="M555.98,161.46a2.48,2.48,0,1,0-2.48-2.48A2.48,2.48,0,0,0,555.98,161.46Z" transform="translate(-529.843 -86.084)"/>
    </g>
  </g>
</svg>
