<svg xmlns="http://www.w3.org/2000/svg" width="26.533" height="33.477" viewBox="0 0 26.533 33.477">
  <g id="mesh" transform="translate(-59.018 370.864)">
    <path id="Path_778" data-name="Path 778" d="M145.79-370.684a5.04,5.04,0,0,0-3.313,2.526,2.926,2.926,0,0,0-.375,1.5,3,3,0,0,0,.11,1.226,1.759,1.759,0,0,0,2,1.025,2.76,2.76,0,0,0,2.361-3.038,3.437,3.437,0,0,0-.586-2.041l-.311-.448.558-.165c.311-.082.622-.174.686-.192a.282.282,0,0,0,.11-.448C146.879-370.922,146.568-370.9,145.79-370.684Zm-1.126,1.922a2.424,2.424,0,0,0-.027,1.684c.165.467.174.558.064.668-.192.2-.595.064-.7-.238a2.628,2.628,0,0,1,.192-1.675C144.509-368.954,144.856-369.284,144.664-368.762Z" transform="translate(-75.471)"/>
    <path id="Path_779" data-name="Path 779" d="M137.059-368.854c-.577.192-.824.357-.906.613a1.426,1.426,0,0,0,.046,1.144c.165.238.494.275.494.055a5,5,0,0,1,1.693-1.565l.549-.293h-.869A8.455,8.455,0,0,0,137.059-368.854Z" transform="translate(-69.989 -1.784)"/>
    <path id="Path_780" data-name="Path 780" d="M77.021-367.781a2,2,0,0,0-.851,1.181,3.865,3.865,0,0,0-.073,1.19,2.736,2.736,0,0,0,.668,1.931l.265.274.11-.65a5.663,5.663,0,0,1,1.217-2.828c.5-.613.494-.943-.018-1.135A2.034,2.034,0,0,0,77.021-367.781Z" transform="translate(-15.506 -2.683)"/>
    <path id="Path_781" data-name="Path 781" d="M59.373-364.426a2.736,2.736,0,0,0-.339,1.418,2.558,2.558,0,0,0,.448,2c.4.595.906,1.007,1.245,1.007.238,0,.357-.146.229-.3a14.456,14.456,0,0,1-.9-2.215,7.282,7.282,0,0,1-.128-1.492C59.932-365.25,59.822-365.332,59.373-364.426Z" transform="translate(0 -5.297)"/>
    <path id="Path_782" data-name="Path 782" d="M72.14-364.872a3.522,3.522,0,0,0-1.986,1.785,8.714,8.714,0,0,0-.659,2.3,3.7,3.7,0,0,1-.732,1.757,1.39,1.39,0,0,0-.311,1.135c0,.641-.018.714-.265.961a1.3,1.3,0,0,1-.558.32c-.357.073-.4.156-.275.54.22.659.54.75,1.052.311a4.232,4.232,0,0,1,2.434-.778,3.209,3.209,0,0,0,2.169-.741c.769-.622,1.473-1.775,1.162-1.894-.22-.082-.522-.8-.567-1.327a6.635,6.635,0,0,1,.1-1.382l.146-.86-.275-.284a1.473,1.473,0,0,1-.412-1.4l.064-.567-.357.009A3.049,3.049,0,0,0,72.14-364.872Zm.476,4.31a.851.851,0,0,1,.229.293,2.188,2.188,0,0,1-.577.384,1.3,1.3,0,0,1-.97.256c-.558-.073-.613-.165-.311-.522C71.536-360.809,72.2-360.973,72.616-360.561Z" transform="translate(-7.514 -5.327)" fill="#4f4f4f"/>
    <path id="Path_783" data-name="Path 783" d="M90.8-296.688a2.47,2.47,0,0,1-.814.064l-.586-.037-.293.622a8.439,8.439,0,0,0-.458,1.235c-.32,1.309-.275,1.235-.4.641a2.7,2.7,0,0,1-.055-.824l.064-.293-.348.339a3.223,3.223,0,0,1-2.087.888l-.732.055-.439.824a12.35,12.35,0,0,0-1.171,3.505,4.176,4.176,0,0,0,.915,3.487c.384.393.741.485,1.034.256a2.991,2.991,0,0,0,.421-.824,19.109,19.109,0,0,1,4.439-6.58,7.378,7.378,0,0,0,1.107-1.3,2.633,2.633,0,0,0-.046-1.775C91.163-296.816,91.145-296.825,90.8-296.688Z" transform="translate(-22.172 -67.315)" fill="#5e4400"/>
    <path id="Path_784" data-name="Path 784" d="M61.549-291.911c-.247.238-.247.439-.009.952a.566.566,0,0,0,.879.1,1.134,1.134,0,0,0,.2-1.071C62.473-292.249,61.869-292.24,61.549-291.911Z" transform="translate(-2.13 -71.498)" fill="#4f4f4f"/>
    <path id="Path_785" data-name="Path 785" d="M92.893-267.158a18.046,18.046,0,0,0-2.782,3.441,15.838,15.838,0,0,0-1.867,3.542,2.737,2.737,0,0,0-.2,1.354,4.2,4.2,0,0,0,.7,1.9c.256.357.092.339-.284-.037a5.2,5.2,0,0,1-.9-1.72c-.092-.275-.22-.4-.7-.677a3.281,3.281,0,0,1-.824-.677l-.247-.329.064.366a6.383,6.383,0,0,0,.824,2.379,4.942,4.942,0,0,0,2.919,2.059c.641,0,.631.009.412-1.473a7.414,7.414,0,0,1,.146-3.606,21.294,21.294,0,0,1,3.45-6.159c.75-.97.824-1.208.394-1.208C93.835-268,93.542-267.771,92.893-267.158Z" transform="translate(-24.331 -93.45)" fill="#5e4400"/>
    <path id="Path_786" data-name="Path 786" d="M137.107-262.09a26.043,26.043,0,0,0-2.379,4.045c-1.263,2.508-1.556,3.578-1.5,5.482l.037,1.025.7,1.455a13.951,13.951,0,0,1,.8,1.949c.055.275.1,1.62.1,3.121,0,3.313-.027,3.432-1.217,4.777-.613.7-.778,1.208-.43,1.318.146.046.265,0,.448-.174.311-.293.375-.3.375-.009,0,.265.073.275.714.128.558-.137.659-.284.933-1.455.174-.741.238-.879.394-.888a.415.415,0,0,0,.265-.137,5.351,5.351,0,0,0,.027-1.309,8.651,8.651,0,0,1,.339-3.231,2.538,2.538,0,0,0,.174-1.117,42.912,42.912,0,0,1,.329-4.612c.275-2.453.064-3.633-.787-4.356-.3-.265-.394-.384-.32-.458.183-.183.824.055,1.089.394.513.686.549.906.54,3.514l-.018,2.407h.256a4.431,4.431,0,0,0,1.739-.888,35.422,35.422,0,0,0,2.617-2.462,12.972,12.972,0,0,1,2.215-2.05c.11,0,.2.027.2.064-.009.156-4.109,4.246-4.667,4.649a5.616,5.616,0,0,1-2.068,1.016c-.339.046-.4.092-.458.329-.073.366.046.439.8.439a14.933,14.933,0,0,0,5.189-1.775l.778-.394.027-.8a6.524,6.524,0,0,1,1.336-3.853c.339-.284.476-.146.174.165a4.611,4.611,0,0,0-.448.8c-.943,2.1-.7,4.182.76,6.717a3,3,0,0,1,.5,2.37,8.711,8.711,0,0,1-1.19,2.627,10.449,10.449,0,0,1-2.169,2.251c-.366.238-.485.366-.485.531a.265.265,0,0,0,.192.284,1.544,1.544,0,0,0,.979-.156c.092-.073.156-.055.256.092a.6.6,0,0,0,.814.073,3.678,3.678,0,0,0,.54-.888c.32-.65.412-.769.622-.8.357-.046.494-.256.7-1.116a12.06,12.06,0,0,1,.979-2.334,11.132,11.132,0,0,0,.778-1.785,2.738,2.738,0,0,0-.275-.778,2.064,2.064,0,0,1-.275-1.116,4.054,4.054,0,0,1,.824-2.315,14.376,14.376,0,0,0,1.473-3.038,3.694,3.694,0,0,0,.247-1.812,2.821,2.821,0,0,0-.329-1.574,4.019,4.019,0,0,0-1.785-1.748,5.6,5.6,0,0,0-3.048-.375,6.1,6.1,0,0,1-4.722-1.254,6.778,6.778,0,0,0-2.251-1.126C137.445-262.511,137.473-262.52,137.107-262.09Z" transform="translate(-67.246 -98.508)" fill="#5e4400"/>
    <path id="Path_787" data-name="Path 787" d="M319.592-261.836c.037.165.082.577.119.906a1.741,1.741,0,0,1-1.181,1.913l-.43.192.311.439a6.134,6.134,0,0,1,.5.86c.183.412.183.412.531.339a2.4,2.4,0,0,0,1.29-1.428,3.222,3.222,0,0,0-.54-3.084C319.82-262.23,319.5-262.294,319.592-261.836Z" transform="translate(-235.372 -98.772)"/>
    <path id="Path_788" data-name="Path 788" d="M202.466-134.508c-.448.211-.824.412-.851.43a3.4,3.4,0,0,0,.192.769,5.761,5.761,0,0,1-.375,4.439,6.55,6.55,0,0,1-2.16,2.965A10.4,10.4,0,0,0,198-124.542a.608.608,0,0,0,.128.293c.119.156.137.156.467-.092.311-.247.348-.256.458-.11.137.192.668.21,1.08.027a1.176,1.176,0,0,0,.75-1.016c.082-.631.265-.888.549-.814.412.1.668-.165.741-.76a7.579,7.579,0,0,1,.988-2.617c.467-.869.494-.961.421-1.3a18.545,18.545,0,0,1-.092-2.178c0-1.382-.027-1.8-.11-1.794A6.578,6.578,0,0,0,202.466-134.508Z" transform="translate(-126.263 -214.368)" fill="#5e4400"/>
    <path id="Path_789" data-name="Path 789" d="M106.718-129.325c0,.037.21.686.458,1.437a10.051,10.051,0,0,1,.76,4.027c0,2.16-.348,3.1-1.556,4.256-.7.659-.86.924-.778,1.3.037.2.275.21.549.027.183-.137.21-.128.357.046.54.631,1.464-.284,1.949-1.94.183-.586.21-.622.458-.622.156,0,.275-.027.284-.073s.018-.769.027-1.62.055-1.949.1-2.425a5.276,5.276,0,0,0-.329-2.4l-.4-1.519-.5-.11a8.6,8.6,0,0,1-.933-.284C106.91-129.316,106.718-129.362,106.718-129.325Z" transform="translate(-42.302 -219.422)" fill="#5e4400"/>
  </g>
</svg>
