<svg xmlns="http://www.w3.org/2000/svg" width="37" height="37" viewBox="0 0 37 37">
  <g id="Group_1047" data-name="Group 1047" transform="translate(-29 -317)">
    <circle id="Ellipse_66" data-name="Ellipse 66" cx="18.5" cy="18.5" r="18.5" transform="translate(29 317)" fill="#fff"/>
    <g id="my-order" transform="translate(28 315.5)">
      <path id="Path_546" data-name="Path 546" d="M21.263,24a4.767,4.767,0,0,1,.966-1.351H11.254V21.3H26.307v.062a4.668,4.668,0,0,1,1.254.39V10.5H10V28.054H21.259a4.715,4.715,0,0,1-.452-2.021,4.972,4.972,0,0,1,.048-.682h-9.6V24H21.263ZM18.78,13.2h7.526v1.351H18.78Zm-7.526,2.7H26.306v1.351H11.254V15.9Zm0,2.7H26.306v1.351H11.254V18.6Z" fill="#59b8be"/>
      <path id="Path_547" data-name="Path 547" d="M643.183,639.4a3.383,3.383,0,1,0,3.383,3.381A3.383,3.383,0,0,0,643.183,639.4Zm.821,4.448-.956.955h0l-1.911-1.911.955-.954.954.954,1.911-1.911.954.954Z" transform="translate(-617.631 -616.749)" fill="#59b8be"/>
    </g>
  </g>
</svg>
