<svg xmlns="http://www.w3.org/2000/svg" width="37" height="37" viewBox="0 0 37 37">
  <g id="Group_1047" data-name="Group 1047" transform="translate(-29 -317)">
    <circle id="Ellipse_66" data-name="Ellipse 66" cx="18.5" cy="18.5" r="18.5" transform="translate(29 317)" fill="#fff"/>
    <g id="wallet" transform="translate(27 320.932)">
      <path id="Path_560" data-name="Path 560" d="M29.414,8.769l-.023-.01a2.727,2.727,0,0,0-1.953-.817h-.652a.447.447,0,0,0-.066-.264L24.781,4.3a.471.471,0,0,0-.629-.177h0l-4.38,2.31L15.807,4.147l-.016-.01a.463.463,0,0,0-.645.165L13.2,7.678a.411.411,0,0,0-.056.264h-.369a2.72,2.72,0,0,0-1.947.817h-.01A2.721,2.721,0,0,0,10,10.7V21.753a2.728,2.728,0,0,0,.806,1.94l.01.01.01.01a2.806,2.806,0,0,0,1.947.806H27.439a2.8,2.8,0,0,0,1.953-.806,2.769,2.769,0,0,0,.817-1.963V10.7a2.79,2.79,0,0,0-.794-1.93ZM24.2,5.152h0l1.61,2.79H22.387l-1.66-.959L24.2,5.152Zm-8.471.023h0c1.6.913,3.2,1.841,4.8,2.767h-6.4l1.6-2.767Zm12.929,13.6H22.8a.334.334,0,0,1-.221-.089h0a.317.317,0,0,1-.089-.221V14a.3.3,0,0,1,.309-.309h5.856v5.085Zm0-6.017H22.8a1.214,1.214,0,0,0-.876.369h0a1.214,1.214,0,0,0-.369.872v4.466a1.223,1.223,0,0,0,.369.872v.01a1.3,1.3,0,0,0,.876.353h5.856v2.052a1.225,1.225,0,0,1-1.212,1.215H12.773a1.236,1.236,0,0,1-1.215-1.215V10.7a1.181,1.181,0,0,1,.359-.85v0a1.209,1.209,0,0,1,.856-.353H27.439a1.2,1.2,0,0,1,.86.359,1.228,1.228,0,0,1,.353.85l0,2.056Zm-4.38,4.871h0a1.991,1.991,0,0,0,1.39.573,1.966,1.966,0,0,0,1.417-3.336l-.023-.027a1.973,1.973,0,0,0-1.4-.573,1.923,1.923,0,0,0-1.363.551l-.033.023a1.968,1.968,0,0,0-.567,1.4,1.99,1.99,0,0,0,.567,1.4h.008Zm.656-2.13h0l.023-.023A1.026,1.026,0,0,1,26.4,15.5l.023.023a.988.988,0,0,1,.28.711,1.035,1.035,0,0,1-1.037,1.037,1.046,1.046,0,0,1-.734-.3,1.04,1.04,0,0,1,0-1.468Z" fill="#59b8be"/>
    </g>
  </g>
</svg>
