<svg xmlns="http://www.w3.org/2000/svg" width="20.624" height="21.095" viewBox="0 0 20.624 21.095">
  <g id="Group_361" data-name="Group 361" transform="matrix(0.966, 0.259, -0.259, 0.966, -305.615, -138.62)">
    <g id="Group_357" data-name="Group 357" transform="translate(335.009 52.341)">
      <g id="Icon_ionic-ios-notifications" data-name="Icon ionic-ios-notifications" transform="translate(0 1.403)">
        <path id="Path_484" data-name="Path 484" d="M16.913,30.875a2.259,2.259,0,0,0,2.3-2.539H14.6A2.26,2.26,0,0,0,16.913,30.875Z" transform="translate(-9.259 -11.705)"/>
        <path id="Path_485" data-name="Path 485" d="M21.895,18.128c-.738-.973-2.19-1.543-2.19-5.9,0-4.47-1.974-6.267-3.814-6.7-.172-.043-.3-.1-.3-.283V5.109a1.169,1.169,0,1,0-2.338,0v.139c0,.177-.125.24-.3.283-1.845.436-3.814,2.228-3.814,6.7,0,4.355-1.452,4.921-2.19,5.9a.951.951,0,0,0,.762,1.524H21.137A.951.951,0,0,0,21.895,18.128Z" transform="translate(-6.761 -3.93)"/>
      </g>
      <g id="Group_355" data-name="Group 355" transform="translate(7.459 0)">
        <g id="Ellipse_49" data-name="Ellipse 49" transform="translate(0 0)" fill="#ff0606" stroke="#fff" stroke-width="1">
          <circle cx="4.652" cy="4.652" r="4.652" stroke="none"/>
          <circle cx="4.652" cy="4.652" r="4.152" fill="none"/>
        </g>
      </g>
    </g>
  </g>
</svg>
