<svg xmlns="http://www.w3.org/2000/svg" width="45" height="45" viewBox="0 0 45 45">
  <g id="our-2" transform="translate(-15 -579)">
    <circle id="Ellipse_71" data-name="Ellipse 71" cx="22.5" cy="22.5" r="22.5" transform="translate(15 579)" fill="#dff7f8"/>
    <g id="numuro" transform="translate(12 1000.9)">
      <path id="Path_26932" data-name="Path 26932" d="M48.332-410.742c-.153.085-.487.266-.736.4s-.476.26-.51.283-.209.125-.4.226c-.311.17-.577.311-1.274.7-.142.074-.47.26-.736.408s-.583.323-.708.385a3.484,3.484,0,0,0-.374.215c-.079.057-.164.091-.187.068s-.034-.011-.034.023-.045.074-.1.091-.328.164-.611.323-.572.317-.651.357a.755.755,0,0,0-.17.1,2.3,2.3,0,0,1-.255.153c-.125.062-.368.193-.538.289l-.51.272a.962.962,0,0,0-.215.147.082.082,0,0,1-.074.045,2.264,2.264,0,0,0-.4.2l-.357.2.877-.04c.481-.023,1.042-.051,1.245-.057s.855-.051,1.444-.091,1.24-.074,1.444-.079.866-.045,1.472-.085,1.234-.074,1.387-.068a5.659,5.659,0,0,0,.781-.062l.493-.068.017-2.253c.006-1.234,0-2.248-.017-2.242A3.113,3.113,0,0,0,48.332-410.742Z" transform="translate(-24.056 0)" fill="#9d3bff"/>
      <path id="Path_26933" data-name="Path 26933" d="M217-408.149v2.248l.611.062c.334.034.685.062.776.062s.679.028,1.3.068,1.285.079,1.472.085.838.045,1.444.085,1.257.074,1.444.085.736.028,1.217.051l.878.045-.283-.164c-.425-.249-.866-.493-1.245-.7-.187-.1-.442-.238-.566-.3a2.3,2.3,0,0,1-.255-.153.755.755,0,0,0-.17-.1c-.079-.04-.345-.187-.594-.328s-.515-.289-.594-.328a.5.5,0,0,1-.181-.125c-.023-.028-.045-.034-.045-.011s-.068,0-.153-.062c-.147-.1-.436-.26-1.234-.691-.153-.085-.408-.221-.566-.306s-.385-.215-.509-.277a2.308,2.308,0,0,1-.255-.153,3.3,3.3,0,0,0-.368-.2c-.187-.1-.351-.181-.368-.2a2.306,2.306,0,0,0-.255-.153c-.125-.062-.368-.192-.538-.289l-.509-.272a2.274,2.274,0,0,1-.226-.142.579.579,0,0,0-.125-.068C217.006-410.4,217-410.272,217-408.149Z" transform="translate(-191.508 -0.498)" fill="#9d3bff"/>
      <path id="Path_26934" data-name="Path 26934" d="M27.663-315.966c-.017.017-.73.068-1.579.113s-2.168.119-2.933.164-2.072.119-2.916.164a7.652,7.652,0,0,0-2.055.2c.266.555,4.093,8.147,4.127,8.181s.051.023.051-.034.017-.1.045-.113a1.286,1.286,0,0,0,.294-.442.051.051,0,0,1,.045-.057c.023,0,.091-.1.153-.209a2.277,2.277,0,0,1,.17-.266,2.109,2.109,0,0,0,.2-.289,2.275,2.275,0,0,1,.17-.255,2.269,2.269,0,0,0,.17-.255c.074-.125.159-.255.181-.283.051-.057,1.291-1.93,3.148-4.755.594-.906,1.11-1.67,1.144-1.71.108-.13.057-.187-.159-.187A.7.7,0,0,0,27.663-315.966Zm-5.055,1.8c.351.442.487.566.487.442a1.327,1.327,0,0,1,.175-.283l.17-.232.294.2c.164.113.306.215.317.226a1.951,1.951,0,0,1-.243.413,4.21,4.21,0,0,0-.26.425c0,.017.243.34.538.719.413.532.521.7.464.753-.04.034-.175.147-.306.249l-.232.181-.464-.594c-.255-.328-.47-.594-.481-.594a2.77,2.77,0,0,0-.2.283,1.473,1.473,0,0,1-.215.283,1.966,1.966,0,0,1-.334-.2c-.334-.232-.334-.209.017-.708a1.258,1.258,0,0,0,.192-.317,2.58,2.58,0,0,0-.5-.64,4.975,4.975,0,0,0-.464.651,4.624,4.624,0,0,1-.453.64,1.763,1.763,0,0,1-.566-.436,10.836,10.836,0,0,1,.719-1.155l.719-1.076.113.142C22.166-314.721,22.393-314.437,22.608-314.166Z" transform="translate(-3.943 -89.528)" fill="#9d3bff"/>
      <path id="Path_26935" data-name="Path 26935" d="M224-315.844c0,.051.017.091.045.091s.091.1.153.21a2.277,2.277,0,0,0,.17.266,2.107,2.107,0,0,1,.2.289,2.271,2.271,0,0,0,.17.255,2.271,2.271,0,0,1,.17.255,2.277,2.277,0,0,0,.17.255,2.269,2.269,0,0,1,.17.255,2.11,2.11,0,0,0,.2.289,2.277,2.277,0,0,1,.17.266c.062.113.13.209.153.209a.046.046,0,0,1,.045.051c0,.028.249.43.555.894s1.195,1.795,1.97,2.961,1.427,2.163,1.444,2.208c.023.062.051.051.108-.057.074-.136,4.07-8.118,4.076-8.129a16.928,16.928,0,0,0-2.066-.17c-.838-.045-2.151-.119-2.916-.164s-2.061-.119-2.887-.17-1.636-.1-1.795-.119C224.045-315.935,224-315.923,224-315.844Zm7.02,1.121c.1.136.4.549.668.917l.487.674-.181.153c-.2.17-.453.317-.481.277-.011-.011-.221-.3-.464-.634s-.459-.623-.481-.634a2.308,2.308,0,0,0-.7.255c-.028.028.023.142.113.266a1.393,1.393,0,0,1,.243,1.489,1.291,1.291,0,0,1-1.24.821,1.276,1.276,0,0,1-.917-.323,15.865,15.865,0,0,1-1.234-1.67,2.092,2.092,0,0,1,.6-.413,4.9,4.9,0,0,1,.5.634c.623.866.685.94.877.979a.624.624,0,0,0,.657-.266c.153-.289.074-.549-.3-1.047-.181-.243-.391-.527-.464-.623l-.125-.187.215-.091c.249-.108.328-.142.753-.311.17-.062.515-.2.764-.311s.47-.193.493-.193A.932.932,0,0,1,231.02-314.723Z" transform="translate(-198.111 -89.604)" fill="#9d3bff"/>
      <path id="Path_26936" data-name="Path 26936" d="M110.038-308.472c-.453.685-.844,1.285-.877,1.342a.641.641,0,0,1-.085.13,1.752,1.752,0,0,0-.283.453.051.051,0,0,1-.045.057c-.023,0-.091.1-.153.209a2.274,2.274,0,0,1-.17.266,2.107,2.107,0,0,0-.2.289,2.268,2.268,0,0,1-.17.255,2.27,2.27,0,0,0-.17.255,2.106,2.106,0,0,1-.2.289,2.277,2.277,0,0,0-.17.266c-.062.113-.13.209-.153.209a.046.046,0,0,0-.045.051,18.158,18.158,0,0,1-1,1.551c-.119.181-.243.374-.277.425s-.125.187-.209.3a1.1,1.1,0,0,0-.159.238c0,.017-.153.255-.34.532a4.688,4.688,0,0,0-.34.538c0,.028,2.666.045,5.922.045h5.922l-.2-.283a2.21,2.21,0,0,1-.2-.317,1.212,1.212,0,0,0-.17-.249,2.219,2.219,0,0,1-.17-.238c0-.028-.917-1.438-1.008-1.546-.023-.034-.108-.159-.181-.283a2.274,2.274,0,0,0-.17-.255,2.271,2.271,0,0,1-.17-.255,2.273,2.273,0,0,0-.17-.255,2.275,2.275,0,0,1-.17-.255,2.111,2.111,0,0,0-.2-.289,2.276,2.276,0,0,1-.17-.266c-.062-.113-.13-.21-.153-.21a.046.046,0,0,1-.045-.051c0-.034-.345-.572-.764-1.2s-.764-1.155-.764-1.166a1.254,1.254,0,0,0-.17-.243,2.216,2.216,0,0,1-.17-.238c0-.045-.861-1.319-.894-1.33S110.491-309.152,110.038-308.472Zm-.294,3.091a1.2,1.2,0,0,1,.747,1.223v.413l-.572.708-.572.708.572.017.572.017v.787H109.1a11.987,11.987,0,0,1-1.387-.04.631.631,0,0,1,.136-.181c.074-.085.521-.628.991-1.223.747-.934.855-1.1.855-1.274,0-.408-.379-.589-.651-.311a.463.463,0,0,0-.142.4v.255h-.81l.028-.385a1.183,1.183,0,0,1,1.166-1.2A1.372,1.372,0,0,1,109.744-305.381Zm3.618.1c.589.374.719.753.685,1.987-.017.753-.028.815-.175,1.064a1.475,1.475,0,0,1-1.195.725,1.441,1.441,0,0,1-1.3-.968,5.639,5.639,0,0,1-.006-2.021,1.424,1.424,0,0,1,.906-.928,1.823,1.823,0,0,1,.481-.023A1.054,1.054,0,0,1,113.362-305.285Z" transform="translate(-85.848 -95.471)" fill="#9d3bff"/>
      <path id="Path_26937" data-name="Path 26937" d="M230.306-220.9c-.249.125-.306.328-.306,1.149v.77l.164.181a.443.443,0,0,0,.43.187.443.443,0,0,0,.43-.187l.164-.181v-.81c-.006-.685-.017-.821-.1-.923A.655.655,0,0,0,230.306-220.9Z" transform="translate(-203.772 -179.191)" fill="#9d3bff"/>
      <path id="Path_26938" data-name="Path 26938" d="M14.006-272.621l-.006,5,.164-.113a.615.615,0,0,1,.226-.119c.034,0,.062-.017.062-.045a.8.8,0,0,1,.255-.181.8.8,0,0,0,.255-.181.046.046,0,0,1,.051-.045,8.49,8.49,0,0,0,.889-.549,5.1,5.1,0,0,1,.476-.3,2.841,2.841,0,0,0,.453-.289,2.611,2.611,0,0,1,.255-.164,2.617,2.617,0,0,0,.255-.164,1.263,1.263,0,0,1,.357-.209c.1-.04.125-.108.051-.159-.028-.017-.283-.509-.572-1.093-1.744-3.521-2.134-4.291-2.168-4.308a.084.084,0,0,1-.045-.079,2.347,2.347,0,0,0-.294-.611.515.515,0,0,1-.074-.187c-.023-.085-.062-.153-.085-.153s-.062-.079-.085-.17-.057-.17-.085-.17-.062-.079-.085-.17-.057-.17-.079-.17-.074-.085-.108-.187C14.028-277.569,14.011-276.176,14.006-272.621Z" transform="translate(0 -125.899)" fill="#9d3bff"/>
      <path id="Path_26939" data-name="Path 26939" d="M341.442-279.627c-.006.091-3.578,7.263-3.68,7.382-.045.051-.017.1.108.193a.65.65,0,0,0,.221.125.094.094,0,0,1,.074.045,2.138,2.138,0,0,0,.385.266c.2.125.4.243.425.266a4.823,4.823,0,0,0,.51.328c.011,0,.226.142.481.311a3.886,3.886,0,0,0,.509.311.079.079,0,0,1,.068.04,3.153,3.153,0,0,0,.481.334c.436.277.459.289.492.17.051-.193.028-9.618-.023-9.743C341.459-279.677,341.442-279.683,341.442-279.627Z" transform="translate(-305.414 -123.807)" fill="#9d3bff"/>
      <path id="Path_26940" data-name="Path 26940" d="M106.574-136.949a1.29,1.29,0,0,0,.277.436c.17.215.345.442.4.5.125.17.391.521.725.945.164.2.436.555.606.781s.447.572.606.781c.374.476.328.413.7.917.3.4.628.821.8,1.019.04.051.164.209.272.357.192.26.838,1.087,1.189,1.523a.8.8,0,0,1,.17.266.062.062,0,0,0,.057.062.052.052,0,0,0,.057-.051,2.432,2.432,0,0,1,.3-.425c.159-.209.425-.538.577-.742l.566-.73c.159-.2.425-.543.594-.77s.442-.572.594-.77.413-.526.566-.736.413-.538.566-.736.413-.526.566-.73c.266-.345.4-.526,1.121-1.438a3.748,3.748,0,0,0,.3-.43c.028-.074-.651-.085-5.769-.085C109.093-137,106.591-136.977,106.574-136.949Zm4.993,2.593-.017,1.687h-.736l-.017-1.059-.011-1.059-.266.136a2.454,2.454,0,0,1-.277.142,2.363,2.363,0,0,1-.192-.34l-.17-.34.125-.079c.175-.108,1.478-.764,1.534-.764C111.562-136.038,111.573-135.279,111.567-134.356Zm2.389.017v1.7l-.379-.017-.385-.017-.017-1.036a3.477,3.477,0,0,0-.074-1.03,1.191,1.191,0,0,0-.277.113l-.226.113-.17-.34-.17-.34.125-.079c.175-.108,1.478-.764,1.534-.764C113.939-136.038,113.956-135.273,113.956-134.339Z" transform="translate(-87.332 -258.394)" fill="#9d3bff"/>
      <path id="Path_26941" data-name="Path 26941" d="M24.208-133.655a2.244,2.244,0,0,1-.436.249c-.04.006-.074.023-.074.051s-.1.091-.209.153a1.835,1.835,0,0,0-.272.17c-.034.028-.113.085-.17.125s-.419.26-.793.5-.73.464-.793.5a1.2,1.2,0,0,0-.142.1c-.017.017-.142.1-.272.176l-.249.147.708.345c.391.187.736.345.77.345a.058.058,0,0,1,.062.051c0,.028.079.068.17.091s.17.057.17.085.079.062.17.085.17.057.17.085.079.062.17.085.17.062.17.091a.058.058,0,0,0,.062.051c.034,0,.861.4,1.834.878s1.795.877,1.834.877a.058.058,0,0,1,.062.051c0,.028.079.068.17.091s.17.057.17.085.079.062.17.085.17.057.17.085.079.062.17.085.17.057.17.085.079.062.17.085.17.062.17.091.034.051.074.051a4.935,4.935,0,0,1,.736.334,7.07,7.07,0,0,0,.662.306,5.04,5.04,0,0,0-.543-.719c-.176-.215-.459-.589-.634-.821s-.334-.442-.351-.459-.142-.181-.283-.368-.266-.351-.283-.368-.142-.181-.283-.368-.283-.379-.323-.425c-.153-.187-.4-.5-.674-.849-.159-.2-.413-.532-.566-.736s-.447-.583-.651-.849-.374-.493-.391-.51-.1-.125-.187-.243-.176-.209-.2-.2A3.105,3.105,0,0,0,24.208-133.655Z" transform="translate(-6.415 -261.315)" fill="#9d3bff"/>
      <path id="Path_26942" data-name="Path 26942" d="M240.595-133.87c-.51.645-.73.934-.974,1.257-.153.2-.408.532-.566.73s-.425.543-.594.77-.436.572-.594.77-.425.543-.594.77-.43.56-.577.747-.385.5-.538.7-.4.51-.549.7a1.018,1.018,0,0,0-.238.379.055.055,0,0,0,.079-.023,1.876,1.876,0,0,1,.651-.317c.023.006.04-.011.04-.04,0-.045.209-.136.3-.125.023.006.04-.017.04-.045,0-.045.209-.136.3-.125.023.006.04-.017.04-.045s.079-.068.17-.091.17-.062.17-.091a.058.058,0,0,1,.062-.051c.04,0,1.013-.47,2.174-1.047s2.134-1.047,2.168-1.047.068-.023.068-.051.079-.068.17-.091.17-.057.17-.085.079-.062.17-.085.17-.062.17-.091.034-.051.074-.051.5-.221,1.025-.481a11.133,11.133,0,0,1,1.036-.481c.136,0,.074-.085-.136-.2a2.494,2.494,0,0,1-.272-.17,1.665,1.665,0,0,0-.17-.125c-.136-.085-1.172-.747-1.359-.866-.068-.045-.289-.187-.487-.306a2.481,2.481,0,0,1-.379-.272.094.094,0,0,0-.074-.045,2.812,2.812,0,0,1-.447-.255c-.221-.142-.4-.255-.413-.255A.86.86,0,0,0,240.595-133.87Z" transform="translate(-208.835 -261.224)" fill="#9d3bff"/>
    </g>
  </g>
</svg>
