<svg xmlns="http://www.w3.org/2000/svg" width="29.916" height="29.922" viewBox="0 0 29.916 29.922">
  <g id="om" transform="translate(0 0)">
    <path id="Path_765" data-name="Path 765" d="M13.978-511.542A15.3,15.3,0,0,0,6.167-508.4a19.932,19.932,0,0,0-2.535,2.535,16.6,16.6,0,0,0-2.307,4.122A19.122,19.122,0,0,0,.564-498.7a18.974,18.974,0,0,0,0,4.157,19.2,19.2,0,0,0,.767,3.05,16.441,16.441,0,0,0,2.3,4.116,21.12,21.12,0,0,0,2.412,2.441,16.868,16.868,0,0,0,4.239,2.395,19.216,19.216,0,0,0,3.05.767,20.966,20.966,0,0,0,3.923.035,15.29,15.29,0,0,0,7.407-3.1A21.541,21.541,0,0,0,27.1-487.25a17.048,17.048,0,0,0,2.395-4.239,19.2,19.2,0,0,0,.767-3.05,13.032,13.032,0,0,0,.105-2.078,12.136,12.136,0,0,0-.433-3.665A13.331,13.331,0,0,0,28.85-503.2a15,15,0,0,0-5.152-5.878,14.879,14.879,0,0,0-6.177-2.377A21.675,21.675,0,0,0,13.978-511.542Zm2.635,1.751a13.25,13.25,0,0,1,10.685,7.4,12.819,12.819,0,0,1,1.206,3.87,16.544,16.544,0,0,1,0,3.806,12.817,12.817,0,0,1-1.206,3.87,13.191,13.191,0,0,1-6.119,6.118,12.9,12.9,0,0,1-3.864,1.2,16.562,16.562,0,0,1-3.806,0,13.451,13.451,0,0,1-6.645-3.009A13.354,13.354,0,0,1,2.18-496.618a13.383,13.383,0,0,1,4.684-10.088A13.335,13.335,0,0,1,16.613-509.791Z" transform="translate(-0.45 511.581)" fill="#fff"/>
    <path id="Path_766" data-name="Path 766" d="M316-405.122v.878h1.756V-406H316Z" transform="translate(-297.524 412.182)" fill="#fff"/>
    <path id="Path_767" data-name="Path 767" d="M95.121-390.681a4.7,4.7,0,0,0-.79.3,4.308,4.308,0,0,0-1.434,1.434,4.338,4.338,0,0,0-.422,1.464v.193h1.733l.07-.34a1.736,1.736,0,0,1,2.5-1.212,1.744,1.744,0,0,1-.451,3.261l-.34.07v1.733h.193a4.34,4.34,0,0,1,1.464.422,4.308,4.308,0,0,1,1.434,1.435,3.517,3.517,0,0,1,.3,2.5,3.187,3.187,0,0,1-.937,1.616,3.186,3.186,0,0,1-1.616.937,3.544,3.544,0,0,1-2.5-.3A4.419,4.419,0,0,1,92.9-378.6a4.338,4.338,0,0,1-.422-1.464v-.193H90.7l.041.439a5.312,5.312,0,0,0,4.058,4.7,6.565,6.565,0,0,0,2.506-.035,5.324,5.324,0,0,0,3.782-3.782,4.283,4.283,0,0,0,.135-1.288,4.812,4.812,0,0,0-.234-1.715c-.035-.123-.023-.129.316-.129a3.343,3.343,0,0,0,2.307-1.159,2.153,2.153,0,0,1,.7-.5,3.7,3.7,0,0,1,2.12.386,4.309,4.309,0,0,1,1.434,1.435,3.453,3.453,0,0,1-.627,4.116,3.227,3.227,0,0,1-1.622.937,3.883,3.883,0,0,1-2.916-.48,1.161,1.161,0,0,0-.3-.152c-.1.135-.907,1.411-.907,1.44a4.133,4.133,0,0,0,1.06.6,5.028,5.028,0,0,0,2.248.433,4.469,4.469,0,0,0,2.283-.515,5.067,5.067,0,0,0,2.371-2.348,4.332,4.332,0,0,0,.545-2.371,4.345,4.345,0,0,0-.515-2.318A5.19,5.19,0,0,0,105-385.511a3.044,3.044,0,0,0-2.693,1.071c-.509.486-.738.609-1.142.609a7.453,7.453,0,0,1-2.529-.989c-.064-.035-.035-.111.141-.334a3.788,3.788,0,0,0,.726-2.166,4.045,4.045,0,0,0-.422-1.622,4.308,4.308,0,0,0-1.434-1.434A3.611,3.611,0,0,0,95.121-390.681Z" transform="translate(-85.416 397.857)" fill="#fff"/>
    <path id="Path_768" data-name="Path 768" d="M256-390.8a4.267,4.267,0,0,0,.094.662,4.446,4.446,0,0,0,3.431,3.431,4.312,4.312,0,0,0,3.964-1.212,4.267,4.267,0,0,0,1.271-2.693L264.8-391h-1.751l-.07.416a2.611,2.611,0,0,1-4.432,1.428,2.49,2.49,0,0,1-.744-1.44l-.07-.4H256Z" transform="translate(-241.037 398.06)" fill="#fff"/>
  </g>
</svg>
