<svg xmlns="http://www.w3.org/2000/svg" width="31.782" height="31.784" viewBox="0 0 31.782 31.784">
  <g id="paytm" transform="translate(14.113 46.559) rotate(-133)">
    <path id="Path_769" data-name="Path 769" d="M28.916,30.408a11.253,11.253,0,0,1-18.86-9.654,1.05,1.05,0,0,1,1.518.057,10.122,10.122,0,0,0-.1,1.093,9.734,9.734,0,1,0,3.071-6.785c-.117.108-.221.225-.331.34l2.731.087a.785.785,0,1,1-.048,1.569l-4.263.014a.78.78,0,0,1-.71-.524.81.81,0,0,1-.064-.326l.009-4.539a.786.786,0,0,1,1.571.051l-.076,2.386c.051-.051.1-.1.152-.154a11.242,11.242,0,1,1,15.4,16.384Z"/>
    <text id="P" transform="translate(33.428 26.756) rotate(133)" fill="#646464" font-size="15" font-family="Hind-Regular, Hind"><tspan x="-4" y="16">P</tspan></text>
  </g>
</svg>
