<svg xmlns="http://www.w3.org/2000/svg" width="20.04" height="20.364" viewBox="0 0 20.04 20.364">
  <path id="Icon_awesome-power-off" data-name="Icon awesome-power-off" d="M16.4,2.186a10.019,10.019,0,1,1-11.644,0A.973.973,0,0,1,6.171,2.5l.638,1.135a.969.969,0,0,1-.267,1.253,6.787,6.787,0,1,0,8.077,0,.964.964,0,0,1-.263-1.248L14.995,2.5A.968.968,0,0,1,16.4,2.186Zm-4.2,8.481V.97a.967.967,0,0,0-.97-.97H9.936a.967.967,0,0,0-.97.97v9.7a.967.967,0,0,0,.97.97h1.293A.967.967,0,0,0,12.2,10.667Z" transform="translate(-0.562)" fill="#785ffb"/>
</svg>
