<svg xmlns="http://www.w3.org/2000/svg" width="37" height="37" viewBox="0 0 37 37">
  <g id="Group_1047" data-name="Group 1047" transform="translate(-29 -317)">
    <circle id="Ellipse_66" data-name="Ellipse 66" cx="18.5" cy="18.5" r="18.5" transform="translate(29 317)" fill="#fff"/>
    <g id="chat" transform="translate(28 316)">
      <path id="Path_561" data-name="Path 561" d="M32.3,10v0Z" transform="translate(-21.845)" fill="#59b8be"/>
      <path id="Path_562" data-name="Path 562" d="M54.5,10v0Z" transform="translate(-43.592)" fill="#59b8be"/>
      <path id="Path_563" data-name="Path 563" d="M76.8,10v0Z" transform="translate(-65.437)" fill="#59b8be"/>
      <path id="Path_564" data-name="Path 564" d="M99.1,10v0Z" transform="translate(-87.282)" fill="#59b8be"/>
      <path id="Path_565" data-name="Path 565" d="M121.4,10v0Z" transform="translate(-109.127)" fill="#59b8be"/>
      <path id="Path_566" data-name="Path 566" d="M143.6,10v0Z" transform="translate(-130.873)" fill="#59b8be"/>
      <path id="Path_567" data-name="Path 567" d="M165.9,10v0Z" transform="translate(-152.718)" fill="#59b8be"/>
      <path id="Path_568" data-name="Path 568" d="M188.2,10v0Z" transform="translate(-174.563)" fill="#59b8be"/>
      <path id="Path_569" data-name="Path 569" d="M210.5,10v0Z" transform="translate(-196.408)" fill="#59b8be"/>
      <path id="Path_570" data-name="Path 570" d="M232.7,10v0Z" transform="translate(-218.155)" fill="#59b8be"/>
      <path id="Path_571" data-name="Path 571" d="M255,10v0Z" transform="translate(-240)" fill="#59b8be"/>
      <path id="Path_572" data-name="Path 572" d="M277.3,10v0Z" transform="translate(-261.845)" fill="#59b8be"/>
      <path id="Path_573" data-name="Path 573" d="M299.5,10v0Z" transform="translate(-283.592)" fill="#59b8be"/>
      <path id="Path_574" data-name="Path 574" d="M321.8,10v0Z" transform="translate(-305.437)" fill="#59b8be"/>
      <path id="Path_575" data-name="Path 575" d="M344.1,10v0Z" transform="translate(-327.282)" fill="#59b8be"/>
      <path id="Path_576" data-name="Path 576" d="M366.4,10v0Z" transform="translate(-349.127)" fill="#59b8be"/>
      <path id="Path_577" data-name="Path 577" d="M388.6,10v0Z" transform="translate(-370.873)" fill="#59b8be"/>
      <path id="Path_578" data-name="Path 578" d="M410.9,10v0Z" transform="translate(-392.718)" fill="#59b8be"/>
      <path id="Path_579" data-name="Path 579" d="M433.2,10v0Z" transform="translate(-414.563)" fill="#59b8be"/>
      <path id="Path_580" data-name="Path 580" d="M455.5,10v0Z" transform="translate(-436.408)" fill="#59b8be"/>
      <path id="Path_581" data-name="Path 581" d="M477.7,10v0Z" transform="translate(-458.155)" fill="#59b8be"/>
      <path id="Path_582" data-name="Path 582" d="M500,10v0Z" transform="translate(-480)" fill="#59b8be"/>
      <path id="Path_583" data-name="Path 583" d="M522.3,10v0Z" transform="translate(-501.845)" fill="#59b8be"/>
      <path id="Path_584" data-name="Path 584" d="M544.5,10v0Z" transform="translate(-523.592)" fill="#59b8be"/>
      <path id="Path_585" data-name="Path 585" d="M566.8,10v0Z" transform="translate(-545.437)" fill="#59b8be"/>
      <path id="Path_586" data-name="Path 586" d="M589.1,10v0Z" transform="translate(-567.282)" fill="#59b8be"/>
      <path id="Path_587" data-name="Path 587" d="M611.4,10v0Z" transform="translate(-589.127)" fill="#59b8be"/>
      <path id="Path_588" data-name="Path 588" d="M633.6,10v0Z" transform="translate(-610.873)" fill="#59b8be"/>
      <path id="Path_589" data-name="Path 589" d="M655.9,10v0Z" transform="translate(-632.718)" fill="#59b8be"/>
      <path id="Path_590" data-name="Path 590" d="M678.2,10v0Z" transform="translate(-654.563)" fill="#59b8be"/>
      <path id="Path_591" data-name="Path 591" d="M700.5,10v0Z" transform="translate(-676.408)" fill="#59b8be"/>
      <path id="Path_592" data-name="Path 592" d="M722.7,10v0Z" transform="translate(-698.155)" fill="#59b8be"/>
      <path id="Path_593" data-name="Path 593" d="M745,10v0Z" transform="translate(-720)" fill="#59b8be"/>
      <path id="Path_594" data-name="Path 594" d="M767.3,10v0Z" transform="translate(-741.845)" fill="#59b8be"/>
      <path id="Path_595" data-name="Path 595" d="M789.5,10v0Z" transform="translate(-763.592)" fill="#59b8be"/>
      <path id="Path_596" data-name="Path 596" d="M811.8,10v0Z" transform="translate(-785.437)" fill="#59b8be"/>
      <path id="Path_597" data-name="Path 597" d="M834.1,10v0Z" transform="translate(-807.282)" fill="#59b8be"/>
      <path id="Path_598" data-name="Path 598" d="M856.4,10v0Z" transform="translate(-829.127)" fill="#59b8be"/>
      <path id="Path_599" data-name="Path 599" d="M878.6,10v0Z" transform="translate(-850.873)" fill="#59b8be"/>
      <path id="Path_600" data-name="Path 600" d="M900.9,10v0Z" transform="translate(-872.718)" fill="#59b8be"/>
      <path id="Path_601" data-name="Path 601" d="M923.2,10v0Z" transform="translate(-894.563)" fill="#59b8be"/>
      <path id="Path_602" data-name="Path 602" d="M945.5,10v0Z" transform="translate(-916.408)" fill="#59b8be"/>
      <path id="Path_603" data-name="Path 603" d="M967.7,10v0Z" transform="translate(-938.155)" fill="#59b8be"/>
      <path id="Path_604" data-name="Path 604" d="M10,32.3h0Z" transform="translate(0 -21.845)" fill="#59b8be"/>
      <path id="Path_605" data-name="Path 605" d="M10,54.5h0Z" transform="translate(0 -43.592)" fill="#59b8be"/>
      <path id="Path_606" data-name="Path 606" d="M10,76.8h0Z" transform="translate(0 -65.437)" fill="#59b8be"/>
      <path id="Path_607" data-name="Path 607" d="M10,99.1h0Z" transform="translate(0 -87.282)" fill="#59b8be"/>
      <path id="Path_608" data-name="Path 608" d="M10,121.4h0Z" transform="translate(0 -109.127)" fill="#59b8be"/>
      <path id="Path_609" data-name="Path 609" d="M10,143.6h0Z" transform="translate(0 -130.873)" fill="#59b8be"/>
      <path id="Path_610" data-name="Path 610" d="M10,165.9h0Z" transform="translate(0 -152.718)" fill="#59b8be"/>
      <path id="Path_611" data-name="Path 611" d="M10,188.2h0Z" transform="translate(0 -174.563)" fill="#59b8be"/>
      <path id="Path_612" data-name="Path 612" d="M10,210.5h0Z" transform="translate(0 -196.408)" fill="#59b8be"/>
      <path id="Path_613" data-name="Path 613" d="M10,232.7h0Z" transform="translate(0 -218.155)" fill="#59b8be"/>
      <path id="Path_614" data-name="Path 614" d="M10,255h0Z" transform="translate(0 -240)" fill="#59b8be"/>
      <path id="Path_615" data-name="Path 615" d="M10,277.3h0Z" transform="translate(0 -261.845)" fill="#59b8be"/>
      <path id="Path_616" data-name="Path 616" d="M10,299.5h0Z" transform="translate(0 -283.592)" fill="#59b8be"/>
      <path id="Path_617" data-name="Path 617" d="M10,321.8h0Z" transform="translate(0 -305.437)" fill="#59b8be"/>
      <path id="Path_618" data-name="Path 618" d="M10,344.1h0Z" transform="translate(0 -327.282)" fill="#59b8be"/>
      <path id="Path_619" data-name="Path 619" d="M10,366.4h0Z" transform="translate(0 -349.127)" fill="#59b8be"/>
      <path id="Path_620" data-name="Path 620" d="M10,388.6h0Z" transform="translate(0 -370.873)" fill="#59b8be"/>
      <path id="Path_621" data-name="Path 621" d="M10,410.9h0Z" transform="translate(0 -392.718)" fill="#59b8be"/>
      <path id="Path_622" data-name="Path 622" d="M10,433.2h0Z" transform="translate(0 -414.563)" fill="#59b8be"/>
      <path id="Path_623" data-name="Path 623" d="M10,455.5h0Z" transform="translate(0 -436.408)" fill="#59b8be"/>
      <path id="Path_624" data-name="Path 624" d="M10,477.7h0Z" transform="translate(0 -458.155)" fill="#59b8be"/>
      <path id="Path_625" data-name="Path 625" d="M10,500h0Z" transform="translate(0 -480)" fill="#59b8be"/>
      <path id="Path_626" data-name="Path 626" d="M10,522.3h0Z" transform="translate(0 -501.845)" fill="#59b8be"/>
      <path id="Path_627" data-name="Path 627" d="M10,544.5h0Z" transform="translate(0 -523.592)" fill="#59b8be"/>
      <path id="Path_628" data-name="Path 628" d="M10,566.8h0Z" transform="translate(0 -545.437)" fill="#59b8be"/>
      <path id="Path_629" data-name="Path 629" d="M10,589.1h0Z" transform="translate(0 -567.282)" fill="#59b8be"/>
      <path id="Path_630" data-name="Path 630" d="M10,611.4h0Z" transform="translate(0 -589.127)" fill="#59b8be"/>
      <path id="Path_631" data-name="Path 631" d="M10,633.6h0Z" transform="translate(0 -610.873)" fill="#59b8be"/>
      <path id="Path_632" data-name="Path 632" d="M10,655.9h0Z" transform="translate(0 -632.718)" fill="#59b8be"/>
      <path id="Path_633" data-name="Path 633" d="M10,678.2h0Z" transform="translate(0 -654.563)" fill="#59b8be"/>
      <path id="Path_634" data-name="Path 634" d="M10,700.5h0Z" transform="translate(0 -676.408)" fill="#59b8be"/>
      <path id="Path_635" data-name="Path 635" d="M10,722.7h0Z" transform="translate(0 -698.155)" fill="#59b8be"/>
      <path id="Path_636" data-name="Path 636" d="M10,745h0Z" transform="translate(0 -720)" fill="#59b8be"/>
      <path id="Path_637" data-name="Path 637" d="M10,767.3h0Z" transform="translate(0 -741.845)" fill="#59b8be"/>
      <path id="Path_638" data-name="Path 638" d="M10,789.5h0Z" transform="translate(0 -763.592)" fill="#59b8be"/>
      <path id="Path_639" data-name="Path 639" d="M10,811.8h0Z" transform="translate(0 -785.437)" fill="#59b8be"/>
      <path id="Path_640" data-name="Path 640" d="M10,834.1h0Z" transform="translate(0 -807.282)" fill="#59b8be"/>
      <path id="Path_641" data-name="Path 641" d="M10,856.4h0Z" transform="translate(0 -829.127)" fill="#59b8be"/>
      <path id="Path_642" data-name="Path 642" d="M10,878.6h0Z" transform="translate(0 -850.873)" fill="#59b8be"/>
      <path id="Path_643" data-name="Path 643" d="M10,900.9h0Z" transform="translate(0 -872.718)" fill="#59b8be"/>
      <path id="Path_644" data-name="Path 644" d="M10,923.2h0Z" transform="translate(0 -894.563)" fill="#59b8be"/>
      <path id="Path_645" data-name="Path 645" d="M10,945.5h0Z" transform="translate(0 -916.408)" fill="#59b8be"/>
      <path id="Path_646" data-name="Path 646" d="M10,967.7h0Z" transform="translate(0 -938.155)" fill="#59b8be"/>
      <path id="Path_647" data-name="Path 647" d="M20.908,28.182H19.09a9.029,9.029,0,0,1-3.916-.9L10.908,30l.592-5.912A9.087,9.087,0,0,1,19.092,10H20.91a9.091,9.091,0,0,1,0,18.182Zm0-16.363H19.09a7.273,7.273,0,0,0,0,14.547h1.818a7.273,7.273,0,1,0,0-14.547ZM23.637,20a.908.908,0,1,1,.908-.908A.909.909,0,0,1,23.637,20ZM20,20a.908.908,0,1,1,.908-.908A.909.909,0,0,1,20,20Zm-3.637,0a.908.908,0,1,1,.908-.908A.909.909,0,0,1,16.363,20Z" fill="#59b8be"/>
    </g>
  </g>
</svg>
