<svg xmlns="http://www.w3.org/2000/svg" width="53.856" height="46.261" viewBox="0 0 53.856 46.261">
  <g id="profile" transform="translate(-10 -79.1)">
    <path id="Path_686" data-name="Path 686" d="M57.7,196.9H45.759a1.543,1.543,0,0,0-1.522,1.324h0a1.542,1.542,0,0,0,1.522,1.764h11.7a3.211,3.211,0,0,1,3.2,3.22v27.274a3.11,3.11,0,0,1-3.1,3.116H16.16a3.123,3.123,0,0,1-3.116-3.127V203.082a3.087,3.087,0,0,1,3.077-3.094h12.7a1.538,1.538,0,0,0,1.517-1.764h0a1.542,1.542,0,0,0-1.517-1.324H16.232A6.247,6.247,0,0,0,10,203.159v27.324a6.187,6.187,0,0,0,6.171,6.2h41.5a6.2,6.2,0,0,0,6.188-6.221V203.088A6.169,6.169,0,0,0,57.7,196.9Z" transform="translate(0 -111.326)" fill="#fff"/>
    <path id="Path_687" data-name="Path 687" d="M251.52,386.179a5.171,5.171,0,0,0,.253,1.61.85.85,0,0,0-.473.78.826.826,0,0,0,.8.852h.016c.165,2.253,1.929,4.5,4.083,4.5s3.913-2.248,4.083-4.5h.016a.829.829,0,0,0,.8-.852.856.856,0,0,0-.473-.78,5.338,5.338,0,0,0,.253-1.61,4.691,4.691,0,1,0-9.364,0Z" transform="translate(-228.039 -285.498)" fill="#fff"/>
    <path id="Path_688" data-name="Path 688" d="M165.345,645.6h-.225a.468.468,0,0,0-.209.049,6.623,6.623,0,0,1-5.693,0,.451.451,0,0,0-.209-.049h-.165a.751.751,0,0,0-.1.011,14.762,14.762,0,0,0-6.908,3.847.441.441,0,0,0-.132.313v1.566a.436.436,0,0,0,.434.44h19.861a.436.436,0,0,0,.434-.44v-1.566a.451.451,0,0,0-.132-.313,14.824,14.824,0,0,0-6.743-3.8A.4.4,0,0,0,165.345,645.6Z" transform="translate(-133.913 -535.368)" fill="#fff"/>
    <path id="Path_689" data-name="Path 689" d="M423.16,90.624a1.876,1.876,0,0,0,1.857,1.66h3.341a1.876,1.876,0,0,0,1.857-1.66l.154-1.286h0L430.645,87l.681-5.8a1.9,1.9,0,0,0-.456-1.467,1.869,1.869,0,0,0-1.4-.632h-5.567a1.873,1.873,0,0,0-1.852,2.1Z" transform="translate(-389.397 0)" fill="#fff"/>
    <path id="Path_690" data-name="Path 690" d="M582.962,612.4H569.047a.753.753,0,0,0,0,1.506h13.915a.753.753,0,0,0,0-1.506Z" transform="translate(-527.619 -503.993)" fill="#fff"/>
    <path id="Path_691" data-name="Path 691" d="M582.962,504.2H569.047a.753.753,0,0,0,0,1.506h13.915a.753.753,0,0,0,0-1.506Z" transform="translate(-527.619 -401.739)" fill="#fff"/>
  </g>
</svg>
