<svg xmlns="http://www.w3.org/2000/svg" width="35.488" height="33.402" viewBox="0 0 35.488 33.402">
  <g id="quility" transform="translate(-10 -38.8)">
    <path id="Path_684" data-name="Path 684" d="M237.528,205.081l-4.111-7.62a7.726,7.726,0,1,0-14.113.069l-4.129,7.547a.7.7,0,0,0,.771,1.021l3.527-.811,1.206,3.368a.7.7,0,0,0,.612.464h.051a.693.693,0,0,0,.619-.373l3.6-6.7c.261.025.522.04.79.04.246,0,.485-.011.724-.033l3.669,6.711a.7.7,0,0,0,.616.366h.054a.7.7,0,0,0,.608-.464l1.206-3.368,3.527.808a.7.7,0,0,0,.717-.261.708.708,0,0,0,.058-.761ZM221.466,206.7l-.884-2.47a.692.692,0,0,0-.818-.445l-2.611.6,2.973-5.436a7.77,7.77,0,0,0,3.984,2.814l-2.644,4.936Zm-1.438-12.353a6.316,6.316,0,1,1,6.316,6.327,6.331,6.331,0,0,1-6.316-6.327Zm12.9,9.438a.7.7,0,0,0-.818.445l-.891,2.484-2.705-4.94a7.734,7.734,0,0,0,4.074-2.876l2.959,5.483-2.618-.6Z" transform="translate(-197.66 -142.447)" fill="#59b8be"/>
    <path id="Path_685" data-name="Path 685" d="M39.23,38.8H16.262A6.264,6.264,0,0,0,10,45.062V65.94A6.261,6.261,0,0,0,16.262,72.2H39.226a6.261,6.261,0,0,0,6.262-6.262V45.062A6.258,6.258,0,0,0,39.23,38.8Zm4.165,26.814a4.357,4.357,0,0,1-4.339,4.469H16.566A4.469,4.469,0,0,1,12.1,65.614V45.359a4.467,4.467,0,0,1,4.469-4.469h22.49a4.36,4.36,0,0,1,4.339,4.469V65.614Z" transform="translate(0 0)"/>
  </g>
</svg>
