<svg xmlns="http://www.w3.org/2000/svg" width="37" height="37" viewBox="0 0 37 37">
  <g id="Group_1047" data-name="Group 1047" transform="translate(-29 -317)">
    <circle id="Ellipse_66" data-name="Ellipse 66" cx="18.5" cy="18.5" r="18.5" transform="translate(29 317)" fill="#fff"/>
    <g id="recharge" transform="translate(26.012 314.2)">
      <path id="Path_555" data-name="Path 555" d="M437.194,514.1a1.424,1.424,0,0,0-1.495,1.467,1.458,1.458,0,0,0,1.476,1.5,1.482,1.482,0,0,0,.019-2.964Zm.021,2.532a1.162,1.162,0,0,1-1.093-1.065,1.134,1.134,0,0,1,1.053-1.047,1.115,1.115,0,0,1,1.06,1.035A1.127,1.127,0,0,1,437.215,516.632Z" transform="translate(-415.876 -492.649)" fill="none" stroke="#59b8be" stroke-width="0.7"/>
      <path id="Path_556" data-name="Path 556" d="M318.275,310.672c-.111-.672-.187-.737-.848-.61q-3.292.627-6.589,1.231c-.605.111-.668.192-.552.82a13.768,13.768,0,0,1,.307,2.922c-.03,1.056.009,2.118-.014,3.174-.009.444.159.578.585.573,1.148-.021,2.3-.007,3.447-.007,1.164,0,2.329-.016,3.493.007.425.007.552-.15.541-.557-.023-.832-.007-1.663,0-2.5,0-.15-.058-.349.072-.432.448-.3.261-.688.194-1.058C318.7,313.052,318.472,311.867,318.275,310.672Zm-.638,6.868a.621.621,0,0,0-.321.363c-.141.4-.416.467-.8.462-1.317-.023-2.634-.014-3.953,0-.266,0-.462-.023-.559-.321a1.076,1.076,0,0,0-.686-.684.426.426,0,0,1-.307-.52,5.844,5.844,0,0,0,0-.635c-.021-.554-.1-1.123.612-1.354a.5.5,0,0,0,.268-.293c.15-.515.529-.522.959-.506.575.023,1.153,0,1.726,0,.7,0,1.393,0,2.089,0,.245,0,.416.025.513.312a1.187,1.187,0,0,0,.776.719.348.348,0,0,1,.268.4c-.014.273-.007.545,0,.818C318.234,316.813,318.317,317.34,317.638,317.541Zm-3.985-4.242a1,1,0,0,1,.968-.688,1.036,1.036,0,0,1,.98.686c.1.226.065.342-.208.337s-.543,0-.818,0c-.243,0-.485,0-.723,0C313.574,313.641,313.556,313.532,313.653,313.3Zm4.313.333c-.259-.007-.513,0-.769,0-.074,0-.152-.007-.226,0-.49.058-.843.018-1.019-.6a1.32,1.32,0,0,0-1.529-.853,1.379,1.379,0,0,0-1.227,1.049c-.074.365-.247.418-.554.4-.407-.018-.818,0-1.224,0-.173,0-.383.058-.427-.21-.039-.243-.164-.487.155-.675a1.178,1.178,0,0,0,.582-.878.374.374,0,0,1,.36-.34c1.425-.259,2.853-.513,4.274-.779a.408.408,0,0,1,.494.183,1.158,1.158,0,0,0,.878.578.3.3,0,0,1,.289.293c.076.492.143.987.243,1.474C318.319,313.553,318.222,313.639,317.966,313.632Z" transform="translate(-293.314 -293.274)" fill="none" stroke="#59b8be" stroke-width="0.7"/>
      <path id="Path_557" data-name="Path 557" d="M21.316,32.449A11.414,11.414,0,0,1,9.988,21.037,11.453,11.453,0,0,1,21.295,9.8,11.464,11.464,0,0,1,32.629,21.018,11.435,11.435,0,0,1,21.316,32.449Zm.009-22.206a11.019,11.019,0,0,0-10.9,10.86,10.976,10.976,0,0,0,10.865,10.9,10.881,10.881,0,1,0,.032-21.762Z" transform="translate(0 0)" fill="none" stroke="#59b8be" stroke-width="0.7"/>
    </g>
  </g>
</svg>
