<svg xmlns="http://www.w3.org/2000/svg" width="33.712" height="46.129" viewBox="0 0 33.712 46.129">
  <g id="refund" transform="translate(-141.9 -10)">
    <path id="Path_26893" data-name="Path 26893" d="M159.57,35.244h-1.742a26.809,26.809,0,0,0-7.414,11V48.16h16.677c0-.231.127-.108.127-.339C167.219,44.9,161.646,36.383,159.57,35.244Zm-.814-12.365c-.231-.819-2.556-3.121-3.46-5.785l-2.749.019,3.728,5.766-2.961.071v2.306l4.2-.071-.019,1.737h-3.69l-.494,2.005,4.345-.019.033,4.152h2.485l-.033-4.152h3.723l.033-1.9-3.921-.089L160,25.185l3.94.052V22.93l-2.7-.052,3.728-5.766h-2.481ZM170.8,15.055v2.57a23.44,23.44,0,0,1-1.845,4.721c-.974,2.024-5.677,9.988-5.677,11,0,1.685,7.522,12.563,7.522,15.7v2.7H146.711V48.5a24.643,24.643,0,0,1,1.949-4.721c.871-1.685,5.465-9.541,5.465-10.431,0-1.012-4.043-7.757-4.472-8.534-.885-1.582-1.544-3.248-2.306-4.721a12.747,12.747,0,0,1-.635-1.793V15.051H170.8ZM175.612,10H141.9v4.933h2.288a19.771,19.771,0,0,0,.108,3.6,40.132,40.132,0,0,0,2.942,7.183c1.417,2.467,4.26,7.4,4.26,7.63,0,.334-3.493,5.945-5.022,9.085a29.648,29.648,0,0,0-1.845,4.382,3.191,3.191,0,0,0-.231.781,37.555,37.555,0,0,0-.1,3.94l-.32.334H141.9v4.26h33.712v-4.26h-2.4c.108-.127.217-.231,0-3.158-.334-2.339-1.647-4.825-2.73-6.957-1.422-2.8-4.58-8.2-4.58-8.407,0-.339,2.838-4.952,4.025-7.3.871-1.685,1.633-3.474,2.288-4.947.339-1.012.763-2.024.993-3.036v-3.14h2.4l0-4.928Z" fill="#fff"/>
  </g>
</svg>
