<svg xmlns="http://www.w3.org/2000/svg" width="17.375" height="17.371" viewBox="0 0 17.375 17.371">
  <g id="remedy_1_" data-name="remedy (1)" transform="translate(-4.113 845.058)">
    <path id="Path_26993" data-name="Path 26993" d="M6.787-844.83a12.269,12.269,0,0,0-1.223,1.562c-1.338,2.027-1.764,3.977-1.221,5.612a4.752,4.752,0,0,0,2.092,2.514,4.852,4.852,0,0,0,.637.326,3.8,3.8,0,0,0-.121-.365,12.135,12.135,0,0,1-.639-2.589,10.491,10.491,0,0,1-.013-1.555,10.4,10.4,0,0,1,.265-1.4c.125-.478.136-.513.154-.5a4.372,4.372,0,0,1,.029.518,15.128,15.128,0,0,0,.86,4.747,2.207,2.207,0,0,0,.242.551,4.691,4.691,0,0,0,.457-.522,5.925,5.925,0,0,0,1.263-4.207c-.019-.167-.05-.4-.073-.511a8.659,8.659,0,0,0-1.365-2.975,15.711,15.711,0,0,0-1.088-1.426C7.023-845.076,6.973-845.03,6.787-844.83Z" transform="translate(0)" fill="#785ffb"/>
    <path id="Path_26994" data-name="Path 26994" d="M124.729-504.721a5.515,5.515,0,0,0-1.983.526,5.4,5.4,0,0,0-2.758,3.691,7.154,7.154,0,0,0-.154.837c0,.023.061-.023.163-.119a8.524,8.524,0,0,1,2.812-1.908,7.9,7.9,0,0,1,4.649-.273,4.508,4.508,0,0,1,1,.363c0,.008-.344.015-.768.017a12.537,12.537,0,0,0-2.86.269,8.717,8.717,0,0,0-3.906,2.409,17.449,17.449,0,0,0-2.253,2.81,3.4,3.4,0,0,0-.405.687.729.729,0,0,0,.253.8.774.774,0,0,0,.783.052c.184-.09.255-.18.466-.587.618-1.2,1.278-2.4,1.411-2.572.025-.033.048-.027.288.075a11.909,11.909,0,0,0,4.173.8,6.748,6.748,0,0,0,4.123-1.238,13.331,13.331,0,0,0,3.359-3.319c.1-.148.117-.177.094-.2-.046-.056-.511-.424-.8-.635a13.592,13.592,0,0,0-4.662-2.2A9.828,9.828,0,0,0,124.729-504.721Z" transform="translate(-111.735 -333.207)" fill="#ad46f2"/>
  </g>
</svg>
