<svg xmlns="http://www.w3.org/2000/svg" width="32.116" height="37.468" viewBox="0 0 32.116 37.468">
  <g id="review" transform="translate(-80 -10)">
    <path id="Path_26976" data-name="Path 26976" d="M110.778,47.468H81.338A1.34,1.34,0,0,1,80,46.13V11.338A1.34,1.34,0,0,1,81.338,10h22.749v6.259a1.766,1.766,0,0,0,1.755,1.77h6.274v28.1A1.34,1.34,0,0,1,110.778,47.468ZM90.22,43.282l2.795-1.136,11.558-11.558-2.34-2.34-11,11-1.556,3.5ZM87.027,28.734h6.022a1,1,0,1,0,0-2.007H87.027a1,1,0,1,0,0,2.007Zm10.7-12.712H87.023a1,1,0,1,0,0,2.007H97.729a1,1,0,1,0,0-2.007Zm7.364,5.353H87.027a1.006,1.006,0,1,0,0,2.011h18.065a1.006,1.006,0,0,0,0-2.011Zm-.681,4.7L103.177,27.3l2.34,2.34,1.235-1.235Zm1.013-10.717V10.027l6.664,6.664h-5.326A1.34,1.34,0,0,1,105.425,15.353Z" fill="#fff"/>
  </g>
</svg>
