<svg xmlns="http://www.w3.org/2000/svg" width="37" height="37" viewBox="0 0 37 37">
  <g id="Group_1047" data-name="Group 1047" transform="translate(-29 -317)">
    <circle id="Ellipse_66" data-name="Ellipse 66" cx="18.5" cy="18.5" r="18.5" transform="translate(29 317)" fill="#fff"/>
    <g id="recharge-hostory" transform="translate(-101.9 315)">
      <path id="Path_558" data-name="Path 558" d="M164.389,12.393H160.8L162.793,10h2.393Z" transform="translate(-18.5)" fill="#59b8be"/>
      <path id="Path_559" data-name="Path 559" d="M141.9,16.38l2.393-2.391h4.114a4.114,4.114,0,0,0-3.316-1.6H141.9L144.293,10h12.762l-2.393,2.393h-3.394a5.567,5.567,0,0,1,.77,1.6h5.017l-2.393,2.391h-2.448a5.586,5.586,0,0,1-5.527,4.787l-.47-.019,6.85,9.59h-3.191L142.7,20.688V19.571h2.393a3.861,3.861,0,0,0,3.963-3.191Z" fill="#59b8be"/>
    </g>
  </g>
</svg>
