<svg xmlns="http://www.w3.org/2000/svg" width="58" height="58" viewBox="0 0 58 58">
  <g id="rupee-icons" transform="translate(-28 -116)">
    <circle id="Ellipse_84" data-name="Ellipse 84" cx="29" cy="29" r="29" transform="translate(28 116)" fill="#59b8be" opacity="0.4"/>
    <circle id="Ellipse_85" data-name="Ellipse 85" cx="21" cy="21" r="21" transform="translate(36 124)" fill="#59b8be"/>
    <path id="Icon_awesome-rupee-sign" data-name="Icon awesome-rupee-sign" d="M13.094,4.971a.51.51,0,0,0,.51-.51V2.76a.51.51,0,0,0-.51-.51H.51A.51.51,0,0,0,0,2.76v1.9a.51.51,0,0,0,.51.51H4.136A3.067,3.067,0,0,1,6.728,6.331H.51a.51.51,0,0,0-.51.51v1.7a.51.51,0,0,0,.51.51H7.259a2.938,2.938,0,0,1-3.178,2.493H.51a.51.51,0,0,0-.51.51v2.254a.51.51,0,0,0,.164.375l7.017,6.477a.51.51,0,0,0,.346.135h3.51a.51.51,0,0,0,.346-.885L4.969,14.49a5.824,5.824,0,0,0,5.88-5.438h2.245a.51.51,0,0,0,.51-.51v-1.7a.51.51,0,0,0-.51-.51H10.6a5.823,5.823,0,0,0-.606-1.36Z" transform="translate(50 132.75)" fill="#fff"/>
  </g>
</svg>
