<svg xmlns="http://www.w3.org/2000/svg" width="32" height="32" viewBox="0 0 32 32">
  <g id="Group_1496" data-name="Group 1496" transform="translate(-332 -56)">
    <circle id="Ellipse_78" data-name="Ellipse 78" cx="16" cy="16" r="16" transform="translate(332 56)" fill="#fff" opacity="0.43"/>
    <g id="Group_1494" data-name="Group 1494" transform="translate(330.879 63)">
      <path id="Path_26944" data-name="Path 26944" d="M387.18-457.622v.563l.533.015.528.015.015,1.674.01,1.674.237.277c.37.44,3.507,3.956,3.779,4.238l.247.257-.469.534c-.257.291-1.008,1.156-1.674,1.916s-1.413,1.62-1.665,1.916l-.455.528v3.26H387.18v1.186l6.263-.01,6.258-.015.015-.578.015-.583h-1.091v-1.561a11.08,11.08,0,0,0-.054-1.665c-.084-.163-.82-1.022-3.383-3.942l-.849-.968,2.114-2.376c1.161-1.309,2.124-2.43,2.144-2.489s.03-.83.03-1.709v-1.59h1.092l-.015-.558-.015-.553-6.258-.015-6.263-.01Zm10.125,2.771v1.072l-.627.647c-.351.356-1.21,1.255-1.916,2s-1.309,1.339-1.339,1.334c-.054-.015-1.339-1.339-3.1-3.2a8.053,8.053,0,0,1-.731-.835,8.242,8.242,0,0,1-.044-1.1v-.983h7.755v1.067Zm-2.554,8.155c.711.731,1.58,1.62,1.926,1.981l.627.652v1.087h-.351c-.272,0-.375-.02-.469-.094a4.616,4.616,0,0,0-.677-.326,8.846,8.846,0,0,1-1.749-.924c-.282-.188-.543-.351-.583-.365a2.673,2.673,0,0,0-.662.365,8.045,8.045,0,0,1-1.778.929,4.6,4.6,0,0,0-.627.3.733.733,0,0,1-.514.119h-.346l.005-.459a4.687,4.687,0,0,1,.035-.563c.02-.059.6-.691,1.289-1.408,1.422-1.472,2.534-2.608,2.554-2.608S394.036-447.422,394.752-446.7Z" transform="translate(-376.059 458.19)" fill="#fff"/>
    </g>
  </g>
</svg>
