<svg xmlns="http://www.w3.org/2000/svg" width="30.545" height="33.239" viewBox="0 0 30.545 33.239">
  <g id="sucred" transform="translate(-49.726 -9.996)">
    <g id="Group_1094" data-name="Group 1094" transform="translate(49.726 9.996)">
      <path id="Path_681" data-name="Path 681" d="M51.636-500.89a2.89,2.89,0,0,0-1.669,1.542l-.215.451-.02,8.172c-.014,7.344-.007,8.213.094,8.549a2.769,2.769,0,0,0,2.013,2c.444.121,12.723.141,12.8.02a2.116,2.116,0,0,1,.411-.3l.364-.236-.02-.485-.02-.485-6.631-.034c-6.408-.034-6.644-.04-6.832-.161a1.055,1.055,0,0,1-.471-.572,26.07,26.07,0,0,1-.1-4.355v-4.133h27.33v10.279l.168.074c.155.074.2.047.565-.31a2.6,2.6,0,0,0,.774-1.3c.1-.336.108-1.2.094-8.549l-.02-8.172-.215-.458a3.113,3.113,0,0,0-1.36-1.414l-.444-.215L65.1-501C52.565-501.011,51.959-501.011,51.636-500.89Zm26.159,1.5a1.178,1.178,0,0,1,.734.592,2.213,2.213,0,0,1,.135,1.111v.841H51.333v-.841a2.213,2.213,0,0,1,.135-1.111,1.225,1.225,0,0,1,.707-.592C52.47-499.5,77.485-499.5,77.795-499.389Z" transform="translate(-49.726 501.004)"/>
      <path id="Path_682" data-name="Path 682" d="M160.62-123.3v1.043h13.107l.343-.431a7.158,7.158,0,0,1,1.663-1.42l.4-.236H160.62Z" transform="translate(-156.859 137.116)"/>
      <path id="Path_683" data-name="Path 683" d="M516-97.53a4.692,4.692,0,0,0-2.875,1.447,4.494,4.494,0,0,0-1.266,1.966l-.215.592-.034,2.019-.034,2.019-.626.034c-.613.034-.639.04-.828.256l-.2.215v10.515l.229.229.229.229h12.48l.229-.229.229-.229v-5.224c0-3.756-.02-5.264-.074-5.385-.121-.263-.444-.377-1.057-.377h-.539l-.027-2.039-.02-2.033-.209-.592a4.573,4.573,0,0,0-1.272-1.966,4.024,4.024,0,0,0-1.158-.9A5.278,5.278,0,0,0,516-97.53Zm1.286,2.188a3.634,3.634,0,0,1,.667.243,3.5,3.5,0,0,1,1.286,1.333l.215.444.02,1.932.02,1.939H513.76l.02-1.939.02-1.932.215-.438A2.9,2.9,0,0,1,517.287-95.343Zm.081,8.206a1.934,1.934,0,0,1,1.138,1.824,1.725,1.725,0,0,1-.6,1.393l-.33.316.37,1.723.37,1.717h-1.737c-1.346,0-1.737-.02-1.737-.088,0-.04.155-.815.35-1.71l.343-1.629-.35-.377a1.647,1.647,0,0,1-.572-1.346,1.9,1.9,0,0,1,1.946-1.986A1.652,1.652,0,0,1,517.368-87.137Z" transform="translate(-494.321 111.249)" fill="#59b8be"/>
    </g>
  </g>
</svg>
