<svg xmlns="http://www.w3.org/2000/svg" width="46.246" height="46.246" viewBox="0 0 46.246 46.246">
  <g id="services" transform="translate(-10 -10)">
    <path id="Path_681" data-name="Path 681" d="M262.293,526.1h-4.9a3,3,0,0,0-2.69,2.69v4.842a3.059,3.059,0,0,0,2.69,2.751h4.9a3.059,3.059,0,0,0,2.69-2.751V528.79A3,3,0,0,0,262.293,526.1Zm.854,7.536a.854.854,0,0,1-.854.854h-4.9a.854.854,0,0,1-.854-.854V528.79a.854.854,0,0,1,.854-.854h4.9a.854.854,0,0,1,.854.854Z" transform="translate(-233.153 -491.745)" fill="#fff"/>
    <path id="Path_682" data-name="Path 682" d="M33.123,10A23.123,23.123,0,1,0,56.246,33.123,23.148,23.148,0,0,0,33.123,10Zm0,43.212A20.089,20.089,0,1,1,53.212,33.123,20.11,20.11,0,0,1,33.123,53.212Z" fill="#fff"/>
    <path id="Path_683" data-name="Path 683" d="M532.493,254.7h-4.964a2.938,2.938,0,0,0-2.628,2.69v4.842a3,3,0,0,0,2.628,2.751h4.964a3.12,3.12,0,0,0,2.751-2.751V257.39A3.068,3.068,0,0,0,532.493,254.7Zm.854,7.531a.908.908,0,0,1-.854.915h-4.964a.908.908,0,0,1-.854-.915V257.39a.854.854,0,0,1,.854-.854h4.964a.854.854,0,0,1,.854.854Z" transform="translate(-490.602 -233.153)" fill="#fff"/>
    <path id="Path_684" data-name="Path 684" d="M262.293,254.7h-4.785a3.178,3.178,0,0,0-2.808,2.751v4.78a3.178,3.178,0,0,0,2.808,2.751h4.78a3.12,3.12,0,0,0,2.751-2.751v-4.78A3.111,3.111,0,0,0,262.293,254.7Zm.854,7.531a.908.908,0,0,1-.854.915h-4.785a.908.908,0,0,1-.854-.915v-4.78a.854.854,0,0,1,.854-.854h4.78a.854.854,0,0,1,.854.854v4.78Z" transform="translate(-233.153 -233.153)" fill="#fff"/>
    <path id="Path_685" data-name="Path 685" d="M532.454,527.4H527.49a3,3,0,0,0-2.69,2.69v4.842a3,3,0,0,0,2.69,2.69h4.964a3,3,0,0,0,2.69-2.69V530.09A3,3,0,0,0,532.454,527.4Zm.854,7.531a.854.854,0,0,1-.854.854H527.49a.854.854,0,0,1-.854-.854V530.09a.854.854,0,0,1,.854-.854h4.964a.854.854,0,0,1,.854.854Z" transform="translate(-490.507 -492.984)" fill="#fff"/>
  </g>
</svg>
