<svg xmlns="http://www.w3.org/2000/svg" width="51.262" height="51.262" viewBox="0 0 51.262 51.262">
  <g id="Icon_feather-settings" data-name="Icon feather-settings" transform="translate(1 1)">
    <path id="Path_26967" data-name="Path 26967" d="M26.117,19.808A6.308,6.308,0,1,1,19.808,13.5,6.308,6.308,0,0,1,26.117,19.808Z" transform="translate(4.822 4.822)" fill="none" stroke="#fff" stroke-linecap="round" stroke-linejoin="round" stroke-width="5"/>
    <path id="Path_26968" data-name="Path 26968" d="M40.192,30.939a3.47,3.47,0,0,0,.694,3.827l.126.126a4.208,4.208,0,1,1-5.951,5.951l-.126-.126A3.5,3.5,0,0,0,29,43.2v.357a4.206,4.206,0,1,1-8.411,0v-.189a3.47,3.47,0,0,0-2.271-3.175,3.47,3.47,0,0,0-3.827.694l-.126.126a4.208,4.208,0,1,1-5.951-5.951l.126-.126A3.5,3.5,0,0,0,6.063,29H5.706a4.206,4.206,0,1,1,0-8.411h.189A3.47,3.47,0,0,0,9.07,18.322,3.47,3.47,0,0,0,8.376,14.5l-.126-.126A4.208,4.208,0,1,1,14.2,8.418l.126.126a3.47,3.47,0,0,0,3.827.694h.168a3.47,3.47,0,0,0,2.1-3.175V5.706a4.206,4.206,0,1,1,8.411,0v.189a3.5,3.5,0,0,0,5.93,2.481l.126-.126A4.208,4.208,0,1,1,40.843,14.2l-.126.126a3.47,3.47,0,0,0-.694,3.827v.168a3.47,3.47,0,0,0,3.175,2.1h.357a4.206,4.206,0,1,1,0,8.411h-.189a3.47,3.47,0,0,0-3.175,2.1Z" fill="none" stroke="#fff" stroke-linecap="round" stroke-linejoin="round" stroke-width="5"/>
  </g>
</svg>
