<svg id="Group_1093" data-name="Group 1093" xmlns="http://www.w3.org/2000/svg" width="25.464" height="39.976" viewBox="0 0 25.464 39.976">
  <path id="Path_678" data-name="Path 678" d="M235.611-500.971c-.064.016-.4.073-.726.121a10.708,10.708,0,0,0-7.669,5.677c-.411.806-.443.839-.726.879a1.106,1.106,0,0,0-.879.669c-.153.3-.161.484-.161,2.54,0,2.452.024,2.6.54,2.935.193.129.282.3.468.871a10.78,10.78,0,0,0,1.008,2.226.679.679,0,0,1,.1.548,1.562,1.562,0,0,0,.355,1.161,1.506,1.506,0,0,0,2.411-.218,1.586,1.586,0,0,0-.355-1.96,2.347,2.347,0,0,0-.621-.266c-.379-.1-.379-.1-.774-.911-.524-1.081-.556-1.25-.242-1.427.435-.242.516-.46.419-1.1a8.661,8.661,0,0,1,.21-3.524.956.956,0,0,0-.186-1.073l-.21-.25.347-.613a8.932,8.932,0,0,1,7.717-4.548,8.424,8.424,0,0,1,4.008.935,8.965,8.965,0,0,1,3.879,3.766l.258.492-.234.266c-.282.323-.282.452-.064,1.282a12.2,12.2,0,0,1,.129,3.387c-.064.484-.064.5.177.774a1.787,1.787,0,0,0,1.613.452c.782-.049,1.1-.218,1.363-.71.177-.355.186-.4.161-2.637-.024-2.161-.032-2.282-.193-2.5a1.467,1.467,0,0,0-.919-.589c-.194,0-.258-.081-.589-.75a10.473,10.473,0,0,0-2.137-2.9,10.764,10.764,0,0,0-5.338-2.855A17.424,17.424,0,0,0,235.611-500.971Z" transform="translate(-223.917 500.998)" fill="#59b8be"/>
  <path id="Path_679" data-name="Path 679" d="M323.664-435.054a7.542,7.542,0,0,0-5.855,4.387,8.183,8.183,0,0,0,4.137,11.016,7.121,7.121,0,0,0,7.734-1.75c4.3-4.476,2.226-12.193-3.637-13.524A8.031,8.031,0,0,0,323.664-435.054Zm2.04,1.258a7.051,7.051,0,0,1,2.556,1.218,7.143,7.143,0,0,1,1.016,9.855,5.955,5.955,0,0,1-7.411,1.75,6.946,6.946,0,0,1-3.516-7.556,6.692,6.692,0,0,1,3.532-4.75A5.7,5.7,0,0,1,325.7-433.8Z" transform="translate(-311.768 437.782)"/>
  <path id="Path_680" data-name="Path 680" d="M191.364-44.671a3.978,3.978,0,0,0-2.073,1.25,4.439,4.439,0,0,0-1.411,3.177c0,.6,2.3,12.54,2.556,13.266a5.317,5.317,0,0,0,3.048,3.29l.484.186,6.484.024c5.766.016,6.532.008,6.935-.113a5.349,5.349,0,0,0,3.46-3.54c.089-.266.693-3.274,1.347-6.694,1.048-5.476,1.177-6.274,1.145-6.774a4.782,4.782,0,0,0-3.194-4.008,7.515,7.515,0,0,0-2.387-.21L205.9-44.84l-1.088,2.185c-.6,1.2-1.113,2.21-1.145,2.226a20.17,20.17,0,0,1-1.524-1.8c-.807-1.008-1.492-1.846-1.525-1.863s-.718.815-1.524,1.839-1.5,1.838-1.524,1.823-.548-1.016-1.145-2.218l-1.089-2.186-1.694.008A8.389,8.389,0,0,0,191.364-44.671Zm6.218,6.83c1.645,3.21,3.008,5.83,3.032,5.83s1.4-2.621,3.032-5.83l2.984-5.823,1.008-.024a10.454,10.454,0,0,1,1.548.064,3.659,3.659,0,0,1,2.976,2.831c.089.435.032.742-1.1,6.653-.653,3.411-1.258,6.419-1.347,6.685a3.927,3.927,0,0,1-2.935,2.782c-.645.1-11.806.1-12.371,0a3.893,3.893,0,0,1-2.863-2.685c-.1-.274-.717-3.274-1.371-6.669-1.129-5.847-1.185-6.193-1.113-6.653a3.549,3.549,0,0,1,1.911-2.581,4.352,4.352,0,0,1,2.5-.411l1.113.008Zm4.21-2.919c.613.75,1.153,1.42,1.2,1.476a10.938,10.938,0,0,1-1.121,2.524c-.669,1.322-1.226,2.411-1.25,2.411s-.58-1.081-1.242-2.4a11.139,11.139,0,0,1-1.129-2.532c.145-.25,2.33-2.887,2.379-2.863C200.654-42.139,201.179-41.517,201.791-40.76Z" transform="translate(-187.88 63.448)"/>
</svg>
