<svg xmlns="http://www.w3.org/2000/svg" width="43.67" height="44.809" viewBox="0 0 43.67 44.809">
  <g id="support" transform="translate(-22.46 -9.998)">
    <g id="Group_1544" data-name="Group 1544" transform="translate(22.46 9.998)">
      <path id="Path_26971" data-name="Path 26971" d="M206.279-500.882a11.113,11.113,0,0,0-8.205,6.13,10.719,10.719,0,0,0-.889,4.66l-.071,2.075-.427.237-.427.225-.036,3.047-.024,3.036.308.249c.688.534,1.66.581,2,.1a29,29,0,0,0,0-6.652,14.3,14.3,0,0,1-.012-4.506,8.586,8.586,0,0,1,2.443-4.577,9.837,9.837,0,0,1,5.1-2.8,41.816,41.816,0,0,1,7.8.024,9.741,9.741,0,0,1,7.209,6.272,8.254,8.254,0,0,1,.38,3.178c.036,1.755.012,2.265-.107,2.419s-.178.925-.225,3.344c-.059,3.13-.059,3.154-.38,3.806-1.327,2.691-4.6,4.386-8.442,4.386-1.186,0-1.375.083-1.375.617,0,.427.285.569,1.15.569a13.769,13.769,0,0,0,5.786-1.3,7.5,7.5,0,0,0,3.77-3.569c.344-.723.427-.806.866-.925a2.478,2.478,0,0,0,.795-.379l.32-.249-.024-3.036-.036-3.048-.427-.225-.427-.237-.071-2.134a9.276,9.276,0,0,0-1.032-4.873,10.7,10.7,0,0,0-7.909-5.81A48.122,48.122,0,0,0,206.279-500.882Z" transform="translate(-188.256 501.002)" fill="#fff"/>
      <path id="Path_26972" data-name="Path 26972" d="M42.475-440.589c-4.553.723-7.434,3.569-8.395,8.3a22.482,22.482,0,0,0,4.352,17.228,5.891,5.891,0,0,1,.747,1.043,3.372,3.372,0,0,1-1.043,1.541c-.889.794-2.051,1.4-5.537,2.869a31.491,31.491,0,0,0-5.94,2.882,8.721,8.721,0,0,0-3.51,4.162,13.783,13.783,0,0,0-.688,3.557v.391H66.13l-.071-1.221a7.538,7.538,0,0,0-2.384-5.371c-1.589-1.577-3.368-2.6-7.541-4.328-3.7-1.517-4.9-2.146-5.845-3.059a3.226,3.226,0,0,1-.913-1.447,4.223,4.223,0,0,1,.723-.913,14.235,14.235,0,0,0,1.85-2.585,7.62,7.62,0,0,0-.877.261,12.065,12.065,0,0,1-4.4.688l-1.7.012-.4-.439a1.417,1.417,0,0,1-.344-1.7c.332-.712.676-.842,2.4-.925,2.786-.142,4.9-.9,6.284-2.288s1.861-3.118,1.85-6.924a13.77,13.77,0,0,0-.261-3.4c-.949-4.387-3.45-7.162-7.292-8.11A17.23,17.23,0,0,0,42.475-440.589Z" transform="translate(-22.46 443.424)" fill="#fff"/>
    </g>
  </g>
</svg>
