<svg xmlns="http://www.w3.org/2000/svg" width="37" height="37" viewBox="0 0 37 37">
  <g id="Group_1047" data-name="Group 1047" transform="translate(-29 -317)">
    <circle id="Ellipse_66" data-name="Ellipse 66" cx="18.5" cy="18.5" r="18.5" transform="translate(29 317)" fill="#fff"/>
    <g id="terms" transform="translate(29 317)">
      <path id="Path_26958" data-name="Path 26958" d="M24.976,13.644H17.69a.405.405,0,0,0,0,.81h7.285a.405.405,0,1,0,0-.81ZM27,26.19a.81.81,0,0,1-.81.81H11.619a.81.81,0,0,1-.81-.81V11.619a.81.81,0,0,1,.81-.81H26.19a.811.811,0,0,1,.81.81V26.19ZM26.19,10H11.619A1.619,1.619,0,0,0,10,11.619V26.19a1.619,1.619,0,0,0,1.619,1.619H26.19a1.619,1.619,0,0,0,1.619-1.619V11.619A1.618,1.618,0,0,0,26.19,10Zm-1.214,8.5H17.69a.405.405,0,0,0,0,.81h7.285a.405.405,0,1,0,0-.81ZM14.489,23.32l-.442-1.178-.442,1.178H12.428l.956.736-.44,1.325,1.1-.81,1.1.81-.442-1.325.956-.736Zm-.442-6.035-.442,1.178H12.428l.956.736-.44,1.325,1.1-.81,1.1.81L14.708,19.2l.956-.736H14.489l-.442-1.178Zm0-4.857-.442,1.178H12.428l.956.736-.44,1.327,1.1-.81,1.1.81-.44-1.325.956-.736H14.489l-.442-1.179ZM24.976,23.356H17.69a.406.406,0,0,0,0,.812h7.285a.406.406,0,0,0,0-.812Z" fill="#59b8be"/>
    </g>
  </g>
</svg>
