<svg xmlns="http://www.w3.org/2000/svg" width="20.737" height="19.146" viewBox="0 0 20.737 19.146">
  <g id="Icon_ionic-md-thumbs-up" data-name="Icon ionic-md-thumbs-up" transform="translate(-3.375 -4.5)">
    <path id="Path_692" data-name="Path 692" d="M13.145,23.646h8.576a1.829,1.829,0,0,0,1.705-1.167l2.847-6.751a1.908,1.908,0,0,0,.13-.7V13.106a2.2,2.2,0,0,0-1.885-2.224H18.575l.9-4.064.03-.3a1.445,1.445,0,0,0-.414-1.012L18.081,4.5,11.8,10.847A1.919,1.919,0,0,0,11.25,12.2v9.573A1.88,1.88,0,0,0,13.145,23.646Z" transform="translate(-2.291)" fill="#59b8be"/>
    <path id="Path_693" data-name="Path 693" d="M3.375,15.75H6.566V26.919H3.375Z" transform="translate(0 -3.272)" fill="#59b8be"/>
  </g>
</svg>
