<svg xmlns="http://www.w3.org/2000/svg" width="21.251" height="24.495" viewBox="0 0 21.251 24.495">
  <g id="user" transform="translate(-76.36 -9.393)">
    <g id="Group_1069" data-name="Group 1069" transform="translate(76.96 10.002)">
      <path id="Path_660" data-name="Path 660" d="M295.218-500.973c-2.121.215-3.328,1.1-3.753,2.766a6.439,6.439,0,0,0-.119,1.637c-.018,1.143-.027,1.266-.105,1.349a2.235,2.235,0,0,0-.229,1.65,5.724,5.724,0,0,0,.283,1.49,1.14,1.14,0,0,0,.558.567c.1.023.114.064.142.261a4.956,4.956,0,0,0,1.481,2.821,3.3,3.3,0,0,0,2.313,1.084,3.06,3.06,0,0,0,1.6-.325,5.01,5.01,0,0,0,2.514-3.58c.027-.2.046-.238.142-.261a1.138,1.138,0,0,0,.558-.567,6.457,6.457,0,0,0,.224-2.848.961.961,0,0,0-.169-.293c-.087-.078-.092-.146-.092-1.079a4.068,4.068,0,0,0-.279-1.989,2.707,2.707,0,0,0-.955-.974.642.642,0,0,1-.334-.37,2.422,2.422,0,0,0-1.641-1.184A6.956,6.956,0,0,0,295.218-500.973Zm-.434,3.2.64.311h.974l.608-.311c.539-.27.645-.306.869-.306.6,0,.988.3,1.344,1.019a3.447,3.447,0,0,1,.274,2.007,8.175,8.175,0,0,0,0,.859,1.109,1.109,0,0,0,.155-.288c.165-.357.283-.471.416-.4.178.1.21.229.2.8a6.989,6.989,0,0,1-.256,1.756.713.713,0,0,1-.306.242,1.02,1.02,0,0,0-.311.224,2.3,2.3,0,0,0-.123.516,3.353,3.353,0,0,1-.37,1.184c-.8,1.591-2.245,2.455-3.553,2.112a4.153,4.153,0,0,1-2.725-3.374c-.05-.412-.128-.526-.462-.686a.643.643,0,0,1-.261-.215,7.213,7.213,0,0,1-.265-2.121c.041-.279.087-.375.21-.443s.251.046.412.4a1.106,1.106,0,0,0,.155.288c.014,0,.014-.508,0-1.134a4.788,4.788,0,0,1,.05-1.422,1.792,1.792,0,0,1,.471-.887,1.253,1.253,0,0,1,.946-.443C294.116-498.08,294.212-498.047,294.784-497.773Z" transform="translate(-285.892 500.998)" fill="none" stroke="#000" stroke-width="1.2"/>
      <path id="Path_661" data-name="Path 661" d="M83.237,35.8c-.1.059-.357.2-.567.32a10.09,10.09,0,0,1-2.825.978c-.951.219-1.143.3-1.367.544a7.292,7.292,0,0,0-1.1,3.383c-.178,1.056-.416,3.232-.416,3.8a1.246,1.246,0,0,0,.4.974c.48.48-.535.434,9.655.434s9.175.046,9.646-.43c.453-.452.475-.681.293-2.5-.3-2.972-.8-5.029-1.39-5.664-.233-.251-.416-.325-1.376-.549a9.453,9.453,0,0,1-3.132-1.152c-.6-.366-.677-.329-.718.311a10.38,10.38,0,0,1-.567,2.341,15.449,15.449,0,0,1-1.157,2.876c-.018-.018-.137-.389-.265-.814s-.32-1.019-.421-1.321a2.259,2.259,0,0,1-.151-.594c.018-.028.11-.151.21-.274a1.357,1.357,0,0,0,.384-.841.809.809,0,0,0-.425-.535c-.169-.078-.169-.078-.494.064a1.745,1.745,0,0,1-.439.142,1.9,1.9,0,0,1-.443-.137c-.274-.114-.347-.128-.457-.087a.734.734,0,0,0-.471.649c0,.151.05.238.549.974.069.1.059.146-.119.69-.105.32-.288.914-.407,1.317a7.865,7.865,0,0,1-.251.768c-.018.023-.119-.155-.219-.389a19.014,19.014,0,0,1-1.5-4.828C83.658,35.685,83.585,35.612,83.237,35.8Z" transform="translate(-76.96 -22.956)" fill="none" stroke="#000" stroke-width="1.2"/>
    </g>
  </g>
</svg>
