<svg xmlns="http://www.w3.org/2000/svg" width="17.038" height="21.264" viewBox="0 0 17.038 21.264">
  <g id="vedas" transform="translate(-50.95 511.767)">
    <path id="Path_753" data-name="Path 753" d="M52.286-511.71a1.793,1.793,0,0,0-1.292,1.388c-.058.3-.058,18.062,0,18.365a1.775,1.775,0,0,0,1.309,1.392c.216.054,1.151.062,7.845.062h7.6l.12-.12a.4.4,0,0,0,.12-.233.4.4,0,0,0-.12-.233c-.12-.116-.133-.121-.54-.121h-.42v-2.115l.224-.046a1.107,1.107,0,0,0,.648-.415c.216-.307.208.108.208-8.767,0-9.178.021-8.522-.278-8.854a1.5,1.5,0,0,0-.32-.258l-.17-.091-7.354-.008C53.536-511.772,52.477-511.764,52.286-511.71Zm14.858.74.116.1.012,8.243c.008,6.149,0,8.268-.037,8.356-.1.253.391.237-7.529.237s-7.442-.012-7.87.233l-.179.1v-8.2c0-7.113.008-8.227.062-8.406a1.115,1.115,0,0,1,.727-.727c.058-.017,3.361-.033,7.342-.033l7.238,0Zm-.943,18.7v1.06l-6.889-.008-6.885-.012-.17-.091a1.088,1.088,0,0,1-.47-1.429,1.334,1.334,0,0,1,.586-.523c.1-.033,2.314-.046,6.985-.05l6.843,0Z" transform="translate(0 0)" fill="#c92b2b"/>
    <path id="Path_754" data-name="Path 754" d="M102.213-477.61c-.229.1-.216-.287-.216,7.762,0,5.439.012,7.471.046,7.57a.3.3,0,0,0,.187.191.308.308,0,0,0,.382-.079l.091-.083v-7.6c0-7.167,0-7.6-.071-7.678A.394.394,0,0,0,102.213-477.61Z" transform="translate(-48.926 -32.712)" fill="#c92b2b"/>
    <path id="Path_755" data-name="Path 755" d="M137.518-477.921a.777.777,0,0,0-.27.216l-.1.141-.012,7.325c-.008,6.482,0,7.338.054,7.446a.7.7,0,0,0,.5.374c.145.033,1.837.042,5.588.033l5.381-.012.154-.1a1.015,1.015,0,0,0,.249-.249l.1-.154.012-7.2c0-4.774,0-7.255-.033-7.358a.691.691,0,0,0-.391-.461c-.162-.075-.4-.079-5.613-.079S137.68-478,137.518-477.921Zm10.932,7.732v7.084l-5.306.012-5.31.008v-14.21l5.31.008,5.306.012Z" transform="translate(-82.602 -32.364)" fill="#c92b2b"/>
    <path id="Path_756" data-name="Path 756" d="M196.125-374.917a.345.345,0,0,0,.129.578,12.277,12.277,0,0,0,1.537.046H199.2v2.451h-1.433c-1.562,0-1.641.012-1.724.233-.025.062-.042.806-.042,1.762v1.654l.108.129a.328.328,0,0,0,.478.05l.1-.079.021-1.512.021-1.508,1.238-.012,1.234-.008v1.458c0,1.483.008,1.571.162,1.687a28.623,28.623,0,0,0,3.582,0,.332.332,0,0,0,.042-.532l-.12-.12h-2.958v-2.493H201.4c1.4,0,1.5,0,1.587-.079l.1-.079v-3.548l-.1-.079a.367.367,0,0,0-.482.025l-.1.1v2.954h-2.493V-374.8l-.1-.1-.1-.1h-1.749C196.27-375,196.2-375,196.125-374.917Z" transform="translate(-139.023 -131.084)" fill="#c92b2b"/>
    <path id="Path_757" data-name="Path 757" d="M230.688-332.849a.428.428,0,0,0-.187.4.562.562,0,0,0,.108.166.337.337,0,0,0,.569-.216c0-.2-.033-.266-.17-.332A.3.3,0,0,0,230.688-332.849Z" transform="translate(-172.083 -171.448)" fill="#c92b2b"/>
    <path id="Path_758" data-name="Path 758" d="M316.227-332.582a.348.348,0,0,0,.154.656.344.344,0,0,0,.05-.686A.327.327,0,0,0,316.227-332.582Z" transform="translate(-254.078 -171.707)" fill="#c92b2b"/>
    <path id="Path_759" data-name="Path 759" d="M316.262-264.321a.389.389,0,0,0-.262.341.381.381,0,0,0,.266.341.377.377,0,0,0,.4-.216A.351.351,0,0,0,316.262-264.321Z" transform="translate(-254.037 -237.159)" fill="#c92b2b"/>
    <path id="Path_760" data-name="Path 760" d="M230.76-263.983a.384.384,0,0,0-.108.407c.054.15.15.208.341.208a.336.336,0,0,0,.224-.573A.411.411,0,0,0,230.76-263.983Z" transform="translate(-172.217 -237.439)" fill="#c92b2b"/>
    <path id="Path_761" data-name="Path 761" d="M94.1-50.9a.315.315,0,0,0,.017.482l.12.12H106.51l.12-.12a.315.315,0,0,0,.017-.482l-.1-.1H94.2Z" transform="translate(-41.257 -441.622)" fill="#c92b2b"/>
  </g>
</svg>
