<svg id="vedas" xmlns="http://www.w3.org/2000/svg" width="23.946" height="29.884" viewBox="0 0 23.946 29.884">
  <path id="Path_753" data-name="Path 753" d="M52.827-511.687a2.519,2.519,0,0,0-1.816,1.95c-.082.426-.082,25.384,0,25.81a2.5,2.5,0,0,0,1.84,1.956c.3.076,1.618.088,11.025.088H74.557l.169-.169a.554.554,0,0,0,.169-.327.554.554,0,0,0-.169-.327c-.169-.164-.187-.169-.759-.169h-.59v-2.972l.315-.064a1.555,1.555,0,0,0,.911-.584c.3-.432.292.152.292-12.321,0-12.9.029-11.977-.391-12.444a2.112,2.112,0,0,0-.45-.362l-.239-.128-10.336-.012C54.585-511.774,53.1-511.763,52.827-511.687Zm20.883,1.039.164.14.018,11.585c.012,8.642-.006,11.621-.053,11.743-.146.356.549.333-10.582.333s-10.459-.018-11.06.327l-.251.146V-497.9c0-10,.012-11.562.088-11.813a1.567,1.567,0,0,1,1.022-1.022c.082-.023,4.724-.047,10.319-.047l10.173-.006Zm-1.326,26.283v1.489l-9.682-.012-9.676-.018-.239-.128a1.528,1.528,0,0,1-.66-2.009,1.875,1.875,0,0,1,.823-.736c.134-.047,3.253-.064,9.817-.07l9.618-.006Z" transform="translate(-50.95 511.767)" fill="#fff"/>
  <path id="Path_754" data-name="Path 754" d="M102.3-477.6c-.321.134-.3-.4-.3,10.908,0,7.644.018,10.5.064,10.639a.428.428,0,0,0,.263.269.433.433,0,0,0,.537-.111l.128-.117v-10.675c0-10.073-.006-10.674-.1-10.791A.554.554,0,0,0,102.3-477.6Z" transform="translate(-99.016 479.63)" fill="#fff"/>
  <path id="Path_755" data-name="Path 755" d="M137.675-477.889a1.094,1.094,0,0,0-.38.3l-.14.2-.018,10.295c-.012,9.109,0,10.312.076,10.464a.983.983,0,0,0,.7.526c.2.047,2.581.058,7.854.047l7.562-.017.216-.134a1.428,1.428,0,0,0,.35-.35l.134-.216.018-10.126c.006-6.71-.006-10.2-.047-10.342a.971.971,0,0,0-.549-.648c-.228-.105-.566-.111-7.889-.111S137.9-477.994,137.675-477.889Zm15.364,10.867v9.956l-7.457.018-7.463.012v-19.971l7.463.012,7.457.017Z" transform="translate(-132.101 479.972)" fill="#fff"/>
  <path id="Path_756" data-name="Path 756" d="M196.175-374.883a.485.485,0,0,0,.181.812,17.283,17.283,0,0,0,2.161.064h1.98v3.445h-2.015c-2.2,0-2.307.018-2.423.327-.035.088-.058,1.133-.058,2.476v2.324l.152.181a.461.461,0,0,0,.672.07l.14-.111.029-2.126.029-2.12,1.74-.017,1.734-.012v2.05c0,2.085.012,2.207.228,2.371a40.246,40.246,0,0,0,5.034,0,.467.467,0,0,0,.058-.748l-.169-.169h-4.158v-3.5h2.1c1.974,0,2.1-.006,2.231-.111l.14-.111v-4.987l-.14-.111a.516.516,0,0,0-.677.035l-.146.14v4.152h-3.5v-4.152l-.146-.14L201.2-375h-2.459C196.38-375,196.286-374.994,196.175-374.883Z" transform="translate(-187.53 382.986)" fill="#fff"/>
  <path id="Path_757" data-name="Path 757" d="M230.768-332.835a.6.6,0,0,0-.263.566.79.79,0,0,0,.152.234.474.474,0,0,0,.8-.3c0-.274-.047-.374-.239-.467A.419.419,0,0,0,230.768-332.835Z" transform="translate(-220.008 343.332)" fill="#fff"/>
  <path id="Path_758" data-name="Path 758" d="M316.3-332.568a.489.489,0,0,0,.216.923.484.484,0,0,0,.07-.964A.46.46,0,0,0,316.3-332.568Z" transform="translate(-300.561 343.077)" fill="#fff"/>
  <path id="Path_759" data-name="Path 759" d="M316.368-264.319a.547.547,0,0,0-.368.479.536.536,0,0,0,.374.479.529.529,0,0,0,.561-.3A.494.494,0,0,0,316.368-264.319Z" transform="translate(-300.522 278.775)" fill="#fff"/>
  <path id="Path_760" data-name="Path 760" d="M230.812-263.962a.54.54,0,0,0-.152.572c.076.21.21.292.479.292a.472.472,0,0,0,.315-.806A.578.578,0,0,0,230.812-263.962Z" transform="translate(-220.14 278.5)" fill="#fff"/>
  <path id="Path_761" data-name="Path 761" d="M94.142-50.854a.443.443,0,0,0,.023.677l.169.169h17.25l.169-.169a.443.443,0,0,0,.023-.677l-.14-.146H94.282Z" transform="translate(-91.482 77.906)" fill="#fff"/>
</svg>
