<svg xmlns="http://www.w3.org/2000/svg" width="19.225" height="13.15" viewBox="0 0 19.225 13.15">
  <path id="Icon_awesome-video" data-name="Icon awesome-video" d="M10.638,4.5H1.512A1.512,1.512,0,0,0,0,6.012v9.125A1.512,1.512,0,0,0,1.512,16.65h9.125a1.512,1.512,0,0,0,1.512-1.512V6.012A1.512,1.512,0,0,0,10.638,4.5Zm5.993,1.193L13.163,8.085v4.98l3.468,2.389a1.015,1.015,0,0,0,1.595-.816V6.509A1.015,1.015,0,0,0,16.631,5.693Z" transform="translate(0.5 -4)" fill="none" stroke="#848484" stroke-width="1"/>
</svg>
