<svg xmlns="http://www.w3.org/2000/svg" width="42" height="42" viewBox="0 0 42 42">
  <g id="Group_1440" data-name="Group 1440" transform="translate(-28 -134)">
    <circle id="Ellipse_70" data-name="Ellipse 70" cx="21" cy="21" r="21" transform="translate(28 134)" fill="#e7e2ff"/>
    <g id="user-video" transform="translate(28 -37.7)">
      <path id="Path_27000" data-name="Path 27000" d="M25.265,190a.763.763,0,0,1-.214.357c-.143.17-.3.37-.459.6a6.913,6.913,0,0,0-.459.754,1.771,1.771,0,0,0-.214.835,1.71,1.71,0,0,0,.214.824,5.723,5.723,0,0,0,.459.723,4.991,4.991,0,0,0,.459.54c.143.143.214.234.214.276v2.14a1.607,1.607,0,0,1-.256.785,4.192,4.192,0,0,1-.633.824,3.592,3.592,0,0,1-.835.641,1.8,1.8,0,0,1-.866.256H12.548a2.56,2.56,0,0,1-1.01-.194,2.483,2.483,0,0,1-1.345-1.356A2.627,2.627,0,0,1,10,196.989v-8.782a2.214,2.214,0,0,1,.183-.846,2.721,2.721,0,0,1,.52-.8,2.954,2.954,0,0,1,.8-.611,2.111,2.111,0,0,1,1.01-.245H22.638a2.708,2.708,0,0,1,1.865.723,2.391,2.391,0,0,1,.56.8,2.467,2.467,0,0,1,.2,1V190Zm6.338-1.916V197.4a1.385,1.385,0,0,1-.234.8.791.791,0,0,1-.7.346,1.036,1.036,0,0,1-.419-.121,4.906,4.906,0,0,1-.509-.284c-.17-.108-.328-.218-.478-.326a2.8,2.8,0,0,1-.326-.265q-.265-.225-.8-.774a15.9,15.9,0,0,1-1.091-1.243,11.291,11.291,0,0,1-.968-1.426,2.77,2.77,0,0,1-.419-1.345,2.9,2.9,0,0,1,.447-1.4,10.663,10.663,0,0,1,1.08-1.539,15.067,15.067,0,0,1,1.325-1.4,11.266,11.266,0,0,1,1.162-.968c.121-.082.289-.181.5-.3a1.211,1.211,0,0,1,.56-.174c.366,0,.6.1.714.306a1.589,1.589,0,0,1,.163.754v.035Z" transform="translate(0 0)" fill="#785ffb"/>
    </g>
  </g>
</svg>
