<svg xmlns="http://www.w3.org/2000/svg" width="42.846" height="41.42" viewBox="0 0 42.846 41.42">
  <g id="video" transform="translate(-10 -26.317)">
    <path id="Path_670" data-name="Path 670" d="M10,453.387V439.042c1.36-3.179,3.725-4.578,7.219-4.5,6.108.122,12.225.026,18.337.044,3.231.009,5.47,1.539,6.362,4.578.411,1.408.9,1.176,1.8.546,2.142-1.491,4.32-2.938,6.5-4.377.59-.389,1.2-.949,1.976-.573.809.4.634,1.229.634,1.928q.013,9.588,0,19.172c0,.7.2,1.526-.634,1.919-.791.372-1.377-.214-1.963-.6-2.274-1.5-4.534-3.017-6.8-4.525-.582-.389-1.01-.822-1.395.337-1.194,3.594-3.279,5.072-7.083,5.1-5.946.039-11.892.009-17.839.009C13.7,458.1,11.25,456.644,10,453.387Z" transform="translate(0 -390.37)" fill="#fff"/>
    <path id="Path_671" data-name="Path 671" d="M10,112.526c2.107-3.664,4.621-5.019,7.774-4.2a6.372,6.372,0,0,1,.485,12.255,6.29,6.29,0,0,1-7.323-2.483c-.341-.5-.625-1.049-.936-1.574Z" transform="translate(0 -78.204)" fill="#fff"/>
    <path id="Path_672" data-name="Path 672" d="M389.747,34.654a8.132,8.132,0,1,1-7.975-8.333A8.173,8.173,0,0,1,389.747,34.654Z" transform="translate(-347.594 0)" fill="#fff"/>
  </g>
</svg>
