<svg xmlns="http://www.w3.org/2000/svg" width="50.749" height="50.789" viewBox="0 0 50.749 50.789">
  <g id="wait" transform="translate(-9.998 -9.614)">
    <g id="Group_1545" data-name="Group 1545" transform="translate(9.998 9.614)">
      <path id="Path_26973" data-name="Path 26973" d="M224.939-502.255a10.076,10.076,0,0,0-8.485,8.068,8.144,8.144,0,0,0-.109,2.116c.249,5.187,2.782,10.86,5.992,13.414a7.464,7.464,0,0,0,4.173,1.689c2.911.01,6-2.743,8.287-7.4a19.24,19.24,0,0,0,2.146-8.893C236.524-499.036,230.98-503.189,224.939-502.255Zm4.292,7.353a21.473,21.473,0,0,1,3.04,1.023,11.761,11.761,0,0,0,3.1.785c.845.069,1.043.209.974.656-.03.179-.08.666-.109,1.093a13.965,13.965,0,0,1-.338,1.888,18.987,18.987,0,0,1-4.938,8.823,7.238,7.238,0,0,1-3.5,2.067c-3.368.716-7.134-2.494-9.191-7.84a20.674,20.674,0,0,1-1.123-4.223,1.777,1.777,0,0,1,.258-1.312,6.174,6.174,0,0,1,2.186-2.255c.457-.249.517-.258.457-.1a5.967,5.967,0,0,0-.517,3.13c.069.567.238.934.318.715a23.9,23.9,0,0,1,1.679-2.514,11.092,11.092,0,0,1,2.156-1.888c.04,0-.06.209-.219.467a7.886,7.886,0,0,0-.894,4.521,5.227,5.227,0,0,0,.139.845c.02.03.109-.06.189-.189a26.9,26.9,0,0,1,3.011-4.153,10.511,10.511,0,0,1,2.255-1.789A10.558,10.558,0,0,1,229.231-494.9Z" transform="translate(-205.641 502.386)" fill="#fff"/>
      <path id="Path_26974" data-name="Path 26974" d="M22.956-10.494a41.736,41.736,0,0,0-4.4,1.719C13.3-6.35,11.013-3.638,10.178,1.142a5.618,5.618,0,0,0,.05,3.11A2.256,2.256,0,0,0,11.5,5.374c.308.109,2.693.129,12.877.139,6.866,0,12.49-.03,12.49-.079s-.069-.477-.149-.964A12.629,12.629,0,0,1,40.235-6.321,14.161,14.161,0,0,1,42.958-8.4a1.762,1.762,0,0,0,.467-.308,53.488,53.488,0,0,0-6.737-2.375c-.069,0-.119.149-.119.368a6.573,6.573,0,0,1-.149,1.053,5.727,5.727,0,0,1-5.564,4.471,5.615,5.615,0,0,1-4.014-1.49,5.541,5.541,0,0,1-1.878-3.766l-.069-.716Z" transform="translate(-9.998 36.598)" fill="#fff"/>
      <path id="Path_26975" data-name="Path 26975" d="M549,27.792a11.72,11.72,0,0,0-6.886,19.723,11.952,11.952,0,0,0,6.339,3.428,17.772,17.772,0,0,0,4.173,0,13.113,13.113,0,0,0,4.67-1.977,15.584,15.584,0,0,0,2.8-2.8,13.113,13.113,0,0,0,1.977-4.67,17.771,17.771,0,0,0,0-4.173,11.829,11.829,0,0,0-9.2-9.39A15.823,15.823,0,0,0,549,27.792Zm2.683,2.524.249.239V40.71l-.249.239-.239.249h-7.372l-.239-.249a1.169,1.169,0,0,1,0-1.49l.239-.249h5.872V30.555l.249-.239c.189-.2.338-.249.745-.249S551.491,30.118,551.68,30.316Z" transform="translate(-511.447 -0.277)" fill="#fff"/>
    </g>
  </g>
</svg>
