<svg xmlns="http://www.w3.org/2000/svg" width="24.267" height="17.063" viewBox="0 0 24.267 17.063">
  <path id="Icon_awesome-youtube" data-name="Icon awesome-youtube" d="M24.81,7.17A3.049,3.049,0,0,0,22.665,5.01c-1.892-.51-9.481-.51-9.481-.51S5.6,4.5,3.7,5.01A3.049,3.049,0,0,0,1.557,7.17a31.987,31.987,0,0,0-.507,5.879,31.987,31.987,0,0,0,.507,5.879A3,3,0,0,0,3.7,21.052c1.893.51,9.481.51,9.481.51s7.589,0,9.481-.51a3,3,0,0,0,2.145-2.125,31.987,31.987,0,0,0,.507-5.879A31.987,31.987,0,0,0,24.81,7.17ZM10.7,16.657V9.44l6.343,3.608L10.7,16.657Z" transform="translate(-1.05 -4.5)" fill="#fff"/>
</svg>
